%TF.GenerationSoftware,KiCad,Pcbnew,(6.0.9)*%
%TF.CreationDate,2023-04-25T00:13:10-06:00*%
%TF.ProjectId,WeatherStation,57656174-6865-4725-9374-6174696f6e2e,rev?*%
%TF.SameCoordinates,Original*%
%TF.FileFunction,Copper,L4,Bot*%
%TF.FilePolarity,Positive*%
%FSLAX46Y46*%
G04 Gerber Fmt 4.6, Leading zero omitted, Abs format (unit mm)*
G04 Created by KiCad (PCBNEW (6.0.9)) date 2023-04-25 00:13:10*
%MOMM*%
%LPD*%
G01*
G04 APERTURE LIST*
%TA.AperFunction,ComponentPad*%
%ADD10C,2.000000*%
%TD*%
%TA.AperFunction,ComponentPad*%
%ADD11C,1.600000*%
%TD*%
%TA.AperFunction,ComponentPad*%
%ADD12R,1.300000X1.300000*%
%TD*%
%TA.AperFunction,ComponentPad*%
%ADD13C,1.300000*%
%TD*%
%TA.AperFunction,ComponentPad*%
%ADD14C,1.200000*%
%TD*%
%TA.AperFunction,ComponentPad*%
%ADD15R,1.700000X1.700000*%
%TD*%
%TA.AperFunction,ComponentPad*%
%ADD16O,1.700000X1.700000*%
%TD*%
%TA.AperFunction,ComponentPad*%
%ADD17R,1.980000X3.960000*%
%TD*%
%TA.AperFunction,ComponentPad*%
%ADD18O,1.980000X3.960000*%
%TD*%
%TA.AperFunction,ViaPad*%
%ADD19C,0.800000*%
%TD*%
%TA.AperFunction,Conductor*%
%ADD20C,0.250000*%
%TD*%
%TA.AperFunction,Conductor*%
%ADD21C,0.500000*%
%TD*%
G04 APERTURE END LIST*
D10*
%TO.P,L1,1,1*%
%TO.N,Net-(L1-Pad1)*%
X138799250Y-88200000D03*
%TO.P,L1,2,2*%
%TO.N,Net-(D6-Pad2)*%
X138799250Y-92010000D03*
%TD*%
%TO.P,L2,1,1*%
%TO.N,Net-(L2-Pad1)*%
X137750000Y-113250000D03*
%TO.P,L2,2,2*%
%TO.N,Net-(D7-Pad2)*%
X133940000Y-113250000D03*
%TD*%
D11*
%TO.P,C14,1*%
%TO.N,Wind 12V*%
X151250000Y-100000000D03*
%TO.P,C14,2*%
%TO.N,GND*%
X153750000Y-100000000D03*
%TD*%
D12*
%TO.P,Q2,1,C*%
%TO.N,Main Gnd*%
X147730000Y-124110000D03*
D13*
%TO.P,Q2,2,B*%
%TO.N,Net-(Q2-Pad2)*%
X149000000Y-122840000D03*
%TO.P,Q2,3,E*%
%TO.N,GND*%
X150270000Y-124110000D03*
%TD*%
D12*
%TO.P,Q3,1,C*%
%TO.N,VDDraw*%
X147980000Y-110110000D03*
D13*
%TO.P,Q3,2,B*%
%TO.N,Net-(Q3-Pad2)*%
X149250000Y-108840000D03*
%TO.P,Q3,3,E*%
%TO.N,Wind Pow*%
X150520000Y-110110000D03*
%TD*%
D14*
%TO.P,C15,1*%
%TO.N,Main 5V*%
X142500000Y-120500000D03*
%TO.P,C15,2*%
%TO.N,Main Gnd*%
X144000000Y-120500000D03*
%TD*%
D15*
%TO.P,Air1,1,Pin_1*%
%TO.N,PPM RX*%
X171500000Y-129750000D03*
D16*
%TO.P,Air1,2,Pin_2*%
%TO.N,Main 5V*%
X168960000Y-129750000D03*
%TO.P,Air1,3,Pin_3*%
%TO.N,Main Gnd*%
X166420000Y-129750000D03*
%TD*%
D15*
%TO.P,UV1,1,Pin_1*%
%TO.N,UV*%
X182775000Y-112350000D03*
D16*
%TO.P,UV1,2,Pin_2*%
%TO.N,GND*%
X180235000Y-112350000D03*
%TO.P,UV1,3,Pin_3*%
%TO.N,UV Power*%
X177695000Y-112350000D03*
%TD*%
D10*
%TO.P,Program1,1,A*%
%TO.N,Net-(C11-Pad1)*%
X188500000Y-107500000D03*
X182000000Y-107500000D03*
%TO.P,Program1,2,B*%
%TO.N,GND*%
X182000000Y-103000000D03*
X188500000Y-103000000D03*
%TD*%
D11*
%TO.P,C13,1*%
%TO.N,Wind Pow*%
X151500000Y-91750000D03*
%TO.P,C13,2*%
%TO.N,GND*%
X153500000Y-91750000D03*
%TD*%
%TO.P,C18,1*%
%TO.N,VDDraw*%
X142250000Y-113250000D03*
%TO.P,C18,2*%
%TO.N,Main Gnd*%
X144250000Y-113250000D03*
%TD*%
D12*
%TO.P,Q1,1,E*%
%TO.N,GND*%
X147730000Y-117110000D03*
D13*
%TO.P,Q1,2,C*%
%TO.N,Net-(Q1-Pad2)*%
X149000000Y-115840000D03*
%TO.P,Q1,3,B*%
%TO.N,Net-(Q1-Pad3)*%
X150270000Y-117110000D03*
%TD*%
D17*
%TO.P,SolarIn1,1,Pin_1*%
%TO.N,GND*%
X182365000Y-85050000D03*
D18*
%TO.P,SolarIn1,2,Pin_2*%
%TO.N,Net-(C4-Pad2)*%
X177365000Y-85050000D03*
%TD*%
D17*
%TO.P,Bat1,1,Pin_1*%
%TO.N,GND*%
X169300000Y-85050000D03*
D18*
%TO.P,Bat1,2,Pin_2*%
%TO.N,Vbat*%
X164300000Y-85050000D03*
%TD*%
D15*
%TO.P,Ultra1,1,Pin_1*%
%TO.N,Trig*%
X171500000Y-122750000D03*
D16*
%TO.P,Ultra1,2,Pin_2*%
%TO.N,Echo High*%
X168960000Y-122750000D03*
%TO.P,Ultra1,3,Pin_3*%
%TO.N,Main Gnd*%
X166420000Y-122750000D03*
%TO.P,Ultra1,4,Pin_4*%
%TO.N,Main 5V*%
X163880000Y-122750000D03*
%TD*%
D15*
%TO.P,Wind_Sen1,1,Pin_1*%
%TO.N,Wind*%
X165025000Y-113000000D03*
D16*
%TO.P,Wind_Sen1,2,Pin_2*%
%TO.N,Wind 12V*%
X162485000Y-113000000D03*
%TO.P,Wind_Sen1,3,Pin_3*%
%TO.N,GND*%
X159945000Y-113000000D03*
%TD*%
D10*
%TO.P,Rst1,1,A*%
%TO.N,Net-(C1-Pad2)*%
X139130000Y-135690000D03*
X145630000Y-135690000D03*
%TO.P,Rst1,2,B*%
%TO.N,GND*%
X139130000Y-131190000D03*
X145630000Y-131190000D03*
%TD*%
D15*
%TO.P,JTAG1,1,Pin_1*%
%TO.N,/TMS*%
X163950000Y-134250000D03*
D16*
%TO.P,JTAG1,2,Pin_2*%
%TO.N,/TDI*%
X166490000Y-134250000D03*
%TO.P,JTAG1,3,Pin_3*%
%TO.N,/TDO*%
X169030000Y-134250000D03*
%TO.P,JTAG1,4,Pin_4*%
%TO.N,/TCK*%
X171570000Y-134250000D03*
%TD*%
D15*
%TO.P,UART1,1,Pin_1*%
%TO.N,GND*%
X150500000Y-134250000D03*
D16*
%TO.P,UART1,2,Pin_2*%
%TO.N,/TX*%
X153040000Y-134250000D03*
%TO.P,UART1,3,Pin_3*%
%TO.N,/RX*%
X155580000Y-134250000D03*
%TO.P,UART1,4,Pin_4*%
%TO.N,VDD3.3*%
X158120000Y-134250000D03*
%TD*%
D15*
%TO.P,Rain1,1,Pin_1*%
%TO.N,Rain*%
X169975000Y-113000000D03*
D16*
%TO.P,Rain1,2,Pin_2*%
%TO.N,GND*%
X172515000Y-113000000D03*
%TD*%
D11*
%TO.P,C9,1*%
%TO.N,VDDraw*%
X168750000Y-96500000D03*
%TO.P,C9,2*%
%TO.N,GND*%
X170750000Y-96500000D03*
%TD*%
D19*
%TO.N,GND*%
X159000000Y-105500000D03*
X185250000Y-127250000D03*
X154250000Y-115250000D03*
X188250000Y-124000000D03*
X178500000Y-94500000D03*
X186250000Y-134000000D03*
X135000000Y-102500000D03*
X179500000Y-108750000D03*
X171500000Y-107500000D03*
X188250000Y-129250000D03*
X165250000Y-100750000D03*
X176500000Y-122250000D03*
X134750000Y-99250000D03*
X187750000Y-122000000D03*
X154000000Y-106250000D03*
X134750000Y-129742500D03*
X188250000Y-133750000D03*
X161000000Y-93250000D03*
X185000000Y-101500000D03*
X176500000Y-133750000D03*
X183000000Y-97250000D03*
X178750000Y-101500000D03*
X181500000Y-125000000D03*
X189000000Y-94250000D03*
X178289552Y-117539552D03*
X161750000Y-125500000D03*
X183250000Y-131000000D03*
X188250000Y-126500000D03*
X183941806Y-115691806D03*
X136500000Y-104250000D03*
X178000000Y-106250000D03*
X188250000Y-131750000D03*
%TO.N,Net-(C1-Pad2)*%
X186000000Y-136500000D03*
%TO.N,VDD3.3*%
X156000000Y-130000000D03*
X154500000Y-126500000D03*
X160000000Y-130750000D03*
X174750000Y-109000000D03*
X186250000Y-118750000D03*
%TO.N,Vbat*%
X187250000Y-94500000D03*
X165000000Y-105250000D03*
X167500000Y-99750000D03*
X181750000Y-92750000D03*
X172500000Y-102500000D03*
X175000000Y-96000000D03*
%TO.N,VDDraw*%
X150500000Y-103500000D03*
X164950000Y-98550000D03*
X176750000Y-104250000D03*
%TO.N,/TX*%
X183250000Y-136500000D03*
%TO.N,Battery*%
X185250000Y-115000000D03*
X184750000Y-118500000D03*
%TO.N,Main Gnd*%
X150750000Y-127000000D03*
%TO.N,BME Power*%
X185924500Y-114000000D03*
X184250000Y-114500000D03*
%TO.N,Wind Pow*%
X145250000Y-106000000D03*
%TO.N,Wind 12V*%
X155000000Y-105000000D03*
X144750000Y-101000000D03*
%TO.N,Main 5V*%
X136000000Y-120000000D03*
X158250000Y-127750000D03*
X143750000Y-127250000D03*
%TO.N,Net-(R35-Pad2)*%
X140250000Y-124500000D03*
X138337500Y-123837500D03*
%TD*%
D20*
%TO.N,Net-(C1-Pad2)*%
X186000000Y-136500000D02*
X185325000Y-137175000D01*
X147115000Y-137175000D02*
X145630000Y-135690000D01*
X185325000Y-137175000D02*
X147115000Y-137175000D01*
D21*
%TO.N,VDDraw*%
X176500000Y-104250000D02*
X176750000Y-104250000D01*
X164950000Y-98550000D02*
X160500000Y-103000000D01*
X168750000Y-96500000D02*
X176500000Y-104250000D01*
X151000000Y-103000000D02*
X150500000Y-103500000D01*
X160500000Y-103000000D02*
X151000000Y-103000000D01*
D20*
%TO.N,/TX*%
X155290000Y-136500000D02*
X153040000Y-134250000D01*
X183250000Y-136500000D02*
X155290000Y-136500000D01*
%TO.N,Battery*%
X184750000Y-115500000D02*
X185250000Y-115000000D01*
X184750000Y-118500000D02*
X184750000Y-115500000D01*
%TO.N,Main Gnd*%
X147610000Y-124110000D02*
X144000000Y-120500000D01*
X147730000Y-124110000D02*
X147610000Y-124110000D01*
%TO.N,BME Power*%
X184750000Y-114000000D02*
X184250000Y-114500000D01*
X185924500Y-114000000D02*
X184750000Y-114000000D01*
%TO.N,Main 5V*%
X144250000Y-127750000D02*
X143750000Y-127250000D01*
X168960000Y-129750000D02*
X168960000Y-127830000D01*
X168960000Y-127830000D02*
X163880000Y-122750000D01*
X158250000Y-127750000D02*
X144250000Y-127750000D01*
%TO.N,Net-(R35-Pad2)*%
X140250000Y-124500000D02*
X139000000Y-124500000D01*
X139000000Y-124500000D02*
X138337500Y-123837500D01*
%TD*%
M02*
