%TF.GenerationSoftware,KiCad,Pcbnew,(6.0.9)*%
%TF.CreationDate,2023-04-25T00:13:10-06:00*%
%TF.ProjectId,WeatherStation,57656174-6865-4725-9374-6174696f6e2e,rev?*%
%TF.SameCoordinates,Original*%
%TF.FileFunction,Copper,L1,Top*%
%TF.FilePolarity,Positive*%
%FSLAX46Y46*%
G04 Gerber Fmt 4.6, Leading zero omitted, Abs format (unit mm)*
G04 Created by KiCad (PCBNEW (6.0.9)) date 2023-04-25 00:13:10*
%MOMM*%
%LPD*%
G01*
G04 APERTURE LIST*
G04 Aperture macros list*
%AMRoundRect*
0 Rectangle with rounded corners*
0 $1 Rounding radius*
0 $2 $3 $4 $5 $6 $7 $8 $9 X,Y pos of 4 corners*
0 Add a 4 corners polygon primitive as box body*
4,1,4,$2,$3,$4,$5,$6,$7,$8,$9,$2,$3,0*
0 Add four circle primitives for the rounded corners*
1,1,$1+$1,$2,$3*
1,1,$1+$1,$4,$5*
1,1,$1+$1,$6,$7*
1,1,$1+$1,$8,$9*
0 Add four rect primitives between the rounded corners*
20,1,$1+$1,$2,$3,$4,$5,0*
20,1,$1+$1,$4,$5,$6,$7,0*
20,1,$1+$1,$6,$7,$8,$9,0*
20,1,$1+$1,$8,$9,$2,$3,0*%
%AMFreePoly0*
4,1,15,0.000002,0.605000,0.600000,0.605000,0.603536,0.603536,0.605000,0.600000,0.605000,-0.600000,0.603536,-0.603536,0.600000,-0.605000,-0.600000,-0.605000,-0.603536,-0.603536,-0.605000,-0.600000,-0.605001,0.000000,-0.603536,0.003536,-0.003536,0.603536,0.000000,0.605001,0.000002,0.605000,0.000002,0.605000,$1*%
G04 Aperture macros list end*
%TA.AperFunction,SMDPad,CuDef*%
%ADD10R,1.100000X1.100000*%
%TD*%
%TA.AperFunction,ComponentPad*%
%ADD11C,2.000000*%
%TD*%
%TA.AperFunction,SMDPad,CuDef*%
%ADD12RoundRect,0.237500X-0.250000X-0.237500X0.250000X-0.237500X0.250000X0.237500X-0.250000X0.237500X0*%
%TD*%
%TA.AperFunction,SMDPad,CuDef*%
%ADD13RoundRect,0.237500X-0.300000X-0.237500X0.300000X-0.237500X0.300000X0.237500X-0.300000X0.237500X0*%
%TD*%
%TA.AperFunction,ComponentPad*%
%ADD14C,1.600000*%
%TD*%
%TA.AperFunction,ComponentPad*%
%ADD15R,1.300000X1.300000*%
%TD*%
%TA.AperFunction,ComponentPad*%
%ADD16C,1.300000*%
%TD*%
%TA.AperFunction,SMDPad,CuDef*%
%ADD17RoundRect,0.237500X-0.237500X0.300000X-0.237500X-0.300000X0.237500X-0.300000X0.237500X0.300000X0*%
%TD*%
%TA.AperFunction,SMDPad,CuDef*%
%ADD18RoundRect,0.237500X0.250000X0.237500X-0.250000X0.237500X-0.250000X-0.237500X0.250000X-0.237500X0*%
%TD*%
%TA.AperFunction,SMDPad,CuDef*%
%ADD19RoundRect,0.250000X0.337500X0.475000X-0.337500X0.475000X-0.337500X-0.475000X0.337500X-0.475000X0*%
%TD*%
%TA.AperFunction,SMDPad,CuDef*%
%ADD20RoundRect,0.237500X0.237500X-0.300000X0.237500X0.300000X-0.237500X0.300000X-0.237500X-0.300000X0*%
%TD*%
%TA.AperFunction,SMDPad,CuDef*%
%ADD21RoundRect,0.237500X0.287500X0.237500X-0.287500X0.237500X-0.287500X-0.237500X0.287500X-0.237500X0*%
%TD*%
%TA.AperFunction,SMDPad,CuDef*%
%ADD22RoundRect,0.006000X0.094000X-0.319000X0.094000X0.319000X-0.094000X0.319000X-0.094000X-0.319000X0*%
%TD*%
%TA.AperFunction,SMDPad,CuDef*%
%ADD23R,0.940000X0.300000*%
%TD*%
%TA.AperFunction,SMDPad,CuDef*%
%ADD24RoundRect,0.237500X0.237500X-0.250000X0.237500X0.250000X-0.237500X0.250000X-0.237500X-0.250000X0*%
%TD*%
%TA.AperFunction,ComponentPad*%
%ADD25C,1.200000*%
%TD*%
%TA.AperFunction,SMDPad,CuDef*%
%ADD26RoundRect,0.155000X-0.155000X0.212500X-0.155000X-0.212500X0.155000X-0.212500X0.155000X0.212500X0*%
%TD*%
%TA.AperFunction,ComponentPad*%
%ADD27R,1.700000X1.700000*%
%TD*%
%TA.AperFunction,ComponentPad*%
%ADD28O,1.700000X1.700000*%
%TD*%
%TA.AperFunction,SMDPad,CuDef*%
%ADD29RoundRect,0.027000X-0.218000X-0.198000X0.218000X-0.198000X0.218000X0.198000X-0.218000X0.198000X0*%
%TD*%
%TA.AperFunction,SMDPad,CuDef*%
%ADD30RoundRect,0.025600X-0.454400X-0.134400X0.454400X-0.134400X0.454400X0.134400X-0.454400X0.134400X0*%
%TD*%
%TA.AperFunction,SMDPad,CuDef*%
%ADD31RoundRect,0.025600X0.454400X0.134400X-0.454400X0.134400X-0.454400X-0.134400X0.454400X-0.134400X0*%
%TD*%
%TA.AperFunction,SMDPad,CuDef*%
%ADD32R,2.200000X3.000000*%
%TD*%
%TA.AperFunction,ComponentPad*%
%ADD33R,1.980000X3.960000*%
%TD*%
%TA.AperFunction,ComponentPad*%
%ADD34O,1.980000X3.960000*%
%TD*%
%TA.AperFunction,SMDPad,CuDef*%
%ADD35R,0.400000X1.500000*%
%TD*%
%TA.AperFunction,SMDPad,CuDef*%
%ADD36RoundRect,0.006000X0.294000X-0.769000X0.294000X0.769000X-0.294000X0.769000X-0.294000X-0.769000X0*%
%TD*%
%TA.AperFunction,SMDPad,CuDef*%
%ADD37R,4.900000X2.950000*%
%TD*%
%TA.AperFunction,SMDPad,CuDef*%
%ADD38RoundRect,0.237500X0.237500X-0.287500X0.237500X0.287500X-0.237500X0.287500X-0.237500X-0.287500X0*%
%TD*%
%TA.AperFunction,SMDPad,CuDef*%
%ADD39RoundRect,0.250000X-0.337500X-0.475000X0.337500X-0.475000X0.337500X0.475000X-0.337500X0.475000X0*%
%TD*%
%TA.AperFunction,SMDPad,CuDef*%
%ADD40RoundRect,0.250000X-0.625000X0.400000X-0.625000X-0.400000X0.625000X-0.400000X0.625000X0.400000X0*%
%TD*%
%TA.AperFunction,SMDPad,CuDef*%
%ADD41R,0.220000X0.760000*%
%TD*%
%TA.AperFunction,SMDPad,CuDef*%
%ADD42R,1.500000X0.900000*%
%TD*%
%TA.AperFunction,SMDPad,CuDef*%
%ADD43RoundRect,0.237500X0.300000X0.237500X-0.300000X0.237500X-0.300000X-0.237500X0.300000X-0.237500X0*%
%TD*%
%TA.AperFunction,SMDPad,CuDef*%
%ADD44R,0.400000X0.800000*%
%TD*%
%TA.AperFunction,SMDPad,CuDef*%
%ADD45R,0.800000X0.400000*%
%TD*%
%TA.AperFunction,SMDPad,CuDef*%
%ADD46R,1.200000X1.200000*%
%TD*%
%TA.AperFunction,SMDPad,CuDef*%
%ADD47FreePoly0,270.000000*%
%TD*%
%TA.AperFunction,SMDPad,CuDef*%
%ADD48R,0.800000X0.800000*%
%TD*%
%TA.AperFunction,SMDPad,CuDef*%
%ADD49RoundRect,0.237500X-0.237500X0.250000X-0.237500X-0.250000X0.237500X-0.250000X0.237500X0.250000X0*%
%TD*%
%TA.AperFunction,ViaPad*%
%ADD50C,0.800000*%
%TD*%
%TA.AperFunction,Conductor*%
%ADD51C,0.250000*%
%TD*%
%TA.AperFunction,Conductor*%
%ADD52C,0.500000*%
%TD*%
G04 APERTURE END LIST*
D10*
%TO.P,D6,1,K*%
%TO.N,Wind 12V*%
X144650000Y-103750000D03*
%TO.P,D6,2,A*%
%TO.N,Net-(D6-Pad2)*%
X141850000Y-103750000D03*
%TD*%
%TO.P,D7,1,K*%
%TO.N,Main 5V*%
X136500000Y-121500000D03*
%TO.P,D7,2,A*%
%TO.N,Net-(D7-Pad2)*%
X133700000Y-121500000D03*
%TD*%
D11*
%TO.P,L1,1,1*%
%TO.N,Net-(L1-Pad1)*%
X138799250Y-88200000D03*
%TO.P,L1,2,2*%
%TO.N,Net-(D6-Pad2)*%
X138799250Y-92010000D03*
%TD*%
%TO.P,L2,1,1*%
%TO.N,Net-(L2-Pad1)*%
X137750000Y-113250000D03*
%TO.P,L2,2,2*%
%TO.N,Net-(D7-Pad2)*%
X133940000Y-113250000D03*
%TD*%
D12*
%TO.P,R34,1*%
%TO.N,Net-(R33-Pad1)*%
X148425000Y-128500000D03*
%TO.P,R34,2*%
%TO.N,Main Gnd*%
X150250000Y-128500000D03*
%TD*%
D13*
%TO.P,C4,1*%
%TO.N,GND*%
X178637500Y-96250000D03*
%TO.P,C4,2*%
%TO.N,Net-(C4-Pad2)*%
X180362500Y-96250000D03*
%TD*%
D14*
%TO.P,C14,1*%
%TO.N,Wind 12V*%
X151250000Y-100000000D03*
%TO.P,C14,2*%
%TO.N,GND*%
X153750000Y-100000000D03*
%TD*%
D12*
%TO.P,R30,1*%
%TO.N,GND*%
X137837500Y-104250000D03*
%TO.P,R30,2*%
%TO.N,Net-(R29-Pad1)*%
X139662500Y-104250000D03*
%TD*%
D15*
%TO.P,Q2,1,C*%
%TO.N,Main Gnd*%
X147730000Y-124110000D03*
D16*
%TO.P,Q2,2,B*%
%TO.N,Net-(Q2-Pad2)*%
X149000000Y-122840000D03*
%TO.P,Q2,3,E*%
%TO.N,GND*%
X150270000Y-124110000D03*
%TD*%
D17*
%TO.P,C12,1*%
%TO.N,BME Power*%
X179500000Y-115887500D03*
%TO.P,C12,2*%
%TO.N,GND*%
X179500000Y-117612500D03*
%TD*%
D18*
%TO.P,R25,1*%
%TO.N,Wind Control*%
X156162500Y-119250000D03*
%TO.P,R25,2*%
%TO.N,Net-(Q1-Pad3)*%
X154337500Y-119250000D03*
%TD*%
D13*
%TO.P,C5,1*%
%TO.N,GND*%
X178637500Y-93000000D03*
%TO.P,C5,2*%
%TO.N,Vbat*%
X180362500Y-93000000D03*
%TD*%
D19*
%TO.P,C2,1*%
%TO.N,GND*%
X189287500Y-117000000D03*
%TO.P,C2,2*%
%TO.N,VDD3.3*%
X187212500Y-117000000D03*
%TD*%
D20*
%TO.P,C17,1*%
%TO.N,Net-(C17-Pad1)*%
X133000000Y-128000000D03*
%TO.P,C17,2*%
%TO.N,Main Gnd*%
X133000000Y-126275000D03*
%TD*%
D18*
%TO.P,R33,1*%
%TO.N,Net-(R33-Pad1)*%
X145912500Y-128500000D03*
%TO.P,R33,2*%
%TO.N,Main 5V*%
X144087500Y-128500000D03*
%TD*%
D21*
%TO.P,Wind1,1,K*%
%TO.N,Net-(R28-Pad1)*%
X156125000Y-110500000D03*
%TO.P,Wind1,2,A*%
%TO.N,Wind Pow*%
X154375000Y-110500000D03*
%TD*%
D13*
%TO.P,C7,1*%
%TO.N,GND*%
X159387500Y-106750000D03*
%TO.P,C7,2*%
%TO.N,Net-(C7-Pad2)*%
X161112500Y-106750000D03*
%TD*%
D22*
%TO.P,U2,1,VOUT*%
%TO.N,VDD3.3*%
X176350000Y-106625000D03*
%TO.P,U2,2,VOUT*%
X176750000Y-106625000D03*
%TO.P,U2,3,GND*%
%TO.N,GND*%
X177150000Y-106625000D03*
%TO.P,U2,4,EN*%
%TO.N,VDDraw*%
X177150000Y-105375000D03*
%TO.P,U2,5*%
%TO.N,N/C*%
X176750000Y-105375000D03*
%TO.P,U2,6,VIN*%
%TO.N,VDDraw*%
X176350000Y-105375000D03*
D23*
%TO.P,U2,7,GND*%
%TO.N,GND*%
X176750000Y-106000000D03*
%TD*%
D24*
%TO.P,R4,1*%
%TO.N,GND*%
X178500000Y-100162500D03*
%TO.P,R4,2*%
%TO.N,Net-(R4-Pad2)*%
X178500000Y-98337500D03*
%TD*%
D12*
%TO.P,R9,1*%
%TO.N,Net-(C11-Pad1)*%
X187337500Y-111500000D03*
%TO.P,R9,2*%
%TO.N,Net-(R9-Pad2)*%
X189162500Y-111500000D03*
%TD*%
D15*
%TO.P,Q3,1,C*%
%TO.N,VDDraw*%
X147980000Y-110110000D03*
D16*
%TO.P,Q3,2,B*%
%TO.N,Net-(Q3-Pad2)*%
X149250000Y-108840000D03*
%TO.P,Q3,3,E*%
%TO.N,Wind Pow*%
X150520000Y-110110000D03*
%TD*%
D18*
%TO.P,R19,1*%
%TO.N,Net-(Main1-Pad1)*%
X156325000Y-122250000D03*
%TO.P,R19,2*%
%TO.N,Main Gnd*%
X154500000Y-122250000D03*
%TD*%
%TO.P,R16,1*%
%TO.N,GND*%
X160412500Y-125250000D03*
%TO.P,R16,2*%
%TO.N,Net-(Q2-Pad2)*%
X158587500Y-125250000D03*
%TD*%
%TO.P,R28,1*%
%TO.N,Net-(R28-Pad1)*%
X156162500Y-107500000D03*
%TO.P,R28,2*%
%TO.N,GND*%
X154337500Y-107500000D03*
%TD*%
D25*
%TO.P,C15,1*%
%TO.N,Main 5V*%
X142500000Y-120500000D03*
%TO.P,C15,2*%
%TO.N,Main Gnd*%
X144000000Y-120500000D03*
%TD*%
D18*
%TO.P,R35,1*%
%TO.N,Net-(L2-Pad1)*%
X140162500Y-122750000D03*
%TO.P,R35,2*%
%TO.N,Net-(R35-Pad2)*%
X138337500Y-122750000D03*
%TD*%
D12*
%TO.P,R18,1*%
%TO.N,Vbat*%
X172662500Y-103750000D03*
%TO.P,R18,2*%
%TO.N,Battery*%
X174487500Y-103750000D03*
%TD*%
D18*
%TO.P,R1,1*%
%TO.N,Net-(C4-Pad2)*%
X170575000Y-103750000D03*
%TO.P,R1,2*%
%TO.N,Solar*%
X168750000Y-103750000D03*
%TD*%
D26*
%TO.P,C16,1*%
%TO.N,Net-(C16-Pad1)*%
X134250000Y-100432500D03*
%TO.P,C16,2*%
%TO.N,GND*%
X134250000Y-101567500D03*
%TD*%
D18*
%TO.P,R23,1*%
%TO.N,BME Power*%
X189162500Y-115000000D03*
%TO.P,R23,2*%
%TO.N,SCL*%
X187337500Y-115000000D03*
%TD*%
D21*
%TO.P,Main1,1,K*%
%TO.N,Net-(Main1-Pad1)*%
X156125000Y-125250000D03*
%TO.P,Main1,2,A*%
%TO.N,VDD3.3*%
X154375000Y-125250000D03*
%TD*%
D27*
%TO.P,Air1,1,Pin_1*%
%TO.N,PPM RX*%
X171500000Y-129750000D03*
D28*
%TO.P,Air1,2,Pin_2*%
%TO.N,Main 5V*%
X168960000Y-129750000D03*
%TO.P,Air1,3,Pin_3*%
%TO.N,Main Gnd*%
X166420000Y-129750000D03*
%TD*%
D21*
%TO.P,Short1,1,K*%
%TO.N,Net-(R12-Pad2)*%
X170625000Y-100500000D03*
%TO.P,Short1,2,A*%
%TO.N,Vbat*%
X168875000Y-100500000D03*
%TD*%
D12*
%TO.P,R27,1*%
%TO.N,VDDraw*%
X147087500Y-104750000D03*
%TO.P,R27,2*%
%TO.N,Net-(Q3-Pad2)*%
X148912500Y-104750000D03*
%TD*%
D27*
%TO.P,UV1,1,Pin_1*%
%TO.N,UV*%
X182775000Y-112350000D03*
D28*
%TO.P,UV1,2,Pin_2*%
%TO.N,GND*%
X180235000Y-112350000D03*
%TO.P,UV1,3,Pin_3*%
%TO.N,UV Power*%
X177695000Y-112350000D03*
%TD*%
D21*
%TO.P,First1,1,K*%
%TO.N,Net-(First1-Pad1)*%
X188875000Y-95750000D03*
%TO.P,First1,2,A*%
%TO.N,Vbat*%
X187125000Y-95750000D03*
%TD*%
D11*
%TO.P,Program1,1,A*%
%TO.N,Net-(C11-Pad1)*%
X188500000Y-107500000D03*
X182000000Y-107500000D03*
%TO.P,Program1,2,B*%
%TO.N,GND*%
X182000000Y-103000000D03*
X188500000Y-103000000D03*
%TD*%
D14*
%TO.P,C13,1*%
%TO.N,Wind Pow*%
X151500000Y-91750000D03*
%TO.P,C13,2*%
%TO.N,GND*%
X153500000Y-91750000D03*
%TD*%
D24*
%TO.P,R14,1*%
%TO.N,Net-(R14-Pad1)*%
X159750000Y-95912500D03*
%TO.P,R14,2*%
%TO.N,GND*%
X159750000Y-94087500D03*
%TD*%
D12*
%TO.P,R36,1*%
%TO.N,Net-(L2-Pad1)*%
X142337500Y-125000000D03*
%TO.P,R36,2*%
%TO.N,VDDraw*%
X144162500Y-125000000D03*
%TD*%
D14*
%TO.P,C18,1*%
%TO.N,VDDraw*%
X142250000Y-113250000D03*
%TO.P,C18,2*%
%TO.N,Main Gnd*%
X144250000Y-113250000D03*
%TD*%
D18*
%TO.P,R10,1*%
%TO.N,Vbat*%
X164912500Y-106750000D03*
%TO.P,R10,2*%
%TO.N,Net-(R10-Pad2)*%
X163087500Y-106750000D03*
%TD*%
D29*
%TO.P,U5,1,GND*%
%TO.N,GND*%
X183220000Y-116525000D03*
%TO.P,U5,2,CSB*%
%TO.N,BME Power*%
X183220000Y-117175000D03*
%TO.P,U5,3,SDI*%
%TO.N,SDA*%
X183220000Y-117825000D03*
%TO.P,U5,4,SCK*%
%TO.N,SCL*%
X183220000Y-118475000D03*
%TO.P,U5,5,SDO*%
%TO.N,GND*%
X181280000Y-118475000D03*
%TO.P,U5,6,VDDIO*%
%TO.N,BME Power*%
X181280000Y-117825000D03*
%TO.P,U5,7,GND*%
%TO.N,GND*%
X181280000Y-117175000D03*
%TO.P,U5,8,VDD*%
%TO.N,BME Power*%
X181280000Y-116525000D03*
%TD*%
D18*
%TO.P,R6,1*%
%TO.N,GND*%
X188912500Y-93000000D03*
%TO.P,R6,2*%
%TO.N,Net-(R6-Pad2)*%
X187087500Y-93000000D03*
%TD*%
D20*
%TO.P,C11,1*%
%TO.N,Net-(C11-Pad1)*%
X179250000Y-104612500D03*
%TO.P,C11,2*%
%TO.N,GND*%
X179250000Y-102887500D03*
%TD*%
D30*
%TO.P,U7,1,SWITCH_COLLECTOR*%
%TO.N,Net-(D7-Pad2)*%
X135502500Y-125550000D03*
%TO.P,U7,2,SWITCH_EMITTER*%
%TO.N,Main Gnd*%
X135502500Y-126350000D03*
%TO.P,U7,3,TIMING_CAPACITOR*%
%TO.N,Net-(C17-Pad1)*%
X135502500Y-127150000D03*
%TO.P,U7,4,GND*%
%TO.N,Main Gnd*%
X135502500Y-127950000D03*
D31*
%TO.P,U7,5,COMPARATOR_INVERTING_INPUT*%
%TO.N,Net-(R33-Pad1)*%
X139272500Y-127950000D03*
%TO.P,U7,6,VCC*%
%TO.N,VDDraw*%
X139272500Y-127150000D03*
%TO.P,U7,7,IPK*%
%TO.N,Net-(L2-Pad1)*%
X139272500Y-126350000D03*
%TO.P,U7,8,DRIVER_COLLECTOR*%
%TO.N,Net-(R35-Pad2)*%
X139272500Y-125550000D03*
D32*
%TO.P,U7,9,EXP*%
%TO.N,Main Gnd*%
X137387500Y-126750000D03*
%TD*%
D20*
%TO.P,C10,1*%
%TO.N,Net-(C1-Pad2)*%
X136250000Y-131855000D03*
%TO.P,C10,2*%
%TO.N,GND*%
X136250000Y-130130000D03*
%TD*%
D15*
%TO.P,Q1,1,E*%
%TO.N,GND*%
X147730000Y-117110000D03*
D16*
%TO.P,Q1,2,C*%
%TO.N,Net-(Q1-Pad2)*%
X149000000Y-115840000D03*
%TO.P,Q1,3,B*%
%TO.N,Net-(Q1-Pad3)*%
X150270000Y-117110000D03*
%TD*%
D33*
%TO.P,SolarIn1,1,Pin_1*%
%TO.N,GND*%
X182365000Y-85050000D03*
D34*
%TO.P,SolarIn1,2,Pin_2*%
%TO.N,Net-(C4-Pad2)*%
X177365000Y-85050000D03*
%TD*%
D35*
%TO.P,U8,1,VCC(A)*%
%TO.N,VDD3.3*%
X161350000Y-130330000D03*
%TO.P,U8,2,GND*%
%TO.N,Main Gnd*%
X162000000Y-130330000D03*
%TO.P,U8,3,A*%
%TO.N,Echo*%
X162650000Y-130330000D03*
%TO.P,U8,4,B*%
%TO.N,Echo High*%
X162650000Y-127670000D03*
%TO.P,U8,5,DIR*%
%TO.N,Main Gnd*%
X162000000Y-127670000D03*
%TO.P,U8,6,VCC(B)*%
%TO.N,Main 5V*%
X161350000Y-127670000D03*
%TD*%
D20*
%TO.P,C6,1*%
%TO.N,Vbat*%
X166000000Y-103862500D03*
%TO.P,C6,2*%
%TO.N,GND*%
X166000000Y-102137500D03*
%TD*%
D33*
%TO.P,Bat1,1,Pin_1*%
%TO.N,GND*%
X169300000Y-85050000D03*
D34*
%TO.P,Bat1,2,Pin_2*%
%TO.N,Vbat*%
X164300000Y-85050000D03*
%TD*%
D36*
%TO.P,U1,1,GND*%
%TO.N,GND*%
X160007500Y-103950000D03*
%TO.P,U1,2,DVDT*%
%TO.N,Net-(C7-Pad2)*%
X161277500Y-103950000D03*
%TO.P,U1,3,EN/UVLO*%
%TO.N,Net-(R10-Pad2)*%
X162547500Y-103950000D03*
%TO.P,U1,4,IN*%
%TO.N,Vbat*%
X163817500Y-103950000D03*
%TO.P,U1,5,OUT*%
%TO.N,VDDraw*%
X163817500Y-98550000D03*
%TO.P,U1,6,FLT*%
%TO.N,Net-(R12-Pad1)*%
X162547500Y-98550000D03*
%TO.P,U1,7,ILM*%
%TO.N,Net-(R13-Pad1)*%
X161277500Y-98550000D03*
%TO.P,U1,8,OVCSEL*%
%TO.N,Net-(R14-Pad1)*%
X160007500Y-98550000D03*
D37*
%TO.P,U1,9*%
%TO.N,N/C*%
X161912500Y-101250000D03*
%TD*%
D38*
%TO.P,Charging1,1,K*%
%TO.N,Net-(Charging1-Pad1)*%
X175000000Y-99125000D03*
%TO.P,Charging1,2,A*%
%TO.N,Vbat*%
X175000000Y-97375000D03*
%TD*%
D39*
%TO.P,C8,1*%
%TO.N,VDD3.3*%
X176175000Y-108750000D03*
%TO.P,C8,2*%
%TO.N,GND*%
X178250000Y-108750000D03*
%TD*%
D24*
%TO.P,R8,1*%
%TO.N,Net-(Charging1-Pad1)*%
X181500000Y-100162500D03*
%TO.P,R8,2*%
%TO.N,Net-(R8-Pad2)*%
X181500000Y-98337500D03*
%TD*%
D18*
%TO.P,R7,1*%
%TO.N,Net-(First1-Pad1)*%
X188912500Y-99000000D03*
%TO.P,R7,2*%
%TO.N,Net-(R7-Pad2)*%
X187087500Y-99000000D03*
%TD*%
D40*
%TO.P,R32,1*%
%TO.N,Net-(L1-Pad1)*%
X146750000Y-97650000D03*
%TO.P,R32,2*%
%TO.N,Wind Pow*%
X146750000Y-100750000D03*
%TD*%
D18*
%TO.P,R22,1*%
%TO.N,BME Power*%
X189162500Y-113250000D03*
%TO.P,R22,2*%
%TO.N,SDA*%
X187337500Y-113250000D03*
%TD*%
D41*
%TO.P,U4,1,IN*%
%TO.N,Net-(C4-Pad2)*%
X182200000Y-95985000D03*
%TO.P,U4,2,ISET*%
%TO.N,Net-(R4-Pad2)*%
X182600000Y-95985000D03*
%TO.P,U4,3,VSS*%
%TO.N,GND*%
X183000000Y-95985000D03*
%TO.P,U4,4,PRETERM*%
%TO.N,unconnected-(U4-Pad4)*%
X183400000Y-95985000D03*
%TO.P,U4,5,~{PG}*%
%TO.N,Net-(R8-Pad2)*%
X183800000Y-95985000D03*
%TO.P,U4,6*%
%TO.N,N/C*%
X183800000Y-94015000D03*
%TO.P,U4,7,ISET2*%
%TO.N,Net-(R5-Pad2)*%
X183400000Y-94015000D03*
%TO.P,U4,8,~{CHG}*%
%TO.N,Net-(R7-Pad2)*%
X183000000Y-94015000D03*
%TO.P,U4,9,TS*%
%TO.N,Net-(R6-Pad2)*%
X182600000Y-94015000D03*
%TO.P,U4,10,OUT*%
%TO.N,Vbat*%
X182200000Y-94015000D03*
D42*
%TO.P,U4,11,EXP*%
%TO.N,GND*%
X183000000Y-95000000D03*
%TD*%
D24*
%TO.P,R13,1*%
%TO.N,Net-(R13-Pad1)*%
X162500000Y-95912500D03*
%TO.P,R13,2*%
%TO.N,GND*%
X162500000Y-94087500D03*
%TD*%
D27*
%TO.P,Ultra1,1,Pin_1*%
%TO.N,Trig*%
X171500000Y-122750000D03*
D28*
%TO.P,Ultra1,2,Pin_2*%
%TO.N,Echo High*%
X168960000Y-122750000D03*
%TO.P,Ultra1,3,Pin_3*%
%TO.N,Main Gnd*%
X166420000Y-122750000D03*
%TO.P,Ultra1,4,Pin_4*%
%TO.N,Main 5V*%
X163880000Y-122750000D03*
%TD*%
D43*
%TO.P,C3,1*%
%TO.N,GND*%
X189362500Y-119000000D03*
%TO.P,C3,2*%
%TO.N,VDD3.3*%
X187637500Y-119000000D03*
%TD*%
D27*
%TO.P,Wind_Sen1,1,Pin_1*%
%TO.N,Wind*%
X165025000Y-113000000D03*
D28*
%TO.P,Wind_Sen1,2,Pin_2*%
%TO.N,Wind 12V*%
X162485000Y-113000000D03*
%TO.P,Wind_Sen1,3,Pin_3*%
%TO.N,GND*%
X159945000Y-113000000D03*
%TD*%
D11*
%TO.P,Rst1,1,A*%
%TO.N,Net-(C1-Pad2)*%
X139130000Y-135690000D03*
X145630000Y-135690000D03*
%TO.P,Rst1,2,B*%
%TO.N,GND*%
X139130000Y-131190000D03*
X145630000Y-131190000D03*
%TD*%
D17*
%TO.P,C1,1*%
%TO.N,GND*%
X133250000Y-130130000D03*
%TO.P,C1,2*%
%TO.N,Net-(C1-Pad2)*%
X133250000Y-131855000D03*
%TD*%
D27*
%TO.P,JTAG1,1,Pin_1*%
%TO.N,/TMS*%
X163950000Y-134250000D03*
D28*
%TO.P,JTAG1,2,Pin_2*%
%TO.N,/TDI*%
X166490000Y-134250000D03*
%TO.P,JTAG1,3,Pin_3*%
%TO.N,/TDO*%
X169030000Y-134250000D03*
%TO.P,JTAG1,4,Pin_4*%
%TO.N,/TCK*%
X171570000Y-134250000D03*
%TD*%
D12*
%TO.P,R29,1*%
%TO.N,Net-(R29-Pad1)*%
X141587500Y-101000000D03*
%TO.P,R29,2*%
%TO.N,Wind 12V*%
X143412500Y-101000000D03*
%TD*%
D30*
%TO.P,U6,1,SWITCH_COLLECTOR*%
%TO.N,Net-(D6-Pad2)*%
X135865000Y-98550000D03*
%TO.P,U6,2,SWITCH_EMITTER*%
%TO.N,GND*%
X135865000Y-99350000D03*
%TO.P,U6,3,TIMING_CAPACITOR*%
%TO.N,Net-(C16-Pad1)*%
X135865000Y-100150000D03*
%TO.P,U6,4,GND*%
%TO.N,GND*%
X135865000Y-100950000D03*
D31*
%TO.P,U6,5,COMPARATOR_INVERTING_INPUT*%
%TO.N,Net-(R29-Pad1)*%
X139635000Y-100950000D03*
%TO.P,U6,6,VCC*%
%TO.N,Wind Pow*%
X139635000Y-100150000D03*
%TO.P,U6,7,IPK*%
%TO.N,Net-(L1-Pad1)*%
X139635000Y-99350000D03*
%TO.P,U6,8,DRIVER_COLLECTOR*%
%TO.N,Net-(R31-Pad2)*%
X139635000Y-98550000D03*
D32*
%TO.P,U6,9,EXP*%
%TO.N,GND*%
X137750000Y-99750000D03*
%TD*%
D24*
%TO.P,R5,1*%
%TO.N,GND*%
X184500000Y-100162500D03*
%TO.P,R5,2*%
%TO.N,Net-(R5-Pad2)*%
X184500000Y-98337500D03*
%TD*%
D44*
%TO.P,U3,1,GND*%
%TO.N,GND*%
X188300000Y-121037500D03*
%TO.P,U3,2,GND*%
X187450000Y-121037500D03*
%TO.P,U3,3,3V3*%
%TO.N,VDD3.3*%
X186600000Y-121037500D03*
%TO.P,U3,4,IO0*%
%TO.N,Net-(R9-Pad2)*%
X185750000Y-121037500D03*
%TO.P,U3,5,IO1*%
%TO.N,Battery*%
X184900000Y-121037500D03*
%TO.P,U3,6,IO2*%
%TO.N,SCL*%
X184050000Y-121037500D03*
%TO.P,U3,7,IO3*%
%TO.N,SDA*%
X183200000Y-121037500D03*
%TO.P,U3,8,IO4*%
%TO.N,BME Power*%
X182350000Y-121037500D03*
%TO.P,U3,9,IO5*%
%TO.N,UV*%
X181500000Y-121037500D03*
%TO.P,U3,10,IO6*%
%TO.N,UV Power*%
X180650000Y-121037500D03*
%TO.P,U3,11,IO7*%
%TO.N,Solar*%
X179800000Y-121037500D03*
%TO.P,U3,12,IO8*%
%TO.N,Rain*%
X178950000Y-121037500D03*
%TO.P,U3,13,IO9*%
%TO.N,Rain Power*%
X178100000Y-121037500D03*
%TO.P,U3,14,IO10*%
%TO.N,Wind*%
X177250000Y-121037500D03*
%TO.P,U3,15,IO11*%
%TO.N,Wind Control*%
X176400000Y-121037500D03*
D45*
%TO.P,U3,16,IO12*%
%TO.N,Main Control*%
X175350000Y-122087500D03*
%TO.P,U3,17,IO13*%
%TO.N,Trig*%
X175350000Y-122937500D03*
%TO.P,U3,18,IO14*%
%TO.N,Echo*%
X175350000Y-123787500D03*
%TO.P,U3,19,IO15*%
%TO.N,unconnected-(U3-Pad19)*%
X175350000Y-124637500D03*
%TO.P,U3,20,IO16*%
%TO.N,unconnected-(U3-Pad20)*%
X175350000Y-125487500D03*
%TO.P,U3,21,IO17*%
%TO.N,PPM RX*%
X175350000Y-126337500D03*
%TO.P,U3,22,IO18*%
%TO.N,PPM TX*%
X175350000Y-127187500D03*
%TO.P,U3,23,IO19*%
%TO.N,unconnected-(U3-Pad23)*%
X175350000Y-128037500D03*
%TO.P,U3,24,IO20*%
%TO.N,unconnected-(U3-Pad24)*%
X175350000Y-128887500D03*
%TO.P,U3,25,IO21*%
%TO.N,unconnected-(U3-Pad25)*%
X175350000Y-129737500D03*
%TO.P,U3,26,IO26*%
%TO.N,unconnected-(U3-Pad26)*%
X175350000Y-130587500D03*
%TO.P,U3,27,NC*%
%TO.N,unconnected-(U3-Pad27)*%
X175350000Y-131437500D03*
%TO.P,U3,28,IO33*%
%TO.N,unconnected-(U3-Pad28)*%
X175350000Y-132287500D03*
%TO.P,U3,29,IO34*%
%TO.N,unconnected-(U3-Pad29)*%
X175350000Y-133137500D03*
%TO.P,U3,30,GND*%
%TO.N,GND*%
X175350000Y-133987500D03*
D44*
%TO.P,U3,31,IO35*%
%TO.N,unconnected-(U3-Pad31)*%
X176400000Y-135037500D03*
%TO.P,U3,32,IO36*%
%TO.N,unconnected-(U3-Pad32)*%
X177250000Y-135037500D03*
%TO.P,U3,33,IO37*%
%TO.N,unconnected-(U3-Pad33)*%
X178100000Y-135037500D03*
%TO.P,U3,34,IO38*%
%TO.N,unconnected-(U3-Pad34)*%
X178950000Y-135037500D03*
%TO.P,U3,35,IO39*%
%TO.N,/TCK*%
X179800000Y-135037500D03*
%TO.P,U3,36,IO40*%
%TO.N,/TDO*%
X180650000Y-135037500D03*
%TO.P,U3,37,IO41*%
%TO.N,/TDI*%
X181500000Y-135037500D03*
%TO.P,U3,38,IO42*%
%TO.N,/TMS*%
X182350000Y-135037500D03*
%TO.P,U3,39,TXD0*%
%TO.N,/RX*%
X183200000Y-135037500D03*
%TO.P,U3,40,RXD0*%
%TO.N,/TX*%
X184050000Y-135037500D03*
%TO.P,U3,41,IO45*%
%TO.N,unconnected-(U3-Pad41)*%
X184900000Y-135037500D03*
%TO.P,U3,42,GND*%
%TO.N,GND*%
X185750000Y-135037500D03*
%TO.P,U3,43,GND*%
X186600000Y-135037500D03*
%TO.P,U3,44,IO46*%
%TO.N,unconnected-(U3-Pad44)*%
X187450000Y-135037500D03*
%TO.P,U3,45,EN*%
%TO.N,Net-(C1-Pad2)*%
X188300000Y-135037500D03*
D45*
%TO.P,U3,46,GND*%
%TO.N,GND*%
X189350000Y-133987500D03*
%TO.P,U3,47,GND*%
X189350000Y-133137500D03*
%TO.P,U3,48,GND*%
X189350000Y-132287500D03*
%TO.P,U3,49,GND*%
X189350000Y-131437500D03*
%TO.P,U3,50,GND*%
X189350000Y-130587500D03*
%TO.P,U3,51,GND*%
X189350000Y-129737500D03*
%TO.P,U3,52,GND*%
X189350000Y-128887500D03*
%TO.P,U3,53,GND*%
X189350000Y-128037500D03*
%TO.P,U3,54,GND*%
X189350000Y-127187500D03*
%TO.P,U3,55,GND*%
X189350000Y-126337500D03*
%TO.P,U3,56,GND*%
X189350000Y-125487500D03*
%TO.P,U3,57,GND*%
X189350000Y-124637500D03*
%TO.P,U3,58,GND*%
X189350000Y-123787500D03*
%TO.P,U3,59,GND*%
X189350000Y-122937500D03*
%TO.P,U3,60,GND*%
X189350000Y-122087500D03*
D46*
%TO.P,U3,61,GND*%
X182350000Y-128037500D03*
%TO.P,U3,61_1,GND*%
X182350000Y-126387500D03*
%TO.P,U3,61_2,GND*%
X180700000Y-126387500D03*
%TO.P,U3,61_3,GND*%
X180700000Y-128037500D03*
%TO.P,U3,61_4,GND*%
X180700000Y-129687500D03*
%TO.P,U3,61_5,GND*%
X182350000Y-129687500D03*
%TO.P,U3,61_6,GND*%
X184000000Y-129687500D03*
%TO.P,U3,61_7,GND*%
X184000000Y-128037500D03*
D47*
%TO.P,U3,61_8,GND*%
X184000000Y-126387500D03*
D48*
%TO.P,U3,62,GND*%
X189350000Y-121037500D03*
%TO.P,U3,63,GND*%
X175350000Y-121037500D03*
%TO.P,U3,64,GND*%
X175350000Y-135037500D03*
%TO.P,U3,65,GND*%
X189350000Y-135037500D03*
%TD*%
D12*
%TO.P,R2,1*%
%TO.N,Net-(C1-Pad2)*%
X152837500Y-130000000D03*
%TO.P,R2,2*%
%TO.N,VDD3.3*%
X154662500Y-130000000D03*
%TD*%
D18*
%TO.P,R21,1*%
%TO.N,Rain*%
X173912500Y-117000000D03*
%TO.P,R21,2*%
%TO.N,Rain Power*%
X172087500Y-117000000D03*
%TD*%
D49*
%TO.P,R11,1*%
%TO.N,Net-(R10-Pad2)*%
X157750000Y-102587500D03*
%TO.P,R11,2*%
%TO.N,GND*%
X157750000Y-104412500D03*
%TD*%
D27*
%TO.P,UART1,1,Pin_1*%
%TO.N,GND*%
X150500000Y-134250000D03*
D28*
%TO.P,UART1,2,Pin_2*%
%TO.N,/TX*%
X153040000Y-134250000D03*
%TO.P,UART1,3,Pin_3*%
%TO.N,/RX*%
X155580000Y-134250000D03*
%TO.P,UART1,4,Pin_4*%
%TO.N,VDD3.3*%
X158120000Y-134250000D03*
%TD*%
D18*
%TO.P,R26,1*%
%TO.N,Net-(Q1-Pad2)*%
X156250000Y-113500000D03*
%TO.P,R26,2*%
%TO.N,Net-(Q3-Pad2)*%
X154425000Y-113500000D03*
%TD*%
%TO.P,R31,1*%
%TO.N,Net-(L1-Pad1)*%
X143412500Y-97750000D03*
%TO.P,R31,2*%
%TO.N,Net-(R31-Pad2)*%
X141587500Y-97750000D03*
%TD*%
%TO.P,R24,1*%
%TO.N,Net-(Q1-Pad3)*%
X156250000Y-116500000D03*
%TO.P,R24,2*%
%TO.N,GND*%
X154425000Y-116500000D03*
%TD*%
%TO.P,R20,1*%
%TO.N,Battery*%
X174487500Y-106750000D03*
%TO.P,R20,2*%
%TO.N,GND*%
X172662500Y-106750000D03*
%TD*%
D24*
%TO.P,R12,1*%
%TO.N,Net-(R12-Pad1)*%
X165250000Y-95912500D03*
%TO.P,R12,2*%
%TO.N,Net-(R12-Pad2)*%
X165250000Y-94087500D03*
%TD*%
D27*
%TO.P,Rain1,1,Pin_1*%
%TO.N,Rain*%
X169975000Y-113000000D03*
D28*
%TO.P,Rain1,2,Pin_2*%
%TO.N,GND*%
X172515000Y-113000000D03*
%TD*%
D14*
%TO.P,C9,1*%
%TO.N,VDDraw*%
X168750000Y-96500000D03*
%TO.P,C9,2*%
%TO.N,GND*%
X170750000Y-96500000D03*
%TD*%
D12*
%TO.P,R17,1*%
%TO.N,Solar*%
X168662500Y-106750000D03*
%TO.P,R17,2*%
%TO.N,GND*%
X170487500Y-106750000D03*
%TD*%
%TO.P,R3,1*%
%TO.N,Net-(Q2-Pad2)*%
X158587500Y-122250000D03*
%TO.P,R3,2*%
%TO.N,Main Control*%
X160412500Y-122250000D03*
%TD*%
D50*
%TO.N,GND*%
X159000000Y-105500000D03*
X185250000Y-127250000D03*
X154250000Y-115250000D03*
X188250000Y-124000000D03*
X178500000Y-94500000D03*
X186250000Y-134000000D03*
X135000000Y-102500000D03*
X179500000Y-108750000D03*
X171500000Y-107500000D03*
X188250000Y-129250000D03*
X165250000Y-100750000D03*
X176500000Y-122250000D03*
X134750000Y-99250000D03*
X187750000Y-122000000D03*
X154000000Y-106250000D03*
X134750000Y-129742500D03*
X188250000Y-133750000D03*
X161000000Y-93250000D03*
X185000000Y-101500000D03*
X176500000Y-133750000D03*
X183000000Y-97250000D03*
X178750000Y-101500000D03*
X181500000Y-125000000D03*
X189000000Y-94250000D03*
X178289552Y-117539552D03*
X161750000Y-125500000D03*
X183250000Y-131000000D03*
X188250000Y-126500000D03*
X183941806Y-115691806D03*
X136500000Y-104250000D03*
X178000000Y-106250000D03*
X188250000Y-131750000D03*
%TO.N,Net-(C1-Pad2)*%
X186000000Y-136500000D03*
%TO.N,VDD3.3*%
X156000000Y-130000000D03*
X154500000Y-126500000D03*
X160000000Y-130750000D03*
X174750000Y-109000000D03*
X186250000Y-118750000D03*
%TO.N,Vbat*%
X187250000Y-94500000D03*
X165000000Y-105250000D03*
X167500000Y-99750000D03*
X181750000Y-92750000D03*
X172500000Y-102500000D03*
X175000000Y-96000000D03*
%TO.N,VDDraw*%
X150500000Y-103500000D03*
X164950000Y-98550000D03*
X176750000Y-104250000D03*
%TO.N,/TX*%
X183250000Y-136500000D03*
%TO.N,Battery*%
X185250000Y-115000000D03*
X184750000Y-118500000D03*
%TO.N,Main Gnd*%
X150750000Y-127000000D03*
%TO.N,BME Power*%
X185924500Y-114000000D03*
X184250000Y-114500000D03*
%TO.N,Wind Pow*%
X145250000Y-106000000D03*
%TO.N,Wind 12V*%
X155000000Y-105000000D03*
X144750000Y-101000000D03*
%TO.N,Main 5V*%
X136000000Y-120000000D03*
X158250000Y-127750000D03*
X143750000Y-127250000D03*
%TO.N,Net-(R35-Pad2)*%
X140250000Y-124500000D03*
X138337500Y-123837500D03*
%TD*%
D51*
%TO.N,UV*%
X182775000Y-112750000D02*
X182775000Y-112350000D01*
X181400000Y-114125000D02*
X182775000Y-112750000D01*
%TO.N,UV Power*%
X177000000Y-113045000D02*
X177695000Y-112350000D01*
X178629719Y-119400000D02*
X177000000Y-117770281D01*
X177000000Y-117770281D02*
X177000000Y-113045000D01*
X180650000Y-120550000D02*
X179500000Y-119400000D01*
X179500000Y-119400000D02*
X178629719Y-119400000D01*
X180650000Y-121037500D02*
X180650000Y-120550000D01*
%TO.N,Net-(C1-Pad2)*%
X136250000Y-132810000D02*
X139130000Y-135690000D01*
X136250000Y-131855000D02*
X136250000Y-132810000D01*
%TO.N,Net-(C4-Pad2)*%
X179450000Y-95337500D02*
X180362500Y-96250000D01*
X177365000Y-85050000D02*
X179450000Y-87135000D01*
X179450000Y-87135000D02*
X179450000Y-95337500D01*
%TO.N,Net-(D6-Pad2)*%
X134495405Y-98550000D02*
X135865000Y-98550000D01*
X133665000Y-99380405D02*
X134495405Y-98550000D01*
X136545405Y-105250000D02*
X133665000Y-102369595D01*
X141850000Y-103750000D02*
X140350000Y-105250000D01*
X140350000Y-105250000D02*
X136545405Y-105250000D01*
X133665000Y-102369595D02*
X133665000Y-99380405D01*
%TO.N,Net-(R29-Pad1)*%
X139662500Y-102925000D02*
X141587500Y-101000000D01*
X139662500Y-104250000D02*
X139662500Y-102925000D01*
%TO.N,Wind 12V*%
X144650000Y-101100000D02*
X144650000Y-103750000D01*
X144750000Y-101000000D02*
X144650000Y-101100000D01*
D52*
%TO.N,Wind Pow*%
X145650000Y-105600000D02*
X145250000Y-106000000D01*
X145650000Y-101850000D02*
X145650000Y-105600000D01*
D51*
%TO.N,Wind 12V*%
X144750000Y-101000000D02*
X143412500Y-101000000D01*
%TO.N,Main 5V*%
X136500000Y-120500000D02*
X136000000Y-120000000D01*
X136500000Y-121500000D02*
X136500000Y-120500000D01*
%TO.N,Net-(D7-Pad2)*%
X133700000Y-121500000D02*
X133700000Y-113490000D01*
X133700000Y-123747500D02*
X133700000Y-121500000D01*
X135502500Y-125550000D02*
X133700000Y-123747500D01*
%TO.N,GND*%
X134850000Y-99350000D02*
X134750000Y-99250000D01*
X160007500Y-104492500D02*
X159000000Y-105500000D01*
X135865000Y-99350000D02*
X134850000Y-99350000D01*
X154425000Y-116500000D02*
X154425000Y-115425000D01*
X160007500Y-103950000D02*
X160007500Y-104492500D01*
X189350000Y-128887500D02*
X189350000Y-129737500D01*
X184000000Y-128037500D02*
X184462500Y-128037500D01*
X189350000Y-131437500D02*
X188562500Y-131437500D01*
X189350000Y-130587500D02*
X189350000Y-131437500D01*
X189362500Y-121025000D02*
X189350000Y-121037500D01*
X133250000Y-130130000D02*
X134362500Y-130130000D01*
X180700000Y-129687500D02*
X180700000Y-128037500D01*
X187450000Y-121037500D02*
X187450000Y-121700000D01*
X184000000Y-128037500D02*
X184000000Y-129687500D01*
X137837500Y-104250000D02*
X136500000Y-104250000D01*
X178500000Y-100162500D02*
X178500000Y-101250000D01*
X161500000Y-125250000D02*
X161750000Y-125500000D01*
X183941806Y-115691806D02*
X183941806Y-115803194D01*
X134250000Y-101567500D02*
X134250000Y-101750000D01*
X189362500Y-119000000D02*
X189362500Y-121025000D01*
X189287500Y-118925000D02*
X189362500Y-119000000D01*
X182350000Y-129687500D02*
X182350000Y-130100000D01*
X176500000Y-122250000D02*
X176500000Y-122187500D01*
X182350000Y-128037500D02*
X182350000Y-126387500D01*
X189350000Y-131437500D02*
X189350000Y-132287500D01*
X154425000Y-115425000D02*
X154250000Y-115250000D01*
X159387500Y-106750000D02*
X159387500Y-105887500D01*
X181167500Y-118362500D02*
X181280000Y-118475000D01*
X180637500Y-118362500D02*
X181167500Y-118362500D01*
X182350000Y-130100000D02*
X183250000Y-131000000D01*
X188562500Y-131437500D02*
X188250000Y-131750000D01*
X183000000Y-97250000D02*
X183000000Y-95985000D01*
X160412500Y-125250000D02*
X161500000Y-125250000D01*
X135137500Y-130130000D02*
X134750000Y-129742500D01*
X134250000Y-101567500D02*
X135247500Y-101567500D01*
X186600000Y-134350000D02*
X186250000Y-134000000D01*
X161837500Y-94087500D02*
X161000000Y-93250000D01*
X188300000Y-121037500D02*
X189350000Y-121037500D01*
X186600000Y-135037500D02*
X186600000Y-134350000D01*
X187450000Y-121037500D02*
X188300000Y-121037500D01*
X189350000Y-128037500D02*
X189350000Y-128887500D01*
X189350000Y-126337500D02*
X188412500Y-126337500D01*
X184000000Y-128037500D02*
X184000000Y-126387500D01*
X189350000Y-128887500D02*
X188612500Y-128887500D01*
X157750000Y-104412500D02*
X157912500Y-104412500D01*
X180637500Y-117624408D02*
X180637500Y-118362500D01*
X178000000Y-106250000D02*
X177500000Y-106250000D01*
X189350000Y-122937500D02*
X189350000Y-123787500D01*
X188487500Y-133987500D02*
X188250000Y-133750000D01*
X183000000Y-95000000D02*
X183000000Y-95985000D01*
X189287500Y-117000000D02*
X189287500Y-118925000D01*
X189350000Y-121037500D02*
X189350000Y-122087500D01*
X179511908Y-117624408D02*
X179500000Y-117612500D01*
X166000000Y-101500000D02*
X165250000Y-100750000D01*
X178500000Y-101250000D02*
X178750000Y-101500000D01*
X189000000Y-94250000D02*
X189000000Y-93087500D01*
X159387500Y-105887500D02*
X159000000Y-105500000D01*
X134250000Y-101750000D02*
X135000000Y-102500000D01*
X180637500Y-117624408D02*
X179511908Y-117624408D01*
X181280000Y-117175000D02*
X181086908Y-117175000D01*
X179250000Y-102887500D02*
X179250000Y-102000000D01*
X160162500Y-94087500D02*
X161000000Y-93250000D01*
X154337500Y-106587500D02*
X154000000Y-106250000D01*
X136250000Y-130130000D02*
X135137500Y-130130000D01*
X189350000Y-133137500D02*
X189350000Y-133987500D01*
X180700000Y-126387500D02*
X180700000Y-128037500D01*
X183941806Y-115803194D02*
X183220000Y-116525000D01*
X176500000Y-122187500D02*
X175350000Y-121037500D01*
X188412500Y-126337500D02*
X188250000Y-126500000D01*
X185000000Y-101500000D02*
X185000000Y-100662500D01*
X182350000Y-129687500D02*
X182350000Y-128037500D01*
X178637500Y-93000000D02*
X178637500Y-94362500D01*
X181086908Y-117175000D02*
X180637500Y-117624408D01*
X185000000Y-100662500D02*
X184500000Y-100162500D01*
X188462500Y-123787500D02*
X188250000Y-124000000D01*
X178637500Y-94637500D02*
X178500000Y-94500000D01*
X154337500Y-107500000D02*
X154337500Y-106587500D01*
X172662500Y-106750000D02*
X172250000Y-106750000D01*
X185750000Y-134500000D02*
X186250000Y-134000000D01*
X134362500Y-130130000D02*
X134750000Y-129742500D01*
X136550000Y-100950000D02*
X137750000Y-99750000D01*
X189350000Y-133987500D02*
X189350000Y-135037500D01*
X170750000Y-106750000D02*
X171500000Y-107500000D01*
X189350000Y-123787500D02*
X189350000Y-124637500D01*
X177250000Y-106525000D02*
X177150000Y-106625000D01*
X180700000Y-126387500D02*
X180700000Y-125800000D01*
X157912500Y-104412500D02*
X159000000Y-105500000D01*
X135865000Y-100950000D02*
X136550000Y-100950000D01*
X189350000Y-123787500D02*
X188462500Y-123787500D01*
X180700000Y-125800000D02*
X181500000Y-125000000D01*
X189350000Y-133987500D02*
X188487500Y-133987500D01*
X176750000Y-106000000D02*
X177250000Y-106000000D01*
X177500000Y-106250000D02*
X177250000Y-106000000D01*
X170487500Y-106750000D02*
X170750000Y-106750000D01*
X178362500Y-117612500D02*
X178289552Y-117539552D01*
X184462500Y-128037500D02*
X185250000Y-127250000D01*
X179500000Y-117612500D02*
X178362500Y-117612500D01*
X135247500Y-101567500D02*
X135865000Y-100950000D01*
X188612500Y-128887500D02*
X188250000Y-129250000D01*
X175350000Y-135037500D02*
X175350000Y-133987500D01*
X176262500Y-133987500D02*
X176500000Y-133750000D01*
X185750000Y-135037500D02*
X185750000Y-134500000D01*
X187450000Y-121700000D02*
X187750000Y-122000000D01*
X178250000Y-108750000D02*
X179500000Y-108750000D01*
X159750000Y-94087500D02*
X160162500Y-94087500D01*
X189350000Y-125487500D02*
X189350000Y-126337500D01*
X189000000Y-93087500D02*
X188912500Y-93000000D01*
X189350000Y-126337500D02*
X189350000Y-127187500D01*
X177250000Y-106000000D02*
X177250000Y-106525000D01*
X172250000Y-106750000D02*
X171500000Y-107500000D01*
X175350000Y-133987500D02*
X176262500Y-133987500D01*
X179250000Y-102000000D02*
X178750000Y-101500000D01*
X166000000Y-102137500D02*
X166000000Y-101500000D01*
X178637500Y-96250000D02*
X178637500Y-94637500D01*
X178637500Y-94362500D02*
X178500000Y-94500000D01*
X162500000Y-94087500D02*
X161837500Y-94087500D01*
%TO.N,Net-(C1-Pad2)*%
X145630000Y-135690000D02*
X139130000Y-135690000D01*
X188300000Y-135237500D02*
X187037500Y-136500000D01*
X188300000Y-135037500D02*
X188300000Y-135237500D01*
X145630000Y-135690000D02*
X151320000Y-130000000D01*
X187037500Y-136500000D02*
X186000000Y-136500000D01*
X136250000Y-131855000D02*
X133250000Y-131855000D01*
X151320000Y-130000000D02*
X152837500Y-130000000D01*
%TO.N,VDD3.3*%
X176750000Y-106625000D02*
X176350000Y-106625000D01*
X154375000Y-125250000D02*
X154375000Y-126375000D01*
X176350000Y-108575000D02*
X176175000Y-108750000D01*
X174750000Y-109000000D02*
X175925000Y-109000000D01*
X187212500Y-117787500D02*
X186250000Y-118750000D01*
X175925000Y-109000000D02*
X176175000Y-108750000D01*
X186600000Y-121037500D02*
X186600000Y-119100000D01*
X176350000Y-106625000D02*
X176350000Y-108575000D01*
X187212500Y-117000000D02*
X187212500Y-117787500D01*
X161350000Y-130330000D02*
X160420000Y-130330000D01*
X186600000Y-119100000D02*
X186250000Y-118750000D01*
X186500000Y-119000000D02*
X186250000Y-118750000D01*
X160420000Y-130330000D02*
X160000000Y-130750000D01*
X154375000Y-126375000D02*
X154500000Y-126500000D01*
X154662500Y-130000000D02*
X156000000Y-130000000D01*
X187637500Y-119000000D02*
X186500000Y-119000000D01*
%TO.N,Net-(C4-Pad2)*%
X174625216Y-98250000D02*
X170575000Y-102300216D01*
X180362500Y-96250000D02*
X179112500Y-97500000D01*
X170575000Y-102300216D02*
X170575000Y-103750000D01*
X182200000Y-95985000D02*
X180627500Y-95985000D01*
X179112500Y-97500000D02*
X177750000Y-97500000D01*
X177750000Y-97500000D02*
X177000000Y-98250000D01*
X177000000Y-98250000D02*
X174625216Y-98250000D01*
X180627500Y-95985000D02*
X180362500Y-96250000D01*
%TO.N,Vbat*%
X166000000Y-103862500D02*
X166000000Y-104250000D01*
X181500000Y-93000000D02*
X181750000Y-92750000D01*
X182200000Y-94015000D02*
X182200000Y-93200000D01*
X168250000Y-100500000D02*
X167500000Y-99750000D01*
X172662500Y-102662500D02*
X172500000Y-102500000D01*
X168875000Y-100500000D02*
X168250000Y-100500000D01*
X166000000Y-104250000D02*
X165000000Y-105250000D01*
X187125000Y-94625000D02*
X187250000Y-94500000D01*
X164912500Y-105337500D02*
X165000000Y-105250000D01*
X163817500Y-103950000D02*
X163817500Y-104067500D01*
X172662500Y-103750000D02*
X172662500Y-102662500D01*
X187125000Y-95750000D02*
X187125000Y-94625000D01*
X163817500Y-104067500D02*
X165000000Y-105250000D01*
X164912500Y-106750000D02*
X164912500Y-105337500D01*
X175000000Y-97375000D02*
X175000000Y-96000000D01*
X182200000Y-93200000D02*
X181750000Y-92750000D01*
X180362500Y-93000000D02*
X181500000Y-93000000D01*
%TO.N,Net-(C7-Pad2)*%
X161277500Y-103950000D02*
X161277500Y-106585000D01*
X161277500Y-106585000D02*
X161112500Y-106750000D01*
%TO.N,Net-(R4-Pad2)*%
X179662500Y-98337500D02*
X178500000Y-98337500D01*
X181350000Y-96650000D02*
X179662500Y-98337500D01*
X182600000Y-95985000D02*
X182600000Y-96650000D01*
X182600000Y-96650000D02*
X181350000Y-96650000D01*
%TO.N,Net-(R5-Pad2)*%
X184500000Y-93750000D02*
X184500000Y-98337500D01*
X183400000Y-94015000D02*
X183400000Y-93375000D01*
X183415000Y-93360000D02*
X184110000Y-93360000D01*
X184110000Y-93360000D02*
X184500000Y-93750000D01*
X183400000Y-93375000D02*
X183415000Y-93360000D01*
%TO.N,Net-(R6-Pad2)*%
X186587500Y-92500000D02*
X187087500Y-93000000D01*
X182600000Y-94015000D02*
X182600001Y-93043628D01*
X183143629Y-92500000D02*
X186587500Y-92500000D01*
X182600001Y-93043628D02*
X183143629Y-92500000D01*
%TO.N,Net-(R7-Pad2)*%
X186325000Y-98237500D02*
X187087500Y-99000000D01*
X183000000Y-93209314D02*
X183249315Y-92960000D01*
X183249315Y-92960000D02*
X184460000Y-92960000D01*
X184460000Y-92960000D02*
X186325000Y-94825000D01*
X186325000Y-94825000D02*
X186325000Y-98237500D01*
X183000000Y-94015000D02*
X183000000Y-93209314D01*
%TO.N,Net-(R8-Pad2)*%
X183800000Y-95985000D02*
X183800000Y-97825216D01*
X183287716Y-98337500D02*
X181500000Y-98337500D01*
X183800000Y-97825216D02*
X183287716Y-98337500D01*
%TO.N,Net-(R10-Pad2)*%
X158500000Y-107500000D02*
X156250000Y-105250000D01*
X162337500Y-107500000D02*
X158500000Y-107500000D01*
X162547500Y-106210000D02*
X163087500Y-106750000D01*
X163087500Y-106750000D02*
X162337500Y-107500000D01*
X162547500Y-103950000D02*
X162547500Y-106210000D01*
X156250000Y-105250000D02*
X156250000Y-104087500D01*
X156250000Y-104087500D02*
X157750000Y-102587500D01*
%TO.N,Net-(R12-Pad1)*%
X162500000Y-98502500D02*
X162500000Y-97250000D01*
X162500000Y-97250000D02*
X163837500Y-95912500D01*
X162547500Y-98550000D02*
X162500000Y-98502500D01*
X163837500Y-95912500D02*
X165250000Y-95912500D01*
%TO.N,Net-(R13-Pad1)*%
X161277500Y-98550000D02*
X161277500Y-97135000D01*
X161277500Y-97135000D02*
X162500000Y-95912500D01*
%TO.N,Net-(R14-Pad1)*%
X160007500Y-96170000D02*
X159750000Y-95912500D01*
X160007500Y-98550000D02*
X160007500Y-96170000D01*
D52*
%TO.N,VDDraw*%
X148337500Y-103500000D02*
X147087500Y-104750000D01*
X176750000Y-104250000D02*
X176250000Y-104750000D01*
X147980000Y-105642500D02*
X147980000Y-110110000D01*
X145390000Y-110110000D02*
X142250000Y-113250000D01*
X176750000Y-104250000D02*
X177250000Y-104750000D01*
X147087500Y-104750000D02*
X147980000Y-105642500D01*
X177250000Y-104750000D02*
X177250000Y-105375000D01*
X147980000Y-110110000D02*
X145390000Y-110110000D01*
X167000000Y-96500000D02*
X164950000Y-98550000D01*
X168750000Y-96500000D02*
X167000000Y-96500000D01*
X139272500Y-127150000D02*
X142012500Y-127150000D01*
X142012500Y-127150000D02*
X144162500Y-125000000D01*
X150500000Y-103500000D02*
X148337500Y-103500000D01*
X145500000Y-123662500D02*
X144162500Y-125000000D01*
X142250000Y-113250000D02*
X145500000Y-116500000D01*
X163817500Y-98550000D02*
X164950000Y-98550000D01*
X145500000Y-116500000D02*
X145500000Y-123662500D01*
X176250000Y-104750000D02*
X176250000Y-105250000D01*
D51*
%TO.N,Net-(C11-Pad1)*%
X182000000Y-107500000D02*
X179250000Y-104750000D01*
X188500000Y-110337500D02*
X188500000Y-107500000D01*
X187337500Y-111500000D02*
X188500000Y-110337500D01*
X179250000Y-104750000D02*
X179250000Y-104612500D01*
X188500000Y-107500000D02*
X182000000Y-107500000D01*
%TO.N,/TMS*%
X182350000Y-135237500D02*
X180637500Y-136950000D01*
X166650000Y-136950000D02*
X163950000Y-134250000D01*
X182350000Y-135037500D02*
X182350000Y-135237500D01*
X180637500Y-136950000D02*
X166650000Y-136950000D01*
%TO.N,/TDI*%
X168790000Y-136550000D02*
X166490000Y-134250000D01*
X181500000Y-135037500D02*
X181500000Y-135337500D01*
X181500000Y-135337500D02*
X180287500Y-136550000D01*
X180287500Y-136550000D02*
X168790000Y-136550000D01*
%TO.N,/TDO*%
X179837500Y-136150000D02*
X170930000Y-136150000D01*
X170930000Y-136150000D02*
X169030000Y-134250000D01*
X180650000Y-135337500D02*
X179837500Y-136150000D01*
X180650000Y-135037500D02*
X180650000Y-135337500D01*
%TO.N,/TCK*%
X179287500Y-135750000D02*
X173070000Y-135750000D01*
X179800000Y-135037500D02*
X179800000Y-135337500D01*
X179800000Y-135037500D02*
X179800000Y-135237500D01*
X179800000Y-135237500D02*
X179287500Y-135750000D01*
X173070000Y-135750000D02*
X171570000Y-134250000D01*
%TO.N,/TX*%
X184050000Y-135037500D02*
X184050000Y-135700000D01*
X184050000Y-135700000D02*
X183250000Y-136500000D01*
%TO.N,/RX*%
X158680000Y-137350000D02*
X155580000Y-134250000D01*
X183200000Y-135037500D02*
X183200000Y-135300000D01*
X183200000Y-135300000D02*
X181150000Y-137350000D01*
X181150000Y-137350000D02*
X158680000Y-137350000D01*
%TO.N,Solar*%
X178762500Y-119800000D02*
X178464034Y-119800000D01*
X178464034Y-119800000D02*
X173640000Y-114975966D01*
X173640000Y-111727500D02*
X168662500Y-106750000D01*
X168662500Y-106750000D02*
X168662500Y-103837500D01*
X179800000Y-120837500D02*
X178762500Y-119800000D01*
X168662500Y-103837500D02*
X168750000Y-103750000D01*
X179800000Y-121037500D02*
X179800000Y-120837500D01*
X173640000Y-114975966D02*
X173640000Y-111727500D01*
%TO.N,Battery*%
X184900000Y-121037500D02*
X184900000Y-118650000D01*
X185250000Y-115000000D02*
X185250000Y-112553122D01*
X178750000Y-105500000D02*
X177425000Y-104175000D01*
X177075000Y-103575000D02*
X174662500Y-103575000D01*
X174662500Y-103575000D02*
X174487500Y-103750000D01*
X184900000Y-118650000D02*
X184750000Y-118500000D01*
X177425000Y-104175000D02*
X177425000Y-103925000D01*
X174487500Y-103750000D02*
X174487500Y-106750000D01*
X180598439Y-107901561D02*
X178750000Y-106053123D01*
X178750000Y-106053123D02*
X178750000Y-105500000D01*
X177425000Y-103925000D02*
X177075000Y-103575000D01*
X185250000Y-112553122D02*
X180598439Y-107901561D01*
%TO.N,Wind*%
X170425000Y-118400000D02*
X165025000Y-113000000D01*
X174912500Y-118400000D02*
X170425000Y-118400000D01*
X177250000Y-120737500D02*
X174912500Y-118400000D01*
X177250000Y-121037500D02*
X177250000Y-120737500D01*
%TO.N,Rain*%
X178950000Y-120851652D02*
X175098348Y-117000000D01*
X173912500Y-117000000D02*
X169975000Y-113062500D01*
X175098348Y-117000000D02*
X173912500Y-117000000D01*
X178950000Y-121037500D02*
X178950000Y-120851652D01*
X169975000Y-113062500D02*
X169975000Y-113000000D01*
%TO.N,UV*%
X181500000Y-119000000D02*
X178795405Y-119000000D01*
X177614552Y-116510664D02*
X180000216Y-114125000D01*
X177614552Y-117819147D02*
X177614552Y-116510664D01*
X181500000Y-121037500D02*
X181500000Y-119000000D01*
X178795405Y-119000000D02*
X177614552Y-117819147D01*
X180000216Y-114125000D02*
X181400000Y-114125000D01*
%TO.N,SDA*%
X182700000Y-118151908D02*
X182700000Y-118950000D01*
X183026908Y-117825000D02*
X182700000Y-118151908D01*
X183200000Y-119450000D02*
X183200000Y-121037500D01*
X182700000Y-118950000D02*
X183200000Y-119450000D01*
X187337500Y-113662500D02*
X187337500Y-113250000D01*
X186575000Y-114425000D02*
X187337500Y-113662500D01*
X183220000Y-117825000D02*
X183609314Y-117825000D01*
X183609314Y-117825000D02*
X186575000Y-114859314D01*
X186575000Y-114859314D02*
X186575000Y-114425000D01*
X183220000Y-117825000D02*
X183026908Y-117825000D01*
%TO.N,SCL*%
X183525000Y-118475000D02*
X187000000Y-115000000D01*
X183220000Y-118475000D02*
X184000000Y-119255000D01*
X184000000Y-119255000D02*
X184000000Y-120750000D01*
X183220000Y-118475000D02*
X183525000Y-118475000D01*
X187000000Y-115000000D02*
X187337500Y-115000000D01*
%TO.N,Trig*%
X175350000Y-122937500D02*
X171687500Y-122937500D01*
X171687500Y-122937500D02*
X171500000Y-122750000D01*
%TO.N,Echo*%
X167320000Y-124500000D02*
X162650000Y-129170000D01*
X162650000Y-129170000D02*
X162650000Y-130330000D01*
X172250000Y-124500000D02*
X167320000Y-124500000D01*
X175350000Y-123787500D02*
X172962500Y-123787500D01*
X172962500Y-123787500D02*
X172250000Y-124500000D01*
%TO.N,PPM RX*%
X175350000Y-126337500D02*
X174912500Y-126337500D01*
X174912500Y-126337500D02*
X171500000Y-129750000D01*
%TO.N,Main Gnd*%
X136987500Y-126350000D02*
X135502500Y-126350000D01*
X139700216Y-122000000D02*
X139135000Y-122565216D01*
X162000000Y-128750000D02*
X158250000Y-128750000D01*
X154500000Y-122250000D02*
X150750000Y-126000000D01*
X166420000Y-129750000D02*
X164670000Y-131500000D01*
X158250000Y-128750000D02*
X155175000Y-125675000D01*
X150250000Y-128500000D02*
X150250000Y-127500000D01*
X139135000Y-124615000D02*
X137387500Y-126362500D01*
X155175000Y-125675000D02*
X155175000Y-122925000D01*
X166070000Y-122750000D02*
X162000000Y-126820000D01*
X137387500Y-126750000D02*
X136987500Y-126350000D01*
X137387500Y-126362500D02*
X137387500Y-126750000D01*
X162000000Y-126820000D02*
X162000000Y-127670000D01*
X155175000Y-122925000D02*
X154500000Y-122250000D01*
X133000000Y-126275000D02*
X135427500Y-126275000D01*
X144000000Y-120500000D02*
X142500000Y-122000000D01*
X139135000Y-122565216D02*
X139135000Y-124615000D01*
X164670000Y-131500000D02*
X162320000Y-131500000D01*
X135427500Y-126275000D02*
X135502500Y-126350000D01*
X150250000Y-127500000D02*
X150750000Y-127000000D01*
X135502500Y-127950000D02*
X136187500Y-127950000D01*
X162320000Y-131500000D02*
X162000000Y-131180000D01*
X162000000Y-131180000D02*
X162000000Y-130330000D01*
X166420000Y-122750000D02*
X166070000Y-122750000D01*
X150750000Y-126000000D02*
X150750000Y-127000000D01*
X162000000Y-128750000D02*
X162000000Y-130330000D01*
X142500000Y-122000000D02*
X139700216Y-122000000D01*
X136187500Y-127950000D02*
X137387500Y-126750000D01*
X162000000Y-127670000D02*
X162000000Y-128750000D01*
%TO.N,Net-(Q1-Pad2)*%
X150265000Y-114575000D02*
X155175000Y-114575000D01*
X155175000Y-114575000D02*
X156250000Y-113500000D01*
X149000000Y-115840000D02*
X150265000Y-114575000D01*
%TO.N,BME Power*%
X182325000Y-117175000D02*
X182325000Y-116354017D01*
X185924500Y-113450716D02*
X185924500Y-114000000D01*
X182350000Y-121037500D02*
X182300000Y-120987500D01*
X184179017Y-114500000D02*
X184250000Y-114500000D01*
X180642500Y-115887500D02*
X181280000Y-116525000D01*
X189162500Y-113250000D02*
X188412500Y-112500000D01*
X183220000Y-117175000D02*
X182325000Y-117175000D01*
X186875216Y-112500000D02*
X185924500Y-113450716D01*
X182325000Y-117175000D02*
X181675000Y-117825000D01*
X181280000Y-116525000D02*
X181675000Y-116525000D01*
X182300000Y-120987500D02*
X182300000Y-118450000D01*
X182325000Y-116354017D02*
X184179017Y-114500000D01*
X188412500Y-112500000D02*
X186875216Y-112500000D01*
X182300000Y-118450000D02*
X181675000Y-117825000D01*
X181675000Y-117825000D02*
X181280000Y-117825000D01*
X181675000Y-116525000D02*
X182325000Y-117175000D01*
X189162500Y-113250000D02*
X189162500Y-115000000D01*
X179500000Y-115887500D02*
X180642500Y-115887500D01*
%TO.N,Rain Power*%
X178100000Y-120750000D02*
X175350000Y-118000000D01*
X178100000Y-121037500D02*
X178100000Y-120750000D01*
X173087500Y-118000000D02*
X172087500Y-117000000D01*
X175350000Y-118000000D02*
X173087500Y-118000000D01*
D52*
%TO.N,Wind Pow*%
X150520000Y-110110000D02*
X153985000Y-110110000D01*
X145650000Y-101850000D02*
X146750000Y-100750000D01*
X146750000Y-100750000D02*
X146125000Y-100125000D01*
X139660000Y-100125000D02*
X139635000Y-100150000D01*
D51*
X146750000Y-100750000D02*
X151500000Y-96000000D01*
X151500000Y-96000000D02*
X151500000Y-91750000D01*
D52*
X146125000Y-100125000D02*
X139660000Y-100125000D01*
X153985000Y-110110000D02*
X154375000Y-110500000D01*
D51*
%TO.N,Net-(Q1-Pad3)*%
X156250000Y-116500000D02*
X156250000Y-117337500D01*
X156250000Y-117337500D02*
X154337500Y-119250000D01*
X152197500Y-117110000D02*
X150270000Y-117110000D01*
X154337500Y-119250000D02*
X152197500Y-117110000D01*
%TO.N,Wind 12V*%
X162485000Y-112485000D02*
X155000000Y-105000000D01*
X162485000Y-113000000D02*
X162485000Y-112485000D01*
%TO.N,Net-(Q3-Pad2)*%
X152601852Y-113500000D02*
X149250000Y-110148148D01*
X149250000Y-110148148D02*
X149250000Y-108840000D01*
X149250000Y-108840000D02*
X149250000Y-105087500D01*
X149250000Y-105087500D02*
X148912500Y-104750000D01*
X154425000Y-113500000D02*
X152601852Y-113500000D01*
%TO.N,Main Control*%
X175150000Y-122087500D02*
X174687500Y-121625000D01*
X161037500Y-121625000D02*
X160412500Y-122250000D01*
X174687500Y-121625000D02*
X161037500Y-121625000D01*
X175350000Y-122087500D02*
X175150000Y-122087500D01*
%TO.N,Wind Control*%
X176400000Y-120737500D02*
X174912500Y-119250000D01*
X174912500Y-119250000D02*
X156162500Y-119250000D01*
X176400000Y-121037500D02*
X176400000Y-120737500D01*
%TO.N,Main 5V*%
X144087500Y-127587500D02*
X143750000Y-127250000D01*
X163880000Y-124324595D02*
X161350000Y-126854595D01*
X163880000Y-122750000D02*
X163880000Y-124324595D01*
X161350000Y-126854595D02*
X161350000Y-127670000D01*
X158330000Y-127670000D02*
X158250000Y-127750000D01*
X144087500Y-128500000D02*
X144087500Y-127587500D01*
X161350000Y-127670000D02*
X158330000Y-127670000D01*
%TO.N,Net-(Q2-Pad2)*%
X157837500Y-121500000D02*
X158587500Y-122250000D01*
X158587500Y-125250000D02*
X158587500Y-122250000D01*
X150340000Y-121500000D02*
X157837500Y-121500000D01*
X149000000Y-122840000D02*
X150340000Y-121500000D01*
%TO.N,Net-(R9-Pad2)*%
X185575000Y-117082538D02*
X186907538Y-115750000D01*
X190126500Y-115623500D02*
X190126500Y-112464000D01*
X190126500Y-112464000D02*
X189162500Y-111500000D01*
X185750000Y-121037500D02*
X185575000Y-120862500D01*
X186907538Y-115750000D02*
X190000000Y-115750000D01*
X190000000Y-115750000D02*
X190126500Y-115623500D01*
X185750000Y-121037500D02*
X185750000Y-120837500D01*
X185575000Y-120862500D02*
X185575000Y-117082538D01*
%TO.N,Net-(Charging1-Pad1)*%
X175000000Y-99125000D02*
X178924784Y-99125000D01*
X179962284Y-100162500D02*
X181500000Y-100162500D01*
X178924784Y-99125000D02*
X179962284Y-100162500D01*
%TO.N,Net-(C16-Pad1)*%
X134532500Y-100150000D02*
X134250000Y-100432500D01*
X135865000Y-100150000D02*
X134532500Y-100150000D01*
%TO.N,Net-(C17-Pad1)*%
X135502500Y-127150000D02*
X133850000Y-127150000D01*
X133850000Y-127150000D02*
X133000000Y-128000000D01*
%TO.N,Net-(D6-Pad2)*%
X135865000Y-98550000D02*
X135865000Y-95198250D01*
X135865000Y-95198250D02*
X138799250Y-92264000D01*
%TO.N,Net-(L1-Pad1)*%
X143412500Y-97750000D02*
X143412500Y-92813250D01*
X139635000Y-99350000D02*
X141812500Y-99350000D01*
D52*
X143512500Y-97650000D02*
X143412500Y-97750000D01*
D51*
X141812500Y-99350000D02*
X143412500Y-97750000D01*
X143412500Y-92813250D02*
X138799250Y-88200000D01*
D52*
X146750000Y-97650000D02*
X143512500Y-97650000D01*
D51*
%TO.N,Net-(L2-Pad1)*%
X138000000Y-113250000D02*
X137750000Y-113250000D01*
X139272500Y-126350000D02*
X140987500Y-126350000D01*
X142337500Y-125000000D02*
X142337500Y-124925000D01*
X142337500Y-124925000D02*
X140162500Y-122750000D01*
X144875000Y-120125000D02*
X138000000Y-113250000D01*
X144875000Y-120862437D02*
X144875000Y-120125000D01*
X140162500Y-122750000D02*
X142987437Y-122750000D01*
X140987500Y-126350000D02*
X142337500Y-125000000D01*
X142987437Y-122750000D02*
X144875000Y-120862437D01*
%TO.N,Net-(R28-Pad1)*%
X156125000Y-107537500D02*
X156162500Y-107500000D01*
X156125000Y-110500000D02*
X156125000Y-107537500D01*
%TO.N,Net-(R29-Pad1)*%
X141587500Y-101000000D02*
X139685000Y-101000000D01*
X139685000Y-101000000D02*
X139635000Y-100950000D01*
%TO.N,Net-(R31-Pad2)*%
X140787500Y-98550000D02*
X141587500Y-97750000D01*
X139635000Y-98550000D02*
X140787500Y-98550000D01*
%TO.N,Echo High*%
X163580000Y-127670000D02*
X168500000Y-122750000D01*
X162650000Y-127670000D02*
X163580000Y-127670000D01*
X168500000Y-122750000D02*
X168960000Y-122750000D01*
%TO.N,Net-(Main1-Pad1)*%
X156325000Y-125050000D02*
X156325000Y-122250000D01*
X156125000Y-125250000D02*
X156325000Y-125050000D01*
%TO.N,Net-(R35-Pad2)*%
X140250000Y-124572500D02*
X140250000Y-124500000D01*
X139272500Y-125550000D02*
X140250000Y-124572500D01*
X138337500Y-122750000D02*
X138337500Y-123837500D01*
%TO.N,Net-(First1-Pad1)*%
X188875000Y-95750000D02*
X188875000Y-98962500D01*
X188875000Y-98962500D02*
X188912500Y-99000000D01*
%TO.N,Net-(R12-Pad2)*%
X171825000Y-96054720D02*
X169857780Y-94087500D01*
X169857780Y-94087500D02*
X165250000Y-94087500D01*
X170625000Y-100500000D02*
X171825000Y-99300000D01*
X171825000Y-99300000D02*
X171825000Y-96054720D01*
%TO.N,Net-(R33-Pad1)*%
X145162500Y-129250000D02*
X140572500Y-129250000D01*
X148425000Y-128500000D02*
X145912500Y-128500000D01*
X140572500Y-129250000D02*
X139272500Y-127950000D01*
X145912500Y-128500000D02*
X145162500Y-129250000D01*
%TD*%
M02*
