%TF.GenerationSoftware,KiCad,Pcbnew,(6.0.9)*%
%TF.CreationDate,2023-05-01T22:34:10-06:00*%
%TF.ProjectId,WeatherStation,57656174-6865-4725-9374-6174696f6e2e,rev?*%
%TF.SameCoordinates,Original*%
%TF.FileFunction,Drillmap*%
%TF.FilePolarity,Positive*%
%FSLAX45Y45*%
G04 Gerber Fmt 4.5, Leading zero omitted, Abs format (unit mm)*
G04 Created by KiCad (PCBNEW (6.0.9)) date 2023-05-01 22:34:10*
%MOMM*%
%LPD*%
G01*
G04 APERTURE LIST*
%ADD10C,0.010000*%
%ADD11C,0.200000*%
%ADD12C,0.040000*%
%ADD13C,0.060000*%
%ADD14C,0.075000*%
%ADD15C,0.080000*%
%ADD16C,0.100000*%
%ADD17C,0.110000*%
%ADD18C,0.132000*%
G04 APERTURE END LIST*
D10*
X18915461Y-8110000D02*
G75*
G03*
X18915461Y-8110000I-120461J0D01*
G01*
X19075150Y-7797000D02*
X13074850Y-7797000D01*
X13074850Y-7797000D02*
X13074850Y-13797800D01*
X13074850Y-13797800D02*
X19075150Y-13797800D01*
X19075150Y-13797800D02*
X19075150Y-7797000D01*
X13585461Y-8110000D02*
G75*
G03*
X13585461Y-8110000I-120461J0D01*
G01*
X13585461Y-13540460D02*
G75*
G03*
X13585461Y-13540460I-120461J0D01*
G01*
D11*
D12*
X13455000Y-9905000D02*
X13495000Y-9945000D01*
X13495000Y-9905000D02*
X13455000Y-9945000D01*
X13455000Y-12954250D02*
X13495000Y-12994250D01*
X13495000Y-12954250D02*
X13455000Y-12994250D01*
X13480000Y-10230000D02*
X13520000Y-10270000D01*
X13520000Y-10230000D02*
X13480000Y-10270000D01*
X13580000Y-11980000D02*
X13620000Y-12020000D01*
X13620000Y-11980000D02*
X13580000Y-12020000D01*
X13630000Y-10405000D02*
X13670000Y-10445000D01*
X13670000Y-10405000D02*
X13630000Y-10445000D01*
X13813750Y-12363750D02*
X13853750Y-12403750D01*
X13853750Y-12363750D02*
X13813750Y-12403750D01*
X14005000Y-12430000D02*
X14045000Y-12470000D01*
X14045000Y-12430000D02*
X14005000Y-12470000D01*
X14355000Y-12705000D02*
X14395000Y-12745000D01*
X14395000Y-12705000D02*
X14355000Y-12745000D01*
X14455000Y-10080000D02*
X14495000Y-10120000D01*
X14495000Y-10080000D02*
X14455000Y-10120000D01*
X14505000Y-10580000D02*
X14545000Y-10620000D01*
X14545000Y-10580000D02*
X14505000Y-10620000D01*
X15030000Y-10330000D02*
X15070000Y-10370000D01*
X15070000Y-10330000D02*
X15030000Y-10370000D01*
X15055000Y-12680000D02*
X15095000Y-12720000D01*
X15095000Y-12680000D02*
X15055000Y-12720000D01*
X15380000Y-10605000D02*
X15420000Y-10645000D01*
X15420000Y-10605000D02*
X15380000Y-10645000D01*
X15405000Y-11505000D02*
X15445000Y-11545000D01*
X15445000Y-11505000D02*
X15405000Y-11545000D01*
X15430000Y-12630000D02*
X15470000Y-12670000D01*
X15470000Y-12630000D02*
X15430000Y-12670000D01*
X15480000Y-10480000D02*
X15520000Y-10520000D01*
X15520000Y-10480000D02*
X15480000Y-10520000D01*
X15580000Y-12980000D02*
X15620000Y-13020000D01*
X15620000Y-12980000D02*
X15580000Y-13020000D01*
X15805000Y-12755000D02*
X15845000Y-12795000D01*
X15845000Y-12755000D02*
X15805000Y-12795000D01*
X15880000Y-10530000D02*
X15920000Y-10570000D01*
X15920000Y-10530000D02*
X15880000Y-10570000D01*
X15980000Y-13055000D02*
X16020000Y-13095000D01*
X16020000Y-13055000D02*
X15980000Y-13095000D01*
X16080000Y-9305000D02*
X16120000Y-9345000D01*
X16120000Y-9305000D02*
X16080000Y-9345000D01*
X16155000Y-12530000D02*
X16195000Y-12570000D01*
X16195000Y-12530000D02*
X16155000Y-12570000D01*
X16475000Y-9835000D02*
X16515000Y-9875000D01*
X16515000Y-9835000D02*
X16475000Y-9875000D01*
X16480000Y-10505000D02*
X16520000Y-10545000D01*
X16520000Y-10505000D02*
X16480000Y-10545000D01*
X16505000Y-10055000D02*
X16545000Y-10095000D01*
X16545000Y-10055000D02*
X16505000Y-10095000D01*
X16730000Y-9955000D02*
X16770000Y-9995000D01*
X16770000Y-9955000D02*
X16730000Y-9995000D01*
X17130000Y-10730000D02*
X17170000Y-10770000D01*
X17170000Y-10730000D02*
X17130000Y-10770000D01*
X17230000Y-10230000D02*
X17270000Y-10270000D01*
X17270000Y-10230000D02*
X17230000Y-10270000D01*
X17455000Y-10880000D02*
X17495000Y-10920000D01*
X17495000Y-10880000D02*
X17455000Y-10920000D01*
X17480000Y-9580000D02*
X17520000Y-9620000D01*
X17520000Y-9580000D02*
X17480000Y-9620000D01*
X17630000Y-12205000D02*
X17670000Y-12245000D01*
X17670000Y-12205000D02*
X17630000Y-12245000D01*
X17630000Y-13355000D02*
X17670000Y-13395000D01*
X17670000Y-13355000D02*
X17630000Y-13395000D01*
X17655000Y-10405000D02*
X17695000Y-10445000D01*
X17695000Y-10405000D02*
X17655000Y-10445000D01*
X17780000Y-10605000D02*
X17820000Y-10645000D01*
X17820000Y-10605000D02*
X17780000Y-10645000D01*
X17808955Y-11733955D02*
X17848955Y-11773955D01*
X17848955Y-11733955D02*
X17808955Y-11773955D01*
X17830000Y-9430000D02*
X17870000Y-9470000D01*
X17870000Y-9430000D02*
X17830000Y-9470000D01*
X17855000Y-10130000D02*
X17895000Y-10170000D01*
X17895000Y-10130000D02*
X17855000Y-10170000D01*
X17930000Y-10855000D02*
X17970000Y-10895000D01*
X17970000Y-10855000D02*
X17930000Y-10895000D01*
X18130000Y-12480000D02*
X18170000Y-12520000D01*
X18170000Y-12480000D02*
X18130000Y-12520000D01*
X18155000Y-9255000D02*
X18195000Y-9295000D01*
X18195000Y-9255000D02*
X18155000Y-9295000D01*
X18280000Y-9705000D02*
X18320000Y-9745000D01*
X18320000Y-9705000D02*
X18280000Y-9745000D01*
X18305000Y-13080000D02*
X18345000Y-13120000D01*
X18345000Y-13080000D02*
X18305000Y-13120000D01*
X18305000Y-13630000D02*
X18345000Y-13670000D01*
X18345000Y-13630000D02*
X18305000Y-13670000D01*
X18374181Y-11549181D02*
X18414181Y-11589181D01*
X18414181Y-11549181D02*
X18374181Y-11589181D01*
X18405000Y-11430000D02*
X18445000Y-11470000D01*
X18445000Y-11430000D02*
X18405000Y-11470000D01*
X18455000Y-11830000D02*
X18495000Y-11870000D01*
X18495000Y-11830000D02*
X18455000Y-11870000D01*
X18480000Y-10130000D02*
X18520000Y-10170000D01*
X18520000Y-10130000D02*
X18480000Y-10170000D01*
X18505000Y-11480000D02*
X18545000Y-11520000D01*
X18545000Y-11480000D02*
X18505000Y-11520000D01*
X18505000Y-12705000D02*
X18545000Y-12745000D01*
X18545000Y-12705000D02*
X18505000Y-12745000D01*
X18572450Y-11380000D02*
X18612450Y-11420000D01*
X18612450Y-11380000D02*
X18572450Y-11420000D01*
X18580000Y-13630000D02*
X18620000Y-13670000D01*
X18620000Y-13630000D02*
X18580000Y-13670000D01*
X18605000Y-11855000D02*
X18645000Y-11895000D01*
X18645000Y-11855000D02*
X18605000Y-11895000D01*
X18605000Y-13380000D02*
X18645000Y-13420000D01*
X18645000Y-13380000D02*
X18605000Y-13420000D01*
X18705000Y-9430000D02*
X18745000Y-9470000D01*
X18745000Y-9430000D02*
X18705000Y-9470000D01*
X18755000Y-12180000D02*
X18795000Y-12220000D01*
X18795000Y-12180000D02*
X18755000Y-12220000D01*
X18805000Y-12380000D02*
X18845000Y-12420000D01*
X18845000Y-12380000D02*
X18805000Y-12420000D01*
X18805000Y-12630000D02*
X18845000Y-12670000D01*
X18845000Y-12630000D02*
X18805000Y-12670000D01*
X18805000Y-12905000D02*
X18845000Y-12945000D01*
X18845000Y-12905000D02*
X18805000Y-12945000D01*
X18805000Y-13155000D02*
X18845000Y-13195000D01*
X18845000Y-13155000D02*
X18805000Y-13195000D01*
X18805000Y-13355000D02*
X18845000Y-13395000D01*
X18845000Y-13355000D02*
X18805000Y-13395000D01*
X18880000Y-9405000D02*
X18920000Y-9445000D01*
X18920000Y-9405000D02*
X18880000Y-9445000D01*
D13*
X14280000Y-12050000D02*
G75*
G03*
X14280000Y-12050000I-30000J0D01*
G01*
X14430000Y-12050000D02*
G75*
G03*
X14430000Y-12050000I-30000J0D01*
G01*
D14*
X14773000Y-11673500D02*
X14773000Y-11748500D01*
X14735500Y-11711000D02*
X14810500Y-11711000D01*
X14773000Y-12373500D02*
X14773000Y-12448500D01*
X14735500Y-12411000D02*
X14810500Y-12411000D01*
X14798000Y-10973500D02*
X14798000Y-11048500D01*
X14760500Y-11011000D02*
X14835500Y-11011000D01*
X14900000Y-11546500D02*
X14900000Y-11621500D01*
X14862500Y-11584000D02*
X14937500Y-11584000D01*
X14900000Y-12246500D02*
X14900000Y-12321500D01*
X14862500Y-12284000D02*
X14937500Y-12284000D01*
X14925000Y-10846500D02*
X14925000Y-10921500D01*
X14887500Y-10884000D02*
X14962500Y-10884000D01*
X15027000Y-11673500D02*
X15027000Y-11748500D01*
X14989500Y-11711000D02*
X15064500Y-11711000D01*
X15027000Y-12373500D02*
X15027000Y-12448500D01*
X14989500Y-12411000D02*
X15064500Y-12411000D01*
X15052000Y-10973500D02*
X15052000Y-11048500D01*
X15014500Y-11011000D02*
X15089500Y-11011000D01*
D15*
X14253284Y-11353284D02*
X14253284Y-11296715D01*
X14196715Y-11296715D01*
X14196715Y-11353284D01*
X14253284Y-11353284D01*
X14453284Y-11353284D02*
X14453284Y-11296715D01*
X14396715Y-11296715D01*
X14396715Y-11353284D01*
X14453284Y-11353284D01*
X15153284Y-10028285D02*
X15153284Y-9971716D01*
X15096715Y-9971716D01*
X15096715Y-10028285D01*
X15153284Y-10028285D01*
X15178284Y-9203285D02*
X15178284Y-9146716D01*
X15121715Y-9146716D01*
X15121715Y-9203285D01*
X15178284Y-9203285D01*
X15378284Y-9203285D02*
X15378284Y-9146716D01*
X15321715Y-9146716D01*
X15321715Y-9203285D01*
X15378284Y-9203285D01*
X15403284Y-10028285D02*
X15403284Y-9971716D01*
X15346715Y-9971716D01*
X15346715Y-10028285D01*
X15403284Y-10028285D01*
X16903285Y-9678285D02*
X16903285Y-9621716D01*
X16846716Y-9621716D01*
X16846716Y-9678285D01*
X16903285Y-9678285D01*
X17103285Y-9678285D02*
X17103285Y-9621716D01*
X17046716Y-9621716D01*
X17046716Y-9678285D01*
X17103285Y-9678285D01*
D16*
X13394000Y-11375000D02*
X13444000Y-11325000D01*
X13394000Y-11275000D01*
X13344000Y-11325000D01*
X13394000Y-11375000D01*
X13775000Y-11375000D02*
X13825000Y-11325000D01*
X13775000Y-11275000D01*
X13725000Y-11325000D01*
X13775000Y-11375000D01*
X13879925Y-8870000D02*
X13929925Y-8820000D01*
X13879925Y-8770000D01*
X13829925Y-8820000D01*
X13879925Y-8870000D01*
X13879925Y-9251000D02*
X13929925Y-9201000D01*
X13879925Y-9151000D01*
X13829925Y-9201000D01*
X13879925Y-9251000D01*
X15050000Y-13475000D02*
X15100000Y-13425000D01*
X15050000Y-13375000D01*
X15000000Y-13425000D01*
X15050000Y-13475000D01*
X15304000Y-13475000D02*
X15354000Y-13425000D01*
X15304000Y-13375000D01*
X15254000Y-13425000D01*
X15304000Y-13475000D01*
X15558000Y-13475000D02*
X15608000Y-13425000D01*
X15558000Y-13375000D01*
X15508000Y-13425000D01*
X15558000Y-13475000D01*
X15812000Y-13475000D02*
X15862000Y-13425000D01*
X15812000Y-13375000D01*
X15762000Y-13425000D01*
X15812000Y-13475000D01*
X15994500Y-11350000D02*
X16044500Y-11300000D01*
X15994500Y-11250000D01*
X15944500Y-11300000D01*
X15994500Y-11350000D01*
X16248500Y-11350000D02*
X16298500Y-11300000D01*
X16248500Y-11250000D01*
X16198500Y-11300000D01*
X16248500Y-11350000D01*
X16388000Y-12325000D02*
X16438000Y-12275000D01*
X16388000Y-12225000D01*
X16338000Y-12275000D01*
X16388000Y-12325000D01*
X16395000Y-13475000D02*
X16445000Y-13425000D01*
X16395000Y-13375000D01*
X16345000Y-13425000D01*
X16395000Y-13475000D01*
X16502500Y-11350000D02*
X16552500Y-11300000D01*
X16502500Y-11250000D01*
X16452500Y-11300000D01*
X16502500Y-11350000D01*
X16642000Y-12325000D02*
X16692000Y-12275000D01*
X16642000Y-12225000D01*
X16592000Y-12275000D01*
X16642000Y-12325000D01*
X16642000Y-13025000D02*
X16692000Y-12975000D01*
X16642000Y-12925000D01*
X16592000Y-12975000D01*
X16642000Y-13025000D01*
X16649000Y-13475000D02*
X16699000Y-13425000D01*
X16649000Y-13375000D01*
X16599000Y-13425000D01*
X16649000Y-13475000D01*
X16896000Y-12325000D02*
X16946000Y-12275000D01*
X16896000Y-12225000D01*
X16846000Y-12275000D01*
X16896000Y-12325000D01*
X16896000Y-13025000D02*
X16946000Y-12975000D01*
X16896000Y-12925000D01*
X16846000Y-12975000D01*
X16896000Y-13025000D01*
X16903000Y-13475000D02*
X16953000Y-13425000D01*
X16903000Y-13375000D01*
X16853000Y-13425000D01*
X16903000Y-13475000D01*
X16997500Y-11350000D02*
X17047500Y-11300000D01*
X16997500Y-11250000D01*
X16947500Y-11300000D01*
X16997500Y-11350000D01*
X17150000Y-12325000D02*
X17200000Y-12275000D01*
X17150000Y-12225000D01*
X17100000Y-12275000D01*
X17150000Y-12325000D01*
X17150000Y-13025000D02*
X17200000Y-12975000D01*
X17150000Y-12925000D01*
X17100000Y-12975000D01*
X17150000Y-13025000D01*
X17157000Y-13475000D02*
X17207000Y-13425000D01*
X17157000Y-13375000D01*
X17107000Y-13425000D01*
X17157000Y-13475000D01*
X17251500Y-11350000D02*
X17301500Y-11300000D01*
X17251500Y-11250000D01*
X17201500Y-11300000D01*
X17251500Y-11350000D01*
X17769500Y-11285000D02*
X17819500Y-11235000D01*
X17769500Y-11185000D01*
X17719500Y-11235000D01*
X17769500Y-11285000D01*
X18023500Y-11285000D02*
X18073500Y-11235000D01*
X18023500Y-11185000D01*
X17973500Y-11235000D01*
X18023500Y-11285000D01*
X18277500Y-11285000D02*
X18327500Y-11235000D01*
X18277500Y-11185000D01*
X18227500Y-11235000D01*
X18277500Y-11285000D01*
D17*
X13858000Y-13064000D02*
X13968000Y-13174000D01*
X13968000Y-13064000D02*
X13858000Y-13174000D01*
X13968000Y-13119000D02*
G75*
G03*
X13968000Y-13119000I-55000J0D01*
G01*
X13858000Y-13514000D02*
X13968000Y-13624000D01*
X13968000Y-13514000D02*
X13858000Y-13624000D01*
X13968000Y-13569000D02*
G75*
G03*
X13968000Y-13569000I-55000J0D01*
G01*
X14508000Y-13064000D02*
X14618000Y-13174000D01*
X14618000Y-13064000D02*
X14508000Y-13174000D01*
X14618000Y-13119000D02*
G75*
G03*
X14618000Y-13119000I-55000J0D01*
G01*
X14508000Y-13514000D02*
X14618000Y-13624000D01*
X14618000Y-13514000D02*
X14508000Y-13624000D01*
X14618000Y-13569000D02*
G75*
G03*
X14618000Y-13569000I-55000J0D01*
G01*
X18145000Y-10245000D02*
X18255000Y-10355000D01*
X18255000Y-10245000D02*
X18145000Y-10355000D01*
X18255000Y-10300000D02*
G75*
G03*
X18255000Y-10300000I-55000J0D01*
G01*
X18145000Y-10695000D02*
X18255000Y-10805000D01*
X18255000Y-10695000D02*
X18145000Y-10805000D01*
X18255000Y-10750000D02*
G75*
G03*
X18255000Y-10750000I-55000J0D01*
G01*
X18795000Y-10245000D02*
X18905000Y-10355000D01*
X18905000Y-10245000D02*
X18795000Y-10355000D01*
X18905000Y-10300000D02*
G75*
G03*
X18905000Y-10300000I-55000J0D01*
G01*
X18795000Y-10695000D02*
X18905000Y-10805000D01*
X18905000Y-10695000D02*
X18795000Y-10805000D01*
X18905000Y-10750000D02*
G75*
G03*
X18905000Y-10750000I-55000J0D01*
G01*
D18*
X16364000Y-8439000D02*
X16496000Y-8571000D01*
X16496000Y-8439000D02*
X16364000Y-8571000D01*
X16430000Y-8439000D02*
X16430000Y-8571000D01*
X16364000Y-8505000D02*
X16496000Y-8505000D01*
X16864000Y-8439000D02*
X16996000Y-8571000D01*
X16996000Y-8439000D02*
X16864000Y-8571000D01*
X16930000Y-8439000D02*
X16930000Y-8571000D01*
X16864000Y-8505000D02*
X16996000Y-8505000D01*
X17670500Y-8439000D02*
X17802500Y-8571000D01*
X17802500Y-8439000D02*
X17670500Y-8571000D01*
X17736500Y-8439000D02*
X17736500Y-8571000D01*
X17670500Y-8505000D02*
X17802500Y-8505000D01*
X18170500Y-8439000D02*
X18302500Y-8571000D01*
X18302500Y-8439000D02*
X18170500Y-8571000D01*
X18236500Y-8439000D02*
X18236500Y-8571000D01*
X18170500Y-8505000D02*
X18302500Y-8505000D01*
D11*
X13331969Y-14108776D02*
X13331969Y-13908776D01*
X13379588Y-13908776D01*
X13408159Y-13918300D01*
X13427207Y-13937348D01*
X13436731Y-13956395D01*
X13446255Y-13994490D01*
X13446255Y-14023062D01*
X13436731Y-14061157D01*
X13427207Y-14080205D01*
X13408159Y-14099252D01*
X13379588Y-14108776D01*
X13331969Y-14108776D01*
X13531969Y-14108776D02*
X13531969Y-13975443D01*
X13531969Y-14013538D02*
X13541493Y-13994490D01*
X13551017Y-13984967D01*
X13570064Y-13975443D01*
X13589112Y-13975443D01*
X13655778Y-14108776D02*
X13655778Y-13975443D01*
X13655778Y-13908776D02*
X13646255Y-13918300D01*
X13655778Y-13927824D01*
X13665302Y-13918300D01*
X13655778Y-13908776D01*
X13655778Y-13927824D01*
X13779588Y-14108776D02*
X13760540Y-14099252D01*
X13751017Y-14080205D01*
X13751017Y-13908776D01*
X13884350Y-14108776D02*
X13865302Y-14099252D01*
X13855778Y-14080205D01*
X13855778Y-13908776D01*
X14112921Y-14108776D02*
X14112921Y-13908776D01*
X14179588Y-14051633D01*
X14246255Y-13908776D01*
X14246255Y-14108776D01*
X14427207Y-14108776D02*
X14427207Y-14004014D01*
X14417683Y-13984967D01*
X14398636Y-13975443D01*
X14360540Y-13975443D01*
X14341493Y-13984967D01*
X14427207Y-14099252D02*
X14408159Y-14108776D01*
X14360540Y-14108776D01*
X14341493Y-14099252D01*
X14331969Y-14080205D01*
X14331969Y-14061157D01*
X14341493Y-14042109D01*
X14360540Y-14032586D01*
X14408159Y-14032586D01*
X14427207Y-14023062D01*
X14522445Y-13975443D02*
X14522445Y-14175443D01*
X14522445Y-13984967D02*
X14541493Y-13975443D01*
X14579588Y-13975443D01*
X14598636Y-13984967D01*
X14608159Y-13994490D01*
X14617683Y-14013538D01*
X14617683Y-14070681D01*
X14608159Y-14089728D01*
X14598636Y-14099252D01*
X14579588Y-14108776D01*
X14541493Y-14108776D01*
X14522445Y-14099252D01*
X14703398Y-14089728D02*
X14712921Y-14099252D01*
X14703398Y-14108776D01*
X14693874Y-14099252D01*
X14703398Y-14089728D01*
X14703398Y-14108776D01*
X14703398Y-13984967D02*
X14712921Y-13994490D01*
X14703398Y-14004014D01*
X14693874Y-13994490D01*
X14703398Y-13984967D01*
X14703398Y-14004014D01*
D12*
X13034350Y-14418300D02*
X13074350Y-14458300D01*
X13074350Y-14418300D02*
X13034350Y-14458300D01*
D11*
X13370064Y-14328776D02*
X13389112Y-14328776D01*
X13408159Y-14338300D01*
X13417683Y-14347824D01*
X13427207Y-14366871D01*
X13436731Y-14404967D01*
X13436731Y-14452586D01*
X13427207Y-14490681D01*
X13417683Y-14509728D01*
X13408159Y-14519252D01*
X13389112Y-14528776D01*
X13370064Y-14528776D01*
X13351017Y-14519252D01*
X13341493Y-14509728D01*
X13331969Y-14490681D01*
X13322445Y-14452586D01*
X13322445Y-14404967D01*
X13331969Y-14366871D01*
X13341493Y-14347824D01*
X13351017Y-14338300D01*
X13370064Y-14328776D01*
X13522445Y-14509728D02*
X13531969Y-14519252D01*
X13522445Y-14528776D01*
X13512921Y-14519252D01*
X13522445Y-14509728D01*
X13522445Y-14528776D01*
X13703398Y-14395443D02*
X13703398Y-14528776D01*
X13655778Y-14319252D02*
X13608159Y-14462109D01*
X13731969Y-14462109D01*
X13846255Y-14328776D02*
X13865302Y-14328776D01*
X13884350Y-14338300D01*
X13893874Y-14347824D01*
X13903398Y-14366871D01*
X13912921Y-14404967D01*
X13912921Y-14452586D01*
X13903398Y-14490681D01*
X13893874Y-14509728D01*
X13884350Y-14519252D01*
X13865302Y-14528776D01*
X13846255Y-14528776D01*
X13827207Y-14519252D01*
X13817683Y-14509728D01*
X13808159Y-14490681D01*
X13798636Y-14452586D01*
X13798636Y-14404967D01*
X13808159Y-14366871D01*
X13817683Y-14347824D01*
X13827207Y-14338300D01*
X13846255Y-14328776D01*
X14036731Y-14328776D02*
X14055778Y-14328776D01*
X14074826Y-14338300D01*
X14084350Y-14347824D01*
X14093874Y-14366871D01*
X14103398Y-14404967D01*
X14103398Y-14452586D01*
X14093874Y-14490681D01*
X14084350Y-14509728D01*
X14074826Y-14519252D01*
X14055778Y-14528776D01*
X14036731Y-14528776D01*
X14017683Y-14519252D01*
X14008159Y-14509728D01*
X13998636Y-14490681D01*
X13989112Y-14452586D01*
X13989112Y-14404967D01*
X13998636Y-14366871D01*
X14008159Y-14347824D01*
X14017683Y-14338300D01*
X14036731Y-14328776D01*
X14189112Y-14528776D02*
X14189112Y-14395443D01*
X14189112Y-14414490D02*
X14198636Y-14404967D01*
X14217683Y-14395443D01*
X14246255Y-14395443D01*
X14265302Y-14404967D01*
X14274826Y-14424014D01*
X14274826Y-14528776D01*
X14274826Y-14424014D02*
X14284350Y-14404967D01*
X14303398Y-14395443D01*
X14331969Y-14395443D01*
X14351017Y-14404967D01*
X14360540Y-14424014D01*
X14360540Y-14528776D01*
X14455778Y-14528776D02*
X14455778Y-14395443D01*
X14455778Y-14414490D02*
X14465302Y-14404967D01*
X14484350Y-14395443D01*
X14512921Y-14395443D01*
X14531969Y-14404967D01*
X14541493Y-14424014D01*
X14541493Y-14528776D01*
X14541493Y-14424014D02*
X14551017Y-14404967D01*
X14570064Y-14395443D01*
X14598636Y-14395443D01*
X14617683Y-14404967D01*
X14627207Y-14424014D01*
X14627207Y-14528776D01*
X15017683Y-14319252D02*
X14846255Y-14576395D01*
X15274826Y-14328776D02*
X15293874Y-14328776D01*
X15312921Y-14338300D01*
X15322445Y-14347824D01*
X15331969Y-14366871D01*
X15341493Y-14404967D01*
X15341493Y-14452586D01*
X15331969Y-14490681D01*
X15322445Y-14509728D01*
X15312921Y-14519252D01*
X15293874Y-14528776D01*
X15274826Y-14528776D01*
X15255778Y-14519252D01*
X15246255Y-14509728D01*
X15236731Y-14490681D01*
X15227207Y-14452586D01*
X15227207Y-14404967D01*
X15236731Y-14366871D01*
X15246255Y-14347824D01*
X15255778Y-14338300D01*
X15274826Y-14328776D01*
X15427207Y-14509728D02*
X15436731Y-14519252D01*
X15427207Y-14528776D01*
X15417683Y-14519252D01*
X15427207Y-14509728D01*
X15427207Y-14528776D01*
X15560540Y-14328776D02*
X15579588Y-14328776D01*
X15598636Y-14338300D01*
X15608159Y-14347824D01*
X15617683Y-14366871D01*
X15627207Y-14404967D01*
X15627207Y-14452586D01*
X15617683Y-14490681D01*
X15608159Y-14509728D01*
X15598636Y-14519252D01*
X15579588Y-14528776D01*
X15560540Y-14528776D01*
X15541493Y-14519252D01*
X15531969Y-14509728D01*
X15522445Y-14490681D01*
X15512921Y-14452586D01*
X15512921Y-14404967D01*
X15522445Y-14366871D01*
X15531969Y-14347824D01*
X15541493Y-14338300D01*
X15560540Y-14328776D01*
X15817683Y-14528776D02*
X15703398Y-14528776D01*
X15760540Y-14528776D02*
X15760540Y-14328776D01*
X15741493Y-14357348D01*
X15722445Y-14376395D01*
X15703398Y-14385919D01*
X15998636Y-14328776D02*
X15903398Y-14328776D01*
X15893874Y-14424014D01*
X15903398Y-14414490D01*
X15922445Y-14404967D01*
X15970064Y-14404967D01*
X15989112Y-14414490D01*
X15998636Y-14424014D01*
X16008159Y-14443062D01*
X16008159Y-14490681D01*
X15998636Y-14509728D01*
X15989112Y-14519252D01*
X15970064Y-14528776D01*
X15922445Y-14528776D01*
X15903398Y-14519252D01*
X15893874Y-14509728D01*
X16074826Y-14328776D02*
X16208159Y-14328776D01*
X16122445Y-14528776D01*
X16274826Y-14328776D02*
X16274826Y-14366871D01*
X16351017Y-14328776D02*
X16351017Y-14366871D01*
X16646255Y-14604967D02*
X16636731Y-14595443D01*
X16617683Y-14566871D01*
X16608159Y-14547824D01*
X16598636Y-14519252D01*
X16589112Y-14471633D01*
X16589112Y-14433538D01*
X16598636Y-14385919D01*
X16608159Y-14357348D01*
X16617683Y-14338300D01*
X16636731Y-14309728D01*
X16646255Y-14300205D01*
X16808160Y-14328776D02*
X16770064Y-14328776D01*
X16751017Y-14338300D01*
X16741493Y-14347824D01*
X16722445Y-14376395D01*
X16712921Y-14414490D01*
X16712921Y-14490681D01*
X16722445Y-14509728D01*
X16731969Y-14519252D01*
X16751017Y-14528776D01*
X16789112Y-14528776D01*
X16808160Y-14519252D01*
X16817683Y-14509728D01*
X16827207Y-14490681D01*
X16827207Y-14443062D01*
X16817683Y-14424014D01*
X16808160Y-14414490D01*
X16789112Y-14404967D01*
X16751017Y-14404967D01*
X16731969Y-14414490D01*
X16722445Y-14424014D01*
X16712921Y-14443062D01*
X17017683Y-14528776D02*
X16903398Y-14528776D01*
X16960540Y-14528776D02*
X16960540Y-14328776D01*
X16941493Y-14357348D01*
X16922445Y-14376395D01*
X16903398Y-14385919D01*
X17255779Y-14528776D02*
X17255779Y-14328776D01*
X17341493Y-14528776D02*
X17341493Y-14424014D01*
X17331969Y-14404967D01*
X17312921Y-14395443D01*
X17284350Y-14395443D01*
X17265302Y-14404967D01*
X17255779Y-14414490D01*
X17465302Y-14528776D02*
X17446255Y-14519252D01*
X17436731Y-14509728D01*
X17427207Y-14490681D01*
X17427207Y-14433538D01*
X17436731Y-14414490D01*
X17446255Y-14404967D01*
X17465302Y-14395443D01*
X17493874Y-14395443D01*
X17512921Y-14404967D01*
X17522445Y-14414490D01*
X17531969Y-14433538D01*
X17531969Y-14490681D01*
X17522445Y-14509728D01*
X17512921Y-14519252D01*
X17493874Y-14528776D01*
X17465302Y-14528776D01*
X17646255Y-14528776D02*
X17627207Y-14519252D01*
X17617683Y-14500205D01*
X17617683Y-14328776D01*
X17798636Y-14519252D02*
X17779588Y-14528776D01*
X17741493Y-14528776D01*
X17722445Y-14519252D01*
X17712921Y-14500205D01*
X17712921Y-14424014D01*
X17722445Y-14404967D01*
X17741493Y-14395443D01*
X17779588Y-14395443D01*
X17798636Y-14404967D01*
X17808160Y-14424014D01*
X17808160Y-14443062D01*
X17712921Y-14462109D01*
X17884350Y-14519252D02*
X17903398Y-14528776D01*
X17941493Y-14528776D01*
X17960540Y-14519252D01*
X17970064Y-14500205D01*
X17970064Y-14490681D01*
X17960540Y-14471633D01*
X17941493Y-14462109D01*
X17912921Y-14462109D01*
X17893874Y-14452586D01*
X17884350Y-14433538D01*
X17884350Y-14424014D01*
X17893874Y-14404967D01*
X17912921Y-14395443D01*
X17941493Y-14395443D01*
X17960540Y-14404967D01*
X18036731Y-14604967D02*
X18046255Y-14595443D01*
X18065302Y-14566871D01*
X18074826Y-14547824D01*
X18084350Y-14519252D01*
X18093874Y-14471633D01*
X18093874Y-14433538D01*
X18084350Y-14385919D01*
X18074826Y-14357348D01*
X18065302Y-14338300D01*
X18046255Y-14309728D01*
X18036731Y-14300205D01*
D13*
X13074350Y-14702300D02*
G75*
G03*
X13074350Y-14702300I-30000J0D01*
G01*
D11*
X13370064Y-14592776D02*
X13389112Y-14592776D01*
X13408159Y-14602300D01*
X13417683Y-14611824D01*
X13427207Y-14630871D01*
X13436731Y-14668967D01*
X13436731Y-14716586D01*
X13427207Y-14754681D01*
X13417683Y-14773728D01*
X13408159Y-14783252D01*
X13389112Y-14792776D01*
X13370064Y-14792776D01*
X13351017Y-14783252D01*
X13341493Y-14773728D01*
X13331969Y-14754681D01*
X13322445Y-14716586D01*
X13322445Y-14668967D01*
X13331969Y-14630871D01*
X13341493Y-14611824D01*
X13351017Y-14602300D01*
X13370064Y-14592776D01*
X13522445Y-14773728D02*
X13531969Y-14783252D01*
X13522445Y-14792776D01*
X13512921Y-14783252D01*
X13522445Y-14773728D01*
X13522445Y-14792776D01*
X13703398Y-14592776D02*
X13665302Y-14592776D01*
X13646255Y-14602300D01*
X13636731Y-14611824D01*
X13617683Y-14640395D01*
X13608159Y-14678490D01*
X13608159Y-14754681D01*
X13617683Y-14773728D01*
X13627207Y-14783252D01*
X13646255Y-14792776D01*
X13684350Y-14792776D01*
X13703398Y-14783252D01*
X13712921Y-14773728D01*
X13722445Y-14754681D01*
X13722445Y-14707062D01*
X13712921Y-14688014D01*
X13703398Y-14678490D01*
X13684350Y-14668967D01*
X13646255Y-14668967D01*
X13627207Y-14678490D01*
X13617683Y-14688014D01*
X13608159Y-14707062D01*
X13846255Y-14592776D02*
X13865302Y-14592776D01*
X13884350Y-14602300D01*
X13893874Y-14611824D01*
X13903398Y-14630871D01*
X13912921Y-14668967D01*
X13912921Y-14716586D01*
X13903398Y-14754681D01*
X13893874Y-14773728D01*
X13884350Y-14783252D01*
X13865302Y-14792776D01*
X13846255Y-14792776D01*
X13827207Y-14783252D01*
X13817683Y-14773728D01*
X13808159Y-14754681D01*
X13798636Y-14716586D01*
X13798636Y-14668967D01*
X13808159Y-14630871D01*
X13817683Y-14611824D01*
X13827207Y-14602300D01*
X13846255Y-14592776D01*
X14036731Y-14592776D02*
X14055778Y-14592776D01*
X14074826Y-14602300D01*
X14084350Y-14611824D01*
X14093874Y-14630871D01*
X14103398Y-14668967D01*
X14103398Y-14716586D01*
X14093874Y-14754681D01*
X14084350Y-14773728D01*
X14074826Y-14783252D01*
X14055778Y-14792776D01*
X14036731Y-14792776D01*
X14017683Y-14783252D01*
X14008159Y-14773728D01*
X13998636Y-14754681D01*
X13989112Y-14716586D01*
X13989112Y-14668967D01*
X13998636Y-14630871D01*
X14008159Y-14611824D01*
X14017683Y-14602300D01*
X14036731Y-14592776D01*
X14189112Y-14792776D02*
X14189112Y-14659443D01*
X14189112Y-14678490D02*
X14198636Y-14668967D01*
X14217683Y-14659443D01*
X14246255Y-14659443D01*
X14265302Y-14668967D01*
X14274826Y-14688014D01*
X14274826Y-14792776D01*
X14274826Y-14688014D02*
X14284350Y-14668967D01*
X14303398Y-14659443D01*
X14331969Y-14659443D01*
X14351017Y-14668967D01*
X14360540Y-14688014D01*
X14360540Y-14792776D01*
X14455778Y-14792776D02*
X14455778Y-14659443D01*
X14455778Y-14678490D02*
X14465302Y-14668967D01*
X14484350Y-14659443D01*
X14512921Y-14659443D01*
X14531969Y-14668967D01*
X14541493Y-14688014D01*
X14541493Y-14792776D01*
X14541493Y-14688014D02*
X14551017Y-14668967D01*
X14570064Y-14659443D01*
X14598636Y-14659443D01*
X14617683Y-14668967D01*
X14627207Y-14688014D01*
X14627207Y-14792776D01*
X15017683Y-14583252D02*
X14846255Y-14840395D01*
X15274826Y-14592776D02*
X15293874Y-14592776D01*
X15312921Y-14602300D01*
X15322445Y-14611824D01*
X15331969Y-14630871D01*
X15341493Y-14668967D01*
X15341493Y-14716586D01*
X15331969Y-14754681D01*
X15322445Y-14773728D01*
X15312921Y-14783252D01*
X15293874Y-14792776D01*
X15274826Y-14792776D01*
X15255778Y-14783252D01*
X15246255Y-14773728D01*
X15236731Y-14754681D01*
X15227207Y-14716586D01*
X15227207Y-14668967D01*
X15236731Y-14630871D01*
X15246255Y-14611824D01*
X15255778Y-14602300D01*
X15274826Y-14592776D01*
X15427207Y-14773728D02*
X15436731Y-14783252D01*
X15427207Y-14792776D01*
X15417683Y-14783252D01*
X15427207Y-14773728D01*
X15427207Y-14792776D01*
X15560540Y-14592776D02*
X15579588Y-14592776D01*
X15598636Y-14602300D01*
X15608159Y-14611824D01*
X15617683Y-14630871D01*
X15627207Y-14668967D01*
X15627207Y-14716586D01*
X15617683Y-14754681D01*
X15608159Y-14773728D01*
X15598636Y-14783252D01*
X15579588Y-14792776D01*
X15560540Y-14792776D01*
X15541493Y-14783252D01*
X15531969Y-14773728D01*
X15522445Y-14754681D01*
X15512921Y-14716586D01*
X15512921Y-14668967D01*
X15522445Y-14630871D01*
X15531969Y-14611824D01*
X15541493Y-14602300D01*
X15560540Y-14592776D01*
X15703398Y-14611824D02*
X15712921Y-14602300D01*
X15731969Y-14592776D01*
X15779588Y-14592776D01*
X15798636Y-14602300D01*
X15808159Y-14611824D01*
X15817683Y-14630871D01*
X15817683Y-14649919D01*
X15808159Y-14678490D01*
X15693874Y-14792776D01*
X15817683Y-14792776D01*
X15884350Y-14592776D02*
X16008159Y-14592776D01*
X15941493Y-14668967D01*
X15970064Y-14668967D01*
X15989112Y-14678490D01*
X15998636Y-14688014D01*
X16008159Y-14707062D01*
X16008159Y-14754681D01*
X15998636Y-14773728D01*
X15989112Y-14783252D01*
X15970064Y-14792776D01*
X15912921Y-14792776D01*
X15893874Y-14783252D01*
X15884350Y-14773728D01*
X16179588Y-14592776D02*
X16141493Y-14592776D01*
X16122445Y-14602300D01*
X16112921Y-14611824D01*
X16093874Y-14640395D01*
X16084350Y-14678490D01*
X16084350Y-14754681D01*
X16093874Y-14773728D01*
X16103398Y-14783252D01*
X16122445Y-14792776D01*
X16160540Y-14792776D01*
X16179588Y-14783252D01*
X16189112Y-14773728D01*
X16198636Y-14754681D01*
X16198636Y-14707062D01*
X16189112Y-14688014D01*
X16179588Y-14678490D01*
X16160540Y-14668967D01*
X16122445Y-14668967D01*
X16103398Y-14678490D01*
X16093874Y-14688014D01*
X16084350Y-14707062D01*
X16274826Y-14592776D02*
X16274826Y-14630871D01*
X16351017Y-14592776D02*
X16351017Y-14630871D01*
X16646255Y-14868967D02*
X16636731Y-14859443D01*
X16617683Y-14830871D01*
X16608159Y-14811824D01*
X16598636Y-14783252D01*
X16589112Y-14735633D01*
X16589112Y-14697538D01*
X16598636Y-14649919D01*
X16608159Y-14621348D01*
X16617683Y-14602300D01*
X16636731Y-14573728D01*
X16646255Y-14564205D01*
X16712921Y-14611824D02*
X16722445Y-14602300D01*
X16741493Y-14592776D01*
X16789112Y-14592776D01*
X16808160Y-14602300D01*
X16817683Y-14611824D01*
X16827207Y-14630871D01*
X16827207Y-14649919D01*
X16817683Y-14678490D01*
X16703398Y-14792776D01*
X16827207Y-14792776D01*
X17065302Y-14792776D02*
X17065302Y-14592776D01*
X17151017Y-14792776D02*
X17151017Y-14688014D01*
X17141493Y-14668967D01*
X17122445Y-14659443D01*
X17093874Y-14659443D01*
X17074826Y-14668967D01*
X17065302Y-14678490D01*
X17274826Y-14792776D02*
X17255779Y-14783252D01*
X17246255Y-14773728D01*
X17236731Y-14754681D01*
X17236731Y-14697538D01*
X17246255Y-14678490D01*
X17255779Y-14668967D01*
X17274826Y-14659443D01*
X17303398Y-14659443D01*
X17322445Y-14668967D01*
X17331969Y-14678490D01*
X17341493Y-14697538D01*
X17341493Y-14754681D01*
X17331969Y-14773728D01*
X17322445Y-14783252D01*
X17303398Y-14792776D01*
X17274826Y-14792776D01*
X17455779Y-14792776D02*
X17436731Y-14783252D01*
X17427207Y-14764205D01*
X17427207Y-14592776D01*
X17608160Y-14783252D02*
X17589112Y-14792776D01*
X17551017Y-14792776D01*
X17531969Y-14783252D01*
X17522445Y-14764205D01*
X17522445Y-14688014D01*
X17531969Y-14668967D01*
X17551017Y-14659443D01*
X17589112Y-14659443D01*
X17608160Y-14668967D01*
X17617683Y-14688014D01*
X17617683Y-14707062D01*
X17522445Y-14726109D01*
X17693874Y-14783252D02*
X17712921Y-14792776D01*
X17751017Y-14792776D01*
X17770064Y-14783252D01*
X17779588Y-14764205D01*
X17779588Y-14754681D01*
X17770064Y-14735633D01*
X17751017Y-14726109D01*
X17722445Y-14726109D01*
X17703398Y-14716586D01*
X17693874Y-14697538D01*
X17693874Y-14688014D01*
X17703398Y-14668967D01*
X17722445Y-14659443D01*
X17751017Y-14659443D01*
X17770064Y-14668967D01*
X17846255Y-14868967D02*
X17855779Y-14859443D01*
X17874826Y-14830871D01*
X17884350Y-14811824D01*
X17893874Y-14783252D01*
X17903398Y-14735633D01*
X17903398Y-14697538D01*
X17893874Y-14649919D01*
X17884350Y-14621348D01*
X17874826Y-14602300D01*
X17855779Y-14573728D01*
X17846255Y-14564205D01*
D14*
X13036850Y-14928800D02*
X13036850Y-15003800D01*
X12999350Y-14966300D02*
X13074350Y-14966300D01*
D11*
X13370064Y-14856776D02*
X13389112Y-14856776D01*
X13408159Y-14866300D01*
X13417683Y-14875824D01*
X13427207Y-14894871D01*
X13436731Y-14932967D01*
X13436731Y-14980586D01*
X13427207Y-15018681D01*
X13417683Y-15037728D01*
X13408159Y-15047252D01*
X13389112Y-15056776D01*
X13370064Y-15056776D01*
X13351017Y-15047252D01*
X13341493Y-15037728D01*
X13331969Y-15018681D01*
X13322445Y-14980586D01*
X13322445Y-14932967D01*
X13331969Y-14894871D01*
X13341493Y-14875824D01*
X13351017Y-14866300D01*
X13370064Y-14856776D01*
X13522445Y-15037728D02*
X13531969Y-15047252D01*
X13522445Y-15056776D01*
X13512921Y-15047252D01*
X13522445Y-15037728D01*
X13522445Y-15056776D01*
X13598636Y-14856776D02*
X13731969Y-14856776D01*
X13646255Y-15056776D01*
X13903398Y-14856776D02*
X13808159Y-14856776D01*
X13798636Y-14952014D01*
X13808159Y-14942490D01*
X13827207Y-14932967D01*
X13874826Y-14932967D01*
X13893874Y-14942490D01*
X13903398Y-14952014D01*
X13912921Y-14971062D01*
X13912921Y-15018681D01*
X13903398Y-15037728D01*
X13893874Y-15047252D01*
X13874826Y-15056776D01*
X13827207Y-15056776D01*
X13808159Y-15047252D01*
X13798636Y-15037728D01*
X14036731Y-14856776D02*
X14055778Y-14856776D01*
X14074826Y-14866300D01*
X14084350Y-14875824D01*
X14093874Y-14894871D01*
X14103398Y-14932967D01*
X14103398Y-14980586D01*
X14093874Y-15018681D01*
X14084350Y-15037728D01*
X14074826Y-15047252D01*
X14055778Y-15056776D01*
X14036731Y-15056776D01*
X14017683Y-15047252D01*
X14008159Y-15037728D01*
X13998636Y-15018681D01*
X13989112Y-14980586D01*
X13989112Y-14932967D01*
X13998636Y-14894871D01*
X14008159Y-14875824D01*
X14017683Y-14866300D01*
X14036731Y-14856776D01*
X14189112Y-15056776D02*
X14189112Y-14923443D01*
X14189112Y-14942490D02*
X14198636Y-14932967D01*
X14217683Y-14923443D01*
X14246255Y-14923443D01*
X14265302Y-14932967D01*
X14274826Y-14952014D01*
X14274826Y-15056776D01*
X14274826Y-14952014D02*
X14284350Y-14932967D01*
X14303398Y-14923443D01*
X14331969Y-14923443D01*
X14351017Y-14932967D01*
X14360540Y-14952014D01*
X14360540Y-15056776D01*
X14455778Y-15056776D02*
X14455778Y-14923443D01*
X14455778Y-14942490D02*
X14465302Y-14932967D01*
X14484350Y-14923443D01*
X14512921Y-14923443D01*
X14531969Y-14932967D01*
X14541493Y-14952014D01*
X14541493Y-15056776D01*
X14541493Y-14952014D02*
X14551017Y-14932967D01*
X14570064Y-14923443D01*
X14598636Y-14923443D01*
X14617683Y-14932967D01*
X14627207Y-14952014D01*
X14627207Y-15056776D01*
X15017683Y-14847252D02*
X14846255Y-15104395D01*
X15274826Y-14856776D02*
X15293874Y-14856776D01*
X15312921Y-14866300D01*
X15322445Y-14875824D01*
X15331969Y-14894871D01*
X15341493Y-14932967D01*
X15341493Y-14980586D01*
X15331969Y-15018681D01*
X15322445Y-15037728D01*
X15312921Y-15047252D01*
X15293874Y-15056776D01*
X15274826Y-15056776D01*
X15255778Y-15047252D01*
X15246255Y-15037728D01*
X15236731Y-15018681D01*
X15227207Y-14980586D01*
X15227207Y-14932967D01*
X15236731Y-14894871D01*
X15246255Y-14875824D01*
X15255778Y-14866300D01*
X15274826Y-14856776D01*
X15427207Y-15037728D02*
X15436731Y-15047252D01*
X15427207Y-15056776D01*
X15417683Y-15047252D01*
X15427207Y-15037728D01*
X15427207Y-15056776D01*
X15560540Y-14856776D02*
X15579588Y-14856776D01*
X15598636Y-14866300D01*
X15608159Y-14875824D01*
X15617683Y-14894871D01*
X15627207Y-14932967D01*
X15627207Y-14980586D01*
X15617683Y-15018681D01*
X15608159Y-15037728D01*
X15598636Y-15047252D01*
X15579588Y-15056776D01*
X15560540Y-15056776D01*
X15541493Y-15047252D01*
X15531969Y-15037728D01*
X15522445Y-15018681D01*
X15512921Y-14980586D01*
X15512921Y-14932967D01*
X15522445Y-14894871D01*
X15531969Y-14875824D01*
X15541493Y-14866300D01*
X15560540Y-14856776D01*
X15703398Y-14875824D02*
X15712921Y-14866300D01*
X15731969Y-14856776D01*
X15779588Y-14856776D01*
X15798636Y-14866300D01*
X15808159Y-14875824D01*
X15817683Y-14894871D01*
X15817683Y-14913919D01*
X15808159Y-14942490D01*
X15693874Y-15056776D01*
X15817683Y-15056776D01*
X15912921Y-15056776D02*
X15951017Y-15056776D01*
X15970064Y-15047252D01*
X15979588Y-15037728D01*
X15998636Y-15009157D01*
X16008159Y-14971062D01*
X16008159Y-14894871D01*
X15998636Y-14875824D01*
X15989112Y-14866300D01*
X15970064Y-14856776D01*
X15931969Y-14856776D01*
X15912921Y-14866300D01*
X15903398Y-14875824D01*
X15893874Y-14894871D01*
X15893874Y-14942490D01*
X15903398Y-14961538D01*
X15912921Y-14971062D01*
X15931969Y-14980586D01*
X15970064Y-14980586D01*
X15989112Y-14971062D01*
X15998636Y-14961538D01*
X16008159Y-14942490D01*
X16189112Y-14856776D02*
X16093874Y-14856776D01*
X16084350Y-14952014D01*
X16093874Y-14942490D01*
X16112921Y-14932967D01*
X16160540Y-14932967D01*
X16179588Y-14942490D01*
X16189112Y-14952014D01*
X16198636Y-14971062D01*
X16198636Y-15018681D01*
X16189112Y-15037728D01*
X16179588Y-15047252D01*
X16160540Y-15056776D01*
X16112921Y-15056776D01*
X16093874Y-15047252D01*
X16084350Y-15037728D01*
X16274826Y-14856776D02*
X16274826Y-14894871D01*
X16351017Y-14856776D02*
X16351017Y-14894871D01*
X16646255Y-15132967D02*
X16636731Y-15123443D01*
X16617683Y-15094871D01*
X16608159Y-15075824D01*
X16598636Y-15047252D01*
X16589112Y-14999633D01*
X16589112Y-14961538D01*
X16598636Y-14913919D01*
X16608159Y-14885348D01*
X16617683Y-14866300D01*
X16636731Y-14837728D01*
X16646255Y-14828205D01*
X16731969Y-15056776D02*
X16770064Y-15056776D01*
X16789112Y-15047252D01*
X16798636Y-15037728D01*
X16817683Y-15009157D01*
X16827207Y-14971062D01*
X16827207Y-14894871D01*
X16817683Y-14875824D01*
X16808160Y-14866300D01*
X16789112Y-14856776D01*
X16751017Y-14856776D01*
X16731969Y-14866300D01*
X16722445Y-14875824D01*
X16712921Y-14894871D01*
X16712921Y-14942490D01*
X16722445Y-14961538D01*
X16731969Y-14971062D01*
X16751017Y-14980586D01*
X16789112Y-14980586D01*
X16808160Y-14971062D01*
X16817683Y-14961538D01*
X16827207Y-14942490D01*
X17065302Y-15056776D02*
X17065302Y-14856776D01*
X17151017Y-15056776D02*
X17151017Y-14952014D01*
X17141493Y-14932967D01*
X17122445Y-14923443D01*
X17093874Y-14923443D01*
X17074826Y-14932967D01*
X17065302Y-14942490D01*
X17274826Y-15056776D02*
X17255779Y-15047252D01*
X17246255Y-15037728D01*
X17236731Y-15018681D01*
X17236731Y-14961538D01*
X17246255Y-14942490D01*
X17255779Y-14932967D01*
X17274826Y-14923443D01*
X17303398Y-14923443D01*
X17322445Y-14932967D01*
X17331969Y-14942490D01*
X17341493Y-14961538D01*
X17341493Y-15018681D01*
X17331969Y-15037728D01*
X17322445Y-15047252D01*
X17303398Y-15056776D01*
X17274826Y-15056776D01*
X17455779Y-15056776D02*
X17436731Y-15047252D01*
X17427207Y-15028205D01*
X17427207Y-14856776D01*
X17608160Y-15047252D02*
X17589112Y-15056776D01*
X17551017Y-15056776D01*
X17531969Y-15047252D01*
X17522445Y-15028205D01*
X17522445Y-14952014D01*
X17531969Y-14932967D01*
X17551017Y-14923443D01*
X17589112Y-14923443D01*
X17608160Y-14932967D01*
X17617683Y-14952014D01*
X17617683Y-14971062D01*
X17522445Y-14990109D01*
X17693874Y-15047252D02*
X17712921Y-15056776D01*
X17751017Y-15056776D01*
X17770064Y-15047252D01*
X17779588Y-15028205D01*
X17779588Y-15018681D01*
X17770064Y-14999633D01*
X17751017Y-14990109D01*
X17722445Y-14990109D01*
X17703398Y-14980586D01*
X17693874Y-14961538D01*
X17693874Y-14952014D01*
X17703398Y-14932967D01*
X17722445Y-14923443D01*
X17751017Y-14923443D01*
X17770064Y-14932967D01*
X17846255Y-15132967D02*
X17855779Y-15123443D01*
X17874826Y-15094871D01*
X17884350Y-15075824D01*
X17893874Y-15047252D01*
X17903398Y-14999633D01*
X17903398Y-14961538D01*
X17893874Y-14913919D01*
X17884350Y-14885348D01*
X17874826Y-14866300D01*
X17855779Y-14837728D01*
X17846255Y-14828205D01*
D15*
X13062634Y-15258584D02*
X13062634Y-15202015D01*
X13006065Y-15202015D01*
X13006065Y-15258584D01*
X13062634Y-15258584D01*
D11*
X13370064Y-15120776D02*
X13389112Y-15120776D01*
X13408159Y-15130300D01*
X13417683Y-15139824D01*
X13427207Y-15158871D01*
X13436731Y-15196967D01*
X13436731Y-15244586D01*
X13427207Y-15282681D01*
X13417683Y-15301728D01*
X13408159Y-15311252D01*
X13389112Y-15320776D01*
X13370064Y-15320776D01*
X13351017Y-15311252D01*
X13341493Y-15301728D01*
X13331969Y-15282681D01*
X13322445Y-15244586D01*
X13322445Y-15196967D01*
X13331969Y-15158871D01*
X13341493Y-15139824D01*
X13351017Y-15130300D01*
X13370064Y-15120776D01*
X13522445Y-15301728D02*
X13531969Y-15311252D01*
X13522445Y-15320776D01*
X13512921Y-15311252D01*
X13522445Y-15301728D01*
X13522445Y-15320776D01*
X13646255Y-15206490D02*
X13627207Y-15196967D01*
X13617683Y-15187443D01*
X13608159Y-15168395D01*
X13608159Y-15158871D01*
X13617683Y-15139824D01*
X13627207Y-15130300D01*
X13646255Y-15120776D01*
X13684350Y-15120776D01*
X13703398Y-15130300D01*
X13712921Y-15139824D01*
X13722445Y-15158871D01*
X13722445Y-15168395D01*
X13712921Y-15187443D01*
X13703398Y-15196967D01*
X13684350Y-15206490D01*
X13646255Y-15206490D01*
X13627207Y-15216014D01*
X13617683Y-15225538D01*
X13608159Y-15244586D01*
X13608159Y-15282681D01*
X13617683Y-15301728D01*
X13627207Y-15311252D01*
X13646255Y-15320776D01*
X13684350Y-15320776D01*
X13703398Y-15311252D01*
X13712921Y-15301728D01*
X13722445Y-15282681D01*
X13722445Y-15244586D01*
X13712921Y-15225538D01*
X13703398Y-15216014D01*
X13684350Y-15206490D01*
X13846255Y-15120776D02*
X13865302Y-15120776D01*
X13884350Y-15130300D01*
X13893874Y-15139824D01*
X13903398Y-15158871D01*
X13912921Y-15196967D01*
X13912921Y-15244586D01*
X13903398Y-15282681D01*
X13893874Y-15301728D01*
X13884350Y-15311252D01*
X13865302Y-15320776D01*
X13846255Y-15320776D01*
X13827207Y-15311252D01*
X13817683Y-15301728D01*
X13808159Y-15282681D01*
X13798636Y-15244586D01*
X13798636Y-15196967D01*
X13808159Y-15158871D01*
X13817683Y-15139824D01*
X13827207Y-15130300D01*
X13846255Y-15120776D01*
X14036731Y-15120776D02*
X14055778Y-15120776D01*
X14074826Y-15130300D01*
X14084350Y-15139824D01*
X14093874Y-15158871D01*
X14103398Y-15196967D01*
X14103398Y-15244586D01*
X14093874Y-15282681D01*
X14084350Y-15301728D01*
X14074826Y-15311252D01*
X14055778Y-15320776D01*
X14036731Y-15320776D01*
X14017683Y-15311252D01*
X14008159Y-15301728D01*
X13998636Y-15282681D01*
X13989112Y-15244586D01*
X13989112Y-15196967D01*
X13998636Y-15158871D01*
X14008159Y-15139824D01*
X14017683Y-15130300D01*
X14036731Y-15120776D01*
X14189112Y-15320776D02*
X14189112Y-15187443D01*
X14189112Y-15206490D02*
X14198636Y-15196967D01*
X14217683Y-15187443D01*
X14246255Y-15187443D01*
X14265302Y-15196967D01*
X14274826Y-15216014D01*
X14274826Y-15320776D01*
X14274826Y-15216014D02*
X14284350Y-15196967D01*
X14303398Y-15187443D01*
X14331969Y-15187443D01*
X14351017Y-15196967D01*
X14360540Y-15216014D01*
X14360540Y-15320776D01*
X14455778Y-15320776D02*
X14455778Y-15187443D01*
X14455778Y-15206490D02*
X14465302Y-15196967D01*
X14484350Y-15187443D01*
X14512921Y-15187443D01*
X14531969Y-15196967D01*
X14541493Y-15216014D01*
X14541493Y-15320776D01*
X14541493Y-15216014D02*
X14551017Y-15196967D01*
X14570064Y-15187443D01*
X14598636Y-15187443D01*
X14617683Y-15196967D01*
X14627207Y-15216014D01*
X14627207Y-15320776D01*
X15017683Y-15111252D02*
X14846255Y-15368395D01*
X15274826Y-15120776D02*
X15293874Y-15120776D01*
X15312921Y-15130300D01*
X15322445Y-15139824D01*
X15331969Y-15158871D01*
X15341493Y-15196967D01*
X15341493Y-15244586D01*
X15331969Y-15282681D01*
X15322445Y-15301728D01*
X15312921Y-15311252D01*
X15293874Y-15320776D01*
X15274826Y-15320776D01*
X15255778Y-15311252D01*
X15246255Y-15301728D01*
X15236731Y-15282681D01*
X15227207Y-15244586D01*
X15227207Y-15196967D01*
X15236731Y-15158871D01*
X15246255Y-15139824D01*
X15255778Y-15130300D01*
X15274826Y-15120776D01*
X15427207Y-15301728D02*
X15436731Y-15311252D01*
X15427207Y-15320776D01*
X15417683Y-15311252D01*
X15427207Y-15301728D01*
X15427207Y-15320776D01*
X15560540Y-15120776D02*
X15579588Y-15120776D01*
X15598636Y-15130300D01*
X15608159Y-15139824D01*
X15617683Y-15158871D01*
X15627207Y-15196967D01*
X15627207Y-15244586D01*
X15617683Y-15282681D01*
X15608159Y-15301728D01*
X15598636Y-15311252D01*
X15579588Y-15320776D01*
X15560540Y-15320776D01*
X15541493Y-15311252D01*
X15531969Y-15301728D01*
X15522445Y-15282681D01*
X15512921Y-15244586D01*
X15512921Y-15196967D01*
X15522445Y-15158871D01*
X15531969Y-15139824D01*
X15541493Y-15130300D01*
X15560540Y-15120776D01*
X15693874Y-15120776D02*
X15817683Y-15120776D01*
X15751017Y-15196967D01*
X15779588Y-15196967D01*
X15798636Y-15206490D01*
X15808159Y-15216014D01*
X15817683Y-15235062D01*
X15817683Y-15282681D01*
X15808159Y-15301728D01*
X15798636Y-15311252D01*
X15779588Y-15320776D01*
X15722445Y-15320776D01*
X15703398Y-15311252D01*
X15693874Y-15301728D01*
X16008159Y-15320776D02*
X15893874Y-15320776D01*
X15951017Y-15320776D02*
X15951017Y-15120776D01*
X15931969Y-15149348D01*
X15912921Y-15168395D01*
X15893874Y-15177919D01*
X16189112Y-15120776D02*
X16093874Y-15120776D01*
X16084350Y-15216014D01*
X16093874Y-15206490D01*
X16112921Y-15196967D01*
X16160540Y-15196967D01*
X16179588Y-15206490D01*
X16189112Y-15216014D01*
X16198636Y-15235062D01*
X16198636Y-15282681D01*
X16189112Y-15301728D01*
X16179588Y-15311252D01*
X16160540Y-15320776D01*
X16112921Y-15320776D01*
X16093874Y-15311252D01*
X16084350Y-15301728D01*
X16274826Y-15120776D02*
X16274826Y-15158871D01*
X16351017Y-15120776D02*
X16351017Y-15158871D01*
X16646255Y-15396967D02*
X16636731Y-15387443D01*
X16617683Y-15358871D01*
X16608159Y-15339824D01*
X16598636Y-15311252D01*
X16589112Y-15263633D01*
X16589112Y-15225538D01*
X16598636Y-15177919D01*
X16608159Y-15149348D01*
X16617683Y-15130300D01*
X16636731Y-15101728D01*
X16646255Y-15092205D01*
X16751017Y-15206490D02*
X16731969Y-15196967D01*
X16722445Y-15187443D01*
X16712921Y-15168395D01*
X16712921Y-15158871D01*
X16722445Y-15139824D01*
X16731969Y-15130300D01*
X16751017Y-15120776D01*
X16789112Y-15120776D01*
X16808160Y-15130300D01*
X16817683Y-15139824D01*
X16827207Y-15158871D01*
X16827207Y-15168395D01*
X16817683Y-15187443D01*
X16808160Y-15196967D01*
X16789112Y-15206490D01*
X16751017Y-15206490D01*
X16731969Y-15216014D01*
X16722445Y-15225538D01*
X16712921Y-15244586D01*
X16712921Y-15282681D01*
X16722445Y-15301728D01*
X16731969Y-15311252D01*
X16751017Y-15320776D01*
X16789112Y-15320776D01*
X16808160Y-15311252D01*
X16817683Y-15301728D01*
X16827207Y-15282681D01*
X16827207Y-15244586D01*
X16817683Y-15225538D01*
X16808160Y-15216014D01*
X16789112Y-15206490D01*
X17065302Y-15320776D02*
X17065302Y-15120776D01*
X17151017Y-15320776D02*
X17151017Y-15216014D01*
X17141493Y-15196967D01*
X17122445Y-15187443D01*
X17093874Y-15187443D01*
X17074826Y-15196967D01*
X17065302Y-15206490D01*
X17274826Y-15320776D02*
X17255779Y-15311252D01*
X17246255Y-15301728D01*
X17236731Y-15282681D01*
X17236731Y-15225538D01*
X17246255Y-15206490D01*
X17255779Y-15196967D01*
X17274826Y-15187443D01*
X17303398Y-15187443D01*
X17322445Y-15196967D01*
X17331969Y-15206490D01*
X17341493Y-15225538D01*
X17341493Y-15282681D01*
X17331969Y-15301728D01*
X17322445Y-15311252D01*
X17303398Y-15320776D01*
X17274826Y-15320776D01*
X17455779Y-15320776D02*
X17436731Y-15311252D01*
X17427207Y-15292205D01*
X17427207Y-15120776D01*
X17608160Y-15311252D02*
X17589112Y-15320776D01*
X17551017Y-15320776D01*
X17531969Y-15311252D01*
X17522445Y-15292205D01*
X17522445Y-15216014D01*
X17531969Y-15196967D01*
X17551017Y-15187443D01*
X17589112Y-15187443D01*
X17608160Y-15196967D01*
X17617683Y-15216014D01*
X17617683Y-15235062D01*
X17522445Y-15254109D01*
X17693874Y-15311252D02*
X17712921Y-15320776D01*
X17751017Y-15320776D01*
X17770064Y-15311252D01*
X17779588Y-15292205D01*
X17779588Y-15282681D01*
X17770064Y-15263633D01*
X17751017Y-15254109D01*
X17722445Y-15254109D01*
X17703398Y-15244586D01*
X17693874Y-15225538D01*
X17693874Y-15216014D01*
X17703398Y-15196967D01*
X17722445Y-15187443D01*
X17751017Y-15187443D01*
X17770064Y-15196967D01*
X17846255Y-15396967D02*
X17855779Y-15387443D01*
X17874826Y-15358871D01*
X17884350Y-15339824D01*
X17893874Y-15311252D01*
X17903398Y-15263633D01*
X17903398Y-15225538D01*
X17893874Y-15177919D01*
X17884350Y-15149348D01*
X17874826Y-15130300D01*
X17855779Y-15101728D01*
X17846255Y-15092205D01*
D16*
X13024350Y-15544300D02*
X13074350Y-15494300D01*
X13024350Y-15444300D01*
X12974350Y-15494300D01*
X13024350Y-15544300D01*
D11*
X13436731Y-15584776D02*
X13322445Y-15584776D01*
X13379588Y-15584776D02*
X13379588Y-15384776D01*
X13360540Y-15413348D01*
X13341493Y-15432395D01*
X13322445Y-15441919D01*
X13522445Y-15565728D02*
X13531969Y-15575252D01*
X13522445Y-15584776D01*
X13512921Y-15575252D01*
X13522445Y-15565728D01*
X13522445Y-15584776D01*
X13655778Y-15384776D02*
X13674826Y-15384776D01*
X13693874Y-15394300D01*
X13703398Y-15403824D01*
X13712921Y-15422871D01*
X13722445Y-15460967D01*
X13722445Y-15508586D01*
X13712921Y-15546681D01*
X13703398Y-15565728D01*
X13693874Y-15575252D01*
X13674826Y-15584776D01*
X13655778Y-15584776D01*
X13636731Y-15575252D01*
X13627207Y-15565728D01*
X13617683Y-15546681D01*
X13608159Y-15508586D01*
X13608159Y-15460967D01*
X13617683Y-15422871D01*
X13627207Y-15403824D01*
X13636731Y-15394300D01*
X13655778Y-15384776D01*
X13846255Y-15384776D02*
X13865302Y-15384776D01*
X13884350Y-15394300D01*
X13893874Y-15403824D01*
X13903398Y-15422871D01*
X13912921Y-15460967D01*
X13912921Y-15508586D01*
X13903398Y-15546681D01*
X13893874Y-15565728D01*
X13884350Y-15575252D01*
X13865302Y-15584776D01*
X13846255Y-15584776D01*
X13827207Y-15575252D01*
X13817683Y-15565728D01*
X13808159Y-15546681D01*
X13798636Y-15508586D01*
X13798636Y-15460967D01*
X13808159Y-15422871D01*
X13817683Y-15403824D01*
X13827207Y-15394300D01*
X13846255Y-15384776D01*
X14036731Y-15384776D02*
X14055778Y-15384776D01*
X14074826Y-15394300D01*
X14084350Y-15403824D01*
X14093874Y-15422871D01*
X14103398Y-15460967D01*
X14103398Y-15508586D01*
X14093874Y-15546681D01*
X14084350Y-15565728D01*
X14074826Y-15575252D01*
X14055778Y-15584776D01*
X14036731Y-15584776D01*
X14017683Y-15575252D01*
X14008159Y-15565728D01*
X13998636Y-15546681D01*
X13989112Y-15508586D01*
X13989112Y-15460967D01*
X13998636Y-15422871D01*
X14008159Y-15403824D01*
X14017683Y-15394300D01*
X14036731Y-15384776D01*
X14189112Y-15584776D02*
X14189112Y-15451443D01*
X14189112Y-15470490D02*
X14198636Y-15460967D01*
X14217683Y-15451443D01*
X14246255Y-15451443D01*
X14265302Y-15460967D01*
X14274826Y-15480014D01*
X14274826Y-15584776D01*
X14274826Y-15480014D02*
X14284350Y-15460967D01*
X14303398Y-15451443D01*
X14331969Y-15451443D01*
X14351017Y-15460967D01*
X14360540Y-15480014D01*
X14360540Y-15584776D01*
X14455778Y-15584776D02*
X14455778Y-15451443D01*
X14455778Y-15470490D02*
X14465302Y-15460967D01*
X14484350Y-15451443D01*
X14512921Y-15451443D01*
X14531969Y-15460967D01*
X14541493Y-15480014D01*
X14541493Y-15584776D01*
X14541493Y-15480014D02*
X14551017Y-15460967D01*
X14570064Y-15451443D01*
X14598636Y-15451443D01*
X14617683Y-15460967D01*
X14627207Y-15480014D01*
X14627207Y-15584776D01*
X15017683Y-15375252D02*
X14846255Y-15632395D01*
X15274826Y-15384776D02*
X15293874Y-15384776D01*
X15312921Y-15394300D01*
X15322445Y-15403824D01*
X15331969Y-15422871D01*
X15341493Y-15460967D01*
X15341493Y-15508586D01*
X15331969Y-15546681D01*
X15322445Y-15565728D01*
X15312921Y-15575252D01*
X15293874Y-15584776D01*
X15274826Y-15584776D01*
X15255778Y-15575252D01*
X15246255Y-15565728D01*
X15236731Y-15546681D01*
X15227207Y-15508586D01*
X15227207Y-15460967D01*
X15236731Y-15422871D01*
X15246255Y-15403824D01*
X15255778Y-15394300D01*
X15274826Y-15384776D01*
X15427207Y-15565728D02*
X15436731Y-15575252D01*
X15427207Y-15584776D01*
X15417683Y-15575252D01*
X15427207Y-15565728D01*
X15427207Y-15584776D01*
X15560540Y-15384776D02*
X15579588Y-15384776D01*
X15598636Y-15394300D01*
X15608159Y-15403824D01*
X15617683Y-15422871D01*
X15627207Y-15460967D01*
X15627207Y-15508586D01*
X15617683Y-15546681D01*
X15608159Y-15565728D01*
X15598636Y-15575252D01*
X15579588Y-15584776D01*
X15560540Y-15584776D01*
X15541493Y-15575252D01*
X15531969Y-15565728D01*
X15522445Y-15546681D01*
X15512921Y-15508586D01*
X15512921Y-15460967D01*
X15522445Y-15422871D01*
X15531969Y-15403824D01*
X15541493Y-15394300D01*
X15560540Y-15384776D01*
X15693874Y-15384776D02*
X15817683Y-15384776D01*
X15751017Y-15460967D01*
X15779588Y-15460967D01*
X15798636Y-15470490D01*
X15808159Y-15480014D01*
X15817683Y-15499062D01*
X15817683Y-15546681D01*
X15808159Y-15565728D01*
X15798636Y-15575252D01*
X15779588Y-15584776D01*
X15722445Y-15584776D01*
X15703398Y-15575252D01*
X15693874Y-15565728D01*
X15912921Y-15584776D02*
X15951017Y-15584776D01*
X15970064Y-15575252D01*
X15979588Y-15565728D01*
X15998636Y-15537157D01*
X16008159Y-15499062D01*
X16008159Y-15422871D01*
X15998636Y-15403824D01*
X15989112Y-15394300D01*
X15970064Y-15384776D01*
X15931969Y-15384776D01*
X15912921Y-15394300D01*
X15903398Y-15403824D01*
X15893874Y-15422871D01*
X15893874Y-15470490D01*
X15903398Y-15489538D01*
X15912921Y-15499062D01*
X15931969Y-15508586D01*
X15970064Y-15508586D01*
X15989112Y-15499062D01*
X15998636Y-15489538D01*
X16008159Y-15470490D01*
X16179588Y-15451443D02*
X16179588Y-15584776D01*
X16131969Y-15375252D02*
X16084350Y-15518109D01*
X16208159Y-15518109D01*
X16274826Y-15384776D02*
X16274826Y-15422871D01*
X16351017Y-15384776D02*
X16351017Y-15422871D01*
X16646255Y-15660967D02*
X16636731Y-15651443D01*
X16617683Y-15622871D01*
X16608159Y-15603824D01*
X16598636Y-15575252D01*
X16589112Y-15527633D01*
X16589112Y-15489538D01*
X16598636Y-15441919D01*
X16608159Y-15413348D01*
X16617683Y-15394300D01*
X16636731Y-15365728D01*
X16646255Y-15356205D01*
X16712921Y-15403824D02*
X16722445Y-15394300D01*
X16741493Y-15384776D01*
X16789112Y-15384776D01*
X16808160Y-15394300D01*
X16817683Y-15403824D01*
X16827207Y-15422871D01*
X16827207Y-15441919D01*
X16817683Y-15470490D01*
X16703398Y-15584776D01*
X16827207Y-15584776D01*
X16893874Y-15384776D02*
X17027207Y-15384776D01*
X16941493Y-15584776D01*
X17255779Y-15584776D02*
X17255779Y-15384776D01*
X17341493Y-15584776D02*
X17341493Y-15480014D01*
X17331969Y-15460967D01*
X17312921Y-15451443D01*
X17284350Y-15451443D01*
X17265302Y-15460967D01*
X17255779Y-15470490D01*
X17465302Y-15584776D02*
X17446255Y-15575252D01*
X17436731Y-15565728D01*
X17427207Y-15546681D01*
X17427207Y-15489538D01*
X17436731Y-15470490D01*
X17446255Y-15460967D01*
X17465302Y-15451443D01*
X17493874Y-15451443D01*
X17512921Y-15460967D01*
X17522445Y-15470490D01*
X17531969Y-15489538D01*
X17531969Y-15546681D01*
X17522445Y-15565728D01*
X17512921Y-15575252D01*
X17493874Y-15584776D01*
X17465302Y-15584776D01*
X17646255Y-15584776D02*
X17627207Y-15575252D01*
X17617683Y-15556205D01*
X17617683Y-15384776D01*
X17798636Y-15575252D02*
X17779588Y-15584776D01*
X17741493Y-15584776D01*
X17722445Y-15575252D01*
X17712921Y-15556205D01*
X17712921Y-15480014D01*
X17722445Y-15460967D01*
X17741493Y-15451443D01*
X17779588Y-15451443D01*
X17798636Y-15460967D01*
X17808160Y-15480014D01*
X17808160Y-15499062D01*
X17712921Y-15518109D01*
X17884350Y-15575252D02*
X17903398Y-15584776D01*
X17941493Y-15584776D01*
X17960540Y-15575252D01*
X17970064Y-15556205D01*
X17970064Y-15546681D01*
X17960540Y-15527633D01*
X17941493Y-15518109D01*
X17912921Y-15518109D01*
X17893874Y-15508586D01*
X17884350Y-15489538D01*
X17884350Y-15480014D01*
X17893874Y-15460967D01*
X17912921Y-15451443D01*
X17941493Y-15451443D01*
X17960540Y-15460967D01*
X18036731Y-15660967D02*
X18046255Y-15651443D01*
X18065302Y-15622871D01*
X18074826Y-15603824D01*
X18084350Y-15575252D01*
X18093874Y-15527633D01*
X18093874Y-15489538D01*
X18084350Y-15441919D01*
X18074826Y-15413348D01*
X18065302Y-15394300D01*
X18046255Y-15365728D01*
X18036731Y-15356205D01*
D17*
X12964350Y-15703300D02*
X13074350Y-15813300D01*
X13074350Y-15703300D02*
X12964350Y-15813300D01*
X13074350Y-15758300D02*
G75*
G03*
X13074350Y-15758300I-55000J0D01*
G01*
D11*
X13436731Y-15848776D02*
X13322445Y-15848776D01*
X13379588Y-15848776D02*
X13379588Y-15648776D01*
X13360540Y-15677348D01*
X13341493Y-15696395D01*
X13322445Y-15705919D01*
X13522445Y-15829728D02*
X13531969Y-15839252D01*
X13522445Y-15848776D01*
X13512921Y-15839252D01*
X13522445Y-15829728D01*
X13522445Y-15848776D01*
X13722445Y-15848776D02*
X13608159Y-15848776D01*
X13665302Y-15848776D02*
X13665302Y-15648776D01*
X13646255Y-15677348D01*
X13627207Y-15696395D01*
X13608159Y-15705919D01*
X13846255Y-15648776D02*
X13865302Y-15648776D01*
X13884350Y-15658300D01*
X13893874Y-15667824D01*
X13903398Y-15686871D01*
X13912921Y-15724967D01*
X13912921Y-15772586D01*
X13903398Y-15810681D01*
X13893874Y-15829728D01*
X13884350Y-15839252D01*
X13865302Y-15848776D01*
X13846255Y-15848776D01*
X13827207Y-15839252D01*
X13817683Y-15829728D01*
X13808159Y-15810681D01*
X13798636Y-15772586D01*
X13798636Y-15724967D01*
X13808159Y-15686871D01*
X13817683Y-15667824D01*
X13827207Y-15658300D01*
X13846255Y-15648776D01*
X14036731Y-15648776D02*
X14055778Y-15648776D01*
X14074826Y-15658300D01*
X14084350Y-15667824D01*
X14093874Y-15686871D01*
X14103398Y-15724967D01*
X14103398Y-15772586D01*
X14093874Y-15810681D01*
X14084350Y-15829728D01*
X14074826Y-15839252D01*
X14055778Y-15848776D01*
X14036731Y-15848776D01*
X14017683Y-15839252D01*
X14008159Y-15829728D01*
X13998636Y-15810681D01*
X13989112Y-15772586D01*
X13989112Y-15724967D01*
X13998636Y-15686871D01*
X14008159Y-15667824D01*
X14017683Y-15658300D01*
X14036731Y-15648776D01*
X14189112Y-15848776D02*
X14189112Y-15715443D01*
X14189112Y-15734490D02*
X14198636Y-15724967D01*
X14217683Y-15715443D01*
X14246255Y-15715443D01*
X14265302Y-15724967D01*
X14274826Y-15744014D01*
X14274826Y-15848776D01*
X14274826Y-15744014D02*
X14284350Y-15724967D01*
X14303398Y-15715443D01*
X14331969Y-15715443D01*
X14351017Y-15724967D01*
X14360540Y-15744014D01*
X14360540Y-15848776D01*
X14455778Y-15848776D02*
X14455778Y-15715443D01*
X14455778Y-15734490D02*
X14465302Y-15724967D01*
X14484350Y-15715443D01*
X14512921Y-15715443D01*
X14531969Y-15724967D01*
X14541493Y-15744014D01*
X14541493Y-15848776D01*
X14541493Y-15744014D02*
X14551017Y-15724967D01*
X14570064Y-15715443D01*
X14598636Y-15715443D01*
X14617683Y-15724967D01*
X14627207Y-15744014D01*
X14627207Y-15848776D01*
X15017683Y-15639252D02*
X14846255Y-15896395D01*
X15274826Y-15648776D02*
X15293874Y-15648776D01*
X15312921Y-15658300D01*
X15322445Y-15667824D01*
X15331969Y-15686871D01*
X15341493Y-15724967D01*
X15341493Y-15772586D01*
X15331969Y-15810681D01*
X15322445Y-15829728D01*
X15312921Y-15839252D01*
X15293874Y-15848776D01*
X15274826Y-15848776D01*
X15255778Y-15839252D01*
X15246255Y-15829728D01*
X15236731Y-15810681D01*
X15227207Y-15772586D01*
X15227207Y-15724967D01*
X15236731Y-15686871D01*
X15246255Y-15667824D01*
X15255778Y-15658300D01*
X15274826Y-15648776D01*
X15427207Y-15829728D02*
X15436731Y-15839252D01*
X15427207Y-15848776D01*
X15417683Y-15839252D01*
X15427207Y-15829728D01*
X15427207Y-15848776D01*
X15560540Y-15648776D02*
X15579588Y-15648776D01*
X15598636Y-15658300D01*
X15608159Y-15667824D01*
X15617683Y-15686871D01*
X15627207Y-15724967D01*
X15627207Y-15772586D01*
X15617683Y-15810681D01*
X15608159Y-15829728D01*
X15598636Y-15839252D01*
X15579588Y-15848776D01*
X15560540Y-15848776D01*
X15541493Y-15839252D01*
X15531969Y-15829728D01*
X15522445Y-15810681D01*
X15512921Y-15772586D01*
X15512921Y-15724967D01*
X15522445Y-15686871D01*
X15531969Y-15667824D01*
X15541493Y-15658300D01*
X15560540Y-15648776D01*
X15798636Y-15715443D02*
X15798636Y-15848776D01*
X15751017Y-15639252D02*
X15703398Y-15782109D01*
X15827207Y-15782109D01*
X15884350Y-15648776D02*
X16008159Y-15648776D01*
X15941493Y-15724967D01*
X15970064Y-15724967D01*
X15989112Y-15734490D01*
X15998636Y-15744014D01*
X16008159Y-15763062D01*
X16008159Y-15810681D01*
X15998636Y-15829728D01*
X15989112Y-15839252D01*
X15970064Y-15848776D01*
X15912921Y-15848776D01*
X15893874Y-15839252D01*
X15884350Y-15829728D01*
X16074826Y-15648776D02*
X16198636Y-15648776D01*
X16131969Y-15724967D01*
X16160540Y-15724967D01*
X16179588Y-15734490D01*
X16189112Y-15744014D01*
X16198636Y-15763062D01*
X16198636Y-15810681D01*
X16189112Y-15829728D01*
X16179588Y-15839252D01*
X16160540Y-15848776D01*
X16103398Y-15848776D01*
X16084350Y-15839252D01*
X16074826Y-15829728D01*
X16274826Y-15648776D02*
X16274826Y-15686871D01*
X16351017Y-15648776D02*
X16351017Y-15686871D01*
X16646255Y-15924967D02*
X16636731Y-15915443D01*
X16617683Y-15886871D01*
X16608159Y-15867824D01*
X16598636Y-15839252D01*
X16589112Y-15791633D01*
X16589112Y-15753538D01*
X16598636Y-15705919D01*
X16608159Y-15677348D01*
X16617683Y-15658300D01*
X16636731Y-15629728D01*
X16646255Y-15620205D01*
X16751017Y-15734490D02*
X16731969Y-15724967D01*
X16722445Y-15715443D01*
X16712921Y-15696395D01*
X16712921Y-15686871D01*
X16722445Y-15667824D01*
X16731969Y-15658300D01*
X16751017Y-15648776D01*
X16789112Y-15648776D01*
X16808160Y-15658300D01*
X16817683Y-15667824D01*
X16827207Y-15686871D01*
X16827207Y-15696395D01*
X16817683Y-15715443D01*
X16808160Y-15724967D01*
X16789112Y-15734490D01*
X16751017Y-15734490D01*
X16731969Y-15744014D01*
X16722445Y-15753538D01*
X16712921Y-15772586D01*
X16712921Y-15810681D01*
X16722445Y-15829728D01*
X16731969Y-15839252D01*
X16751017Y-15848776D01*
X16789112Y-15848776D01*
X16808160Y-15839252D01*
X16817683Y-15829728D01*
X16827207Y-15810681D01*
X16827207Y-15772586D01*
X16817683Y-15753538D01*
X16808160Y-15744014D01*
X16789112Y-15734490D01*
X17065302Y-15848776D02*
X17065302Y-15648776D01*
X17151017Y-15848776D02*
X17151017Y-15744014D01*
X17141493Y-15724967D01*
X17122445Y-15715443D01*
X17093874Y-15715443D01*
X17074826Y-15724967D01*
X17065302Y-15734490D01*
X17274826Y-15848776D02*
X17255779Y-15839252D01*
X17246255Y-15829728D01*
X17236731Y-15810681D01*
X17236731Y-15753538D01*
X17246255Y-15734490D01*
X17255779Y-15724967D01*
X17274826Y-15715443D01*
X17303398Y-15715443D01*
X17322445Y-15724967D01*
X17331969Y-15734490D01*
X17341493Y-15753538D01*
X17341493Y-15810681D01*
X17331969Y-15829728D01*
X17322445Y-15839252D01*
X17303398Y-15848776D01*
X17274826Y-15848776D01*
X17455779Y-15848776D02*
X17436731Y-15839252D01*
X17427207Y-15820205D01*
X17427207Y-15648776D01*
X17608160Y-15839252D02*
X17589112Y-15848776D01*
X17551017Y-15848776D01*
X17531969Y-15839252D01*
X17522445Y-15820205D01*
X17522445Y-15744014D01*
X17531969Y-15724967D01*
X17551017Y-15715443D01*
X17589112Y-15715443D01*
X17608160Y-15724967D01*
X17617683Y-15744014D01*
X17617683Y-15763062D01*
X17522445Y-15782109D01*
X17693874Y-15839252D02*
X17712921Y-15848776D01*
X17751017Y-15848776D01*
X17770064Y-15839252D01*
X17779588Y-15820205D01*
X17779588Y-15810681D01*
X17770064Y-15791633D01*
X17751017Y-15782109D01*
X17722445Y-15782109D01*
X17703398Y-15772586D01*
X17693874Y-15753538D01*
X17693874Y-15744014D01*
X17703398Y-15724967D01*
X17722445Y-15715443D01*
X17751017Y-15715443D01*
X17770064Y-15724967D01*
X17846255Y-15924967D02*
X17855779Y-15915443D01*
X17874826Y-15886871D01*
X17884350Y-15867824D01*
X17893874Y-15839252D01*
X17903398Y-15791633D01*
X17903398Y-15753538D01*
X17893874Y-15705919D01*
X17884350Y-15677348D01*
X17874826Y-15658300D01*
X17855779Y-15629728D01*
X17846255Y-15620205D01*
D18*
X12942350Y-15956300D02*
X13074350Y-16088300D01*
X13074350Y-15956300D02*
X12942350Y-16088300D01*
X13008350Y-15956300D02*
X13008350Y-16088300D01*
X12942350Y-16022300D02*
X13074350Y-16022300D01*
D11*
X13436731Y-16112776D02*
X13322445Y-16112776D01*
X13379588Y-16112776D02*
X13379588Y-15912776D01*
X13360540Y-15941348D01*
X13341493Y-15960395D01*
X13322445Y-15969919D01*
X13522445Y-16093728D02*
X13531969Y-16103252D01*
X13522445Y-16112776D01*
X13512921Y-16103252D01*
X13522445Y-16093728D01*
X13522445Y-16112776D01*
X13598636Y-15912776D02*
X13722445Y-15912776D01*
X13655778Y-15988967D01*
X13684350Y-15988967D01*
X13703398Y-15998490D01*
X13712921Y-16008014D01*
X13722445Y-16027062D01*
X13722445Y-16074681D01*
X13712921Y-16093728D01*
X13703398Y-16103252D01*
X13684350Y-16112776D01*
X13627207Y-16112776D01*
X13608159Y-16103252D01*
X13598636Y-16093728D01*
X13798636Y-15931824D02*
X13808159Y-15922300D01*
X13827207Y-15912776D01*
X13874826Y-15912776D01*
X13893874Y-15922300D01*
X13903398Y-15931824D01*
X13912921Y-15950871D01*
X13912921Y-15969919D01*
X13903398Y-15998490D01*
X13789112Y-16112776D01*
X13912921Y-16112776D01*
X14036731Y-15912776D02*
X14055778Y-15912776D01*
X14074826Y-15922300D01*
X14084350Y-15931824D01*
X14093874Y-15950871D01*
X14103398Y-15988967D01*
X14103398Y-16036586D01*
X14093874Y-16074681D01*
X14084350Y-16093728D01*
X14074826Y-16103252D01*
X14055778Y-16112776D01*
X14036731Y-16112776D01*
X14017683Y-16103252D01*
X14008159Y-16093728D01*
X13998636Y-16074681D01*
X13989112Y-16036586D01*
X13989112Y-15988967D01*
X13998636Y-15950871D01*
X14008159Y-15931824D01*
X14017683Y-15922300D01*
X14036731Y-15912776D01*
X14189112Y-16112776D02*
X14189112Y-15979443D01*
X14189112Y-15998490D02*
X14198636Y-15988967D01*
X14217683Y-15979443D01*
X14246255Y-15979443D01*
X14265302Y-15988967D01*
X14274826Y-16008014D01*
X14274826Y-16112776D01*
X14274826Y-16008014D02*
X14284350Y-15988967D01*
X14303398Y-15979443D01*
X14331969Y-15979443D01*
X14351017Y-15988967D01*
X14360540Y-16008014D01*
X14360540Y-16112776D01*
X14455778Y-16112776D02*
X14455778Y-15979443D01*
X14455778Y-15998490D02*
X14465302Y-15988967D01*
X14484350Y-15979443D01*
X14512921Y-15979443D01*
X14531969Y-15988967D01*
X14541493Y-16008014D01*
X14541493Y-16112776D01*
X14541493Y-16008014D02*
X14551017Y-15988967D01*
X14570064Y-15979443D01*
X14598636Y-15979443D01*
X14617683Y-15988967D01*
X14627207Y-16008014D01*
X14627207Y-16112776D01*
X15017683Y-15903252D02*
X14846255Y-16160395D01*
X15274826Y-15912776D02*
X15293874Y-15912776D01*
X15312921Y-15922300D01*
X15322445Y-15931824D01*
X15331969Y-15950871D01*
X15341493Y-15988967D01*
X15341493Y-16036586D01*
X15331969Y-16074681D01*
X15322445Y-16093728D01*
X15312921Y-16103252D01*
X15293874Y-16112776D01*
X15274826Y-16112776D01*
X15255778Y-16103252D01*
X15246255Y-16093728D01*
X15236731Y-16074681D01*
X15227207Y-16036586D01*
X15227207Y-15988967D01*
X15236731Y-15950871D01*
X15246255Y-15931824D01*
X15255778Y-15922300D01*
X15274826Y-15912776D01*
X15427207Y-16093728D02*
X15436731Y-16103252D01*
X15427207Y-16112776D01*
X15417683Y-16103252D01*
X15427207Y-16093728D01*
X15427207Y-16112776D01*
X15560540Y-15912776D02*
X15579588Y-15912776D01*
X15598636Y-15922300D01*
X15608159Y-15931824D01*
X15617683Y-15950871D01*
X15627207Y-15988967D01*
X15627207Y-16036586D01*
X15617683Y-16074681D01*
X15608159Y-16093728D01*
X15598636Y-16103252D01*
X15579588Y-16112776D01*
X15560540Y-16112776D01*
X15541493Y-16103252D01*
X15531969Y-16093728D01*
X15522445Y-16074681D01*
X15512921Y-16036586D01*
X15512921Y-15988967D01*
X15522445Y-15950871D01*
X15531969Y-15931824D01*
X15541493Y-15922300D01*
X15560540Y-15912776D01*
X15808159Y-15912776D02*
X15712921Y-15912776D01*
X15703398Y-16008014D01*
X15712921Y-15998490D01*
X15731969Y-15988967D01*
X15779588Y-15988967D01*
X15798636Y-15998490D01*
X15808159Y-16008014D01*
X15817683Y-16027062D01*
X15817683Y-16074681D01*
X15808159Y-16093728D01*
X15798636Y-16103252D01*
X15779588Y-16112776D01*
X15731969Y-16112776D01*
X15712921Y-16103252D01*
X15703398Y-16093728D01*
X15893874Y-15931824D02*
X15903398Y-15922300D01*
X15922445Y-15912776D01*
X15970064Y-15912776D01*
X15989112Y-15922300D01*
X15998636Y-15931824D01*
X16008159Y-15950871D01*
X16008159Y-15969919D01*
X15998636Y-15998490D01*
X15884350Y-16112776D01*
X16008159Y-16112776D01*
X16131969Y-15912776D02*
X16151017Y-15912776D01*
X16170064Y-15922300D01*
X16179588Y-15931824D01*
X16189112Y-15950871D01*
X16198636Y-15988967D01*
X16198636Y-16036586D01*
X16189112Y-16074681D01*
X16179588Y-16093728D01*
X16170064Y-16103252D01*
X16151017Y-16112776D01*
X16131969Y-16112776D01*
X16112921Y-16103252D01*
X16103398Y-16093728D01*
X16093874Y-16074681D01*
X16084350Y-16036586D01*
X16084350Y-15988967D01*
X16093874Y-15950871D01*
X16103398Y-15931824D01*
X16112921Y-15922300D01*
X16131969Y-15912776D01*
X16274826Y-15912776D02*
X16274826Y-15950871D01*
X16351017Y-15912776D02*
X16351017Y-15950871D01*
X16646255Y-16188967D02*
X16636731Y-16179443D01*
X16617683Y-16150871D01*
X16608159Y-16131824D01*
X16598636Y-16103252D01*
X16589112Y-16055633D01*
X16589112Y-16017538D01*
X16598636Y-15969919D01*
X16608159Y-15941348D01*
X16617683Y-15922300D01*
X16636731Y-15893728D01*
X16646255Y-15884205D01*
X16808160Y-15979443D02*
X16808160Y-16112776D01*
X16760540Y-15903252D02*
X16712921Y-16046109D01*
X16836731Y-16046109D01*
X17065302Y-16112776D02*
X17065302Y-15912776D01*
X17151017Y-16112776D02*
X17151017Y-16008014D01*
X17141493Y-15988967D01*
X17122445Y-15979443D01*
X17093874Y-15979443D01*
X17074826Y-15988967D01*
X17065302Y-15998490D01*
X17274826Y-16112776D02*
X17255779Y-16103252D01*
X17246255Y-16093728D01*
X17236731Y-16074681D01*
X17236731Y-16017538D01*
X17246255Y-15998490D01*
X17255779Y-15988967D01*
X17274826Y-15979443D01*
X17303398Y-15979443D01*
X17322445Y-15988967D01*
X17331969Y-15998490D01*
X17341493Y-16017538D01*
X17341493Y-16074681D01*
X17331969Y-16093728D01*
X17322445Y-16103252D01*
X17303398Y-16112776D01*
X17274826Y-16112776D01*
X17455779Y-16112776D02*
X17436731Y-16103252D01*
X17427207Y-16084205D01*
X17427207Y-15912776D01*
X17608160Y-16103252D02*
X17589112Y-16112776D01*
X17551017Y-16112776D01*
X17531969Y-16103252D01*
X17522445Y-16084205D01*
X17522445Y-16008014D01*
X17531969Y-15988967D01*
X17551017Y-15979443D01*
X17589112Y-15979443D01*
X17608160Y-15988967D01*
X17617683Y-16008014D01*
X17617683Y-16027062D01*
X17522445Y-16046109D01*
X17693874Y-16103252D02*
X17712921Y-16112776D01*
X17751017Y-16112776D01*
X17770064Y-16103252D01*
X17779588Y-16084205D01*
X17779588Y-16074681D01*
X17770064Y-16055633D01*
X17751017Y-16046109D01*
X17722445Y-16046109D01*
X17703398Y-16036586D01*
X17693874Y-16017538D01*
X17693874Y-16008014D01*
X17703398Y-15988967D01*
X17722445Y-15979443D01*
X17751017Y-15979443D01*
X17770064Y-15988967D01*
X17846255Y-16188967D02*
X17855779Y-16179443D01*
X17874826Y-16150871D01*
X17884350Y-16131824D01*
X17893874Y-16103252D01*
X17903398Y-16055633D01*
X17903398Y-16017538D01*
X17893874Y-15969919D01*
X17884350Y-15941348D01*
X17874826Y-15922300D01*
X17855779Y-15893728D01*
X17846255Y-15884205D01*
M02*
