%TF.GenerationSoftware,KiCad,Pcbnew,(6.0.9)*%
%TF.CreationDate,2023-05-01T22:34:01-06:00*%
%TF.ProjectId,WeatherStation,57656174-6865-4725-9374-6174696f6e2e,rev?*%
%TF.SameCoordinates,Original*%
%TF.FileFunction,Soldermask,Top*%
%TF.FilePolarity,Negative*%
%FSLAX46Y46*%
G04 Gerber Fmt 4.6, Leading zero omitted, Abs format (unit mm)*
G04 Created by KiCad (PCBNEW (6.0.9)) date 2023-05-01 22:34:01*
%MOMM*%
%LPD*%
G01*
G04 APERTURE LIST*
G04 Aperture macros list*
%AMRoundRect*
0 Rectangle with rounded corners*
0 $1 Rounding radius*
0 $2 $3 $4 $5 $6 $7 $8 $9 X,Y pos of 4 corners*
0 Add a 4 corners polygon primitive as box body*
4,1,4,$2,$3,$4,$5,$6,$7,$8,$9,$2,$3,0*
0 Add four circle primitives for the rounded corners*
1,1,$1+$1,$2,$3*
1,1,$1+$1,$4,$5*
1,1,$1+$1,$6,$7*
1,1,$1+$1,$8,$9*
0 Add four rect primitives between the rounded corners*
20,1,$1+$1,$2,$3,$4,$5,0*
20,1,$1+$1,$4,$5,$6,$7,0*
20,1,$1+$1,$6,$7,$8,$9,0*
20,1,$1+$1,$8,$9,$2,$3,0*%
G04 Aperture macros list end*
%ADD10C,0.010000*%
%ADD11RoundRect,0.237500X-0.250000X-0.237500X0.250000X-0.237500X0.250000X0.237500X-0.250000X0.237500X0*%
%ADD12RoundRect,0.237500X-0.300000X-0.237500X0.300000X-0.237500X0.300000X0.237500X-0.300000X0.237500X0*%
%ADD13C,1.600000*%
%ADD14R,1.300000X1.300000*%
%ADD15C,1.300000*%
%ADD16RoundRect,0.237500X-0.237500X0.300000X-0.237500X-0.300000X0.237500X-0.300000X0.237500X0.300000X0*%
%ADD17RoundRect,0.237500X0.250000X0.237500X-0.250000X0.237500X-0.250000X-0.237500X0.250000X-0.237500X0*%
%ADD18RoundRect,0.250000X0.337500X0.475000X-0.337500X0.475000X-0.337500X-0.475000X0.337500X-0.475000X0*%
%ADD19RoundRect,0.237500X0.237500X-0.300000X0.237500X0.300000X-0.237500X0.300000X-0.237500X-0.300000X0*%
%ADD20RoundRect,0.237500X0.287500X0.237500X-0.287500X0.237500X-0.287500X-0.237500X0.287500X-0.237500X0*%
%ADD21RoundRect,0.006000X0.094000X-0.319000X0.094000X0.319000X-0.094000X0.319000X-0.094000X-0.319000X0*%
%ADD22R,0.940000X0.300000*%
%ADD23RoundRect,0.237500X0.237500X-0.250000X0.237500X0.250000X-0.237500X0.250000X-0.237500X-0.250000X0*%
%ADD24R,1.100000X1.100000*%
%ADD25C,1.200000*%
%ADD26RoundRect,0.155000X-0.155000X0.212500X-0.155000X-0.212500X0.155000X-0.212500X0.155000X0.212500X0*%
%ADD27R,1.700000X1.700000*%
%ADD28O,1.700000X1.700000*%
%ADD29C,2.000000*%
%ADD30RoundRect,0.027000X-0.218000X-0.198000X0.218000X-0.198000X0.218000X0.198000X-0.218000X0.198000X0*%
%ADD31RoundRect,0.025600X-0.454400X-0.134400X0.454400X-0.134400X0.454400X0.134400X-0.454400X0.134400X0*%
%ADD32RoundRect,0.025600X0.454400X0.134400X-0.454400X0.134400X-0.454400X-0.134400X0.454400X-0.134400X0*%
%ADD33R,2.200000X3.000000*%
%ADD34R,1.980000X3.960000*%
%ADD35O,1.980000X3.960000*%
%ADD36R,0.400000X1.500000*%
%ADD37RoundRect,0.237500X0.237500X-0.287500X0.237500X0.287500X-0.237500X0.287500X-0.237500X-0.287500X0*%
%ADD38RoundRect,0.250000X-0.337500X-0.475000X0.337500X-0.475000X0.337500X0.475000X-0.337500X0.475000X0*%
%ADD39RoundRect,0.250000X-0.625000X0.400000X-0.625000X-0.400000X0.625000X-0.400000X0.625000X0.400000X0*%
%ADD40R,0.220000X0.760000*%
%ADD41R,1.500000X0.900000*%
%ADD42RoundRect,0.237500X0.300000X0.237500X-0.300000X0.237500X-0.300000X-0.237500X0.300000X-0.237500X0*%
%ADD43R,0.400000X0.800000*%
%ADD44R,0.800000X0.400000*%
%ADD45R,1.200000X1.200000*%
%ADD46R,0.800000X0.800000*%
%ADD47RoundRect,0.237500X-0.237500X0.250000X-0.237500X-0.250000X0.237500X-0.250000X0.237500X0.250000X0*%
G04 APERTURE END LIST*
%TO.C,U1*%
G36*
X161605500Y-103106000D02*
G01*
X161607500Y-103106000D01*
X161610500Y-103107000D01*
X161612500Y-103107000D01*
X161615500Y-103108000D01*
X161617500Y-103109000D01*
X161620500Y-103110000D01*
X161622500Y-103112000D01*
X161624500Y-103113000D01*
X161626500Y-103115000D01*
X161628500Y-103116000D01*
X161636500Y-103124000D01*
X161637500Y-103126000D01*
X161639500Y-103128000D01*
X161640500Y-103130000D01*
X161642500Y-103132000D01*
X161643500Y-103135000D01*
X161644500Y-103137000D01*
X161645500Y-103140000D01*
X161645500Y-103142000D01*
X161646500Y-103145000D01*
X161646500Y-103147000D01*
X161647500Y-103150000D01*
X161647500Y-104750000D01*
X161646500Y-104753000D01*
X161646500Y-104755000D01*
X161645500Y-104758000D01*
X161645500Y-104760000D01*
X161644500Y-104763000D01*
X161643500Y-104765000D01*
X161642500Y-104768000D01*
X161640500Y-104770000D01*
X161639500Y-104772000D01*
X161637500Y-104774000D01*
X161636500Y-104776000D01*
X161628500Y-104784000D01*
X161626500Y-104785000D01*
X161624500Y-104787000D01*
X161622500Y-104788000D01*
X161620500Y-104790000D01*
X161617500Y-104791000D01*
X161615500Y-104792000D01*
X161612500Y-104793000D01*
X161610500Y-104793000D01*
X161607500Y-104794000D01*
X161605500Y-104794000D01*
X161602500Y-104795000D01*
X160952500Y-104795000D01*
X160949500Y-104794000D01*
X160947500Y-104794000D01*
X160944500Y-104793000D01*
X160942500Y-104793000D01*
X160939500Y-104792000D01*
X160937500Y-104791000D01*
X160934500Y-104790000D01*
X160932500Y-104788000D01*
X160930500Y-104787000D01*
X160928500Y-104785000D01*
X160926500Y-104784000D01*
X160918500Y-104776000D01*
X160917500Y-104774000D01*
X160915500Y-104772000D01*
X160914500Y-104770000D01*
X160912500Y-104768000D01*
X160911500Y-104765000D01*
X160910500Y-104763000D01*
X160909500Y-104760000D01*
X160909500Y-104758000D01*
X160908500Y-104755000D01*
X160908500Y-104753000D01*
X160907500Y-104750000D01*
X160907500Y-103150000D01*
X160908500Y-103147000D01*
X160908500Y-103145000D01*
X160909500Y-103142000D01*
X160909500Y-103140000D01*
X160910500Y-103137000D01*
X160911500Y-103135000D01*
X160912500Y-103132000D01*
X160914500Y-103130000D01*
X160915500Y-103128000D01*
X160917500Y-103126000D01*
X160918500Y-103124000D01*
X160926500Y-103116000D01*
X160928500Y-103115000D01*
X160930500Y-103113000D01*
X160932500Y-103112000D01*
X160934500Y-103110000D01*
X160937500Y-103109000D01*
X160939500Y-103108000D01*
X160942500Y-103107000D01*
X160944500Y-103107000D01*
X160947500Y-103106000D01*
X160949500Y-103106000D01*
X160952500Y-103105000D01*
X161602500Y-103105000D01*
X161605500Y-103106000D01*
G37*
D10*
X161605500Y-103106000D02*
X161607500Y-103106000D01*
X161610500Y-103107000D01*
X161612500Y-103107000D01*
X161615500Y-103108000D01*
X161617500Y-103109000D01*
X161620500Y-103110000D01*
X161622500Y-103112000D01*
X161624500Y-103113000D01*
X161626500Y-103115000D01*
X161628500Y-103116000D01*
X161636500Y-103124000D01*
X161637500Y-103126000D01*
X161639500Y-103128000D01*
X161640500Y-103130000D01*
X161642500Y-103132000D01*
X161643500Y-103135000D01*
X161644500Y-103137000D01*
X161645500Y-103140000D01*
X161645500Y-103142000D01*
X161646500Y-103145000D01*
X161646500Y-103147000D01*
X161647500Y-103150000D01*
X161647500Y-104750000D01*
X161646500Y-104753000D01*
X161646500Y-104755000D01*
X161645500Y-104758000D01*
X161645500Y-104760000D01*
X161644500Y-104763000D01*
X161643500Y-104765000D01*
X161642500Y-104768000D01*
X161640500Y-104770000D01*
X161639500Y-104772000D01*
X161637500Y-104774000D01*
X161636500Y-104776000D01*
X161628500Y-104784000D01*
X161626500Y-104785000D01*
X161624500Y-104787000D01*
X161622500Y-104788000D01*
X161620500Y-104790000D01*
X161617500Y-104791000D01*
X161615500Y-104792000D01*
X161612500Y-104793000D01*
X161610500Y-104793000D01*
X161607500Y-104794000D01*
X161605500Y-104794000D01*
X161602500Y-104795000D01*
X160952500Y-104795000D01*
X160949500Y-104794000D01*
X160947500Y-104794000D01*
X160944500Y-104793000D01*
X160942500Y-104793000D01*
X160939500Y-104792000D01*
X160937500Y-104791000D01*
X160934500Y-104790000D01*
X160932500Y-104788000D01*
X160930500Y-104787000D01*
X160928500Y-104785000D01*
X160926500Y-104784000D01*
X160918500Y-104776000D01*
X160917500Y-104774000D01*
X160915500Y-104772000D01*
X160914500Y-104770000D01*
X160912500Y-104768000D01*
X160911500Y-104765000D01*
X160910500Y-104763000D01*
X160909500Y-104760000D01*
X160909500Y-104758000D01*
X160908500Y-104755000D01*
X160908500Y-104753000D01*
X160907500Y-104750000D01*
X160907500Y-103150000D01*
X160908500Y-103147000D01*
X160908500Y-103145000D01*
X160909500Y-103142000D01*
X160909500Y-103140000D01*
X160910500Y-103137000D01*
X160911500Y-103135000D01*
X160912500Y-103132000D01*
X160914500Y-103130000D01*
X160915500Y-103128000D01*
X160917500Y-103126000D01*
X160918500Y-103124000D01*
X160926500Y-103116000D01*
X160928500Y-103115000D01*
X160930500Y-103113000D01*
X160932500Y-103112000D01*
X160934500Y-103110000D01*
X160937500Y-103109000D01*
X160939500Y-103108000D01*
X160942500Y-103107000D01*
X160944500Y-103107000D01*
X160947500Y-103106000D01*
X160949500Y-103106000D01*
X160952500Y-103105000D01*
X161602500Y-103105000D01*
X161605500Y-103106000D01*
G36*
X162875500Y-97706000D02*
G01*
X162877500Y-97706000D01*
X162880500Y-97707000D01*
X162882500Y-97707000D01*
X162885500Y-97708000D01*
X162887500Y-97709000D01*
X162890500Y-97710000D01*
X162892500Y-97712000D01*
X162894500Y-97713000D01*
X162896500Y-97715000D01*
X162898500Y-97716000D01*
X162906500Y-97724000D01*
X162907500Y-97726000D01*
X162909500Y-97728000D01*
X162910500Y-97730000D01*
X162912500Y-97732000D01*
X162913500Y-97735000D01*
X162914500Y-97737000D01*
X162915500Y-97740000D01*
X162915500Y-97742000D01*
X162916500Y-97745000D01*
X162916500Y-97747000D01*
X162917500Y-97750000D01*
X162917500Y-99350000D01*
X162916500Y-99353000D01*
X162916500Y-99355000D01*
X162915500Y-99358000D01*
X162915500Y-99360000D01*
X162914500Y-99363000D01*
X162913500Y-99365000D01*
X162912500Y-99368000D01*
X162910500Y-99370000D01*
X162909500Y-99372000D01*
X162907500Y-99374000D01*
X162906500Y-99376000D01*
X162898500Y-99384000D01*
X162896500Y-99385000D01*
X162894500Y-99387000D01*
X162892500Y-99388000D01*
X162890500Y-99390000D01*
X162887500Y-99391000D01*
X162885500Y-99392000D01*
X162882500Y-99393000D01*
X162880500Y-99393000D01*
X162877500Y-99394000D01*
X162875500Y-99394000D01*
X162872500Y-99395000D01*
X162222500Y-99395000D01*
X162219500Y-99394000D01*
X162217500Y-99394000D01*
X162214500Y-99393000D01*
X162212500Y-99393000D01*
X162209500Y-99392000D01*
X162207500Y-99391000D01*
X162204500Y-99390000D01*
X162202500Y-99388000D01*
X162200500Y-99387000D01*
X162198500Y-99385000D01*
X162196500Y-99384000D01*
X162188500Y-99376000D01*
X162187500Y-99374000D01*
X162185500Y-99372000D01*
X162184500Y-99370000D01*
X162182500Y-99368000D01*
X162181500Y-99365000D01*
X162180500Y-99363000D01*
X162179500Y-99360000D01*
X162179500Y-99358000D01*
X162178500Y-99355000D01*
X162178500Y-99353000D01*
X162177500Y-99350000D01*
X162177500Y-97750000D01*
X162178500Y-97747000D01*
X162178500Y-97745000D01*
X162179500Y-97742000D01*
X162179500Y-97740000D01*
X162180500Y-97737000D01*
X162181500Y-97735000D01*
X162182500Y-97732000D01*
X162184500Y-97730000D01*
X162185500Y-97728000D01*
X162187500Y-97726000D01*
X162188500Y-97724000D01*
X162196500Y-97716000D01*
X162198500Y-97715000D01*
X162200500Y-97713000D01*
X162202500Y-97712000D01*
X162204500Y-97710000D01*
X162207500Y-97709000D01*
X162209500Y-97708000D01*
X162212500Y-97707000D01*
X162214500Y-97707000D01*
X162217500Y-97706000D01*
X162219500Y-97706000D01*
X162222500Y-97705000D01*
X162872500Y-97705000D01*
X162875500Y-97706000D01*
G37*
X162875500Y-97706000D02*
X162877500Y-97706000D01*
X162880500Y-97707000D01*
X162882500Y-97707000D01*
X162885500Y-97708000D01*
X162887500Y-97709000D01*
X162890500Y-97710000D01*
X162892500Y-97712000D01*
X162894500Y-97713000D01*
X162896500Y-97715000D01*
X162898500Y-97716000D01*
X162906500Y-97724000D01*
X162907500Y-97726000D01*
X162909500Y-97728000D01*
X162910500Y-97730000D01*
X162912500Y-97732000D01*
X162913500Y-97735000D01*
X162914500Y-97737000D01*
X162915500Y-97740000D01*
X162915500Y-97742000D01*
X162916500Y-97745000D01*
X162916500Y-97747000D01*
X162917500Y-97750000D01*
X162917500Y-99350000D01*
X162916500Y-99353000D01*
X162916500Y-99355000D01*
X162915500Y-99358000D01*
X162915500Y-99360000D01*
X162914500Y-99363000D01*
X162913500Y-99365000D01*
X162912500Y-99368000D01*
X162910500Y-99370000D01*
X162909500Y-99372000D01*
X162907500Y-99374000D01*
X162906500Y-99376000D01*
X162898500Y-99384000D01*
X162896500Y-99385000D01*
X162894500Y-99387000D01*
X162892500Y-99388000D01*
X162890500Y-99390000D01*
X162887500Y-99391000D01*
X162885500Y-99392000D01*
X162882500Y-99393000D01*
X162880500Y-99393000D01*
X162877500Y-99394000D01*
X162875500Y-99394000D01*
X162872500Y-99395000D01*
X162222500Y-99395000D01*
X162219500Y-99394000D01*
X162217500Y-99394000D01*
X162214500Y-99393000D01*
X162212500Y-99393000D01*
X162209500Y-99392000D01*
X162207500Y-99391000D01*
X162204500Y-99390000D01*
X162202500Y-99388000D01*
X162200500Y-99387000D01*
X162198500Y-99385000D01*
X162196500Y-99384000D01*
X162188500Y-99376000D01*
X162187500Y-99374000D01*
X162185500Y-99372000D01*
X162184500Y-99370000D01*
X162182500Y-99368000D01*
X162181500Y-99365000D01*
X162180500Y-99363000D01*
X162179500Y-99360000D01*
X162179500Y-99358000D01*
X162178500Y-99355000D01*
X162178500Y-99353000D01*
X162177500Y-99350000D01*
X162177500Y-97750000D01*
X162178500Y-97747000D01*
X162178500Y-97745000D01*
X162179500Y-97742000D01*
X162179500Y-97740000D01*
X162180500Y-97737000D01*
X162181500Y-97735000D01*
X162182500Y-97732000D01*
X162184500Y-97730000D01*
X162185500Y-97728000D01*
X162187500Y-97726000D01*
X162188500Y-97724000D01*
X162196500Y-97716000D01*
X162198500Y-97715000D01*
X162200500Y-97713000D01*
X162202500Y-97712000D01*
X162204500Y-97710000D01*
X162207500Y-97709000D01*
X162209500Y-97708000D01*
X162212500Y-97707000D01*
X162214500Y-97707000D01*
X162217500Y-97706000D01*
X162219500Y-97706000D01*
X162222500Y-97705000D01*
X162872500Y-97705000D01*
X162875500Y-97706000D01*
G36*
X162875500Y-103106000D02*
G01*
X162877500Y-103106000D01*
X162880500Y-103107000D01*
X162882500Y-103107000D01*
X162885500Y-103108000D01*
X162887500Y-103109000D01*
X162890500Y-103110000D01*
X162892500Y-103112000D01*
X162894500Y-103113000D01*
X162896500Y-103115000D01*
X162898500Y-103116000D01*
X162906500Y-103124000D01*
X162907500Y-103126000D01*
X162909500Y-103128000D01*
X162910500Y-103130000D01*
X162912500Y-103132000D01*
X162913500Y-103135000D01*
X162914500Y-103137000D01*
X162915500Y-103140000D01*
X162915500Y-103142000D01*
X162916500Y-103145000D01*
X162916500Y-103147000D01*
X162917500Y-103150000D01*
X162917500Y-104750000D01*
X162916500Y-104753000D01*
X162916500Y-104755000D01*
X162915500Y-104758000D01*
X162915500Y-104760000D01*
X162914500Y-104763000D01*
X162913500Y-104765000D01*
X162912500Y-104768000D01*
X162910500Y-104770000D01*
X162909500Y-104772000D01*
X162907500Y-104774000D01*
X162906500Y-104776000D01*
X162898500Y-104784000D01*
X162896500Y-104785000D01*
X162894500Y-104787000D01*
X162892500Y-104788000D01*
X162890500Y-104790000D01*
X162887500Y-104791000D01*
X162885500Y-104792000D01*
X162882500Y-104793000D01*
X162880500Y-104793000D01*
X162877500Y-104794000D01*
X162875500Y-104794000D01*
X162872500Y-104795000D01*
X162222500Y-104795000D01*
X162219500Y-104794000D01*
X162217500Y-104794000D01*
X162214500Y-104793000D01*
X162212500Y-104793000D01*
X162209500Y-104792000D01*
X162207500Y-104791000D01*
X162204500Y-104790000D01*
X162202500Y-104788000D01*
X162200500Y-104787000D01*
X162198500Y-104785000D01*
X162196500Y-104784000D01*
X162188500Y-104776000D01*
X162187500Y-104774000D01*
X162185500Y-104772000D01*
X162184500Y-104770000D01*
X162182500Y-104768000D01*
X162181500Y-104765000D01*
X162180500Y-104763000D01*
X162179500Y-104760000D01*
X162179500Y-104758000D01*
X162178500Y-104755000D01*
X162178500Y-104753000D01*
X162177500Y-104750000D01*
X162177500Y-103150000D01*
X162178500Y-103147000D01*
X162178500Y-103145000D01*
X162179500Y-103142000D01*
X162179500Y-103140000D01*
X162180500Y-103137000D01*
X162181500Y-103135000D01*
X162182500Y-103132000D01*
X162184500Y-103130000D01*
X162185500Y-103128000D01*
X162187500Y-103126000D01*
X162188500Y-103124000D01*
X162196500Y-103116000D01*
X162198500Y-103115000D01*
X162200500Y-103113000D01*
X162202500Y-103112000D01*
X162204500Y-103110000D01*
X162207500Y-103109000D01*
X162209500Y-103108000D01*
X162212500Y-103107000D01*
X162214500Y-103107000D01*
X162217500Y-103106000D01*
X162219500Y-103106000D01*
X162222500Y-103105000D01*
X162872500Y-103105000D01*
X162875500Y-103106000D01*
G37*
X162875500Y-103106000D02*
X162877500Y-103106000D01*
X162880500Y-103107000D01*
X162882500Y-103107000D01*
X162885500Y-103108000D01*
X162887500Y-103109000D01*
X162890500Y-103110000D01*
X162892500Y-103112000D01*
X162894500Y-103113000D01*
X162896500Y-103115000D01*
X162898500Y-103116000D01*
X162906500Y-103124000D01*
X162907500Y-103126000D01*
X162909500Y-103128000D01*
X162910500Y-103130000D01*
X162912500Y-103132000D01*
X162913500Y-103135000D01*
X162914500Y-103137000D01*
X162915500Y-103140000D01*
X162915500Y-103142000D01*
X162916500Y-103145000D01*
X162916500Y-103147000D01*
X162917500Y-103150000D01*
X162917500Y-104750000D01*
X162916500Y-104753000D01*
X162916500Y-104755000D01*
X162915500Y-104758000D01*
X162915500Y-104760000D01*
X162914500Y-104763000D01*
X162913500Y-104765000D01*
X162912500Y-104768000D01*
X162910500Y-104770000D01*
X162909500Y-104772000D01*
X162907500Y-104774000D01*
X162906500Y-104776000D01*
X162898500Y-104784000D01*
X162896500Y-104785000D01*
X162894500Y-104787000D01*
X162892500Y-104788000D01*
X162890500Y-104790000D01*
X162887500Y-104791000D01*
X162885500Y-104792000D01*
X162882500Y-104793000D01*
X162880500Y-104793000D01*
X162877500Y-104794000D01*
X162875500Y-104794000D01*
X162872500Y-104795000D01*
X162222500Y-104795000D01*
X162219500Y-104794000D01*
X162217500Y-104794000D01*
X162214500Y-104793000D01*
X162212500Y-104793000D01*
X162209500Y-104792000D01*
X162207500Y-104791000D01*
X162204500Y-104790000D01*
X162202500Y-104788000D01*
X162200500Y-104787000D01*
X162198500Y-104785000D01*
X162196500Y-104784000D01*
X162188500Y-104776000D01*
X162187500Y-104774000D01*
X162185500Y-104772000D01*
X162184500Y-104770000D01*
X162182500Y-104768000D01*
X162181500Y-104765000D01*
X162180500Y-104763000D01*
X162179500Y-104760000D01*
X162179500Y-104758000D01*
X162178500Y-104755000D01*
X162178500Y-104753000D01*
X162177500Y-104750000D01*
X162177500Y-103150000D01*
X162178500Y-103147000D01*
X162178500Y-103145000D01*
X162179500Y-103142000D01*
X162179500Y-103140000D01*
X162180500Y-103137000D01*
X162181500Y-103135000D01*
X162182500Y-103132000D01*
X162184500Y-103130000D01*
X162185500Y-103128000D01*
X162187500Y-103126000D01*
X162188500Y-103124000D01*
X162196500Y-103116000D01*
X162198500Y-103115000D01*
X162200500Y-103113000D01*
X162202500Y-103112000D01*
X162204500Y-103110000D01*
X162207500Y-103109000D01*
X162209500Y-103108000D01*
X162212500Y-103107000D01*
X162214500Y-103107000D01*
X162217500Y-103106000D01*
X162219500Y-103106000D01*
X162222500Y-103105000D01*
X162872500Y-103105000D01*
X162875500Y-103106000D01*
G36*
X164145500Y-97706000D02*
G01*
X164147500Y-97706000D01*
X164150500Y-97707000D01*
X164152500Y-97707000D01*
X164155500Y-97708000D01*
X164157500Y-97709000D01*
X164160500Y-97710000D01*
X164162500Y-97712000D01*
X164164500Y-97713000D01*
X164166500Y-97715000D01*
X164168500Y-97716000D01*
X164176500Y-97724000D01*
X164177500Y-97726000D01*
X164179500Y-97728000D01*
X164180500Y-97730000D01*
X164182500Y-97732000D01*
X164183500Y-97735000D01*
X164184500Y-97737000D01*
X164185500Y-97740000D01*
X164185500Y-97742000D01*
X164186500Y-97745000D01*
X164186500Y-97747000D01*
X164187500Y-97750000D01*
X164187500Y-99350000D01*
X164186500Y-99353000D01*
X164186500Y-99355000D01*
X164185500Y-99358000D01*
X164185500Y-99360000D01*
X164184500Y-99363000D01*
X164183500Y-99365000D01*
X164182500Y-99368000D01*
X164180500Y-99370000D01*
X164179500Y-99372000D01*
X164177500Y-99374000D01*
X164176500Y-99376000D01*
X164168500Y-99384000D01*
X164166500Y-99385000D01*
X164164500Y-99387000D01*
X164162500Y-99388000D01*
X164160500Y-99390000D01*
X164157500Y-99391000D01*
X164155500Y-99392000D01*
X164152500Y-99393000D01*
X164150500Y-99393000D01*
X164147500Y-99394000D01*
X164145500Y-99394000D01*
X164142500Y-99395000D01*
X163492500Y-99395000D01*
X163489500Y-99394000D01*
X163487500Y-99394000D01*
X163484500Y-99393000D01*
X163482500Y-99393000D01*
X163479500Y-99392000D01*
X163477500Y-99391000D01*
X163474500Y-99390000D01*
X163472500Y-99388000D01*
X163470500Y-99387000D01*
X163468500Y-99385000D01*
X163466500Y-99384000D01*
X163458500Y-99376000D01*
X163457500Y-99374000D01*
X163455500Y-99372000D01*
X163454500Y-99370000D01*
X163452500Y-99368000D01*
X163451500Y-99365000D01*
X163450500Y-99363000D01*
X163449500Y-99360000D01*
X163449500Y-99358000D01*
X163448500Y-99355000D01*
X163448500Y-99353000D01*
X163447500Y-99350000D01*
X163447500Y-97750000D01*
X163448500Y-97747000D01*
X163448500Y-97745000D01*
X163449500Y-97742000D01*
X163449500Y-97740000D01*
X163450500Y-97737000D01*
X163451500Y-97735000D01*
X163452500Y-97732000D01*
X163454500Y-97730000D01*
X163455500Y-97728000D01*
X163457500Y-97726000D01*
X163458500Y-97724000D01*
X163466500Y-97716000D01*
X163468500Y-97715000D01*
X163470500Y-97713000D01*
X163472500Y-97712000D01*
X163474500Y-97710000D01*
X163477500Y-97709000D01*
X163479500Y-97708000D01*
X163482500Y-97707000D01*
X163484500Y-97707000D01*
X163487500Y-97706000D01*
X163489500Y-97706000D01*
X163492500Y-97705000D01*
X164142500Y-97705000D01*
X164145500Y-97706000D01*
G37*
X164145500Y-97706000D02*
X164147500Y-97706000D01*
X164150500Y-97707000D01*
X164152500Y-97707000D01*
X164155500Y-97708000D01*
X164157500Y-97709000D01*
X164160500Y-97710000D01*
X164162500Y-97712000D01*
X164164500Y-97713000D01*
X164166500Y-97715000D01*
X164168500Y-97716000D01*
X164176500Y-97724000D01*
X164177500Y-97726000D01*
X164179500Y-97728000D01*
X164180500Y-97730000D01*
X164182500Y-97732000D01*
X164183500Y-97735000D01*
X164184500Y-97737000D01*
X164185500Y-97740000D01*
X164185500Y-97742000D01*
X164186500Y-97745000D01*
X164186500Y-97747000D01*
X164187500Y-97750000D01*
X164187500Y-99350000D01*
X164186500Y-99353000D01*
X164186500Y-99355000D01*
X164185500Y-99358000D01*
X164185500Y-99360000D01*
X164184500Y-99363000D01*
X164183500Y-99365000D01*
X164182500Y-99368000D01*
X164180500Y-99370000D01*
X164179500Y-99372000D01*
X164177500Y-99374000D01*
X164176500Y-99376000D01*
X164168500Y-99384000D01*
X164166500Y-99385000D01*
X164164500Y-99387000D01*
X164162500Y-99388000D01*
X164160500Y-99390000D01*
X164157500Y-99391000D01*
X164155500Y-99392000D01*
X164152500Y-99393000D01*
X164150500Y-99393000D01*
X164147500Y-99394000D01*
X164145500Y-99394000D01*
X164142500Y-99395000D01*
X163492500Y-99395000D01*
X163489500Y-99394000D01*
X163487500Y-99394000D01*
X163484500Y-99393000D01*
X163482500Y-99393000D01*
X163479500Y-99392000D01*
X163477500Y-99391000D01*
X163474500Y-99390000D01*
X163472500Y-99388000D01*
X163470500Y-99387000D01*
X163468500Y-99385000D01*
X163466500Y-99384000D01*
X163458500Y-99376000D01*
X163457500Y-99374000D01*
X163455500Y-99372000D01*
X163454500Y-99370000D01*
X163452500Y-99368000D01*
X163451500Y-99365000D01*
X163450500Y-99363000D01*
X163449500Y-99360000D01*
X163449500Y-99358000D01*
X163448500Y-99355000D01*
X163448500Y-99353000D01*
X163447500Y-99350000D01*
X163447500Y-97750000D01*
X163448500Y-97747000D01*
X163448500Y-97745000D01*
X163449500Y-97742000D01*
X163449500Y-97740000D01*
X163450500Y-97737000D01*
X163451500Y-97735000D01*
X163452500Y-97732000D01*
X163454500Y-97730000D01*
X163455500Y-97728000D01*
X163457500Y-97726000D01*
X163458500Y-97724000D01*
X163466500Y-97716000D01*
X163468500Y-97715000D01*
X163470500Y-97713000D01*
X163472500Y-97712000D01*
X163474500Y-97710000D01*
X163477500Y-97709000D01*
X163479500Y-97708000D01*
X163482500Y-97707000D01*
X163484500Y-97707000D01*
X163487500Y-97706000D01*
X163489500Y-97706000D01*
X163492500Y-97705000D01*
X164142500Y-97705000D01*
X164145500Y-97706000D01*
G36*
X161605500Y-97706000D02*
G01*
X161607500Y-97706000D01*
X161610500Y-97707000D01*
X161612500Y-97707000D01*
X161615500Y-97708000D01*
X161617500Y-97709000D01*
X161620500Y-97710000D01*
X161622500Y-97712000D01*
X161624500Y-97713000D01*
X161626500Y-97715000D01*
X161628500Y-97716000D01*
X161636500Y-97724000D01*
X161637500Y-97726000D01*
X161639500Y-97728000D01*
X161640500Y-97730000D01*
X161642500Y-97732000D01*
X161643500Y-97735000D01*
X161644500Y-97737000D01*
X161645500Y-97740000D01*
X161645500Y-97742000D01*
X161646500Y-97745000D01*
X161646500Y-97747000D01*
X161647500Y-97750000D01*
X161647500Y-99350000D01*
X161646500Y-99353000D01*
X161646500Y-99355000D01*
X161645500Y-99358000D01*
X161645500Y-99360000D01*
X161644500Y-99363000D01*
X161643500Y-99365000D01*
X161642500Y-99368000D01*
X161640500Y-99370000D01*
X161639500Y-99372000D01*
X161637500Y-99374000D01*
X161636500Y-99376000D01*
X161628500Y-99384000D01*
X161626500Y-99385000D01*
X161624500Y-99387000D01*
X161622500Y-99388000D01*
X161620500Y-99390000D01*
X161617500Y-99391000D01*
X161615500Y-99392000D01*
X161612500Y-99393000D01*
X161610500Y-99393000D01*
X161607500Y-99394000D01*
X161605500Y-99394000D01*
X161602500Y-99395000D01*
X160952500Y-99395000D01*
X160949500Y-99394000D01*
X160947500Y-99394000D01*
X160944500Y-99393000D01*
X160942500Y-99393000D01*
X160939500Y-99392000D01*
X160937500Y-99391000D01*
X160934500Y-99390000D01*
X160932500Y-99388000D01*
X160930500Y-99387000D01*
X160928500Y-99385000D01*
X160926500Y-99384000D01*
X160918500Y-99376000D01*
X160917500Y-99374000D01*
X160915500Y-99372000D01*
X160914500Y-99370000D01*
X160912500Y-99368000D01*
X160911500Y-99365000D01*
X160910500Y-99363000D01*
X160909500Y-99360000D01*
X160909500Y-99358000D01*
X160908500Y-99355000D01*
X160908500Y-99353000D01*
X160907500Y-99350000D01*
X160907500Y-97750000D01*
X160908500Y-97747000D01*
X160908500Y-97745000D01*
X160909500Y-97742000D01*
X160909500Y-97740000D01*
X160910500Y-97737000D01*
X160911500Y-97735000D01*
X160912500Y-97732000D01*
X160914500Y-97730000D01*
X160915500Y-97728000D01*
X160917500Y-97726000D01*
X160918500Y-97724000D01*
X160926500Y-97716000D01*
X160928500Y-97715000D01*
X160930500Y-97713000D01*
X160932500Y-97712000D01*
X160934500Y-97710000D01*
X160937500Y-97709000D01*
X160939500Y-97708000D01*
X160942500Y-97707000D01*
X160944500Y-97707000D01*
X160947500Y-97706000D01*
X160949500Y-97706000D01*
X160952500Y-97705000D01*
X161602500Y-97705000D01*
X161605500Y-97706000D01*
G37*
X161605500Y-97706000D02*
X161607500Y-97706000D01*
X161610500Y-97707000D01*
X161612500Y-97707000D01*
X161615500Y-97708000D01*
X161617500Y-97709000D01*
X161620500Y-97710000D01*
X161622500Y-97712000D01*
X161624500Y-97713000D01*
X161626500Y-97715000D01*
X161628500Y-97716000D01*
X161636500Y-97724000D01*
X161637500Y-97726000D01*
X161639500Y-97728000D01*
X161640500Y-97730000D01*
X161642500Y-97732000D01*
X161643500Y-97735000D01*
X161644500Y-97737000D01*
X161645500Y-97740000D01*
X161645500Y-97742000D01*
X161646500Y-97745000D01*
X161646500Y-97747000D01*
X161647500Y-97750000D01*
X161647500Y-99350000D01*
X161646500Y-99353000D01*
X161646500Y-99355000D01*
X161645500Y-99358000D01*
X161645500Y-99360000D01*
X161644500Y-99363000D01*
X161643500Y-99365000D01*
X161642500Y-99368000D01*
X161640500Y-99370000D01*
X161639500Y-99372000D01*
X161637500Y-99374000D01*
X161636500Y-99376000D01*
X161628500Y-99384000D01*
X161626500Y-99385000D01*
X161624500Y-99387000D01*
X161622500Y-99388000D01*
X161620500Y-99390000D01*
X161617500Y-99391000D01*
X161615500Y-99392000D01*
X161612500Y-99393000D01*
X161610500Y-99393000D01*
X161607500Y-99394000D01*
X161605500Y-99394000D01*
X161602500Y-99395000D01*
X160952500Y-99395000D01*
X160949500Y-99394000D01*
X160947500Y-99394000D01*
X160944500Y-99393000D01*
X160942500Y-99393000D01*
X160939500Y-99392000D01*
X160937500Y-99391000D01*
X160934500Y-99390000D01*
X160932500Y-99388000D01*
X160930500Y-99387000D01*
X160928500Y-99385000D01*
X160926500Y-99384000D01*
X160918500Y-99376000D01*
X160917500Y-99374000D01*
X160915500Y-99372000D01*
X160914500Y-99370000D01*
X160912500Y-99368000D01*
X160911500Y-99365000D01*
X160910500Y-99363000D01*
X160909500Y-99360000D01*
X160909500Y-99358000D01*
X160908500Y-99355000D01*
X160908500Y-99353000D01*
X160907500Y-99350000D01*
X160907500Y-97750000D01*
X160908500Y-97747000D01*
X160908500Y-97745000D01*
X160909500Y-97742000D01*
X160909500Y-97740000D01*
X160910500Y-97737000D01*
X160911500Y-97735000D01*
X160912500Y-97732000D01*
X160914500Y-97730000D01*
X160915500Y-97728000D01*
X160917500Y-97726000D01*
X160918500Y-97724000D01*
X160926500Y-97716000D01*
X160928500Y-97715000D01*
X160930500Y-97713000D01*
X160932500Y-97712000D01*
X160934500Y-97710000D01*
X160937500Y-97709000D01*
X160939500Y-97708000D01*
X160942500Y-97707000D01*
X160944500Y-97707000D01*
X160947500Y-97706000D01*
X160949500Y-97706000D01*
X160952500Y-97705000D01*
X161602500Y-97705000D01*
X161605500Y-97706000D01*
G36*
X160335500Y-97706000D02*
G01*
X160337500Y-97706000D01*
X160340500Y-97707000D01*
X160342500Y-97707000D01*
X160345500Y-97708000D01*
X160347500Y-97709000D01*
X160350500Y-97710000D01*
X160352500Y-97712000D01*
X160354500Y-97713000D01*
X160356500Y-97715000D01*
X160358500Y-97716000D01*
X160366500Y-97724000D01*
X160367500Y-97726000D01*
X160369500Y-97728000D01*
X160370500Y-97730000D01*
X160372500Y-97732000D01*
X160373500Y-97735000D01*
X160374500Y-97737000D01*
X160375500Y-97740000D01*
X160375500Y-97742000D01*
X160376500Y-97745000D01*
X160376500Y-97747000D01*
X160377500Y-97750000D01*
X160377500Y-99350000D01*
X160376500Y-99353000D01*
X160376500Y-99355000D01*
X160375500Y-99358000D01*
X160375500Y-99360000D01*
X160374500Y-99363000D01*
X160373500Y-99365000D01*
X160372500Y-99368000D01*
X160370500Y-99370000D01*
X160369500Y-99372000D01*
X160367500Y-99374000D01*
X160366500Y-99376000D01*
X160358500Y-99384000D01*
X160356500Y-99385000D01*
X160354500Y-99387000D01*
X160352500Y-99388000D01*
X160350500Y-99390000D01*
X160347500Y-99391000D01*
X160345500Y-99392000D01*
X160342500Y-99393000D01*
X160340500Y-99393000D01*
X160337500Y-99394000D01*
X160335500Y-99394000D01*
X160332500Y-99395000D01*
X159682500Y-99395000D01*
X159679500Y-99394000D01*
X159677500Y-99394000D01*
X159674500Y-99393000D01*
X159672500Y-99393000D01*
X159669500Y-99392000D01*
X159667500Y-99391000D01*
X159664500Y-99390000D01*
X159662500Y-99388000D01*
X159660500Y-99387000D01*
X159658500Y-99385000D01*
X159656500Y-99384000D01*
X159648500Y-99376000D01*
X159647500Y-99374000D01*
X159645500Y-99372000D01*
X159644500Y-99370000D01*
X159642500Y-99368000D01*
X159641500Y-99365000D01*
X159640500Y-99363000D01*
X159639500Y-99360000D01*
X159639500Y-99358000D01*
X159638500Y-99355000D01*
X159638500Y-99353000D01*
X159637500Y-99350000D01*
X159637500Y-97750000D01*
X159638500Y-97747000D01*
X159638500Y-97745000D01*
X159639500Y-97742000D01*
X159639500Y-97740000D01*
X159640500Y-97737000D01*
X159641500Y-97735000D01*
X159642500Y-97732000D01*
X159644500Y-97730000D01*
X159645500Y-97728000D01*
X159647500Y-97726000D01*
X159648500Y-97724000D01*
X159656500Y-97716000D01*
X159658500Y-97715000D01*
X159660500Y-97713000D01*
X159662500Y-97712000D01*
X159664500Y-97710000D01*
X159667500Y-97709000D01*
X159669500Y-97708000D01*
X159672500Y-97707000D01*
X159674500Y-97707000D01*
X159677500Y-97706000D01*
X159679500Y-97706000D01*
X159682500Y-97705000D01*
X160332500Y-97705000D01*
X160335500Y-97706000D01*
G37*
X160335500Y-97706000D02*
X160337500Y-97706000D01*
X160340500Y-97707000D01*
X160342500Y-97707000D01*
X160345500Y-97708000D01*
X160347500Y-97709000D01*
X160350500Y-97710000D01*
X160352500Y-97712000D01*
X160354500Y-97713000D01*
X160356500Y-97715000D01*
X160358500Y-97716000D01*
X160366500Y-97724000D01*
X160367500Y-97726000D01*
X160369500Y-97728000D01*
X160370500Y-97730000D01*
X160372500Y-97732000D01*
X160373500Y-97735000D01*
X160374500Y-97737000D01*
X160375500Y-97740000D01*
X160375500Y-97742000D01*
X160376500Y-97745000D01*
X160376500Y-97747000D01*
X160377500Y-97750000D01*
X160377500Y-99350000D01*
X160376500Y-99353000D01*
X160376500Y-99355000D01*
X160375500Y-99358000D01*
X160375500Y-99360000D01*
X160374500Y-99363000D01*
X160373500Y-99365000D01*
X160372500Y-99368000D01*
X160370500Y-99370000D01*
X160369500Y-99372000D01*
X160367500Y-99374000D01*
X160366500Y-99376000D01*
X160358500Y-99384000D01*
X160356500Y-99385000D01*
X160354500Y-99387000D01*
X160352500Y-99388000D01*
X160350500Y-99390000D01*
X160347500Y-99391000D01*
X160345500Y-99392000D01*
X160342500Y-99393000D01*
X160340500Y-99393000D01*
X160337500Y-99394000D01*
X160335500Y-99394000D01*
X160332500Y-99395000D01*
X159682500Y-99395000D01*
X159679500Y-99394000D01*
X159677500Y-99394000D01*
X159674500Y-99393000D01*
X159672500Y-99393000D01*
X159669500Y-99392000D01*
X159667500Y-99391000D01*
X159664500Y-99390000D01*
X159662500Y-99388000D01*
X159660500Y-99387000D01*
X159658500Y-99385000D01*
X159656500Y-99384000D01*
X159648500Y-99376000D01*
X159647500Y-99374000D01*
X159645500Y-99372000D01*
X159644500Y-99370000D01*
X159642500Y-99368000D01*
X159641500Y-99365000D01*
X159640500Y-99363000D01*
X159639500Y-99360000D01*
X159639500Y-99358000D01*
X159638500Y-99355000D01*
X159638500Y-99353000D01*
X159637500Y-99350000D01*
X159637500Y-97750000D01*
X159638500Y-97747000D01*
X159638500Y-97745000D01*
X159639500Y-97742000D01*
X159639500Y-97740000D01*
X159640500Y-97737000D01*
X159641500Y-97735000D01*
X159642500Y-97732000D01*
X159644500Y-97730000D01*
X159645500Y-97728000D01*
X159647500Y-97726000D01*
X159648500Y-97724000D01*
X159656500Y-97716000D01*
X159658500Y-97715000D01*
X159660500Y-97713000D01*
X159662500Y-97712000D01*
X159664500Y-97710000D01*
X159667500Y-97709000D01*
X159669500Y-97708000D01*
X159672500Y-97707000D01*
X159674500Y-97707000D01*
X159677500Y-97706000D01*
X159679500Y-97706000D01*
X159682500Y-97705000D01*
X160332500Y-97705000D01*
X160335500Y-97706000D01*
G36*
X164145500Y-103106000D02*
G01*
X164147500Y-103106000D01*
X164150500Y-103107000D01*
X164152500Y-103107000D01*
X164155500Y-103108000D01*
X164157500Y-103109000D01*
X164160500Y-103110000D01*
X164162500Y-103112000D01*
X164164500Y-103113000D01*
X164166500Y-103115000D01*
X164168500Y-103116000D01*
X164176500Y-103124000D01*
X164177500Y-103126000D01*
X164179500Y-103128000D01*
X164180500Y-103130000D01*
X164182500Y-103132000D01*
X164183500Y-103135000D01*
X164184500Y-103137000D01*
X164185500Y-103140000D01*
X164185500Y-103142000D01*
X164186500Y-103145000D01*
X164186500Y-103147000D01*
X164187500Y-103150000D01*
X164187500Y-104750000D01*
X164186500Y-104753000D01*
X164186500Y-104755000D01*
X164185500Y-104758000D01*
X164185500Y-104760000D01*
X164184500Y-104763000D01*
X164183500Y-104765000D01*
X164182500Y-104768000D01*
X164180500Y-104770000D01*
X164179500Y-104772000D01*
X164177500Y-104774000D01*
X164176500Y-104776000D01*
X164168500Y-104784000D01*
X164166500Y-104785000D01*
X164164500Y-104787000D01*
X164162500Y-104788000D01*
X164160500Y-104790000D01*
X164157500Y-104791000D01*
X164155500Y-104792000D01*
X164152500Y-104793000D01*
X164150500Y-104793000D01*
X164147500Y-104794000D01*
X164145500Y-104794000D01*
X164142500Y-104795000D01*
X163492500Y-104795000D01*
X163489500Y-104794000D01*
X163487500Y-104794000D01*
X163484500Y-104793000D01*
X163482500Y-104793000D01*
X163479500Y-104792000D01*
X163477500Y-104791000D01*
X163474500Y-104790000D01*
X163472500Y-104788000D01*
X163470500Y-104787000D01*
X163468500Y-104785000D01*
X163466500Y-104784000D01*
X163458500Y-104776000D01*
X163457500Y-104774000D01*
X163455500Y-104772000D01*
X163454500Y-104770000D01*
X163452500Y-104768000D01*
X163451500Y-104765000D01*
X163450500Y-104763000D01*
X163449500Y-104760000D01*
X163449500Y-104758000D01*
X163448500Y-104755000D01*
X163448500Y-104753000D01*
X163447500Y-104750000D01*
X163447500Y-103150000D01*
X163448500Y-103147000D01*
X163448500Y-103145000D01*
X163449500Y-103142000D01*
X163449500Y-103140000D01*
X163450500Y-103137000D01*
X163451500Y-103135000D01*
X163452500Y-103132000D01*
X163454500Y-103130000D01*
X163455500Y-103128000D01*
X163457500Y-103126000D01*
X163458500Y-103124000D01*
X163466500Y-103116000D01*
X163468500Y-103115000D01*
X163470500Y-103113000D01*
X163472500Y-103112000D01*
X163474500Y-103110000D01*
X163477500Y-103109000D01*
X163479500Y-103108000D01*
X163482500Y-103107000D01*
X163484500Y-103107000D01*
X163487500Y-103106000D01*
X163489500Y-103106000D01*
X163492500Y-103105000D01*
X164142500Y-103105000D01*
X164145500Y-103106000D01*
G37*
X164145500Y-103106000D02*
X164147500Y-103106000D01*
X164150500Y-103107000D01*
X164152500Y-103107000D01*
X164155500Y-103108000D01*
X164157500Y-103109000D01*
X164160500Y-103110000D01*
X164162500Y-103112000D01*
X164164500Y-103113000D01*
X164166500Y-103115000D01*
X164168500Y-103116000D01*
X164176500Y-103124000D01*
X164177500Y-103126000D01*
X164179500Y-103128000D01*
X164180500Y-103130000D01*
X164182500Y-103132000D01*
X164183500Y-103135000D01*
X164184500Y-103137000D01*
X164185500Y-103140000D01*
X164185500Y-103142000D01*
X164186500Y-103145000D01*
X164186500Y-103147000D01*
X164187500Y-103150000D01*
X164187500Y-104750000D01*
X164186500Y-104753000D01*
X164186500Y-104755000D01*
X164185500Y-104758000D01*
X164185500Y-104760000D01*
X164184500Y-104763000D01*
X164183500Y-104765000D01*
X164182500Y-104768000D01*
X164180500Y-104770000D01*
X164179500Y-104772000D01*
X164177500Y-104774000D01*
X164176500Y-104776000D01*
X164168500Y-104784000D01*
X164166500Y-104785000D01*
X164164500Y-104787000D01*
X164162500Y-104788000D01*
X164160500Y-104790000D01*
X164157500Y-104791000D01*
X164155500Y-104792000D01*
X164152500Y-104793000D01*
X164150500Y-104793000D01*
X164147500Y-104794000D01*
X164145500Y-104794000D01*
X164142500Y-104795000D01*
X163492500Y-104795000D01*
X163489500Y-104794000D01*
X163487500Y-104794000D01*
X163484500Y-104793000D01*
X163482500Y-104793000D01*
X163479500Y-104792000D01*
X163477500Y-104791000D01*
X163474500Y-104790000D01*
X163472500Y-104788000D01*
X163470500Y-104787000D01*
X163468500Y-104785000D01*
X163466500Y-104784000D01*
X163458500Y-104776000D01*
X163457500Y-104774000D01*
X163455500Y-104772000D01*
X163454500Y-104770000D01*
X163452500Y-104768000D01*
X163451500Y-104765000D01*
X163450500Y-104763000D01*
X163449500Y-104760000D01*
X163449500Y-104758000D01*
X163448500Y-104755000D01*
X163448500Y-104753000D01*
X163447500Y-104750000D01*
X163447500Y-103150000D01*
X163448500Y-103147000D01*
X163448500Y-103145000D01*
X163449500Y-103142000D01*
X163449500Y-103140000D01*
X163450500Y-103137000D01*
X163451500Y-103135000D01*
X163452500Y-103132000D01*
X163454500Y-103130000D01*
X163455500Y-103128000D01*
X163457500Y-103126000D01*
X163458500Y-103124000D01*
X163466500Y-103116000D01*
X163468500Y-103115000D01*
X163470500Y-103113000D01*
X163472500Y-103112000D01*
X163474500Y-103110000D01*
X163477500Y-103109000D01*
X163479500Y-103108000D01*
X163482500Y-103107000D01*
X163484500Y-103107000D01*
X163487500Y-103106000D01*
X163489500Y-103106000D01*
X163492500Y-103105000D01*
X164142500Y-103105000D01*
X164145500Y-103106000D01*
G36*
X163612500Y-102605000D02*
G01*
X160212500Y-102605000D01*
X160212500Y-99895000D01*
X163612500Y-99895000D01*
X163612500Y-102605000D01*
G37*
X163612500Y-102605000D02*
X160212500Y-102605000D01*
X160212500Y-99895000D01*
X163612500Y-99895000D01*
X163612500Y-102605000D01*
G36*
X160335500Y-103106000D02*
G01*
X160337500Y-103106000D01*
X160340500Y-103107000D01*
X160342500Y-103107000D01*
X160345500Y-103108000D01*
X160347500Y-103109000D01*
X160350500Y-103110000D01*
X160352500Y-103112000D01*
X160354500Y-103113000D01*
X160356500Y-103115000D01*
X160358500Y-103116000D01*
X160366500Y-103124000D01*
X160367500Y-103126000D01*
X160369500Y-103128000D01*
X160370500Y-103130000D01*
X160372500Y-103132000D01*
X160373500Y-103135000D01*
X160374500Y-103137000D01*
X160375500Y-103140000D01*
X160375500Y-103142000D01*
X160376500Y-103145000D01*
X160376500Y-103147000D01*
X160377500Y-103150000D01*
X160377500Y-104750000D01*
X160376500Y-104753000D01*
X160376500Y-104755000D01*
X160375500Y-104758000D01*
X160375500Y-104760000D01*
X160374500Y-104763000D01*
X160373500Y-104765000D01*
X160372500Y-104768000D01*
X160370500Y-104770000D01*
X160369500Y-104772000D01*
X160367500Y-104774000D01*
X160366500Y-104776000D01*
X160358500Y-104784000D01*
X160356500Y-104785000D01*
X160354500Y-104787000D01*
X160352500Y-104788000D01*
X160350500Y-104790000D01*
X160347500Y-104791000D01*
X160345500Y-104792000D01*
X160342500Y-104793000D01*
X160340500Y-104793000D01*
X160337500Y-104794000D01*
X160335500Y-104794000D01*
X160332500Y-104795000D01*
X159682500Y-104795000D01*
X159679500Y-104794000D01*
X159677500Y-104794000D01*
X159674500Y-104793000D01*
X159672500Y-104793000D01*
X159669500Y-104792000D01*
X159667500Y-104791000D01*
X159664500Y-104790000D01*
X159662500Y-104788000D01*
X159660500Y-104787000D01*
X159658500Y-104785000D01*
X159656500Y-104784000D01*
X159648500Y-104776000D01*
X159647500Y-104774000D01*
X159645500Y-104772000D01*
X159644500Y-104770000D01*
X159642500Y-104768000D01*
X159641500Y-104765000D01*
X159640500Y-104763000D01*
X159639500Y-104760000D01*
X159639500Y-104758000D01*
X159638500Y-104755000D01*
X159638500Y-104753000D01*
X159637500Y-104750000D01*
X159637500Y-103150000D01*
X159638500Y-103147000D01*
X159638500Y-103145000D01*
X159639500Y-103142000D01*
X159639500Y-103140000D01*
X159640500Y-103137000D01*
X159641500Y-103135000D01*
X159642500Y-103132000D01*
X159644500Y-103130000D01*
X159645500Y-103128000D01*
X159647500Y-103126000D01*
X159648500Y-103124000D01*
X159656500Y-103116000D01*
X159658500Y-103115000D01*
X159660500Y-103113000D01*
X159662500Y-103112000D01*
X159664500Y-103110000D01*
X159667500Y-103109000D01*
X159669500Y-103108000D01*
X159672500Y-103107000D01*
X159674500Y-103107000D01*
X159677500Y-103106000D01*
X159679500Y-103106000D01*
X159682500Y-103105000D01*
X160332500Y-103105000D01*
X160335500Y-103106000D01*
G37*
X160335500Y-103106000D02*
X160337500Y-103106000D01*
X160340500Y-103107000D01*
X160342500Y-103107000D01*
X160345500Y-103108000D01*
X160347500Y-103109000D01*
X160350500Y-103110000D01*
X160352500Y-103112000D01*
X160354500Y-103113000D01*
X160356500Y-103115000D01*
X160358500Y-103116000D01*
X160366500Y-103124000D01*
X160367500Y-103126000D01*
X160369500Y-103128000D01*
X160370500Y-103130000D01*
X160372500Y-103132000D01*
X160373500Y-103135000D01*
X160374500Y-103137000D01*
X160375500Y-103140000D01*
X160375500Y-103142000D01*
X160376500Y-103145000D01*
X160376500Y-103147000D01*
X160377500Y-103150000D01*
X160377500Y-104750000D01*
X160376500Y-104753000D01*
X160376500Y-104755000D01*
X160375500Y-104758000D01*
X160375500Y-104760000D01*
X160374500Y-104763000D01*
X160373500Y-104765000D01*
X160372500Y-104768000D01*
X160370500Y-104770000D01*
X160369500Y-104772000D01*
X160367500Y-104774000D01*
X160366500Y-104776000D01*
X160358500Y-104784000D01*
X160356500Y-104785000D01*
X160354500Y-104787000D01*
X160352500Y-104788000D01*
X160350500Y-104790000D01*
X160347500Y-104791000D01*
X160345500Y-104792000D01*
X160342500Y-104793000D01*
X160340500Y-104793000D01*
X160337500Y-104794000D01*
X160335500Y-104794000D01*
X160332500Y-104795000D01*
X159682500Y-104795000D01*
X159679500Y-104794000D01*
X159677500Y-104794000D01*
X159674500Y-104793000D01*
X159672500Y-104793000D01*
X159669500Y-104792000D01*
X159667500Y-104791000D01*
X159664500Y-104790000D01*
X159662500Y-104788000D01*
X159660500Y-104787000D01*
X159658500Y-104785000D01*
X159656500Y-104784000D01*
X159648500Y-104776000D01*
X159647500Y-104774000D01*
X159645500Y-104772000D01*
X159644500Y-104770000D01*
X159642500Y-104768000D01*
X159641500Y-104765000D01*
X159640500Y-104763000D01*
X159639500Y-104760000D01*
X159639500Y-104758000D01*
X159638500Y-104755000D01*
X159638500Y-104753000D01*
X159637500Y-104750000D01*
X159637500Y-103150000D01*
X159638500Y-103147000D01*
X159638500Y-103145000D01*
X159639500Y-103142000D01*
X159639500Y-103140000D01*
X159640500Y-103137000D01*
X159641500Y-103135000D01*
X159642500Y-103132000D01*
X159644500Y-103130000D01*
X159645500Y-103128000D01*
X159647500Y-103126000D01*
X159648500Y-103124000D01*
X159656500Y-103116000D01*
X159658500Y-103115000D01*
X159660500Y-103113000D01*
X159662500Y-103112000D01*
X159664500Y-103110000D01*
X159667500Y-103109000D01*
X159669500Y-103108000D01*
X159672500Y-103107000D01*
X159674500Y-103107000D01*
X159677500Y-103106000D01*
X159679500Y-103106000D01*
X159682500Y-103105000D01*
X160332500Y-103105000D01*
X160335500Y-103106000D01*
%TO.C,U3*%
G36*
X184700000Y-126337500D02*
G01*
X184700000Y-127087500D01*
X183300000Y-127087500D01*
X183300000Y-125687500D01*
X184050000Y-125687500D01*
X184700000Y-126337500D01*
G37*
X184700000Y-126337500D02*
X184700000Y-127087500D01*
X183300000Y-127087500D01*
X183300000Y-125687500D01*
X184050000Y-125687500D01*
X184700000Y-126337500D01*
%TD*%
D11*
%TO.C,R34*%
X148425000Y-128500000D03*
X150250000Y-128500000D03*
%TD*%
D12*
%TO.C,C4*%
X178637500Y-96250000D03*
X180362500Y-96250000D03*
%TD*%
D13*
%TO.C,C14*%
X151250000Y-100000000D03*
X153750000Y-100000000D03*
%TD*%
D11*
%TO.C,R30*%
X137837500Y-104250000D03*
X139662500Y-104250000D03*
%TD*%
D14*
%TO.C,Q2*%
X147730000Y-124110000D03*
D15*
X149000000Y-122840000D03*
X150270000Y-124110000D03*
%TD*%
D16*
%TO.C,C12*%
X179500000Y-115887500D03*
X179500000Y-117612500D03*
%TD*%
D17*
%TO.C,R25*%
X156162500Y-119250000D03*
X154337500Y-119250000D03*
%TD*%
D12*
%TO.C,C5*%
X178637500Y-93000000D03*
X180362500Y-93000000D03*
%TD*%
D18*
%TO.C,C2*%
X189287500Y-117000000D03*
X187212500Y-117000000D03*
%TD*%
D19*
%TO.C,C17*%
X133000000Y-128000000D03*
X133000000Y-126275000D03*
%TD*%
D17*
%TO.C,R33*%
X145912500Y-128500000D03*
X144087500Y-128500000D03*
%TD*%
D20*
%TO.C,Wind1*%
X156125000Y-110500000D03*
X154375000Y-110500000D03*
%TD*%
D12*
%TO.C,C7*%
X159387500Y-106750000D03*
X161112500Y-106750000D03*
%TD*%
D21*
%TO.C,U2*%
X176350000Y-106625000D03*
X176750000Y-106625000D03*
X177150000Y-106625000D03*
X177150000Y-105375000D03*
X176750000Y-105375000D03*
X176350000Y-105375000D03*
D22*
X176750000Y-106000000D03*
%TD*%
D23*
%TO.C,R4*%
X178500000Y-100162500D03*
X178500000Y-98337500D03*
%TD*%
D24*
%TO.C,D6*%
X144650000Y-103750000D03*
X141850000Y-103750000D03*
%TD*%
D11*
%TO.C,R9*%
X187337500Y-111500000D03*
X189162500Y-111500000D03*
%TD*%
D14*
%TO.C,Q3*%
X147980000Y-110110000D03*
D15*
X149250000Y-108840000D03*
X150520000Y-110110000D03*
%TD*%
D17*
%TO.C,R19*%
X156325000Y-122250000D03*
X154500000Y-122250000D03*
%TD*%
%TO.C,R16*%
X160412500Y-125250000D03*
X158587500Y-125250000D03*
%TD*%
%TO.C,R28*%
X156162500Y-107500000D03*
X154337500Y-107500000D03*
%TD*%
D25*
%TO.C,C15*%
X142500000Y-120500000D03*
X144000000Y-120500000D03*
%TD*%
D17*
%TO.C,R35*%
X140162500Y-122750000D03*
X138337500Y-122750000D03*
%TD*%
D11*
%TO.C,R18*%
X172662500Y-103750000D03*
X174487500Y-103750000D03*
%TD*%
D17*
%TO.C,R1*%
X170575000Y-103750000D03*
X168750000Y-103750000D03*
%TD*%
D26*
%TO.C,C16*%
X134250000Y-100432500D03*
X134250000Y-101567500D03*
%TD*%
D17*
%TO.C,R23*%
X189162500Y-115000000D03*
X187337500Y-115000000D03*
%TD*%
D20*
%TO.C,Main1*%
X156125000Y-125250000D03*
X154375000Y-125250000D03*
%TD*%
D27*
%TO.C,Air1*%
X171500000Y-129750000D03*
D28*
X168960000Y-129750000D03*
X166420000Y-129750000D03*
%TD*%
D20*
%TO.C,Short1*%
X170625000Y-100500000D03*
X168875000Y-100500000D03*
%TD*%
D29*
%TO.C,L1*%
X138799250Y-88200000D03*
X138799250Y-92010000D03*
%TD*%
D11*
%TO.C,R27*%
X147087500Y-104750000D03*
X148912500Y-104750000D03*
%TD*%
D27*
%TO.C,UV1*%
X182775000Y-112350000D03*
D28*
X180235000Y-112350000D03*
X177695000Y-112350000D03*
%TD*%
D20*
%TO.C,First1*%
X188875000Y-95750000D03*
X187125000Y-95750000D03*
%TD*%
D29*
%TO.C,Program1*%
X188500000Y-107500000D03*
X182000000Y-107500000D03*
X182000000Y-103000000D03*
X188500000Y-103000000D03*
%TD*%
%TO.C,L2*%
X137750000Y-113250000D03*
X133940000Y-113250000D03*
%TD*%
D13*
%TO.C,C13*%
X151500000Y-91750000D03*
X153500000Y-91750000D03*
%TD*%
D23*
%TO.C,R14*%
X159750000Y-95912500D03*
X159750000Y-94087500D03*
%TD*%
D11*
%TO.C,R36*%
X142337500Y-125000000D03*
X144162500Y-125000000D03*
%TD*%
D24*
%TO.C,D7*%
X136500000Y-121500000D03*
X133700000Y-121500000D03*
%TD*%
D13*
%TO.C,C18*%
X142250000Y-113250000D03*
X144250000Y-113250000D03*
%TD*%
D17*
%TO.C,R10*%
X164912500Y-106750000D03*
X163087500Y-106750000D03*
%TD*%
D30*
%TO.C,U5*%
X183220000Y-116525000D03*
X183220000Y-117175000D03*
X183220000Y-117825000D03*
X183220000Y-118475000D03*
X181280000Y-118475000D03*
X181280000Y-117825000D03*
X181280000Y-117175000D03*
X181280000Y-116525000D03*
%TD*%
D17*
%TO.C,R6*%
X188912500Y-93000000D03*
X187087500Y-93000000D03*
%TD*%
D19*
%TO.C,C11*%
X179250000Y-104612500D03*
X179250000Y-102887500D03*
%TD*%
D31*
%TO.C,U7*%
X135502500Y-125550000D03*
X135502500Y-126350000D03*
X135502500Y-127150000D03*
X135502500Y-127950000D03*
D32*
X139272500Y-127950000D03*
X139272500Y-127150000D03*
X139272500Y-126350000D03*
X139272500Y-125550000D03*
D33*
X137387500Y-126750000D03*
%TD*%
D19*
%TO.C,C10*%
X136250000Y-131855000D03*
X136250000Y-130130000D03*
%TD*%
D14*
%TO.C,Q1*%
X147730000Y-117110000D03*
D15*
X149000000Y-115840000D03*
X150270000Y-117110000D03*
%TD*%
D34*
%TO.C,SolarIn1*%
X182365000Y-85050000D03*
D35*
X177365000Y-85050000D03*
%TD*%
D36*
%TO.C,U8*%
X161350000Y-130330000D03*
X162000000Y-130330000D03*
X162650000Y-130330000D03*
X162650000Y-127670000D03*
X162000000Y-127670000D03*
X161350000Y-127670000D03*
%TD*%
D19*
%TO.C,C6*%
X166000000Y-103862500D03*
X166000000Y-102137500D03*
%TD*%
D34*
%TO.C,Bat1*%
X169300000Y-85050000D03*
D35*
X164300000Y-85050000D03*
%TD*%
D37*
%TO.C,Charging1*%
X175000000Y-99125000D03*
X175000000Y-97375000D03*
%TD*%
D38*
%TO.C,C8*%
X176175000Y-108750000D03*
X178250000Y-108750000D03*
%TD*%
D23*
%TO.C,R8*%
X181500000Y-100162500D03*
X181500000Y-98337500D03*
%TD*%
D17*
%TO.C,R7*%
X188912500Y-99000000D03*
X187087500Y-99000000D03*
%TD*%
D39*
%TO.C,R32*%
X146750000Y-97650000D03*
X146750000Y-100750000D03*
%TD*%
D17*
%TO.C,R22*%
X189162500Y-113250000D03*
X187337500Y-113250000D03*
%TD*%
D40*
%TO.C,U4*%
X182200000Y-95985000D03*
X182600000Y-95985000D03*
X183000000Y-95985000D03*
X183400000Y-95985000D03*
X183800000Y-95985000D03*
X183800000Y-94015000D03*
X183400000Y-94015000D03*
X183000000Y-94015000D03*
X182600000Y-94015000D03*
X182200000Y-94015000D03*
D41*
X183000000Y-95000000D03*
%TD*%
D23*
%TO.C,R13*%
X162500000Y-95912500D03*
X162500000Y-94087500D03*
%TD*%
D27*
%TO.C,Ultra1*%
X171500000Y-122750000D03*
D28*
X168960000Y-122750000D03*
X166420000Y-122750000D03*
X163880000Y-122750000D03*
%TD*%
D42*
%TO.C,C3*%
X189362500Y-119000000D03*
X187637500Y-119000000D03*
%TD*%
D27*
%TO.C,Wind_Sen1*%
X165025000Y-113000000D03*
D28*
X162485000Y-113000000D03*
X159945000Y-113000000D03*
%TD*%
D29*
%TO.C,Rst1*%
X139130000Y-135690000D03*
X145630000Y-135690000D03*
X139130000Y-131190000D03*
X145630000Y-131190000D03*
%TD*%
D16*
%TO.C,C1*%
X133250000Y-130130000D03*
X133250000Y-131855000D03*
%TD*%
D27*
%TO.C,JTAG1*%
X163950000Y-134250000D03*
D28*
X166490000Y-134250000D03*
X169030000Y-134250000D03*
X171570000Y-134250000D03*
%TD*%
D11*
%TO.C,R29*%
X141587500Y-101000000D03*
X143412500Y-101000000D03*
%TD*%
D31*
%TO.C,U6*%
X135865000Y-98550000D03*
X135865000Y-99350000D03*
X135865000Y-100150000D03*
X135865000Y-100950000D03*
D32*
X139635000Y-100950000D03*
X139635000Y-100150000D03*
X139635000Y-99350000D03*
X139635000Y-98550000D03*
D33*
X137750000Y-99750000D03*
%TD*%
D23*
%TO.C,R5*%
X184500000Y-100162500D03*
X184500000Y-98337500D03*
%TD*%
D43*
%TO.C,U3*%
X188300000Y-121037500D03*
X187450000Y-121037500D03*
X186600000Y-121037500D03*
X185750000Y-121037500D03*
X184900000Y-121037500D03*
X184050000Y-121037500D03*
X183200000Y-121037500D03*
X182350000Y-121037500D03*
X181500000Y-121037500D03*
X180650000Y-121037500D03*
X179800000Y-121037500D03*
X178950000Y-121037500D03*
X178100000Y-121037500D03*
X177250000Y-121037500D03*
X176400000Y-121037500D03*
D44*
X175350000Y-122087500D03*
X175350000Y-122937500D03*
X175350000Y-123787500D03*
X175350000Y-124637500D03*
X175350000Y-125487500D03*
X175350000Y-126337500D03*
X175350000Y-127187500D03*
X175350000Y-128037500D03*
X175350000Y-128887500D03*
X175350000Y-129737500D03*
X175350000Y-130587500D03*
X175350000Y-131437500D03*
X175350000Y-132287500D03*
X175350000Y-133137500D03*
X175350000Y-133987500D03*
D43*
X176400000Y-135037500D03*
X177250000Y-135037500D03*
X178100000Y-135037500D03*
X178950000Y-135037500D03*
X179800000Y-135037500D03*
X180650000Y-135037500D03*
X181500000Y-135037500D03*
X182350000Y-135037500D03*
X183200000Y-135037500D03*
X184050000Y-135037500D03*
X184900000Y-135037500D03*
X185750000Y-135037500D03*
X186600000Y-135037500D03*
X187450000Y-135037500D03*
X188300000Y-135037500D03*
D44*
X189350000Y-133987500D03*
X189350000Y-133137500D03*
X189350000Y-132287500D03*
X189350000Y-131437500D03*
X189350000Y-130587500D03*
X189350000Y-129737500D03*
X189350000Y-128887500D03*
X189350000Y-128037500D03*
X189350000Y-127187500D03*
X189350000Y-126337500D03*
X189350000Y-125487500D03*
X189350000Y-124637500D03*
X189350000Y-123787500D03*
X189350000Y-122937500D03*
X189350000Y-122087500D03*
D45*
X182350000Y-128037500D03*
X182350000Y-126387500D03*
X180700000Y-126387500D03*
X180700000Y-128037500D03*
X180700000Y-129687500D03*
X182350000Y-129687500D03*
X184000000Y-129687500D03*
X184000000Y-128037500D03*
D46*
X189350000Y-121037500D03*
X175350000Y-121037500D03*
X175350000Y-135037500D03*
X189350000Y-135037500D03*
%TD*%
D11*
%TO.C,R2*%
X152837500Y-130000000D03*
X154662500Y-130000000D03*
%TD*%
D17*
%TO.C,R21*%
X173912500Y-117000000D03*
X172087500Y-117000000D03*
%TD*%
D47*
%TO.C,R11*%
X157750000Y-102587500D03*
X157750000Y-104412500D03*
%TD*%
D27*
%TO.C,UART1*%
X150500000Y-134250000D03*
D28*
X153040000Y-134250000D03*
X155580000Y-134250000D03*
X158120000Y-134250000D03*
%TD*%
D17*
%TO.C,R26*%
X156250000Y-113500000D03*
X154425000Y-113500000D03*
%TD*%
%TO.C,R31*%
X143412500Y-97750000D03*
X141587500Y-97750000D03*
%TD*%
%TO.C,R24*%
X156250000Y-116500000D03*
X154425000Y-116500000D03*
%TD*%
%TO.C,R20*%
X174487500Y-106750000D03*
X172662500Y-106750000D03*
%TD*%
D23*
%TO.C,R12*%
X165250000Y-95912500D03*
X165250000Y-94087500D03*
%TD*%
D27*
%TO.C,Rain1*%
X169975000Y-113000000D03*
D28*
X172515000Y-113000000D03*
%TD*%
D13*
%TO.C,C9*%
X168750000Y-96500000D03*
X170750000Y-96500000D03*
%TD*%
D11*
%TO.C,R17*%
X168662500Y-106750000D03*
X170487500Y-106750000D03*
%TD*%
%TO.C,R3*%
X158587500Y-122250000D03*
X160412500Y-122250000D03*
%TD*%
M02*
