%TF.GenerationSoftware,KiCad,Pcbnew,(6.0.9)*%
%TF.CreationDate,2023-04-25T00:13:10-06:00*%
%TF.ProjectId,WeatherStation,57656174-6865-4725-9374-6174696f6e2e,rev?*%
%TF.SameCoordinates,Original*%
%TF.FileFunction,Copper,L3,Inr*%
%TF.FilePolarity,Positive*%
%FSLAX46Y46*%
G04 Gerber Fmt 4.6, Leading zero omitted, Abs format (unit mm)*
G04 Created by KiCad (PCBNEW (6.0.9)) date 2023-04-25 00:13:10*
%MOMM*%
%LPD*%
G01*
G04 APERTURE LIST*
%TA.AperFunction,ComponentPad*%
%ADD10C,2.000000*%
%TD*%
%TA.AperFunction,ComponentPad*%
%ADD11C,1.600000*%
%TD*%
%TA.AperFunction,ComponentPad*%
%ADD12R,1.300000X1.300000*%
%TD*%
%TA.AperFunction,ComponentPad*%
%ADD13C,1.300000*%
%TD*%
%TA.AperFunction,ComponentPad*%
%ADD14C,1.200000*%
%TD*%
%TA.AperFunction,ComponentPad*%
%ADD15R,1.700000X1.700000*%
%TD*%
%TA.AperFunction,ComponentPad*%
%ADD16O,1.700000X1.700000*%
%TD*%
%TA.AperFunction,ComponentPad*%
%ADD17R,1.980000X3.960000*%
%TD*%
%TA.AperFunction,ComponentPad*%
%ADD18O,1.980000X3.960000*%
%TD*%
%TA.AperFunction,ViaPad*%
%ADD19C,0.800000*%
%TD*%
G04 APERTURE END LIST*
D10*
%TO.N,Net-(L1-Pad1)*%
%TO.C,L1*%
X138799250Y-88200000D03*
%TO.N,Net-(D6-Pad2)*%
X138799250Y-92010000D03*
%TD*%
%TO.N,Net-(L2-Pad1)*%
%TO.C,L2*%
X137750000Y-113250000D03*
%TO.N,Net-(D7-Pad2)*%
X133940000Y-113250000D03*
%TD*%
D11*
%TO.N,Wind 12V*%
%TO.C,C14*%
X151250000Y-100000000D03*
%TO.N,GND*%
X153750000Y-100000000D03*
%TD*%
D12*
%TO.N,Main Gnd*%
%TO.C,Q2*%
X147730000Y-124110000D03*
D13*
%TO.N,Net-(Q2-Pad2)*%
X149000000Y-122840000D03*
%TO.N,GND*%
X150270000Y-124110000D03*
%TD*%
D12*
%TO.N,VDDraw*%
%TO.C,Q3*%
X147980000Y-110110000D03*
D13*
%TO.N,Net-(Q3-Pad2)*%
X149250000Y-108840000D03*
%TO.N,Wind Pow*%
X150520000Y-110110000D03*
%TD*%
D14*
%TO.N,Main 5V*%
%TO.C,C15*%
X142500000Y-120500000D03*
%TO.N,Main Gnd*%
X144000000Y-120500000D03*
%TD*%
D15*
%TO.N,PPM RX*%
%TO.C,Air1*%
X171500000Y-129750000D03*
D16*
%TO.N,Main 5V*%
X168960000Y-129750000D03*
%TO.N,Main Gnd*%
X166420000Y-129750000D03*
%TD*%
D15*
%TO.N,UV*%
%TO.C,UV1*%
X182775000Y-112350000D03*
D16*
%TO.N,GND*%
X180235000Y-112350000D03*
%TO.N,UV Power*%
X177695000Y-112350000D03*
%TD*%
D10*
%TO.N,Net-(C11-Pad1)*%
%TO.C,Program1*%
X188500000Y-107500000D03*
X182000000Y-107500000D03*
%TO.N,GND*%
X182000000Y-103000000D03*
X188500000Y-103000000D03*
%TD*%
D11*
%TO.N,Wind Pow*%
%TO.C,C13*%
X151500000Y-91750000D03*
%TO.N,GND*%
X153500000Y-91750000D03*
%TD*%
%TO.N,VDDraw*%
%TO.C,C18*%
X142250000Y-113250000D03*
%TO.N,Main Gnd*%
X144250000Y-113250000D03*
%TD*%
D12*
%TO.N,GND*%
%TO.C,Q1*%
X147730000Y-117110000D03*
D13*
%TO.N,Net-(Q1-Pad2)*%
X149000000Y-115840000D03*
%TO.N,Net-(Q1-Pad3)*%
X150270000Y-117110000D03*
%TD*%
D17*
%TO.N,GND*%
%TO.C,SolarIn1*%
X182365000Y-85050000D03*
D18*
%TO.N,Net-(C4-Pad2)*%
X177365000Y-85050000D03*
%TD*%
D17*
%TO.N,GND*%
%TO.C,Bat1*%
X169300000Y-85050000D03*
D18*
%TO.N,Vbat*%
X164300000Y-85050000D03*
%TD*%
D15*
%TO.N,Trig*%
%TO.C,Ultra1*%
X171500000Y-122750000D03*
D16*
%TO.N,Echo High*%
X168960000Y-122750000D03*
%TO.N,Main Gnd*%
X166420000Y-122750000D03*
%TO.N,Main 5V*%
X163880000Y-122750000D03*
%TD*%
D15*
%TO.N,Wind*%
%TO.C,Wind_Sen1*%
X165025000Y-113000000D03*
D16*
%TO.N,Wind 12V*%
X162485000Y-113000000D03*
%TO.N,GND*%
X159945000Y-113000000D03*
%TD*%
D10*
%TO.N,Net-(C1-Pad2)*%
%TO.C,Rst1*%
X139130000Y-135690000D03*
X145630000Y-135690000D03*
%TO.N,GND*%
X139130000Y-131190000D03*
X145630000Y-131190000D03*
%TD*%
D15*
%TO.N,/TMS*%
%TO.C,JTAG1*%
X163950000Y-134250000D03*
D16*
%TO.N,/TDI*%
X166490000Y-134250000D03*
%TO.N,/TDO*%
X169030000Y-134250000D03*
%TO.N,/TCK*%
X171570000Y-134250000D03*
%TD*%
D15*
%TO.N,GND*%
%TO.C,UART1*%
X150500000Y-134250000D03*
D16*
%TO.N,/TX*%
X153040000Y-134250000D03*
%TO.N,/RX*%
X155580000Y-134250000D03*
%TO.N,VDD3.3*%
X158120000Y-134250000D03*
%TD*%
D15*
%TO.N,Rain*%
%TO.C,Rain1*%
X169975000Y-113000000D03*
D16*
%TO.N,GND*%
X172515000Y-113000000D03*
%TD*%
D11*
%TO.N,VDDraw*%
%TO.C,C9*%
X168750000Y-96500000D03*
%TO.N,GND*%
X170750000Y-96500000D03*
%TD*%
D19*
%TO.N,GND*%
X159000000Y-105500000D03*
X185250000Y-127250000D03*
X154250000Y-115250000D03*
X188250000Y-124000000D03*
X178500000Y-94500000D03*
X186250000Y-134000000D03*
X135000000Y-102500000D03*
X179500000Y-108750000D03*
X171500000Y-107500000D03*
X188250000Y-129250000D03*
X165250000Y-100750000D03*
X176500000Y-122250000D03*
X134750000Y-99250000D03*
X187750000Y-122000000D03*
X154000000Y-106250000D03*
X134750000Y-129742500D03*
X188250000Y-133750000D03*
X161000000Y-93250000D03*
X185000000Y-101500000D03*
X176500000Y-133750000D03*
X183000000Y-97250000D03*
X178750000Y-101500000D03*
X181500000Y-125000000D03*
X189000000Y-94250000D03*
X178289552Y-117539552D03*
X161750000Y-125500000D03*
X183250000Y-131000000D03*
X188250000Y-126500000D03*
X183941806Y-115691806D03*
X136500000Y-104250000D03*
X178000000Y-106250000D03*
X188250000Y-131750000D03*
%TO.N,Net-(C1-Pad2)*%
X186000000Y-136500000D03*
%TO.N,VDD3.3*%
X156000000Y-130000000D03*
X154500000Y-126500000D03*
X160000000Y-130750000D03*
X174750000Y-109000000D03*
X186250000Y-118750000D03*
%TO.N,Vbat*%
X187250000Y-94500000D03*
X165000000Y-105250000D03*
X167500000Y-99750000D03*
X181750000Y-92750000D03*
X172500000Y-102500000D03*
X175000000Y-96000000D03*
%TO.N,VDDraw*%
X150500000Y-103500000D03*
X164950000Y-98550000D03*
X176750000Y-104250000D03*
%TO.N,/TX*%
X183250000Y-136500000D03*
%TO.N,Battery*%
X185250000Y-115000000D03*
X184750000Y-118500000D03*
%TO.N,Main Gnd*%
X150750000Y-127000000D03*
%TO.N,BME Power*%
X185924500Y-114000000D03*
X184250000Y-114500000D03*
%TO.N,Wind Pow*%
X145250000Y-106000000D03*
%TO.N,Wind 12V*%
X155000000Y-105000000D03*
X144750000Y-101000000D03*
%TO.N,Main 5V*%
X136000000Y-120000000D03*
X158250000Y-127750000D03*
X143750000Y-127250000D03*
%TO.N,Net-(R35-Pad2)*%
X140250000Y-124500000D03*
X138337500Y-123837500D03*
%TD*%
%TA.AperFunction,Conductor*%
%TO.N,Main Gnd*%
G36*
X141116961Y-110631058D02*
G01*
X141649080Y-110821100D01*
X144127585Y-111706281D01*
X144185010Y-111748029D01*
X144210748Y-111814196D01*
X144196628Y-111883774D01*
X144147132Y-111934673D01*
X144096188Y-111950461D01*
X144027480Y-111956472D01*
X144016688Y-111958375D01*
X143806239Y-112014764D01*
X143795947Y-112018510D01*
X143598489Y-112110586D01*
X143588994Y-112116069D01*
X143536952Y-112152509D01*
X143528576Y-112162988D01*
X143535644Y-112176434D01*
X144237188Y-112877978D01*
X144251132Y-112885592D01*
X144252965Y-112885461D01*
X144259580Y-112881210D01*
X144965077Y-112175713D01*
X144989448Y-112131082D01*
X144990269Y-112127307D01*
X145040463Y-112077097D01*
X145109835Y-112061995D01*
X145143244Y-112069016D01*
X148458302Y-113252965D01*
X153614879Y-115094600D01*
X153672303Y-115136347D01*
X153698041Y-115202514D01*
X153697422Y-115229704D01*
X153694750Y-115250000D01*
X153713670Y-115393709D01*
X153769139Y-115527625D01*
X153857379Y-115642621D01*
X153972375Y-115730861D01*
X154106291Y-115786330D01*
X154250000Y-115805250D01*
X154393709Y-115786330D01*
X154460080Y-115758839D01*
X154530668Y-115751250D01*
X154594155Y-115783029D01*
X154630382Y-115844087D01*
X154629176Y-115910801D01*
X151040355Y-128112792D01*
X151001944Y-128172501D01*
X150937350Y-128201965D01*
X150868972Y-128192675D01*
X149699447Y-127681008D01*
X147068016Y-126529757D01*
X147013625Y-126484129D01*
X146993070Y-126426083D01*
X146897369Y-125405269D01*
X146910925Y-125335579D01*
X146960007Y-125284280D01*
X147029627Y-125267692D01*
X147035319Y-125268000D01*
X147457885Y-125268000D01*
X147473124Y-125263525D01*
X147474329Y-125262135D01*
X147476000Y-125254452D01*
X147476000Y-125249884D01*
X147984000Y-125249884D01*
X147988475Y-125265123D01*
X147989865Y-125266328D01*
X147997548Y-125267999D01*
X148424669Y-125267999D01*
X148431490Y-125267629D01*
X148482352Y-125262105D01*
X148497604Y-125258479D01*
X148618054Y-125213324D01*
X148633649Y-125204786D01*
X148735724Y-125128285D01*
X148748285Y-125115724D01*
X148824786Y-125013649D01*
X148833324Y-124998054D01*
X148878478Y-124877606D01*
X148882105Y-124862351D01*
X148887631Y-124811486D01*
X148888000Y-124804672D01*
X148888000Y-124382115D01*
X148883525Y-124366876D01*
X148882135Y-124365671D01*
X148874452Y-124364000D01*
X148002115Y-124364000D01*
X147986876Y-124368475D01*
X147985671Y-124369865D01*
X147984000Y-124377548D01*
X147984000Y-125249884D01*
X147476000Y-125249884D01*
X147476000Y-123837885D01*
X147984000Y-123837885D01*
X147988475Y-123853124D01*
X147989865Y-123854329D01*
X147997548Y-123856000D01*
X148869884Y-123856000D01*
X148885123Y-123851525D01*
X148886328Y-123850135D01*
X148887999Y-123842452D01*
X148887999Y-123769099D01*
X148908001Y-123700978D01*
X148961657Y-123654485D01*
X149002580Y-123643618D01*
X149154960Y-123629751D01*
X149154961Y-123629751D01*
X149161981Y-123629112D01*
X149332782Y-123573615D01*
X149408037Y-123528754D01*
X149476789Y-123511055D01*
X149544199Y-123533337D01*
X149588861Y-123588526D01*
X149596596Y-123659100D01*
X149578464Y-123705238D01*
X149548446Y-123751817D01*
X149546037Y-123758437D01*
X149546035Y-123758440D01*
X149517734Y-123836197D01*
X149487022Y-123920578D01*
X149464514Y-124098753D01*
X149465201Y-124105760D01*
X149465201Y-124105763D01*
X149466005Y-124113963D01*
X149482039Y-124277486D01*
X149484262Y-124284168D01*
X149484262Y-124284169D01*
X149512307Y-124368475D01*
X149538726Y-124447896D01*
X149631759Y-124601512D01*
X149756514Y-124730699D01*
X149906789Y-124829036D01*
X150075116Y-124891636D01*
X150082097Y-124892567D01*
X150082099Y-124892568D01*
X150246149Y-124914457D01*
X150246153Y-124914457D01*
X150253130Y-124915388D01*
X150260142Y-124914750D01*
X150260146Y-124914750D01*
X150424960Y-124899751D01*
X150424961Y-124899751D01*
X150431981Y-124899112D01*
X150602782Y-124843615D01*
X150633714Y-124825176D01*
X150750992Y-124755265D01*
X150750994Y-124755264D01*
X150757044Y-124751657D01*
X150887099Y-124627807D01*
X150904570Y-124601512D01*
X150936791Y-124553014D01*
X150986483Y-124478222D01*
X151028172Y-124368475D01*
X151047757Y-124316919D01*
X151047758Y-124316914D01*
X151050257Y-124310336D01*
X151075251Y-124132493D01*
X151075565Y-124110000D01*
X151055546Y-123931528D01*
X151049427Y-123913955D01*
X151022936Y-123837885D01*
X150996485Y-123761927D01*
X150932232Y-123659100D01*
X150905049Y-123615599D01*
X150901316Y-123609625D01*
X150837771Y-123545635D01*
X150779733Y-123487190D01*
X150779729Y-123487187D01*
X150774770Y-123482193D01*
X150763761Y-123475206D01*
X150705193Y-123438038D01*
X150623136Y-123385963D01*
X150593352Y-123375357D01*
X150460586Y-123328081D01*
X150460581Y-123328080D01*
X150453951Y-123325719D01*
X150446965Y-123324886D01*
X150446961Y-123324885D01*
X150319177Y-123309648D01*
X150275624Y-123304455D01*
X150268621Y-123305191D01*
X150268620Y-123305191D01*
X150104025Y-123322490D01*
X150104021Y-123322491D01*
X150097017Y-123323227D01*
X150090346Y-123325498D01*
X149933677Y-123378832D01*
X149933674Y-123378833D01*
X149927007Y-123381103D01*
X149921009Y-123384793D01*
X149921007Y-123384794D01*
X149864788Y-123419380D01*
X149796287Y-123438038D01*
X149728573Y-123416699D01*
X149683145Y-123362139D01*
X149674426Y-123291680D01*
X149693816Y-123242338D01*
X149716483Y-123208222D01*
X149731168Y-123169564D01*
X149777757Y-123046919D01*
X149777758Y-123046914D01*
X149780257Y-123040336D01*
X149791843Y-122957895D01*
X149804700Y-122866416D01*
X149804700Y-122866411D01*
X149805251Y-122862493D01*
X149805565Y-122840000D01*
X149785546Y-122661528D01*
X149779427Y-122643955D01*
X149728803Y-122498584D01*
X149726485Y-122491927D01*
X149631316Y-122339625D01*
X149567771Y-122275635D01*
X149509733Y-122217190D01*
X149509729Y-122217187D01*
X149504770Y-122212193D01*
X149493761Y-122205206D01*
X149446860Y-122175442D01*
X149353136Y-122115963D01*
X149323352Y-122105357D01*
X149190586Y-122058081D01*
X149190581Y-122058080D01*
X149183951Y-122055719D01*
X149176965Y-122054886D01*
X149176961Y-122054885D01*
X149049177Y-122039648D01*
X149005624Y-122034455D01*
X148998621Y-122035191D01*
X148998620Y-122035191D01*
X148834025Y-122052490D01*
X148834021Y-122052491D01*
X148827017Y-122053227D01*
X148820346Y-122055498D01*
X148663677Y-122108832D01*
X148663674Y-122108833D01*
X148657007Y-122111103D01*
X148651009Y-122114793D01*
X148651007Y-122114794D01*
X148580526Y-122158154D01*
X148504045Y-122205206D01*
X148499014Y-122210132D01*
X148499011Y-122210135D01*
X148491807Y-122217190D01*
X148375732Y-122330859D01*
X148371913Y-122336784D01*
X148371912Y-122336786D01*
X148282265Y-122475891D01*
X148278446Y-122481817D01*
X148217022Y-122650578D01*
X148194514Y-122828753D01*
X148194633Y-122829962D01*
X148174362Y-122895594D01*
X148120062Y-122941333D01*
X148069325Y-122952000D01*
X148002115Y-122952000D01*
X147986876Y-122956475D01*
X147985671Y-122957865D01*
X147984000Y-122965548D01*
X147984000Y-123837885D01*
X147476000Y-123837885D01*
X147476000Y-122970116D01*
X147471525Y-122954877D01*
X147470135Y-122953672D01*
X147462452Y-122952001D01*
X147035331Y-122952001D01*
X147028510Y-122952371D01*
X146977648Y-122957895D01*
X146962396Y-122961521D01*
X146833538Y-123009828D01*
X146832297Y-123006517D01*
X146779483Y-123018065D01*
X146712936Y-122993325D01*
X146670329Y-122936535D01*
X146662888Y-122904138D01*
X146251504Y-118516044D01*
X146250000Y-118500000D01*
X145751439Y-117774820D01*
X146929500Y-117774820D01*
X146938233Y-117818722D01*
X146945127Y-117829040D01*
X146945128Y-117829042D01*
X146954866Y-117843615D01*
X146971496Y-117868504D01*
X146981815Y-117875399D01*
X147010958Y-117894872D01*
X147010960Y-117894873D01*
X147021278Y-117901767D01*
X147065180Y-117910500D01*
X148394820Y-117910500D01*
X148438722Y-117901767D01*
X148449040Y-117894873D01*
X148449042Y-117894872D01*
X148478185Y-117875399D01*
X148488504Y-117868504D01*
X148505134Y-117843615D01*
X148514872Y-117829042D01*
X148514873Y-117829040D01*
X148521767Y-117818722D01*
X148530500Y-117774820D01*
X148530500Y-116700798D01*
X148550502Y-116632677D01*
X148604158Y-116586184D01*
X148674432Y-116576080D01*
X148700419Y-116582700D01*
X148805116Y-116621636D01*
X148812097Y-116622567D01*
X148812099Y-116622568D01*
X148976149Y-116644457D01*
X148976153Y-116644457D01*
X148983130Y-116645388D01*
X148990142Y-116644750D01*
X148990146Y-116644750D01*
X149154960Y-116629751D01*
X149154961Y-116629751D01*
X149161981Y-116629112D01*
X149332782Y-116573615D01*
X149408037Y-116528754D01*
X149476789Y-116511055D01*
X149544199Y-116533337D01*
X149588861Y-116588526D01*
X149596596Y-116659100D01*
X149578464Y-116705238D01*
X149548446Y-116751817D01*
X149487022Y-116920578D01*
X149464514Y-117098753D01*
X149465201Y-117105760D01*
X149465201Y-117105763D01*
X149466005Y-117113963D01*
X149482039Y-117277486D01*
X149484262Y-117284168D01*
X149484262Y-117284169D01*
X149492967Y-117310336D01*
X149538726Y-117447896D01*
X149631759Y-117601512D01*
X149756514Y-117730699D01*
X149906789Y-117829036D01*
X150075116Y-117891636D01*
X150082097Y-117892567D01*
X150082099Y-117892568D01*
X150246149Y-117914457D01*
X150246153Y-117914457D01*
X150253130Y-117915388D01*
X150260142Y-117914750D01*
X150260146Y-117914750D01*
X150424960Y-117899751D01*
X150424961Y-117899751D01*
X150431981Y-117899112D01*
X150602782Y-117843615D01*
X150708010Y-117780887D01*
X150750992Y-117755265D01*
X150750994Y-117755264D01*
X150757044Y-117751657D01*
X150887099Y-117627807D01*
X150904570Y-117601512D01*
X150982582Y-117484093D01*
X150986483Y-117478222D01*
X151001168Y-117439564D01*
X151047757Y-117316919D01*
X151047758Y-117316914D01*
X151050257Y-117310336D01*
X151075251Y-117132493D01*
X151075565Y-117110000D01*
X151055546Y-116931528D01*
X151049427Y-116913955D01*
X150998803Y-116768584D01*
X150996485Y-116761927D01*
X150932232Y-116659100D01*
X150905049Y-116615599D01*
X150901316Y-116609625D01*
X150837771Y-116545635D01*
X150779733Y-116487190D01*
X150779729Y-116487187D01*
X150774770Y-116482193D01*
X150763761Y-116475206D01*
X150705193Y-116438038D01*
X150623136Y-116385963D01*
X150593352Y-116375357D01*
X150460586Y-116328081D01*
X150460581Y-116328080D01*
X150453951Y-116325719D01*
X150446965Y-116324886D01*
X150446961Y-116324885D01*
X150301177Y-116307502D01*
X150275624Y-116304455D01*
X150268621Y-116305191D01*
X150268620Y-116305191D01*
X150104025Y-116322490D01*
X150104021Y-116322491D01*
X150097017Y-116323227D01*
X150090346Y-116325498D01*
X149933677Y-116378832D01*
X149933674Y-116378833D01*
X149927007Y-116381103D01*
X149921009Y-116384793D01*
X149921007Y-116384794D01*
X149864788Y-116419380D01*
X149796287Y-116438038D01*
X149728573Y-116416699D01*
X149683145Y-116362139D01*
X149674426Y-116291680D01*
X149693816Y-116242338D01*
X149716483Y-116208222D01*
X149740982Y-116143729D01*
X149777757Y-116046919D01*
X149777758Y-116046914D01*
X149780257Y-116040336D01*
X149805251Y-115862493D01*
X149805565Y-115840000D01*
X149785546Y-115661528D01*
X149779427Y-115643955D01*
X149738916Y-115527625D01*
X149726485Y-115491927D01*
X149665112Y-115393709D01*
X149635049Y-115345599D01*
X149631316Y-115339625D01*
X149534183Y-115241812D01*
X149509733Y-115217190D01*
X149509729Y-115217187D01*
X149504770Y-115212193D01*
X149493761Y-115205206D01*
X149446860Y-115175442D01*
X149353136Y-115115963D01*
X149293142Y-115094600D01*
X149190586Y-115058081D01*
X149190581Y-115058080D01*
X149183951Y-115055719D01*
X149176965Y-115054886D01*
X149176961Y-115054885D01*
X149049177Y-115039648D01*
X149005624Y-115034455D01*
X148998621Y-115035191D01*
X148998620Y-115035191D01*
X148834025Y-115052490D01*
X148834021Y-115052491D01*
X148827017Y-115053227D01*
X148820346Y-115055498D01*
X148663677Y-115108832D01*
X148663674Y-115108833D01*
X148657007Y-115111103D01*
X148651009Y-115114793D01*
X148651007Y-115114794D01*
X148580526Y-115158154D01*
X148504045Y-115205206D01*
X148499014Y-115210132D01*
X148499011Y-115210135D01*
X148491807Y-115217190D01*
X148375732Y-115330859D01*
X148371913Y-115336784D01*
X148371912Y-115336786D01*
X148340505Y-115385520D01*
X148278446Y-115481817D01*
X148217022Y-115650578D01*
X148194514Y-115828753D01*
X148195201Y-115835760D01*
X148195201Y-115835763D01*
X148197434Y-115858532D01*
X148212039Y-116007486D01*
X148214262Y-116014168D01*
X148214262Y-116014169D01*
X148257360Y-116143729D01*
X148259882Y-116214681D01*
X148223644Y-116275733D01*
X148160152Y-116307502D01*
X148137801Y-116309500D01*
X147065180Y-116309500D01*
X147021278Y-116318233D01*
X147010960Y-116325127D01*
X147010958Y-116325128D01*
X147010074Y-116325719D01*
X146971496Y-116351496D01*
X146964601Y-116361815D01*
X146945128Y-116390958D01*
X146945127Y-116390960D01*
X146938233Y-116401278D01*
X146929500Y-116445180D01*
X146929500Y-117774820D01*
X145751439Y-117774820D01*
X144360234Y-115751250D01*
X143603531Y-114650590D01*
X143581421Y-114583124D01*
X143599296Y-114514414D01*
X143651480Y-114466276D01*
X143721406Y-114453992D01*
X143760610Y-114465012D01*
X143795947Y-114481490D01*
X143806239Y-114485236D01*
X144016688Y-114541625D01*
X144027481Y-114543528D01*
X144244525Y-114562517D01*
X144255475Y-114562517D01*
X144472519Y-114543528D01*
X144483312Y-114541625D01*
X144693761Y-114485236D01*
X144704053Y-114481490D01*
X144901511Y-114389414D01*
X144911006Y-114383931D01*
X144963048Y-114347491D01*
X144971424Y-114337012D01*
X144964356Y-114323566D01*
X143891922Y-113251132D01*
X144614408Y-113251132D01*
X144614539Y-113252965D01*
X144618790Y-113259580D01*
X145324287Y-113965077D01*
X145336062Y-113971507D01*
X145348077Y-113962211D01*
X145383931Y-113911006D01*
X145389414Y-113901511D01*
X145481490Y-113704053D01*
X145485236Y-113693761D01*
X145541625Y-113483312D01*
X145543528Y-113472519D01*
X145562517Y-113255475D01*
X145562517Y-113244525D01*
X145543528Y-113027481D01*
X145541625Y-113016688D01*
X145485236Y-112806239D01*
X145481490Y-112795947D01*
X145389414Y-112598489D01*
X145383931Y-112588994D01*
X145347491Y-112536952D01*
X145337012Y-112528576D01*
X145323566Y-112535644D01*
X144622022Y-113237188D01*
X144614408Y-113251132D01*
X143891922Y-113251132D01*
X143175713Y-112534923D01*
X143163938Y-112528493D01*
X143151923Y-112537789D01*
X143129133Y-112570336D01*
X143073675Y-112614664D01*
X143003056Y-112621973D01*
X142939696Y-112589942D01*
X142936060Y-112586042D01*
X142935948Y-112586154D01*
X142931604Y-112581780D01*
X142927710Y-112577005D01*
X142880307Y-112537789D01*
X142788834Y-112462116D01*
X142784085Y-112458187D01*
X142620116Y-112369529D01*
X142531083Y-112341969D01*
X142447936Y-112316231D01*
X142447933Y-112316230D01*
X142442049Y-112314409D01*
X142435924Y-112313765D01*
X142435923Y-112313765D01*
X142262796Y-112295568D01*
X142262795Y-112295568D01*
X142256668Y-112294924D01*
X142182845Y-112301642D01*
X142073524Y-112311591D01*
X142003871Y-112297846D01*
X141958276Y-112257493D01*
X141902053Y-112175713D01*
X140970756Y-110821099D01*
X140948646Y-110753634D01*
X140966521Y-110684924D01*
X141018705Y-110636786D01*
X141088631Y-110624502D01*
X141116961Y-110631058D01*
G37*
%TD.AperFunction*%
%TD*%
%TA.AperFunction,Conductor*%
%TO.N,Wind 12V*%
G36*
X150905407Y-98520002D02*
G01*
X150951900Y-98573658D01*
X150962004Y-98643932D01*
X150932510Y-98708512D01*
X150869897Y-98747707D01*
X150806239Y-98764764D01*
X150795947Y-98768510D01*
X150598489Y-98860586D01*
X150588994Y-98866069D01*
X150536952Y-98902509D01*
X150528576Y-98912988D01*
X150535644Y-98926434D01*
X151237188Y-99627978D01*
X151251132Y-99635592D01*
X151252965Y-99635461D01*
X151259580Y-99631210D01*
X151965077Y-98925713D01*
X151971507Y-98913938D01*
X151962211Y-98901923D01*
X151911006Y-98866069D01*
X151901511Y-98860586D01*
X151704053Y-98768510D01*
X151693761Y-98764764D01*
X151630103Y-98747707D01*
X151569480Y-98710755D01*
X151538459Y-98646894D01*
X151546887Y-98576400D01*
X151592090Y-98521653D01*
X151662714Y-98500000D01*
X152425395Y-98500000D01*
X152493516Y-98520002D01*
X152535872Y-98565414D01*
X152961078Y-99340789D01*
X152976295Y-99410136D01*
X152961014Y-99462075D01*
X152875104Y-99618343D01*
X152875099Y-99618354D01*
X152872135Y-99623746D01*
X152870274Y-99629613D01*
X152870273Y-99629615D01*
X152823367Y-99777481D01*
X152815772Y-99801424D01*
X152815086Y-99807543D01*
X152804715Y-99899999D01*
X152777244Y-99965466D01*
X152724176Y-100001951D01*
X152769869Y-100027850D01*
X152802901Y-100090694D01*
X152804929Y-100104977D01*
X152810592Y-100172414D01*
X152812291Y-100178339D01*
X152824960Y-100222520D01*
X152861971Y-100351595D01*
X152947176Y-100517385D01*
X153062959Y-100663468D01*
X153204912Y-100784279D01*
X153367627Y-100875217D01*
X153544907Y-100932819D01*
X153729998Y-100954890D01*
X153736132Y-100954418D01*
X153736133Y-100954418D01*
X153740017Y-100954119D01*
X153760469Y-100952545D01*
X153829923Y-100967262D01*
X153880613Y-101017588D01*
X156607289Y-105989762D01*
X156622506Y-106059109D01*
X156597815Y-106125674D01*
X156541057Y-106168323D01*
X156463659Y-106171907D01*
X146666667Y-103500000D01*
X149944750Y-103500000D01*
X149963670Y-103643709D01*
X150019139Y-103777625D01*
X150107379Y-103892621D01*
X150222375Y-103980861D01*
X150356291Y-104036330D01*
X150500000Y-104055250D01*
X150643709Y-104036330D01*
X150777625Y-103980861D01*
X150892621Y-103892621D01*
X150980861Y-103777625D01*
X151036330Y-103643709D01*
X151055250Y-103500000D01*
X151036330Y-103356291D01*
X150980861Y-103222375D01*
X150892621Y-103107379D01*
X150777625Y-103019139D01*
X150643709Y-102963670D01*
X150500000Y-102944750D01*
X150356291Y-102963670D01*
X150222375Y-103019139D01*
X150107379Y-103107379D01*
X150019139Y-103222375D01*
X149963670Y-103356291D01*
X149944750Y-103500000D01*
X146666667Y-103500000D01*
X143076143Y-102520766D01*
X143015687Y-102483546D01*
X142985455Y-102422427D01*
X142734887Y-101086062D01*
X150528493Y-101086062D01*
X150537789Y-101098077D01*
X150588994Y-101133931D01*
X150598489Y-101139414D01*
X150795947Y-101231490D01*
X150806239Y-101235236D01*
X151016688Y-101291625D01*
X151027481Y-101293528D01*
X151244525Y-101312517D01*
X151255475Y-101312517D01*
X151472519Y-101293528D01*
X151483312Y-101291625D01*
X151693761Y-101235236D01*
X151704053Y-101231490D01*
X151901511Y-101139414D01*
X151911006Y-101133931D01*
X151963048Y-101097491D01*
X151971424Y-101087012D01*
X151964356Y-101073566D01*
X151262812Y-100372022D01*
X151248868Y-100364408D01*
X151247035Y-100364539D01*
X151240420Y-100368790D01*
X150534923Y-101074287D01*
X150528493Y-101086062D01*
X142734887Y-101086062D01*
X142532277Y-100005475D01*
X149937483Y-100005475D01*
X149956472Y-100222519D01*
X149958375Y-100233312D01*
X150014764Y-100443761D01*
X150018510Y-100454053D01*
X150110586Y-100651511D01*
X150116069Y-100661006D01*
X150152509Y-100713048D01*
X150162988Y-100721424D01*
X150176434Y-100714356D01*
X150877978Y-100012812D01*
X150884356Y-100001132D01*
X151614408Y-100001132D01*
X151614539Y-100002965D01*
X151618790Y-100009580D01*
X152324287Y-100715077D01*
X152336062Y-100721507D01*
X152348077Y-100712211D01*
X152383931Y-100661006D01*
X152389414Y-100651511D01*
X152481490Y-100454053D01*
X152485236Y-100443761D01*
X152541625Y-100233312D01*
X152543528Y-100222520D01*
X152553850Y-100104540D01*
X152579713Y-100038421D01*
X152633605Y-99999397D01*
X152586887Y-99971387D01*
X152555400Y-99907755D01*
X152553979Y-99896935D01*
X152543528Y-99777480D01*
X152541625Y-99766688D01*
X152485236Y-99556239D01*
X152481490Y-99545947D01*
X152389414Y-99348489D01*
X152383931Y-99338994D01*
X152347491Y-99286952D01*
X152337012Y-99278576D01*
X152323566Y-99285644D01*
X151622022Y-99987188D01*
X151614408Y-100001132D01*
X150884356Y-100001132D01*
X150885592Y-99998868D01*
X150885461Y-99997035D01*
X150881210Y-99990420D01*
X150175713Y-99284923D01*
X150163938Y-99278493D01*
X150151923Y-99287789D01*
X150116069Y-99338994D01*
X150110586Y-99348489D01*
X150018510Y-99545947D01*
X150014764Y-99556239D01*
X149958375Y-99766688D01*
X149956472Y-99777481D01*
X149937483Y-99994525D01*
X149937483Y-100005475D01*
X142532277Y-100005475D01*
X142277979Y-98649220D01*
X142285085Y-98578580D01*
X142329253Y-98522996D01*
X142401821Y-98500000D01*
X150837286Y-98500000D01*
X150905407Y-98520002D01*
G37*
%TD.AperFunction*%
%TD*%
%TA.AperFunction,Conductor*%
%TO.N,Vbat*%
G36*
X189692121Y-78520002D02*
G01*
X189738614Y-78573658D01*
X189750000Y-78626000D01*
X189750000Y-80330200D01*
X189729998Y-80398321D01*
X189676342Y-80444814D01*
X189606068Y-80454918D01*
X189541488Y-80425424D01*
X189506567Y-80375867D01*
X189502255Y-80364780D01*
X189500560Y-80360421D01*
X189374212Y-80139357D01*
X189216576Y-79939397D01*
X189031116Y-79764933D01*
X189027273Y-79762267D01*
X188825743Y-79622461D01*
X188825738Y-79622458D01*
X188821905Y-79619799D01*
X188817723Y-79617736D01*
X188817715Y-79617732D01*
X188597728Y-79509247D01*
X188597725Y-79509246D01*
X188593540Y-79507182D01*
X188351038Y-79429556D01*
X188346431Y-79428806D01*
X188346428Y-79428805D01*
X188104337Y-79389378D01*
X188104338Y-79389378D01*
X188099726Y-79388627D01*
X187976071Y-79387008D01*
X187849801Y-79385355D01*
X187849798Y-79385355D01*
X187845124Y-79385294D01*
X187592826Y-79419630D01*
X187588340Y-79420938D01*
X187588338Y-79420938D01*
X187521958Y-79440286D01*
X187348375Y-79490881D01*
X187117141Y-79597482D01*
X187113232Y-79600045D01*
X186908116Y-79734524D01*
X186908111Y-79734528D01*
X186904203Y-79737090D01*
X186714239Y-79906639D01*
X186551423Y-80102405D01*
X186419331Y-80320085D01*
X186417524Y-80324393D01*
X186417524Y-80324394D01*
X186362791Y-80454918D01*
X186320865Y-80554899D01*
X186258189Y-80801688D01*
X186232679Y-81055030D01*
X186234489Y-81092711D01*
X186244895Y-81309361D01*
X186294570Y-81559091D01*
X186380611Y-81798737D01*
X186501129Y-82023032D01*
X186503924Y-82026775D01*
X186503926Y-82026778D01*
X186650685Y-82223312D01*
X186650690Y-82223318D01*
X186653477Y-82227050D01*
X186656786Y-82230330D01*
X186656791Y-82230336D01*
X186830990Y-82403021D01*
X186834307Y-82406309D01*
X186838069Y-82409067D01*
X186838072Y-82409070D01*
X186951552Y-82492277D01*
X187039646Y-82556870D01*
X187043781Y-82559046D01*
X187043785Y-82559048D01*
X187136782Y-82607976D01*
X187264985Y-82675427D01*
X187505372Y-82759374D01*
X187509965Y-82760246D01*
X187750938Y-82805996D01*
X187750941Y-82805996D01*
X187755527Y-82806867D01*
X187876372Y-82811615D01*
X188005286Y-82816680D01*
X188005291Y-82816680D01*
X188009954Y-82816863D01*
X188101227Y-82806867D01*
X188258411Y-82789653D01*
X188258416Y-82789652D01*
X188263064Y-82789143D01*
X188267588Y-82787952D01*
X188504774Y-82725507D01*
X188504777Y-82725506D01*
X188509297Y-82724316D01*
X188550209Y-82706739D01*
X188738949Y-82625650D01*
X188738951Y-82625649D01*
X188743243Y-82623805D01*
X188855876Y-82554105D01*
X188955789Y-82492277D01*
X188955793Y-82492274D01*
X188959762Y-82489818D01*
X189154099Y-82325300D01*
X189174021Y-82302583D01*
X189318902Y-82137379D01*
X189318906Y-82137374D01*
X189321984Y-82133864D01*
X189459729Y-81919716D01*
X189509118Y-81810076D01*
X189555333Y-81756181D01*
X189623350Y-81735828D01*
X189691573Y-81755478D01*
X189738342Y-81808893D01*
X189750000Y-81861826D01*
X189750000Y-93424651D01*
X189729998Y-93492772D01*
X189676342Y-93539265D01*
X189606068Y-93549369D01*
X189549940Y-93526588D01*
X189456752Y-93458882D01*
X189450724Y-93456198D01*
X189450722Y-93456197D01*
X189288319Y-93383891D01*
X189288318Y-93383891D01*
X189282288Y-93381206D01*
X189188887Y-93361353D01*
X189101944Y-93342872D01*
X189101939Y-93342872D01*
X189095487Y-93341500D01*
X188904513Y-93341500D01*
X188898061Y-93342872D01*
X188898056Y-93342872D01*
X188811113Y-93361353D01*
X188717712Y-93381206D01*
X188711682Y-93383891D01*
X188711681Y-93383891D01*
X188549278Y-93456197D01*
X188549276Y-93456198D01*
X188543248Y-93458882D01*
X188388747Y-93571134D01*
X188260960Y-93713056D01*
X188165473Y-93878444D01*
X188106458Y-94060072D01*
X188086496Y-94250000D01*
X188087186Y-94256565D01*
X188093500Y-94316635D01*
X188106458Y-94439928D01*
X188165473Y-94621556D01*
X188260960Y-94786944D01*
X188388747Y-94928866D01*
X188543248Y-95041118D01*
X188549276Y-95043802D01*
X188549278Y-95043803D01*
X188620132Y-95075349D01*
X188717712Y-95118794D01*
X188811112Y-95138647D01*
X188898056Y-95157128D01*
X188898061Y-95157128D01*
X188904513Y-95158500D01*
X189095487Y-95158500D01*
X189101939Y-95157128D01*
X189101944Y-95157128D01*
X189188888Y-95138647D01*
X189282288Y-95118794D01*
X189379868Y-95075349D01*
X189450722Y-95043803D01*
X189450724Y-95043802D01*
X189456752Y-95041118D01*
X189549940Y-94973413D01*
X189616806Y-94949555D01*
X189685958Y-94965635D01*
X189735438Y-95016548D01*
X189750000Y-95075349D01*
X189750000Y-101810477D01*
X189729998Y-101878598D01*
X189676342Y-101925091D01*
X189606068Y-101935195D01*
X189542170Y-101906289D01*
X189389416Y-101775824D01*
X189385208Y-101773245D01*
X189385202Y-101773241D01*
X189191183Y-101654346D01*
X189186963Y-101651760D01*
X189182393Y-101649867D01*
X189182389Y-101649865D01*
X188972167Y-101562789D01*
X188972165Y-101562788D01*
X188967594Y-101560895D01*
X188869051Y-101537237D01*
X188741524Y-101506620D01*
X188741518Y-101506619D01*
X188736711Y-101505465D01*
X188500000Y-101486835D01*
X188263289Y-101505465D01*
X188258482Y-101506619D01*
X188258476Y-101506620D01*
X188130949Y-101537237D01*
X188032406Y-101560895D01*
X188027835Y-101562788D01*
X188027833Y-101562789D01*
X187817611Y-101649865D01*
X187817607Y-101649867D01*
X187813037Y-101651760D01*
X187808817Y-101654346D01*
X187614798Y-101773241D01*
X187614792Y-101773245D01*
X187610584Y-101775824D01*
X187430031Y-101930031D01*
X187426823Y-101933787D01*
X187409032Y-101954618D01*
X187275824Y-102110584D01*
X187273245Y-102114792D01*
X187273241Y-102114798D01*
X187231601Y-102182749D01*
X187151760Y-102313037D01*
X187149867Y-102317607D01*
X187149865Y-102317611D01*
X187112786Y-102407128D01*
X187060895Y-102532406D01*
X187005465Y-102763289D01*
X186986835Y-103000000D01*
X187005465Y-103236711D01*
X187006619Y-103241518D01*
X187006620Y-103241524D01*
X187030952Y-103342872D01*
X187060895Y-103467594D01*
X187062788Y-103472165D01*
X187062789Y-103472167D01*
X187105817Y-103576045D01*
X187151760Y-103686963D01*
X187154346Y-103691183D01*
X187273241Y-103885202D01*
X187273245Y-103885208D01*
X187275824Y-103889416D01*
X187430031Y-104069969D01*
X187610584Y-104224176D01*
X187614792Y-104226755D01*
X187614798Y-104226759D01*
X187808817Y-104345654D01*
X187813037Y-104348240D01*
X187817607Y-104350133D01*
X187817611Y-104350135D01*
X188018548Y-104433365D01*
X188032406Y-104439105D01*
X188112609Y-104458360D01*
X188258476Y-104493380D01*
X188258482Y-104493381D01*
X188263289Y-104494535D01*
X188500000Y-104513165D01*
X188736711Y-104494535D01*
X188741518Y-104493381D01*
X188741524Y-104493380D01*
X188887391Y-104458360D01*
X188967594Y-104439105D01*
X188981452Y-104433365D01*
X189182389Y-104350135D01*
X189182393Y-104350133D01*
X189186963Y-104348240D01*
X189191183Y-104345654D01*
X189385202Y-104226759D01*
X189385208Y-104226755D01*
X189389416Y-104224176D01*
X189542170Y-104093711D01*
X189606959Y-104064681D01*
X189677159Y-104075286D01*
X189730481Y-104122161D01*
X189750000Y-104189523D01*
X189750000Y-105872996D01*
X189729998Y-105941117D01*
X189676342Y-105987610D01*
X189623000Y-105998992D01*
X188550301Y-105990478D01*
X188541417Y-105990094D01*
X188504932Y-105987223D01*
X188504930Y-105987223D01*
X188500000Y-105986835D01*
X188495070Y-105987223D01*
X188495059Y-105987223D01*
X188467985Y-105989354D01*
X188457101Y-105989739D01*
X178926860Y-105914102D01*
X178858903Y-105893561D01*
X178818744Y-105851107D01*
X178800530Y-105819559D01*
X178739040Y-105713056D01*
X178718216Y-105689928D01*
X178615675Y-105576045D01*
X178615674Y-105576044D01*
X178611253Y-105571134D01*
X178456752Y-105458882D01*
X178450724Y-105456198D01*
X178450722Y-105456197D01*
X178288319Y-105383891D01*
X178288318Y-105383891D01*
X178282288Y-105381206D01*
X178188888Y-105361353D01*
X178101944Y-105342872D01*
X178101939Y-105342872D01*
X178095487Y-105341500D01*
X177904513Y-105341500D01*
X177898061Y-105342872D01*
X177898056Y-105342872D01*
X177811112Y-105361353D01*
X177717712Y-105381206D01*
X177711682Y-105383891D01*
X177711681Y-105383891D01*
X177549278Y-105456197D01*
X177549276Y-105456198D01*
X177543248Y-105458882D01*
X177388747Y-105571134D01*
X177384326Y-105576044D01*
X177384325Y-105576045D01*
X177281785Y-105689928D01*
X177260960Y-105713056D01*
X177257659Y-105718774D01*
X177189721Y-105836445D01*
X177138338Y-105885438D01*
X177079602Y-105899441D01*
X167014405Y-105819559D01*
X160024684Y-105764085D01*
X159956725Y-105743543D01*
X159910660Y-105689520D01*
X159900375Y-105624919D01*
X159912814Y-105506565D01*
X159913504Y-105500000D01*
X159901301Y-105383891D01*
X159894232Y-105316635D01*
X159894232Y-105316633D01*
X159893542Y-105310072D01*
X159834527Y-105128444D01*
X159827406Y-105116109D01*
X159784109Y-105041118D01*
X159739040Y-104963056D01*
X159711752Y-104932749D01*
X159615675Y-104826045D01*
X159615674Y-104826044D01*
X159611253Y-104821134D01*
X159456752Y-104708882D01*
X159450724Y-104706198D01*
X159450722Y-104706197D01*
X159288319Y-104633891D01*
X159288318Y-104633891D01*
X159282288Y-104631206D01*
X159188888Y-104611353D01*
X159101944Y-104592872D01*
X159101939Y-104592872D01*
X159095487Y-104591500D01*
X158904513Y-104591500D01*
X158898061Y-104592872D01*
X158898056Y-104592872D01*
X158811112Y-104611353D01*
X158717712Y-104631206D01*
X158711682Y-104633891D01*
X158711681Y-104633891D01*
X158549278Y-104706197D01*
X158549276Y-104706198D01*
X158543248Y-104708882D01*
X158537907Y-104712762D01*
X158537906Y-104712763D01*
X158459998Y-104769367D01*
X158393131Y-104793225D01*
X158323979Y-104777145D01*
X158274499Y-104726231D01*
X158259942Y-104666275D01*
X158260240Y-104633891D01*
X158263762Y-104250000D01*
X175836496Y-104250000D01*
X175837186Y-104256565D01*
X175846550Y-104345654D01*
X175856458Y-104439928D01*
X175915473Y-104621556D01*
X175918776Y-104627278D01*
X175918777Y-104627279D01*
X175941292Y-104666275D01*
X176010960Y-104786944D01*
X176015378Y-104791851D01*
X176015379Y-104791852D01*
X176134325Y-104923955D01*
X176138747Y-104928866D01*
X176293248Y-105041118D01*
X176299276Y-105043802D01*
X176299278Y-105043803D01*
X176461681Y-105116109D01*
X176467712Y-105118794D01*
X176542680Y-105134729D01*
X176648056Y-105157128D01*
X176648061Y-105157128D01*
X176654513Y-105158500D01*
X176845487Y-105158500D01*
X176851939Y-105157128D01*
X176851944Y-105157128D01*
X176957320Y-105134729D01*
X177032288Y-105118794D01*
X177038319Y-105116109D01*
X177200722Y-105043803D01*
X177200724Y-105043802D01*
X177206752Y-105041118D01*
X177361253Y-104928866D01*
X177365675Y-104923955D01*
X177484621Y-104791852D01*
X177484622Y-104791851D01*
X177489040Y-104786944D01*
X177558708Y-104666275D01*
X177581223Y-104627279D01*
X177581224Y-104627278D01*
X177584527Y-104621556D01*
X177643542Y-104439928D01*
X177653451Y-104345654D01*
X177662814Y-104256565D01*
X177663504Y-104250000D01*
X177645141Y-104075286D01*
X177644232Y-104066635D01*
X177644232Y-104066633D01*
X177643542Y-104060072D01*
X177584527Y-103878444D01*
X177489040Y-103713056D01*
X177469346Y-103691183D01*
X177365675Y-103576045D01*
X177365674Y-103576044D01*
X177361253Y-103571134D01*
X177206752Y-103458882D01*
X177200724Y-103456198D01*
X177200722Y-103456197D01*
X177038319Y-103383891D01*
X177038318Y-103383891D01*
X177032288Y-103381206D01*
X176938888Y-103361353D01*
X176851944Y-103342872D01*
X176851939Y-103342872D01*
X176845487Y-103341500D01*
X176654513Y-103341500D01*
X176648061Y-103342872D01*
X176648056Y-103342872D01*
X176561112Y-103361353D01*
X176467712Y-103381206D01*
X176461682Y-103383891D01*
X176461681Y-103383891D01*
X176299278Y-103456197D01*
X176299276Y-103456198D01*
X176293248Y-103458882D01*
X176138747Y-103571134D01*
X176134326Y-103576044D01*
X176134325Y-103576045D01*
X176030655Y-103691183D01*
X176010960Y-103713056D01*
X175915473Y-103878444D01*
X175856458Y-104060072D01*
X175855768Y-104066633D01*
X175855768Y-104066635D01*
X175854859Y-104075286D01*
X175836496Y-104250000D01*
X158263762Y-104250000D01*
X158275230Y-103000000D01*
X180486835Y-103000000D01*
X180505465Y-103236711D01*
X180506619Y-103241518D01*
X180506620Y-103241524D01*
X180530952Y-103342872D01*
X180560895Y-103467594D01*
X180562788Y-103472165D01*
X180562789Y-103472167D01*
X180605817Y-103576045D01*
X180651760Y-103686963D01*
X180654346Y-103691183D01*
X180773241Y-103885202D01*
X180773245Y-103885208D01*
X180775824Y-103889416D01*
X180930031Y-104069969D01*
X181110584Y-104224176D01*
X181114792Y-104226755D01*
X181114798Y-104226759D01*
X181308817Y-104345654D01*
X181313037Y-104348240D01*
X181317607Y-104350133D01*
X181317611Y-104350135D01*
X181518548Y-104433365D01*
X181532406Y-104439105D01*
X181612609Y-104458360D01*
X181758476Y-104493380D01*
X181758482Y-104493381D01*
X181763289Y-104494535D01*
X182000000Y-104513165D01*
X182236711Y-104494535D01*
X182241518Y-104493381D01*
X182241524Y-104493380D01*
X182387391Y-104458360D01*
X182467594Y-104439105D01*
X182481452Y-104433365D01*
X182682389Y-104350135D01*
X182682393Y-104350133D01*
X182686963Y-104348240D01*
X182691183Y-104345654D01*
X182885202Y-104226759D01*
X182885208Y-104226755D01*
X182889416Y-104224176D01*
X183069969Y-104069969D01*
X183224176Y-103889416D01*
X183226755Y-103885208D01*
X183226759Y-103885202D01*
X183345654Y-103691183D01*
X183348240Y-103686963D01*
X183394184Y-103576045D01*
X183437211Y-103472167D01*
X183437212Y-103472165D01*
X183439105Y-103467594D01*
X183469048Y-103342872D01*
X183493380Y-103241524D01*
X183493381Y-103241518D01*
X183494535Y-103236711D01*
X183513165Y-103000000D01*
X183494535Y-102763289D01*
X183439105Y-102532406D01*
X183387214Y-102407128D01*
X183350135Y-102317611D01*
X183350133Y-102317607D01*
X183348240Y-102313037D01*
X183268399Y-102182749D01*
X183226759Y-102114798D01*
X183226755Y-102114792D01*
X183224176Y-102110584D01*
X183090968Y-101954618D01*
X183073177Y-101933787D01*
X183069969Y-101930031D01*
X182889416Y-101775824D01*
X182885208Y-101773245D01*
X182885202Y-101773241D01*
X182691183Y-101654346D01*
X182686963Y-101651760D01*
X182682393Y-101649867D01*
X182682389Y-101649865D01*
X182472167Y-101562789D01*
X182472165Y-101562788D01*
X182467594Y-101560895D01*
X182369051Y-101537237D01*
X182241524Y-101506620D01*
X182241518Y-101506619D01*
X182236711Y-101505465D01*
X182167273Y-101500000D01*
X184086496Y-101500000D01*
X184087186Y-101506565D01*
X184103011Y-101657128D01*
X184106458Y-101689928D01*
X184165473Y-101871556D01*
X184168776Y-101877278D01*
X184168777Y-101877279D01*
X184197381Y-101926823D01*
X184260960Y-102036944D01*
X184388747Y-102178866D01*
X184543248Y-102291118D01*
X184549276Y-102293802D01*
X184549278Y-102293803D01*
X184711681Y-102366109D01*
X184717712Y-102368794D01*
X184811113Y-102388647D01*
X184898056Y-102407128D01*
X184898061Y-102407128D01*
X184904513Y-102408500D01*
X185095487Y-102408500D01*
X185101939Y-102407128D01*
X185101944Y-102407128D01*
X185188887Y-102388647D01*
X185282288Y-102368794D01*
X185288319Y-102366109D01*
X185450722Y-102293803D01*
X185450724Y-102293802D01*
X185456752Y-102291118D01*
X185611253Y-102178866D01*
X185739040Y-102036944D01*
X185802619Y-101926823D01*
X185831223Y-101877279D01*
X185831224Y-101877278D01*
X185834527Y-101871556D01*
X185893542Y-101689928D01*
X185896990Y-101657128D01*
X185912814Y-101506565D01*
X185913504Y-101500000D01*
X185906028Y-101428866D01*
X185894232Y-101316635D01*
X185894232Y-101316633D01*
X185893542Y-101310072D01*
X185834527Y-101128444D01*
X185739040Y-100963056D01*
X185718216Y-100939928D01*
X185615675Y-100826045D01*
X185615674Y-100826044D01*
X185611253Y-100821134D01*
X185456752Y-100708882D01*
X185450724Y-100706198D01*
X185450722Y-100706197D01*
X185288319Y-100633891D01*
X185288318Y-100633891D01*
X185282288Y-100631206D01*
X185188888Y-100611353D01*
X185101944Y-100592872D01*
X185101939Y-100592872D01*
X185095487Y-100591500D01*
X184904513Y-100591500D01*
X184898061Y-100592872D01*
X184898056Y-100592872D01*
X184811113Y-100611353D01*
X184717712Y-100631206D01*
X184711682Y-100633891D01*
X184711681Y-100633891D01*
X184549278Y-100706197D01*
X184549276Y-100706198D01*
X184543248Y-100708882D01*
X184388747Y-100821134D01*
X184384326Y-100826044D01*
X184384325Y-100826045D01*
X184281785Y-100939928D01*
X184260960Y-100963056D01*
X184165473Y-101128444D01*
X184106458Y-101310072D01*
X184105768Y-101316633D01*
X184105768Y-101316635D01*
X184093972Y-101428866D01*
X184086496Y-101500000D01*
X182167273Y-101500000D01*
X182000000Y-101486835D01*
X181763289Y-101505465D01*
X181758482Y-101506619D01*
X181758476Y-101506620D01*
X181630949Y-101537237D01*
X181532406Y-101560895D01*
X181527835Y-101562788D01*
X181527833Y-101562789D01*
X181317611Y-101649865D01*
X181317607Y-101649867D01*
X181313037Y-101651760D01*
X181308817Y-101654346D01*
X181114798Y-101773241D01*
X181114792Y-101773245D01*
X181110584Y-101775824D01*
X180930031Y-101930031D01*
X180926823Y-101933787D01*
X180909032Y-101954618D01*
X180775824Y-102110584D01*
X180773245Y-102114792D01*
X180773241Y-102114798D01*
X180731601Y-102182749D01*
X180651760Y-102313037D01*
X180649867Y-102317607D01*
X180649865Y-102317611D01*
X180612786Y-102407128D01*
X180560895Y-102532406D01*
X180505465Y-102763289D01*
X180486835Y-103000000D01*
X158275230Y-103000000D01*
X158295872Y-100750000D01*
X164336496Y-100750000D01*
X164337186Y-100756565D01*
X164344489Y-100826045D01*
X164356458Y-100939928D01*
X164415473Y-101121556D01*
X164510960Y-101286944D01*
X164515378Y-101291851D01*
X164515379Y-101291852D01*
X164537694Y-101316635D01*
X164638747Y-101428866D01*
X164793248Y-101541118D01*
X164799276Y-101543802D01*
X164799278Y-101543803D01*
X164837668Y-101560895D01*
X164967712Y-101618794D01*
X165061112Y-101638647D01*
X165148056Y-101657128D01*
X165148061Y-101657128D01*
X165154513Y-101658500D01*
X165345487Y-101658500D01*
X165351939Y-101657128D01*
X165351944Y-101657128D01*
X165438888Y-101638647D01*
X165532288Y-101618794D01*
X165662332Y-101560895D01*
X165700722Y-101543803D01*
X165700724Y-101543802D01*
X165706752Y-101541118D01*
X165763346Y-101500000D01*
X177836496Y-101500000D01*
X177837186Y-101506565D01*
X177853011Y-101657128D01*
X177856458Y-101689928D01*
X177915473Y-101871556D01*
X177918776Y-101877278D01*
X177918777Y-101877279D01*
X177947381Y-101926823D01*
X178010960Y-102036944D01*
X178138747Y-102178866D01*
X178293248Y-102291118D01*
X178299276Y-102293802D01*
X178299278Y-102293803D01*
X178461681Y-102366109D01*
X178467712Y-102368794D01*
X178561113Y-102388647D01*
X178648056Y-102407128D01*
X178648061Y-102407128D01*
X178654513Y-102408500D01*
X178845487Y-102408500D01*
X178851939Y-102407128D01*
X178851944Y-102407128D01*
X178938887Y-102388647D01*
X179032288Y-102368794D01*
X179038319Y-102366109D01*
X179200722Y-102293803D01*
X179200724Y-102293802D01*
X179206752Y-102291118D01*
X179361253Y-102178866D01*
X179489040Y-102036944D01*
X179552619Y-101926823D01*
X179581223Y-101877279D01*
X179581224Y-101877278D01*
X179584527Y-101871556D01*
X179643542Y-101689928D01*
X179646990Y-101657128D01*
X179662814Y-101506565D01*
X179663504Y-101500000D01*
X179656028Y-101428866D01*
X179644232Y-101316635D01*
X179644232Y-101316633D01*
X179643542Y-101310072D01*
X179584527Y-101128444D01*
X179489040Y-100963056D01*
X179468216Y-100939928D01*
X179365675Y-100826045D01*
X179365674Y-100826044D01*
X179361253Y-100821134D01*
X179206752Y-100708882D01*
X179200724Y-100706198D01*
X179200722Y-100706197D01*
X179038319Y-100633891D01*
X179038318Y-100633891D01*
X179032288Y-100631206D01*
X178938888Y-100611353D01*
X178851944Y-100592872D01*
X178851939Y-100592872D01*
X178845487Y-100591500D01*
X178654513Y-100591500D01*
X178648061Y-100592872D01*
X178648056Y-100592872D01*
X178561113Y-100611353D01*
X178467712Y-100631206D01*
X178461682Y-100633891D01*
X178461681Y-100633891D01*
X178299278Y-100706197D01*
X178299276Y-100706198D01*
X178293248Y-100708882D01*
X178138747Y-100821134D01*
X178134326Y-100826044D01*
X178134325Y-100826045D01*
X178031785Y-100939928D01*
X178010960Y-100963056D01*
X177915473Y-101128444D01*
X177856458Y-101310072D01*
X177855768Y-101316633D01*
X177855768Y-101316635D01*
X177843972Y-101428866D01*
X177836496Y-101500000D01*
X165763346Y-101500000D01*
X165861253Y-101428866D01*
X165962306Y-101316635D01*
X165984621Y-101291852D01*
X165984622Y-101291851D01*
X165989040Y-101286944D01*
X166084527Y-101121556D01*
X166143542Y-100939928D01*
X166155512Y-100826045D01*
X166162814Y-100756565D01*
X166163504Y-100750000D01*
X166151301Y-100633891D01*
X166144232Y-100566635D01*
X166144232Y-100566633D01*
X166143542Y-100560072D01*
X166084527Y-100378444D01*
X165989040Y-100213056D01*
X165861253Y-100071134D01*
X165706752Y-99958882D01*
X165700724Y-99956198D01*
X165700722Y-99956197D01*
X165538319Y-99883891D01*
X165538318Y-99883891D01*
X165532288Y-99881206D01*
X165438887Y-99861353D01*
X165351944Y-99842872D01*
X165351939Y-99842872D01*
X165345487Y-99841500D01*
X165154513Y-99841500D01*
X165148061Y-99842872D01*
X165148056Y-99842872D01*
X165061112Y-99861353D01*
X164967712Y-99881206D01*
X164961682Y-99883891D01*
X164961681Y-99883891D01*
X164799278Y-99956197D01*
X164799276Y-99956198D01*
X164793248Y-99958882D01*
X164638747Y-100071134D01*
X164510960Y-100213056D01*
X164415473Y-100378444D01*
X164356458Y-100560072D01*
X164355768Y-100566633D01*
X164355768Y-100566635D01*
X164348699Y-100633891D01*
X164336496Y-100750000D01*
X158295872Y-100750000D01*
X158316055Y-98550000D01*
X164036496Y-98550000D01*
X164056458Y-98739928D01*
X164115473Y-98921556D01*
X164210960Y-99086944D01*
X164338747Y-99228866D01*
X164493248Y-99341118D01*
X164499276Y-99343802D01*
X164499278Y-99343803D01*
X164661681Y-99416109D01*
X164667712Y-99418794D01*
X164761113Y-99438647D01*
X164848056Y-99457128D01*
X164848061Y-99457128D01*
X164854513Y-99458500D01*
X165045487Y-99458500D01*
X165051939Y-99457128D01*
X165051944Y-99457128D01*
X165138888Y-99438647D01*
X165232288Y-99418794D01*
X165238319Y-99416109D01*
X165400722Y-99343803D01*
X165400724Y-99343802D01*
X165406752Y-99341118D01*
X165561253Y-99228866D01*
X165689040Y-99086944D01*
X165784527Y-98921556D01*
X165843542Y-98739928D01*
X165863504Y-98550000D01*
X165843542Y-98360072D01*
X165784527Y-98178444D01*
X165689040Y-98013056D01*
X165561253Y-97871134D01*
X165406752Y-97758882D01*
X165400724Y-97756198D01*
X165400722Y-97756197D01*
X165238319Y-97683891D01*
X165238318Y-97683891D01*
X165232288Y-97681206D01*
X165138888Y-97661353D01*
X165051944Y-97642872D01*
X165051939Y-97642872D01*
X165045487Y-97641500D01*
X164854513Y-97641500D01*
X164848061Y-97642872D01*
X164848056Y-97642872D01*
X164761113Y-97661353D01*
X164667712Y-97681206D01*
X164661682Y-97683891D01*
X164661681Y-97683891D01*
X164499278Y-97756197D01*
X164499276Y-97756198D01*
X164493248Y-97758882D01*
X164338747Y-97871134D01*
X164210960Y-98013056D01*
X164115473Y-98178444D01*
X164056458Y-98360072D01*
X164036496Y-98550000D01*
X158316055Y-98550000D01*
X158334862Y-96500000D01*
X167436502Y-96500000D01*
X167456457Y-96728087D01*
X167515716Y-96949243D01*
X167518039Y-96954224D01*
X167518039Y-96954225D01*
X167610151Y-97151762D01*
X167610154Y-97151767D01*
X167612477Y-97156749D01*
X167743802Y-97344300D01*
X167905700Y-97506198D01*
X167910208Y-97509355D01*
X167910211Y-97509357D01*
X167988389Y-97564098D01*
X168093251Y-97637523D01*
X168098233Y-97639846D01*
X168098238Y-97639849D01*
X168295775Y-97731961D01*
X168300757Y-97734284D01*
X168306065Y-97735706D01*
X168306067Y-97735707D01*
X168516598Y-97792119D01*
X168516600Y-97792119D01*
X168521913Y-97793543D01*
X168750000Y-97813498D01*
X168978087Y-97793543D01*
X168983400Y-97792119D01*
X168983402Y-97792119D01*
X169193933Y-97735707D01*
X169193935Y-97735706D01*
X169199243Y-97734284D01*
X169204225Y-97731961D01*
X169401762Y-97639849D01*
X169401767Y-97639846D01*
X169406749Y-97637523D01*
X169511611Y-97564098D01*
X169589789Y-97509357D01*
X169589792Y-97509355D01*
X169594300Y-97506198D01*
X169660905Y-97439593D01*
X169723217Y-97405567D01*
X169794032Y-97410632D01*
X169839095Y-97439593D01*
X169905700Y-97506198D01*
X169910208Y-97509355D01*
X169910211Y-97509357D01*
X169988389Y-97564098D01*
X170093251Y-97637523D01*
X170098233Y-97639846D01*
X170098238Y-97639849D01*
X170295775Y-97731961D01*
X170300757Y-97734284D01*
X170306065Y-97735706D01*
X170306067Y-97735707D01*
X170516598Y-97792119D01*
X170516600Y-97792119D01*
X170521913Y-97793543D01*
X170750000Y-97813498D01*
X170978087Y-97793543D01*
X170983400Y-97792119D01*
X170983402Y-97792119D01*
X171193933Y-97735707D01*
X171193935Y-97735706D01*
X171199243Y-97734284D01*
X171204225Y-97731961D01*
X171401762Y-97639849D01*
X171401767Y-97639846D01*
X171406749Y-97637523D01*
X171511611Y-97564098D01*
X171589789Y-97509357D01*
X171589792Y-97509355D01*
X171594300Y-97506198D01*
X171756198Y-97344300D01*
X171822228Y-97250000D01*
X182086496Y-97250000D01*
X182087186Y-97256565D01*
X182102847Y-97405567D01*
X182106458Y-97439928D01*
X182165473Y-97621556D01*
X182168776Y-97627278D01*
X182168777Y-97627279D01*
X182176034Y-97639849D01*
X182260960Y-97786944D01*
X182265378Y-97791851D01*
X182265379Y-97791852D01*
X182266902Y-97793543D01*
X182388747Y-97928866D01*
X182543248Y-98041118D01*
X182549276Y-98043802D01*
X182549278Y-98043803D01*
X182711681Y-98116109D01*
X182717712Y-98118794D01*
X182811112Y-98138647D01*
X182898056Y-98157128D01*
X182898061Y-98157128D01*
X182904513Y-98158500D01*
X183095487Y-98158500D01*
X183101939Y-98157128D01*
X183101944Y-98157128D01*
X183188888Y-98138647D01*
X183282288Y-98118794D01*
X183288319Y-98116109D01*
X183450722Y-98043803D01*
X183450724Y-98043802D01*
X183456752Y-98041118D01*
X183611253Y-97928866D01*
X183733098Y-97793543D01*
X183734621Y-97791852D01*
X183734622Y-97791851D01*
X183739040Y-97786944D01*
X183823966Y-97639849D01*
X183831223Y-97627279D01*
X183831224Y-97627278D01*
X183834527Y-97621556D01*
X183893542Y-97439928D01*
X183897154Y-97405567D01*
X183912814Y-97256565D01*
X183913504Y-97250000D01*
X183893542Y-97060072D01*
X183834527Y-96878444D01*
X183739040Y-96713056D01*
X183611253Y-96571134D01*
X183456752Y-96458882D01*
X183450724Y-96456198D01*
X183450722Y-96456197D01*
X183288319Y-96383891D01*
X183288318Y-96383891D01*
X183282288Y-96381206D01*
X183188888Y-96361353D01*
X183101944Y-96342872D01*
X183101939Y-96342872D01*
X183095487Y-96341500D01*
X182904513Y-96341500D01*
X182898061Y-96342872D01*
X182898056Y-96342872D01*
X182811113Y-96361353D01*
X182717712Y-96381206D01*
X182711682Y-96383891D01*
X182711681Y-96383891D01*
X182549278Y-96456197D01*
X182549276Y-96456198D01*
X182543248Y-96458882D01*
X182388747Y-96571134D01*
X182260960Y-96713056D01*
X182165473Y-96878444D01*
X182106458Y-97060072D01*
X182086496Y-97250000D01*
X171822228Y-97250000D01*
X171887523Y-97156749D01*
X171889846Y-97151767D01*
X171889849Y-97151762D01*
X171981961Y-96954225D01*
X171981961Y-96954224D01*
X171984284Y-96949243D01*
X172043543Y-96728087D01*
X172063498Y-96500000D01*
X172043543Y-96271913D01*
X171984284Y-96050757D01*
X171981961Y-96045775D01*
X171889849Y-95848238D01*
X171889846Y-95848233D01*
X171887523Y-95843251D01*
X171756198Y-95655700D01*
X171594300Y-95493802D01*
X171589792Y-95490645D01*
X171589789Y-95490643D01*
X171470517Y-95407128D01*
X171406749Y-95362477D01*
X171401767Y-95360154D01*
X171401762Y-95360151D01*
X171204225Y-95268039D01*
X171204224Y-95268039D01*
X171199243Y-95265716D01*
X171193935Y-95264294D01*
X171193933Y-95264293D01*
X170983402Y-95207881D01*
X170983400Y-95207881D01*
X170978087Y-95206457D01*
X170750000Y-95186502D01*
X170521913Y-95206457D01*
X170516600Y-95207881D01*
X170516598Y-95207881D01*
X170306067Y-95264293D01*
X170306065Y-95264294D01*
X170300757Y-95265716D01*
X170295776Y-95268039D01*
X170295775Y-95268039D01*
X170098238Y-95360151D01*
X170098233Y-95360154D01*
X170093251Y-95362477D01*
X170029483Y-95407128D01*
X169910211Y-95490643D01*
X169910208Y-95490645D01*
X169905700Y-95493802D01*
X169839095Y-95560407D01*
X169776783Y-95594433D01*
X169705968Y-95589368D01*
X169660905Y-95560407D01*
X169594300Y-95493802D01*
X169589792Y-95490645D01*
X169589789Y-95490643D01*
X169470517Y-95407128D01*
X169406749Y-95362477D01*
X169401767Y-95360154D01*
X169401762Y-95360151D01*
X169204225Y-95268039D01*
X169204224Y-95268039D01*
X169199243Y-95265716D01*
X169193935Y-95264294D01*
X169193933Y-95264293D01*
X168983402Y-95207881D01*
X168983400Y-95207881D01*
X168978087Y-95206457D01*
X168750000Y-95186502D01*
X168521913Y-95206457D01*
X168516600Y-95207881D01*
X168516598Y-95207881D01*
X168306067Y-95264293D01*
X168306065Y-95264294D01*
X168300757Y-95265716D01*
X168295776Y-95268039D01*
X168295775Y-95268039D01*
X168098238Y-95360151D01*
X168098233Y-95360154D01*
X168093251Y-95362477D01*
X168029483Y-95407128D01*
X167910211Y-95490643D01*
X167910208Y-95490645D01*
X167905700Y-95493802D01*
X167743802Y-95655700D01*
X167612477Y-95843251D01*
X167610154Y-95848233D01*
X167610151Y-95848238D01*
X167518039Y-96045775D01*
X167515716Y-96050757D01*
X167456457Y-96271913D01*
X167436502Y-96500000D01*
X158334862Y-96500000D01*
X158353211Y-94500000D01*
X177586496Y-94500000D01*
X177606458Y-94689928D01*
X177665473Y-94871556D01*
X177760960Y-95036944D01*
X177888747Y-95178866D01*
X177926723Y-95206457D01*
X178011483Y-95268039D01*
X178043248Y-95291118D01*
X178049276Y-95293802D01*
X178049278Y-95293803D01*
X178210614Y-95365634D01*
X178217712Y-95368794D01*
X178311113Y-95388647D01*
X178398056Y-95407128D01*
X178398061Y-95407128D01*
X178404513Y-95408500D01*
X178595487Y-95408500D01*
X178601939Y-95407128D01*
X178601944Y-95407128D01*
X178688888Y-95388647D01*
X178782288Y-95368794D01*
X178789386Y-95365634D01*
X178950722Y-95293803D01*
X178950724Y-95293802D01*
X178956752Y-95291118D01*
X178988518Y-95268039D01*
X179073277Y-95206457D01*
X179111253Y-95178866D01*
X179239040Y-95036944D01*
X179334527Y-94871556D01*
X179393542Y-94689928D01*
X179413504Y-94500000D01*
X179407190Y-94439928D01*
X179394232Y-94316635D01*
X179394232Y-94316633D01*
X179393542Y-94310072D01*
X179334527Y-94128444D01*
X179327406Y-94116109D01*
X179284109Y-94041118D01*
X179239040Y-93963056D01*
X179211752Y-93932749D01*
X179115675Y-93826045D01*
X179115674Y-93826044D01*
X179111253Y-93821134D01*
X178956752Y-93708882D01*
X178950724Y-93706198D01*
X178950722Y-93706197D01*
X178788319Y-93633891D01*
X178788318Y-93633891D01*
X178782288Y-93631206D01*
X178688887Y-93611353D01*
X178601944Y-93592872D01*
X178601939Y-93592872D01*
X178595487Y-93591500D01*
X178404513Y-93591500D01*
X178398061Y-93592872D01*
X178398056Y-93592872D01*
X178311113Y-93611353D01*
X178217712Y-93631206D01*
X178211682Y-93633891D01*
X178211681Y-93633891D01*
X178049278Y-93706197D01*
X178049276Y-93706198D01*
X178043248Y-93708882D01*
X177888747Y-93821134D01*
X177884326Y-93826044D01*
X177884325Y-93826045D01*
X177788249Y-93932749D01*
X177760960Y-93963056D01*
X177715891Y-94041118D01*
X177672595Y-94116109D01*
X177665473Y-94128444D01*
X177606458Y-94310072D01*
X177605768Y-94316633D01*
X177605768Y-94316635D01*
X177592810Y-94439928D01*
X177586496Y-94500000D01*
X158353211Y-94500000D01*
X158364679Y-93250000D01*
X160086496Y-93250000D01*
X160106458Y-93439928D01*
X160165473Y-93621556D01*
X160168776Y-93627278D01*
X160168777Y-93627279D01*
X160202686Y-93686010D01*
X160260960Y-93786944D01*
X160265378Y-93791851D01*
X160265379Y-93791852D01*
X160338194Y-93872721D01*
X160388747Y-93928866D01*
X160543248Y-94041118D01*
X160549276Y-94043802D01*
X160549278Y-94043803D01*
X160600560Y-94066635D01*
X160717712Y-94118794D01*
X160792680Y-94134729D01*
X160898056Y-94157128D01*
X160898061Y-94157128D01*
X160904513Y-94158500D01*
X161095487Y-94158500D01*
X161101939Y-94157128D01*
X161101944Y-94157128D01*
X161207320Y-94134729D01*
X161282288Y-94118794D01*
X161399440Y-94066635D01*
X161450722Y-94043803D01*
X161450724Y-94043802D01*
X161456752Y-94041118D01*
X161611253Y-93928866D01*
X161661806Y-93872721D01*
X161734621Y-93791852D01*
X161734622Y-93791851D01*
X161739040Y-93786944D01*
X161797314Y-93686010D01*
X161831223Y-93627279D01*
X161831224Y-93627278D01*
X161834527Y-93621556D01*
X161893542Y-93439928D01*
X161913504Y-93250000D01*
X161893542Y-93060072D01*
X161834527Y-92878444D01*
X161739040Y-92713056D01*
X161611253Y-92571134D01*
X161456752Y-92458882D01*
X161450724Y-92456198D01*
X161450722Y-92456197D01*
X161288319Y-92383891D01*
X161288318Y-92383891D01*
X161282288Y-92381206D01*
X161188888Y-92361353D01*
X161101944Y-92342872D01*
X161101939Y-92342872D01*
X161095487Y-92341500D01*
X160904513Y-92341500D01*
X160898061Y-92342872D01*
X160898056Y-92342872D01*
X160811112Y-92361353D01*
X160717712Y-92381206D01*
X160711682Y-92383891D01*
X160711681Y-92383891D01*
X160549278Y-92456197D01*
X160549276Y-92456198D01*
X160543248Y-92458882D01*
X160388747Y-92571134D01*
X160260960Y-92713056D01*
X160165473Y-92878444D01*
X160106458Y-93060072D01*
X160086496Y-93250000D01*
X158364679Y-93250000D01*
X158417580Y-87483767D01*
X158430277Y-86099857D01*
X162802000Y-86099857D01*
X162802212Y-86105030D01*
X162816626Y-86280350D01*
X162818309Y-86290512D01*
X162875800Y-86519396D01*
X162879121Y-86529151D01*
X162973218Y-86745557D01*
X162978096Y-86754655D01*
X163106273Y-86952787D01*
X163112563Y-86960956D01*
X163271387Y-87135501D01*
X163278920Y-87142526D01*
X163464120Y-87288787D01*
X163472707Y-87294492D01*
X163679297Y-87408536D01*
X163688709Y-87412766D01*
X163911156Y-87491539D01*
X163921127Y-87494173D01*
X164028163Y-87513239D01*
X164041460Y-87511779D01*
X164045591Y-87498534D01*
X164554000Y-87498534D01*
X164557918Y-87511878D01*
X164572194Y-87513865D01*
X164643236Y-87502994D01*
X164653263Y-87500605D01*
X164877570Y-87427291D01*
X164887079Y-87423294D01*
X165096395Y-87314331D01*
X165105120Y-87308837D01*
X165293835Y-87167146D01*
X165301542Y-87160303D01*
X165380065Y-87078134D01*
X167801500Y-87078134D01*
X167808255Y-87140316D01*
X167859385Y-87276705D01*
X167946739Y-87393261D01*
X168063295Y-87480615D01*
X168199684Y-87531745D01*
X168261866Y-87538500D01*
X170338134Y-87538500D01*
X170400316Y-87531745D01*
X170536705Y-87480615D01*
X170653261Y-87393261D01*
X170740615Y-87276705D01*
X170791745Y-87140316D01*
X170798500Y-87078134D01*
X170798500Y-86102469D01*
X175866500Y-86102469D01*
X175866711Y-86105030D01*
X175866712Y-86105053D01*
X175881131Y-86280432D01*
X175881132Y-86280438D01*
X175881555Y-86285583D01*
X175941584Y-86524570D01*
X175943642Y-86529303D01*
X175943643Y-86529306D01*
X176037672Y-86745557D01*
X176039840Y-86750544D01*
X176042644Y-86754878D01*
X176042646Y-86754882D01*
X176170874Y-86953092D01*
X176170879Y-86953098D01*
X176173685Y-86957436D01*
X176339523Y-87139690D01*
X176343574Y-87142889D01*
X176343578Y-87142893D01*
X176374288Y-87167146D01*
X176532901Y-87292410D01*
X176615682Y-87338108D01*
X176715591Y-87393261D01*
X176748625Y-87411497D01*
X176980903Y-87493750D01*
X176985995Y-87494657D01*
X177218407Y-87536057D01*
X177218411Y-87536057D01*
X177223495Y-87536963D01*
X177302914Y-87537933D01*
X177464718Y-87539910D01*
X177464720Y-87539910D01*
X177469888Y-87539973D01*
X177713464Y-87502701D01*
X177947682Y-87426147D01*
X177952270Y-87423759D01*
X177952274Y-87423757D01*
X178161663Y-87314756D01*
X178161664Y-87314755D01*
X178166252Y-87312367D01*
X178170385Y-87309264D01*
X178170388Y-87309262D01*
X178359168Y-87167521D01*
X178359170Y-87167519D01*
X178363303Y-87164416D01*
X178445756Y-87078134D01*
X180866500Y-87078134D01*
X180873255Y-87140316D01*
X180924385Y-87276705D01*
X181011739Y-87393261D01*
X181128295Y-87480615D01*
X181264684Y-87531745D01*
X181326866Y-87538500D01*
X183403134Y-87538500D01*
X183465316Y-87531745D01*
X183601705Y-87480615D01*
X183718261Y-87393261D01*
X183805615Y-87276705D01*
X183856745Y-87140316D01*
X183863500Y-87078134D01*
X183863500Y-83021866D01*
X183856745Y-82959684D01*
X183805615Y-82823295D01*
X183718261Y-82706739D01*
X183601705Y-82619385D01*
X183465316Y-82568255D01*
X183403134Y-82561500D01*
X181326866Y-82561500D01*
X181264684Y-82568255D01*
X181128295Y-82619385D01*
X181011739Y-82706739D01*
X180924385Y-82823295D01*
X180873255Y-82959684D01*
X180866500Y-83021866D01*
X180866500Y-87078134D01*
X178445756Y-87078134D01*
X178533545Y-86986269D01*
X178550603Y-86961263D01*
X178669485Y-86786989D01*
X178669488Y-86786984D01*
X178672404Y-86782709D01*
X178674580Y-86778020D01*
X178674584Y-86778014D01*
X178773975Y-86563894D01*
X178773977Y-86563889D01*
X178776152Y-86559203D01*
X178785757Y-86524570D01*
X178840623Y-86326726D01*
X178840623Y-86326725D01*
X178842002Y-86321753D01*
X178863500Y-86120594D01*
X178863500Y-83997531D01*
X178863288Y-83994947D01*
X178848869Y-83819568D01*
X178848868Y-83819562D01*
X178848445Y-83814417D01*
X178788416Y-83575430D01*
X178775596Y-83545945D01*
X178692220Y-83354193D01*
X178692218Y-83354190D01*
X178690160Y-83349456D01*
X178672389Y-83321986D01*
X178559126Y-83146908D01*
X178559121Y-83146902D01*
X178556315Y-83142564D01*
X178390477Y-82960310D01*
X178386426Y-82957111D01*
X178386422Y-82957107D01*
X178249357Y-82848861D01*
X178197099Y-82807590D01*
X178027416Y-82713919D01*
X177985906Y-82691004D01*
X177985903Y-82691003D01*
X177981375Y-82688503D01*
X177749097Y-82606250D01*
X177698847Y-82597299D01*
X177511593Y-82563943D01*
X177511589Y-82563943D01*
X177506505Y-82563037D01*
X177427086Y-82562067D01*
X177265282Y-82560090D01*
X177265280Y-82560090D01*
X177260112Y-82560027D01*
X177016536Y-82597299D01*
X176782318Y-82673853D01*
X176777730Y-82676241D01*
X176777726Y-82676243D01*
X176688925Y-82722470D01*
X176563748Y-82787633D01*
X176559615Y-82790736D01*
X176559612Y-82790738D01*
X176370832Y-82932479D01*
X176366697Y-82935584D01*
X176196455Y-83113731D01*
X176193541Y-83118003D01*
X176193540Y-83118004D01*
X176060515Y-83313011D01*
X176060512Y-83313016D01*
X176057596Y-83317291D01*
X176055420Y-83321980D01*
X176055416Y-83321986D01*
X175956025Y-83536106D01*
X175953848Y-83540797D01*
X175952468Y-83545775D01*
X175952466Y-83545779D01*
X175889377Y-83773274D01*
X175887998Y-83778247D01*
X175866500Y-83979406D01*
X175866500Y-86102469D01*
X170798500Y-86102469D01*
X170798500Y-83021866D01*
X170791745Y-82959684D01*
X170740615Y-82823295D01*
X170653261Y-82706739D01*
X170536705Y-82619385D01*
X170400316Y-82568255D01*
X170338134Y-82561500D01*
X168261866Y-82561500D01*
X168199684Y-82568255D01*
X168063295Y-82619385D01*
X167946739Y-82706739D01*
X167859385Y-82823295D01*
X167808255Y-82959684D01*
X167801500Y-83021866D01*
X167801500Y-87078134D01*
X165380065Y-87078134D01*
X165464584Y-86989690D01*
X165471067Y-86981684D01*
X165604057Y-86786726D01*
X165609143Y-86777774D01*
X165708506Y-86563715D01*
X165712060Y-86554055D01*
X165775130Y-86326631D01*
X165777057Y-86316527D01*
X165797644Y-86123898D01*
X165798000Y-86117206D01*
X165798000Y-85322115D01*
X165793525Y-85306876D01*
X165792135Y-85305671D01*
X165784452Y-85304000D01*
X164572115Y-85304000D01*
X164556876Y-85308475D01*
X164555671Y-85309865D01*
X164554000Y-85317548D01*
X164554000Y-87498534D01*
X164045591Y-87498534D01*
X164046000Y-87497222D01*
X164046000Y-85322115D01*
X164041525Y-85306876D01*
X164040135Y-85305671D01*
X164032452Y-85304000D01*
X162820115Y-85304000D01*
X162804876Y-85308475D01*
X162803671Y-85309865D01*
X162802000Y-85317548D01*
X162802000Y-86099857D01*
X158430277Y-86099857D01*
X158442405Y-84777885D01*
X162802000Y-84777885D01*
X162806475Y-84793124D01*
X162807865Y-84794329D01*
X162815548Y-84796000D01*
X164027885Y-84796000D01*
X164043124Y-84791525D01*
X164044329Y-84790135D01*
X164046000Y-84782452D01*
X164046000Y-84777885D01*
X164554000Y-84777885D01*
X164558475Y-84793124D01*
X164559865Y-84794329D01*
X164567548Y-84796000D01*
X165779885Y-84796000D01*
X165795124Y-84791525D01*
X165796329Y-84790135D01*
X165798000Y-84782452D01*
X165798000Y-84000143D01*
X165797788Y-83994970D01*
X165783374Y-83819650D01*
X165781691Y-83809488D01*
X165724200Y-83580604D01*
X165720879Y-83570849D01*
X165626782Y-83354443D01*
X165621904Y-83345345D01*
X165493727Y-83147213D01*
X165487437Y-83139044D01*
X165328613Y-82964499D01*
X165321080Y-82957474D01*
X165135880Y-82811213D01*
X165127293Y-82805508D01*
X164920703Y-82691464D01*
X164911291Y-82687234D01*
X164688844Y-82608461D01*
X164678873Y-82605827D01*
X164571837Y-82586761D01*
X164558540Y-82588221D01*
X164554000Y-82602778D01*
X164554000Y-84777885D01*
X164046000Y-84777885D01*
X164046000Y-82601466D01*
X164042082Y-82588122D01*
X164027806Y-82586135D01*
X163956764Y-82597006D01*
X163946737Y-82599395D01*
X163722430Y-82672709D01*
X163712921Y-82676706D01*
X163503605Y-82785669D01*
X163494880Y-82791163D01*
X163306165Y-82932854D01*
X163298458Y-82939697D01*
X163135416Y-83110310D01*
X163128933Y-83118316D01*
X162995943Y-83313274D01*
X162990857Y-83322226D01*
X162891494Y-83536285D01*
X162887940Y-83545945D01*
X162824870Y-83773369D01*
X162822943Y-83783473D01*
X162802356Y-83976102D01*
X162802000Y-83982794D01*
X162802000Y-84777885D01*
X158442405Y-84777885D01*
X158498855Y-78624844D01*
X158519481Y-78556910D01*
X158573561Y-78510911D01*
X158624850Y-78500000D01*
X189624000Y-78500000D01*
X189692121Y-78520002D01*
G37*
%TD.AperFunction*%
%TD*%
%TA.AperFunction,Conductor*%
%TO.N,VDD3.3*%
G36*
X189941180Y-107520524D02*
G01*
X189988146Y-107573766D01*
X190000000Y-107627120D01*
X190000000Y-119624000D01*
X189979998Y-119692121D01*
X189926342Y-119738614D01*
X189874000Y-119750000D01*
X173750000Y-119750000D01*
X173750000Y-137124000D01*
X173729998Y-137192121D01*
X173676342Y-137238614D01*
X173624000Y-137250000D01*
X148943218Y-137250000D01*
X148875097Y-137229998D01*
X148828604Y-137176342D01*
X148818500Y-137106068D01*
X148827917Y-137073189D01*
X149598002Y-135325689D01*
X149643776Y-135271419D01*
X149713303Y-135250500D01*
X151364820Y-135250500D01*
X151408722Y-135241767D01*
X151419040Y-135234873D01*
X151419042Y-135234872D01*
X151448185Y-135215399D01*
X151458504Y-135208504D01*
X151472670Y-135187303D01*
X151484872Y-135169042D01*
X151484873Y-135169040D01*
X151491767Y-135158722D01*
X151500500Y-135114820D01*
X151500500Y-134235963D01*
X152034757Y-134235963D01*
X152051175Y-134431483D01*
X152105258Y-134620091D01*
X152108076Y-134625574D01*
X152192123Y-134789113D01*
X152192126Y-134789117D01*
X152194944Y-134794601D01*
X152316818Y-134948369D01*
X152321511Y-134952363D01*
X152321512Y-134952364D01*
X152446456Y-135058699D01*
X152466238Y-135075535D01*
X152471616Y-135078541D01*
X152471618Y-135078542D01*
X152507932Y-135098837D01*
X152637513Y-135171257D01*
X152824118Y-135231889D01*
X153018946Y-135255121D01*
X153025081Y-135254649D01*
X153025083Y-135254649D01*
X153208434Y-135240541D01*
X153208438Y-135240540D01*
X153214576Y-135240068D01*
X153403556Y-135187303D01*
X153578689Y-135098837D01*
X153608515Y-135075535D01*
X153728453Y-134981829D01*
X153733303Y-134978040D01*
X153763084Y-134943539D01*
X153857485Y-134834173D01*
X153857485Y-134834172D01*
X153861509Y-134829511D01*
X153958425Y-134658909D01*
X154020358Y-134472732D01*
X154044949Y-134278071D01*
X154045341Y-134250000D01*
X154043965Y-134235963D01*
X154574757Y-134235963D01*
X154591175Y-134431483D01*
X154645258Y-134620091D01*
X154648076Y-134625574D01*
X154732123Y-134789113D01*
X154732126Y-134789117D01*
X154734944Y-134794601D01*
X154856818Y-134948369D01*
X154861511Y-134952363D01*
X154861512Y-134952364D01*
X154986456Y-135058699D01*
X155006238Y-135075535D01*
X155011616Y-135078541D01*
X155011618Y-135078542D01*
X155047932Y-135098837D01*
X155177513Y-135171257D01*
X155364118Y-135231889D01*
X155558946Y-135255121D01*
X155565081Y-135254649D01*
X155565083Y-135254649D01*
X155748434Y-135240541D01*
X155748438Y-135240540D01*
X155754576Y-135240068D01*
X155943556Y-135187303D01*
X156118689Y-135098837D01*
X156148515Y-135075535D01*
X156268453Y-134981829D01*
X156273303Y-134978040D01*
X156303084Y-134943539D01*
X156397485Y-134834173D01*
X156397485Y-134834172D01*
X156401509Y-134829511D01*
X156498425Y-134658909D01*
X156543198Y-134524316D01*
X156547214Y-134512245D01*
X156587696Y-134453921D01*
X156653284Y-134426741D01*
X156723154Y-134439336D01*
X156775124Y-134487706D01*
X156789689Y-134524316D01*
X156818565Y-134652447D01*
X156821645Y-134662275D01*
X156901770Y-134859603D01*
X156906413Y-134868794D01*
X157017694Y-135050388D01*
X157023777Y-135058699D01*
X157163213Y-135219667D01*
X157170580Y-135226883D01*
X157334434Y-135362916D01*
X157342881Y-135368831D01*
X157526756Y-135476279D01*
X157536042Y-135480729D01*
X157735001Y-135556703D01*
X157744899Y-135559579D01*
X157848250Y-135580606D01*
X157862299Y-135579410D01*
X157866000Y-135569065D01*
X157866000Y-135568517D01*
X158374000Y-135568517D01*
X158378064Y-135582359D01*
X158391478Y-135584393D01*
X158398184Y-135583534D01*
X158408262Y-135581392D01*
X158612255Y-135520191D01*
X158621842Y-135516433D01*
X158813095Y-135422739D01*
X158821945Y-135417464D01*
X158995328Y-135293792D01*
X159003200Y-135287139D01*
X159154052Y-135136812D01*
X159160730Y-135128965D01*
X159170894Y-135114820D01*
X162949500Y-135114820D01*
X162958233Y-135158722D01*
X162965127Y-135169040D01*
X162965128Y-135169042D01*
X162977330Y-135187303D01*
X162991496Y-135208504D01*
X163001815Y-135215399D01*
X163030958Y-135234872D01*
X163030960Y-135234873D01*
X163041278Y-135241767D01*
X163085180Y-135250500D01*
X164814820Y-135250500D01*
X164858722Y-135241767D01*
X164869040Y-135234873D01*
X164869042Y-135234872D01*
X164898185Y-135215399D01*
X164908504Y-135208504D01*
X164922670Y-135187303D01*
X164934872Y-135169042D01*
X164934873Y-135169040D01*
X164941767Y-135158722D01*
X164950500Y-135114820D01*
X164950500Y-134235963D01*
X165484757Y-134235963D01*
X165501175Y-134431483D01*
X165555258Y-134620091D01*
X165558076Y-134625574D01*
X165642123Y-134789113D01*
X165642126Y-134789117D01*
X165644944Y-134794601D01*
X165766818Y-134948369D01*
X165771511Y-134952363D01*
X165771512Y-134952364D01*
X165896456Y-135058699D01*
X165916238Y-135075535D01*
X165921616Y-135078541D01*
X165921618Y-135078542D01*
X165957932Y-135098837D01*
X166087513Y-135171257D01*
X166274118Y-135231889D01*
X166468946Y-135255121D01*
X166475081Y-135254649D01*
X166475083Y-135254649D01*
X166658434Y-135240541D01*
X166658438Y-135240540D01*
X166664576Y-135240068D01*
X166853556Y-135187303D01*
X167028689Y-135098837D01*
X167058515Y-135075535D01*
X167178453Y-134981829D01*
X167183303Y-134978040D01*
X167213084Y-134943539D01*
X167307485Y-134834173D01*
X167307485Y-134834172D01*
X167311509Y-134829511D01*
X167408425Y-134658909D01*
X167470358Y-134472732D01*
X167494949Y-134278071D01*
X167495341Y-134250000D01*
X167493965Y-134235963D01*
X168024757Y-134235963D01*
X168041175Y-134431483D01*
X168095258Y-134620091D01*
X168098076Y-134625574D01*
X168182123Y-134789113D01*
X168182126Y-134789117D01*
X168184944Y-134794601D01*
X168306818Y-134948369D01*
X168311511Y-134952363D01*
X168311512Y-134952364D01*
X168436456Y-135058699D01*
X168456238Y-135075535D01*
X168461616Y-135078541D01*
X168461618Y-135078542D01*
X168497932Y-135098837D01*
X168627513Y-135171257D01*
X168814118Y-135231889D01*
X169008946Y-135255121D01*
X169015081Y-135254649D01*
X169015083Y-135254649D01*
X169198434Y-135240541D01*
X169198438Y-135240540D01*
X169204576Y-135240068D01*
X169393556Y-135187303D01*
X169568689Y-135098837D01*
X169598515Y-135075535D01*
X169718453Y-134981829D01*
X169723303Y-134978040D01*
X169753084Y-134943539D01*
X169847485Y-134834173D01*
X169847485Y-134834172D01*
X169851509Y-134829511D01*
X169948425Y-134658909D01*
X170010358Y-134472732D01*
X170034949Y-134278071D01*
X170035341Y-134250000D01*
X170033965Y-134235963D01*
X170564757Y-134235963D01*
X170581175Y-134431483D01*
X170635258Y-134620091D01*
X170638076Y-134625574D01*
X170722123Y-134789113D01*
X170722126Y-134789117D01*
X170724944Y-134794601D01*
X170846818Y-134948369D01*
X170851511Y-134952363D01*
X170851512Y-134952364D01*
X170976456Y-135058699D01*
X170996238Y-135075535D01*
X171001616Y-135078541D01*
X171001618Y-135078542D01*
X171037932Y-135098837D01*
X171167513Y-135171257D01*
X171354118Y-135231889D01*
X171548946Y-135255121D01*
X171555081Y-135254649D01*
X171555083Y-135254649D01*
X171738434Y-135240541D01*
X171738438Y-135240540D01*
X171744576Y-135240068D01*
X171933556Y-135187303D01*
X172108689Y-135098837D01*
X172138515Y-135075535D01*
X172258453Y-134981829D01*
X172263303Y-134978040D01*
X172293084Y-134943539D01*
X172387485Y-134834173D01*
X172387485Y-134834172D01*
X172391509Y-134829511D01*
X172488425Y-134658909D01*
X172550358Y-134472732D01*
X172574949Y-134278071D01*
X172575341Y-134250000D01*
X172556194Y-134054728D01*
X172554413Y-134048829D01*
X172554412Y-134048824D01*
X172501265Y-133872793D01*
X172499484Y-133866894D01*
X172407370Y-133693653D01*
X172283361Y-133541602D01*
X172132180Y-133416535D01*
X171959585Y-133323213D01*
X171857124Y-133291496D01*
X171778039Y-133267015D01*
X171778036Y-133267014D01*
X171772152Y-133265193D01*
X171766027Y-133264549D01*
X171766026Y-133264549D01*
X171583147Y-133245327D01*
X171583146Y-133245327D01*
X171577019Y-133244683D01*
X171454733Y-133255812D01*
X171387759Y-133261907D01*
X171387758Y-133261907D01*
X171381618Y-133262466D01*
X171375704Y-133264207D01*
X171375702Y-133264207D01*
X171358945Y-133269139D01*
X171193393Y-133317864D01*
X171187928Y-133320721D01*
X171024972Y-133405912D01*
X171024968Y-133405915D01*
X171019512Y-133408767D01*
X171014712Y-133412627D01*
X171014711Y-133412627D01*
X171001902Y-133422926D01*
X170866600Y-133531711D01*
X170740480Y-133682016D01*
X170737516Y-133687408D01*
X170737513Y-133687412D01*
X170718292Y-133722375D01*
X170645956Y-133853954D01*
X170586628Y-134040978D01*
X170564757Y-134235963D01*
X170033965Y-134235963D01*
X170016194Y-134054728D01*
X170014413Y-134048829D01*
X170014412Y-134048824D01*
X169961265Y-133872793D01*
X169959484Y-133866894D01*
X169867370Y-133693653D01*
X169743361Y-133541602D01*
X169592180Y-133416535D01*
X169419585Y-133323213D01*
X169317124Y-133291496D01*
X169238039Y-133267015D01*
X169238036Y-133267014D01*
X169232152Y-133265193D01*
X169226027Y-133264549D01*
X169226026Y-133264549D01*
X169043147Y-133245327D01*
X169043146Y-133245327D01*
X169037019Y-133244683D01*
X168914733Y-133255812D01*
X168847759Y-133261907D01*
X168847758Y-133261907D01*
X168841618Y-133262466D01*
X168835704Y-133264207D01*
X168835702Y-133264207D01*
X168818945Y-133269139D01*
X168653393Y-133317864D01*
X168647928Y-133320721D01*
X168484972Y-133405912D01*
X168484968Y-133405915D01*
X168479512Y-133408767D01*
X168474712Y-133412627D01*
X168474711Y-133412627D01*
X168461902Y-133422926D01*
X168326600Y-133531711D01*
X168200480Y-133682016D01*
X168197516Y-133687408D01*
X168197513Y-133687412D01*
X168178292Y-133722375D01*
X168105956Y-133853954D01*
X168046628Y-134040978D01*
X168024757Y-134235963D01*
X167493965Y-134235963D01*
X167476194Y-134054728D01*
X167474413Y-134048829D01*
X167474412Y-134048824D01*
X167421265Y-133872793D01*
X167419484Y-133866894D01*
X167327370Y-133693653D01*
X167203361Y-133541602D01*
X167052180Y-133416535D01*
X166879585Y-133323213D01*
X166777124Y-133291496D01*
X166698039Y-133267015D01*
X166698036Y-133267014D01*
X166692152Y-133265193D01*
X166686027Y-133264549D01*
X166686026Y-133264549D01*
X166503147Y-133245327D01*
X166503146Y-133245327D01*
X166497019Y-133244683D01*
X166374733Y-133255812D01*
X166307759Y-133261907D01*
X166307758Y-133261907D01*
X166301618Y-133262466D01*
X166295704Y-133264207D01*
X166295702Y-133264207D01*
X166278945Y-133269139D01*
X166113393Y-133317864D01*
X166107928Y-133320721D01*
X165944972Y-133405912D01*
X165944968Y-133405915D01*
X165939512Y-133408767D01*
X165934712Y-133412627D01*
X165934711Y-133412627D01*
X165921902Y-133422926D01*
X165786600Y-133531711D01*
X165660480Y-133682016D01*
X165657516Y-133687408D01*
X165657513Y-133687412D01*
X165638292Y-133722375D01*
X165565956Y-133853954D01*
X165506628Y-134040978D01*
X165484757Y-134235963D01*
X164950500Y-134235963D01*
X164950500Y-133385180D01*
X164941767Y-133341278D01*
X164934873Y-133330960D01*
X164934872Y-133330958D01*
X164915399Y-133301815D01*
X164908504Y-133291496D01*
X164898185Y-133284601D01*
X164869042Y-133265128D01*
X164869040Y-133265127D01*
X164858722Y-133258233D01*
X164814820Y-133249500D01*
X163085180Y-133249500D01*
X163041278Y-133258233D01*
X163030960Y-133265127D01*
X163030958Y-133265128D01*
X163001815Y-133284601D01*
X162991496Y-133291496D01*
X162984601Y-133301815D01*
X162965128Y-133330958D01*
X162965127Y-133330960D01*
X162958233Y-133341278D01*
X162949500Y-133385180D01*
X162949500Y-135114820D01*
X159170894Y-135114820D01*
X159285003Y-134956020D01*
X159290313Y-134947183D01*
X159384670Y-134756267D01*
X159388469Y-134746672D01*
X159450377Y-134542910D01*
X159452555Y-134532837D01*
X159453986Y-134521962D01*
X159451775Y-134507778D01*
X159438617Y-134504000D01*
X158392115Y-134504000D01*
X158376876Y-134508475D01*
X158375671Y-134509865D01*
X158374000Y-134517548D01*
X158374000Y-135568517D01*
X157866000Y-135568517D01*
X157866000Y-133977885D01*
X158374000Y-133977885D01*
X158378475Y-133993124D01*
X158379865Y-133994329D01*
X158387548Y-133996000D01*
X159438344Y-133996000D01*
X159451875Y-133992027D01*
X159453180Y-133982947D01*
X159411214Y-133815875D01*
X159407894Y-133806124D01*
X159322972Y-133610814D01*
X159318105Y-133601739D01*
X159202426Y-133422926D01*
X159196136Y-133414757D01*
X159052806Y-133257240D01*
X159045273Y-133250215D01*
X158878139Y-133118222D01*
X158869552Y-133112517D01*
X158683117Y-133009599D01*
X158673705Y-133005369D01*
X158472959Y-132934280D01*
X158462988Y-132931646D01*
X158391837Y-132918972D01*
X158378540Y-132920432D01*
X158374000Y-132934989D01*
X158374000Y-133977885D01*
X157866000Y-133977885D01*
X157866000Y-132933102D01*
X157862082Y-132919758D01*
X157847806Y-132917771D01*
X157809324Y-132923660D01*
X157799288Y-132926051D01*
X157596868Y-132992212D01*
X157587359Y-132996209D01*
X157398463Y-133094542D01*
X157389738Y-133100036D01*
X157219433Y-133227905D01*
X157211726Y-133234748D01*
X157064590Y-133388717D01*
X157058104Y-133396727D01*
X156938098Y-133572649D01*
X156933000Y-133581623D01*
X156843338Y-133774783D01*
X156839776Y-133784467D01*
X156786004Y-133978358D01*
X156748525Y-134038655D01*
X156684396Y-134069118D01*
X156613978Y-134060074D01*
X156559628Y-134014395D01*
X156543965Y-133981102D01*
X156511266Y-133872796D01*
X156511265Y-133872793D01*
X156509484Y-133866894D01*
X156417370Y-133693653D01*
X156293361Y-133541602D01*
X156142180Y-133416535D01*
X155969585Y-133323213D01*
X155867124Y-133291496D01*
X155788039Y-133267015D01*
X155788036Y-133267014D01*
X155782152Y-133265193D01*
X155776027Y-133264549D01*
X155776026Y-133264549D01*
X155593147Y-133245327D01*
X155593146Y-133245327D01*
X155587019Y-133244683D01*
X155464733Y-133255812D01*
X155397759Y-133261907D01*
X155397758Y-133261907D01*
X155391618Y-133262466D01*
X155385704Y-133264207D01*
X155385702Y-133264207D01*
X155368945Y-133269139D01*
X155203393Y-133317864D01*
X155197928Y-133320721D01*
X155034972Y-133405912D01*
X155034968Y-133405915D01*
X155029512Y-133408767D01*
X155024712Y-133412627D01*
X155024711Y-133412627D01*
X155011902Y-133422926D01*
X154876600Y-133531711D01*
X154750480Y-133682016D01*
X154747516Y-133687408D01*
X154747513Y-133687412D01*
X154728292Y-133722375D01*
X154655956Y-133853954D01*
X154596628Y-134040978D01*
X154574757Y-134235963D01*
X154043965Y-134235963D01*
X154026194Y-134054728D01*
X154024413Y-134048829D01*
X154024412Y-134048824D01*
X153971265Y-133872793D01*
X153969484Y-133866894D01*
X153877370Y-133693653D01*
X153753361Y-133541602D01*
X153602180Y-133416535D01*
X153429585Y-133323213D01*
X153327124Y-133291496D01*
X153248039Y-133267015D01*
X153248036Y-133267014D01*
X153242152Y-133265193D01*
X153236027Y-133264549D01*
X153236026Y-133264549D01*
X153053147Y-133245327D01*
X153053146Y-133245327D01*
X153047019Y-133244683D01*
X152924733Y-133255812D01*
X152857759Y-133261907D01*
X152857758Y-133261907D01*
X152851618Y-133262466D01*
X152845704Y-133264207D01*
X152845702Y-133264207D01*
X152828945Y-133269139D01*
X152663393Y-133317864D01*
X152657928Y-133320721D01*
X152494972Y-133405912D01*
X152494968Y-133405915D01*
X152489512Y-133408767D01*
X152484712Y-133412627D01*
X152484711Y-133412627D01*
X152471902Y-133422926D01*
X152336600Y-133531711D01*
X152210480Y-133682016D01*
X152207516Y-133687408D01*
X152207513Y-133687412D01*
X152188292Y-133722375D01*
X152115956Y-133853954D01*
X152056628Y-134040978D01*
X152034757Y-134235963D01*
X151500500Y-134235963D01*
X151500500Y-133385180D01*
X151491767Y-133341278D01*
X151484873Y-133330960D01*
X151484872Y-133330958D01*
X151465399Y-133301815D01*
X151458504Y-133291496D01*
X151448185Y-133284601D01*
X151419042Y-133265128D01*
X151419040Y-133265127D01*
X151408722Y-133258233D01*
X151364820Y-133249500D01*
X150706150Y-133249500D01*
X150638029Y-133229498D01*
X150591536Y-133175842D01*
X150581432Y-133105568D01*
X150590849Y-133072689D01*
X152061271Y-129735963D01*
X165414757Y-129735963D01*
X165431175Y-129931483D01*
X165485258Y-130120091D01*
X165488076Y-130125574D01*
X165572123Y-130289113D01*
X165572126Y-130289117D01*
X165574944Y-130294601D01*
X165696818Y-130448369D01*
X165846238Y-130575535D01*
X165851616Y-130578541D01*
X165851618Y-130578542D01*
X165887932Y-130598837D01*
X166017513Y-130671257D01*
X166204118Y-130731889D01*
X166398946Y-130755121D01*
X166405081Y-130754649D01*
X166405083Y-130754649D01*
X166588434Y-130740541D01*
X166588438Y-130740540D01*
X166594576Y-130740068D01*
X166783556Y-130687303D01*
X166958689Y-130598837D01*
X166988515Y-130575535D01*
X167108453Y-130481829D01*
X167113303Y-130478040D01*
X167143084Y-130443539D01*
X167237485Y-130334173D01*
X167237485Y-130334172D01*
X167241509Y-130329511D01*
X167338425Y-130158909D01*
X167400358Y-129972732D01*
X167424949Y-129778071D01*
X167425341Y-129750000D01*
X167423965Y-129735963D01*
X167954757Y-129735963D01*
X167971175Y-129931483D01*
X168025258Y-130120091D01*
X168028076Y-130125574D01*
X168112123Y-130289113D01*
X168112126Y-130289117D01*
X168114944Y-130294601D01*
X168236818Y-130448369D01*
X168386238Y-130575535D01*
X168391616Y-130578541D01*
X168391618Y-130578542D01*
X168427932Y-130598837D01*
X168557513Y-130671257D01*
X168744118Y-130731889D01*
X168938946Y-130755121D01*
X168945081Y-130754649D01*
X168945083Y-130754649D01*
X169128434Y-130740541D01*
X169128438Y-130740540D01*
X169134576Y-130740068D01*
X169323556Y-130687303D01*
X169467048Y-130614820D01*
X170499500Y-130614820D01*
X170508233Y-130658722D01*
X170515127Y-130669040D01*
X170515128Y-130669042D01*
X170527330Y-130687303D01*
X170541496Y-130708504D01*
X170551815Y-130715399D01*
X170580958Y-130734872D01*
X170580960Y-130734873D01*
X170591278Y-130741767D01*
X170635180Y-130750500D01*
X172364820Y-130750500D01*
X172408722Y-130741767D01*
X172419040Y-130734873D01*
X172419042Y-130734872D01*
X172448185Y-130715399D01*
X172458504Y-130708504D01*
X172472670Y-130687303D01*
X172484872Y-130669042D01*
X172484873Y-130669040D01*
X172491767Y-130658722D01*
X172500500Y-130614820D01*
X172500500Y-128885180D01*
X172491767Y-128841278D01*
X172484873Y-128830960D01*
X172484872Y-128830958D01*
X172465399Y-128801815D01*
X172458504Y-128791496D01*
X172448185Y-128784601D01*
X172419042Y-128765128D01*
X172419040Y-128765127D01*
X172408722Y-128758233D01*
X172364820Y-128749500D01*
X170635180Y-128749500D01*
X170591278Y-128758233D01*
X170580960Y-128765127D01*
X170580958Y-128765128D01*
X170551815Y-128784601D01*
X170541496Y-128791496D01*
X170534601Y-128801815D01*
X170515128Y-128830958D01*
X170515127Y-128830960D01*
X170508233Y-128841278D01*
X170499500Y-128885180D01*
X170499500Y-130614820D01*
X169467048Y-130614820D01*
X169498689Y-130598837D01*
X169528515Y-130575535D01*
X169648453Y-130481829D01*
X169653303Y-130478040D01*
X169683084Y-130443539D01*
X169777485Y-130334173D01*
X169777485Y-130334172D01*
X169781509Y-130329511D01*
X169878425Y-130158909D01*
X169940358Y-129972732D01*
X169964949Y-129778071D01*
X169965341Y-129750000D01*
X169946194Y-129554728D01*
X169944413Y-129548829D01*
X169944412Y-129548824D01*
X169891265Y-129372793D01*
X169889484Y-129366894D01*
X169797370Y-129193653D01*
X169673361Y-129041602D01*
X169522180Y-128916535D01*
X169349585Y-128823213D01*
X169247124Y-128791496D01*
X169168039Y-128767015D01*
X169168036Y-128767014D01*
X169162152Y-128765193D01*
X169156027Y-128764549D01*
X169156026Y-128764549D01*
X168973147Y-128745327D01*
X168973146Y-128745327D01*
X168967019Y-128744683D01*
X168844733Y-128755812D01*
X168777759Y-128761907D01*
X168777758Y-128761907D01*
X168771618Y-128762466D01*
X168765704Y-128764207D01*
X168765702Y-128764207D01*
X168748945Y-128769139D01*
X168583393Y-128817864D01*
X168577928Y-128820721D01*
X168414972Y-128905912D01*
X168414968Y-128905915D01*
X168409512Y-128908767D01*
X168404712Y-128912627D01*
X168404711Y-128912627D01*
X168370326Y-128940273D01*
X168256600Y-129031711D01*
X168130480Y-129182016D01*
X168127516Y-129187408D01*
X168127513Y-129187412D01*
X168093105Y-129250000D01*
X168035956Y-129353954D01*
X167976628Y-129540978D01*
X167954757Y-129735963D01*
X167423965Y-129735963D01*
X167406194Y-129554728D01*
X167404413Y-129548829D01*
X167404412Y-129548824D01*
X167351265Y-129372793D01*
X167349484Y-129366894D01*
X167257370Y-129193653D01*
X167133361Y-129041602D01*
X166982180Y-128916535D01*
X166809585Y-128823213D01*
X166707124Y-128791496D01*
X166628039Y-128767015D01*
X166628036Y-128767014D01*
X166622152Y-128765193D01*
X166616027Y-128764549D01*
X166616026Y-128764549D01*
X166433147Y-128745327D01*
X166433146Y-128745327D01*
X166427019Y-128744683D01*
X166304733Y-128755812D01*
X166237759Y-128761907D01*
X166237758Y-128761907D01*
X166231618Y-128762466D01*
X166225704Y-128764207D01*
X166225702Y-128764207D01*
X166208945Y-128769139D01*
X166043393Y-128817864D01*
X166037928Y-128820721D01*
X165874972Y-128905912D01*
X165874968Y-128905915D01*
X165869512Y-128908767D01*
X165864712Y-128912627D01*
X165864711Y-128912627D01*
X165830326Y-128940273D01*
X165716600Y-129031711D01*
X165590480Y-129182016D01*
X165587516Y-129187408D01*
X165587513Y-129187412D01*
X165553105Y-129250000D01*
X165495956Y-129353954D01*
X165436628Y-129540978D01*
X165414757Y-129735963D01*
X152061271Y-129735963D01*
X152936441Y-127750000D01*
X157694750Y-127750000D01*
X157713670Y-127893709D01*
X157769139Y-128027625D01*
X157857379Y-128142621D01*
X157972375Y-128230861D01*
X158106291Y-128286330D01*
X158250000Y-128305250D01*
X158393709Y-128286330D01*
X158527625Y-128230861D01*
X158642621Y-128142621D01*
X158730861Y-128027625D01*
X158786330Y-127893709D01*
X158805250Y-127750000D01*
X158786330Y-127606291D01*
X158730861Y-127472375D01*
X158642621Y-127357379D01*
X158527625Y-127269139D01*
X158393709Y-127213670D01*
X158250000Y-127194750D01*
X158106291Y-127213670D01*
X157972375Y-127269139D01*
X157857379Y-127357379D01*
X157769139Y-127472375D01*
X157713670Y-127606291D01*
X157694750Y-127750000D01*
X152936441Y-127750000D01*
X153927966Y-125500000D01*
X161194750Y-125500000D01*
X161213670Y-125643709D01*
X161269139Y-125777625D01*
X161357379Y-125892621D01*
X161472375Y-125980861D01*
X161606291Y-126036330D01*
X161750000Y-126055250D01*
X161893709Y-126036330D01*
X162027625Y-125980861D01*
X162142621Y-125892621D01*
X162230861Y-125777625D01*
X162286330Y-125643709D01*
X162305250Y-125500000D01*
X162286330Y-125356291D01*
X162230861Y-125222375D01*
X162142621Y-125107379D01*
X162027625Y-125019139D01*
X161893709Y-124963670D01*
X161750000Y-124944750D01*
X161606291Y-124963670D01*
X161472375Y-125019139D01*
X161357379Y-125107379D01*
X161269139Y-125222375D01*
X161213670Y-125356291D01*
X161194750Y-125500000D01*
X153927966Y-125500000D01*
X154721986Y-123698185D01*
X155146016Y-122735963D01*
X162874757Y-122735963D01*
X162891175Y-122931483D01*
X162945258Y-123120091D01*
X162948076Y-123125574D01*
X163032123Y-123289113D01*
X163032126Y-123289117D01*
X163034944Y-123294601D01*
X163156818Y-123448369D01*
X163161511Y-123452363D01*
X163161512Y-123452364D01*
X163286852Y-123559036D01*
X163306238Y-123575535D01*
X163311616Y-123578541D01*
X163311618Y-123578542D01*
X163347932Y-123598837D01*
X163477513Y-123671257D01*
X163664118Y-123731889D01*
X163858946Y-123755121D01*
X163865081Y-123754649D01*
X163865083Y-123754649D01*
X164048434Y-123740541D01*
X164048438Y-123740540D01*
X164054576Y-123740068D01*
X164243556Y-123687303D01*
X164418689Y-123598837D01*
X164448515Y-123575535D01*
X164520698Y-123519139D01*
X164573303Y-123478040D01*
X164603084Y-123443539D01*
X164697485Y-123334173D01*
X164697485Y-123334172D01*
X164701509Y-123329511D01*
X164798425Y-123158909D01*
X164860358Y-122972732D01*
X164884949Y-122778071D01*
X164885341Y-122750000D01*
X164883965Y-122735963D01*
X165414757Y-122735963D01*
X165431175Y-122931483D01*
X165485258Y-123120091D01*
X165488076Y-123125574D01*
X165572123Y-123289113D01*
X165572126Y-123289117D01*
X165574944Y-123294601D01*
X165696818Y-123448369D01*
X165701511Y-123452363D01*
X165701512Y-123452364D01*
X165826852Y-123559036D01*
X165846238Y-123575535D01*
X165851616Y-123578541D01*
X165851618Y-123578542D01*
X165887932Y-123598837D01*
X166017513Y-123671257D01*
X166204118Y-123731889D01*
X166398946Y-123755121D01*
X166405081Y-123754649D01*
X166405083Y-123754649D01*
X166588434Y-123740541D01*
X166588438Y-123740540D01*
X166594576Y-123740068D01*
X166783556Y-123687303D01*
X166958689Y-123598837D01*
X166988515Y-123575535D01*
X167060698Y-123519139D01*
X167113303Y-123478040D01*
X167143084Y-123443539D01*
X167237485Y-123334173D01*
X167237485Y-123334172D01*
X167241509Y-123329511D01*
X167338425Y-123158909D01*
X167400358Y-122972732D01*
X167424949Y-122778071D01*
X167425341Y-122750000D01*
X167423965Y-122735963D01*
X167954757Y-122735963D01*
X167971175Y-122931483D01*
X168025258Y-123120091D01*
X168028076Y-123125574D01*
X168112123Y-123289113D01*
X168112126Y-123289117D01*
X168114944Y-123294601D01*
X168236818Y-123448369D01*
X168241511Y-123452363D01*
X168241512Y-123452364D01*
X168366852Y-123559036D01*
X168386238Y-123575535D01*
X168391616Y-123578541D01*
X168391618Y-123578542D01*
X168427932Y-123598837D01*
X168557513Y-123671257D01*
X168744118Y-123731889D01*
X168938946Y-123755121D01*
X168945081Y-123754649D01*
X168945083Y-123754649D01*
X169128434Y-123740541D01*
X169128438Y-123740540D01*
X169134576Y-123740068D01*
X169323556Y-123687303D01*
X169467048Y-123614820D01*
X170499500Y-123614820D01*
X170508233Y-123658722D01*
X170515127Y-123669040D01*
X170515128Y-123669042D01*
X170527330Y-123687303D01*
X170541496Y-123708504D01*
X170551815Y-123715399D01*
X170580958Y-123734872D01*
X170580960Y-123734873D01*
X170591278Y-123741767D01*
X170635180Y-123750500D01*
X172364820Y-123750500D01*
X172408722Y-123741767D01*
X172419040Y-123734873D01*
X172419042Y-123734872D01*
X172448185Y-123715399D01*
X172458504Y-123708504D01*
X172472670Y-123687303D01*
X172484872Y-123669042D01*
X172484873Y-123669040D01*
X172491767Y-123658722D01*
X172500500Y-123614820D01*
X172500500Y-121885180D01*
X172491767Y-121841278D01*
X172484873Y-121830960D01*
X172484872Y-121830958D01*
X172465399Y-121801815D01*
X172458504Y-121791496D01*
X172448185Y-121784601D01*
X172419042Y-121765128D01*
X172419040Y-121765127D01*
X172408722Y-121758233D01*
X172364820Y-121749500D01*
X170635180Y-121749500D01*
X170591278Y-121758233D01*
X170580960Y-121765127D01*
X170580958Y-121765128D01*
X170551815Y-121784601D01*
X170541496Y-121791496D01*
X170534601Y-121801815D01*
X170515128Y-121830958D01*
X170515127Y-121830960D01*
X170508233Y-121841278D01*
X170499500Y-121885180D01*
X170499500Y-123614820D01*
X169467048Y-123614820D01*
X169498689Y-123598837D01*
X169528515Y-123575535D01*
X169600698Y-123519139D01*
X169653303Y-123478040D01*
X169683084Y-123443539D01*
X169777485Y-123334173D01*
X169777485Y-123334172D01*
X169781509Y-123329511D01*
X169878425Y-123158909D01*
X169940358Y-122972732D01*
X169964949Y-122778071D01*
X169965341Y-122750000D01*
X169946194Y-122554728D01*
X169944413Y-122548829D01*
X169944412Y-122548824D01*
X169891265Y-122372793D01*
X169889484Y-122366894D01*
X169797370Y-122193653D01*
X169673361Y-122041602D01*
X169522180Y-121916535D01*
X169349585Y-121823213D01*
X169247124Y-121791496D01*
X169168039Y-121767015D01*
X169168036Y-121767014D01*
X169162152Y-121765193D01*
X169156027Y-121764549D01*
X169156026Y-121764549D01*
X168973147Y-121745327D01*
X168973146Y-121745327D01*
X168967019Y-121744683D01*
X168844733Y-121755812D01*
X168777759Y-121761907D01*
X168777758Y-121761907D01*
X168771618Y-121762466D01*
X168765704Y-121764207D01*
X168765702Y-121764207D01*
X168748945Y-121769139D01*
X168583393Y-121817864D01*
X168577928Y-121820721D01*
X168414972Y-121905912D01*
X168414968Y-121905915D01*
X168409512Y-121908767D01*
X168404712Y-121912627D01*
X168404711Y-121912627D01*
X168370326Y-121940273D01*
X168256600Y-122031711D01*
X168130480Y-122182016D01*
X168127516Y-122187408D01*
X168127513Y-122187412D01*
X168117731Y-122205206D01*
X168035956Y-122353954D01*
X167976628Y-122540978D01*
X167954757Y-122735963D01*
X167423965Y-122735963D01*
X167406194Y-122554728D01*
X167404413Y-122548829D01*
X167404412Y-122548824D01*
X167351265Y-122372793D01*
X167349484Y-122366894D01*
X167257370Y-122193653D01*
X167133361Y-122041602D01*
X166982180Y-121916535D01*
X166809585Y-121823213D01*
X166707124Y-121791496D01*
X166628039Y-121767015D01*
X166628036Y-121767014D01*
X166622152Y-121765193D01*
X166616027Y-121764549D01*
X166616026Y-121764549D01*
X166433147Y-121745327D01*
X166433146Y-121745327D01*
X166427019Y-121744683D01*
X166304733Y-121755812D01*
X166237759Y-121761907D01*
X166237758Y-121761907D01*
X166231618Y-121762466D01*
X166225704Y-121764207D01*
X166225702Y-121764207D01*
X166208945Y-121769139D01*
X166043393Y-121817864D01*
X166037928Y-121820721D01*
X165874972Y-121905912D01*
X165874968Y-121905915D01*
X165869512Y-121908767D01*
X165864712Y-121912627D01*
X165864711Y-121912627D01*
X165830326Y-121940273D01*
X165716600Y-122031711D01*
X165590480Y-122182016D01*
X165587516Y-122187408D01*
X165587513Y-122187412D01*
X165577731Y-122205206D01*
X165495956Y-122353954D01*
X165436628Y-122540978D01*
X165414757Y-122735963D01*
X164883965Y-122735963D01*
X164866194Y-122554728D01*
X164864413Y-122548829D01*
X164864412Y-122548824D01*
X164811265Y-122372793D01*
X164809484Y-122366894D01*
X164717370Y-122193653D01*
X164593361Y-122041602D01*
X164442180Y-121916535D01*
X164269585Y-121823213D01*
X164167124Y-121791496D01*
X164088039Y-121767015D01*
X164088036Y-121767014D01*
X164082152Y-121765193D01*
X164076027Y-121764549D01*
X164076026Y-121764549D01*
X163893147Y-121745327D01*
X163893146Y-121745327D01*
X163887019Y-121744683D01*
X163764733Y-121755812D01*
X163697759Y-121761907D01*
X163697758Y-121761907D01*
X163691618Y-121762466D01*
X163685704Y-121764207D01*
X163685702Y-121764207D01*
X163668945Y-121769139D01*
X163503393Y-121817864D01*
X163497928Y-121820721D01*
X163334972Y-121905912D01*
X163334968Y-121905915D01*
X163329512Y-121908767D01*
X163324712Y-121912627D01*
X163324711Y-121912627D01*
X163290326Y-121940273D01*
X163176600Y-122031711D01*
X163050480Y-122182016D01*
X163047516Y-122187408D01*
X163047513Y-122187412D01*
X163037731Y-122205206D01*
X162955956Y-122353954D01*
X162896628Y-122540978D01*
X162874757Y-122735963D01*
X155146016Y-122735963D01*
X157012712Y-118500000D01*
X184194750Y-118500000D01*
X184213670Y-118643709D01*
X184269139Y-118777625D01*
X184357379Y-118892621D01*
X184472375Y-118980861D01*
X184606291Y-119036330D01*
X184750000Y-119055250D01*
X184893709Y-119036330D01*
X185027625Y-118980861D01*
X185142621Y-118892621D01*
X185230861Y-118777625D01*
X185286330Y-118643709D01*
X185305250Y-118500000D01*
X185286330Y-118356291D01*
X185230861Y-118222375D01*
X185142621Y-118107379D01*
X185027625Y-118019139D01*
X185018560Y-118015384D01*
X184901340Y-117966831D01*
X184901341Y-117966831D01*
X184893709Y-117963670D01*
X184750000Y-117944750D01*
X184606291Y-117963670D01*
X184598659Y-117966831D01*
X184598660Y-117966831D01*
X184481441Y-118015384D01*
X184472375Y-118019139D01*
X184357379Y-118107379D01*
X184269139Y-118222375D01*
X184213670Y-118356291D01*
X184194750Y-118500000D01*
X157012712Y-118500000D01*
X157435960Y-117539552D01*
X177734302Y-117539552D01*
X177753222Y-117683261D01*
X177808691Y-117817177D01*
X177896931Y-117932173D01*
X178011927Y-118020413D01*
X178019556Y-118023573D01*
X178026645Y-118026509D01*
X178145843Y-118075882D01*
X178289552Y-118094802D01*
X178433261Y-118075882D01*
X178552459Y-118026509D01*
X178559548Y-118023573D01*
X178567177Y-118020413D01*
X178682173Y-117932173D01*
X178770413Y-117817177D01*
X178825882Y-117683261D01*
X178844802Y-117539552D01*
X178825882Y-117395843D01*
X178770413Y-117261927D01*
X178682173Y-117146931D01*
X178567177Y-117058691D01*
X178433261Y-117003222D01*
X178289552Y-116984302D01*
X178145843Y-117003222D01*
X178011927Y-117058691D01*
X177896931Y-117146931D01*
X177808691Y-117261927D01*
X177753222Y-117395843D01*
X177734302Y-117539552D01*
X157435960Y-117539552D01*
X158250221Y-115691806D01*
X183386556Y-115691806D01*
X183405476Y-115835515D01*
X183460945Y-115969431D01*
X183549185Y-116084427D01*
X183664181Y-116172667D01*
X183798097Y-116228136D01*
X183941806Y-116247056D01*
X184085515Y-116228136D01*
X184219431Y-116172667D01*
X184334427Y-116084427D01*
X184422667Y-115969431D01*
X184478136Y-115835515D01*
X184497056Y-115691806D01*
X184478136Y-115548097D01*
X184422667Y-115414181D01*
X184334427Y-115299185D01*
X184292046Y-115266664D01*
X184250179Y-115209326D01*
X184245958Y-115138455D01*
X184280723Y-115076553D01*
X184343436Y-115043272D01*
X184352305Y-115041781D01*
X184393709Y-115036330D01*
X184527625Y-114980861D01*
X184528477Y-114982919D01*
X184586138Y-114968931D01*
X184653230Y-114992152D01*
X184697117Y-115047959D01*
X184705064Y-115078341D01*
X184713670Y-115143709D01*
X184769139Y-115277625D01*
X184857379Y-115392621D01*
X184972375Y-115480861D01*
X185106291Y-115536330D01*
X185250000Y-115555250D01*
X185393709Y-115536330D01*
X185527625Y-115480861D01*
X185642621Y-115392621D01*
X185730861Y-115277625D01*
X185786330Y-115143709D01*
X185805250Y-115000000D01*
X185786330Y-114856291D01*
X185730861Y-114722375D01*
X185733572Y-114721252D01*
X185720170Y-114666016D01*
X185743388Y-114598923D01*
X185799194Y-114555034D01*
X185862475Y-114547084D01*
X185924500Y-114555250D01*
X186068209Y-114536330D01*
X186202125Y-114480861D01*
X186317121Y-114392621D01*
X186405361Y-114277625D01*
X186460830Y-114143709D01*
X186479750Y-114000000D01*
X186460830Y-113856291D01*
X186405361Y-113722375D01*
X186317121Y-113607379D01*
X186202125Y-113519139D01*
X186068209Y-113463670D01*
X185924500Y-113444750D01*
X185780791Y-113463670D01*
X185646875Y-113519139D01*
X185531879Y-113607379D01*
X185443639Y-113722375D01*
X185388170Y-113856291D01*
X185369250Y-114000000D01*
X185388170Y-114143709D01*
X185391331Y-114151340D01*
X185443639Y-114277625D01*
X185440928Y-114278748D01*
X185454330Y-114333984D01*
X185431112Y-114401077D01*
X185375306Y-114444966D01*
X185312025Y-114452916D01*
X185250000Y-114444750D01*
X185106291Y-114463670D01*
X184972375Y-114519139D01*
X184971523Y-114517081D01*
X184913862Y-114531069D01*
X184846770Y-114507848D01*
X184802883Y-114452041D01*
X184794936Y-114421659D01*
X184787408Y-114364480D01*
X184786330Y-114356291D01*
X184730861Y-114222375D01*
X184642621Y-114107379D01*
X184527625Y-114019139D01*
X184393709Y-113963670D01*
X184250000Y-113944750D01*
X184106291Y-113963670D01*
X183972375Y-114019139D01*
X183857379Y-114107379D01*
X183769139Y-114222375D01*
X183713670Y-114356291D01*
X183694750Y-114500000D01*
X183713670Y-114643709D01*
X183769139Y-114777625D01*
X183857379Y-114892621D01*
X183899760Y-114925141D01*
X183941627Y-114982480D01*
X183945848Y-115053351D01*
X183911083Y-115115253D01*
X183848370Y-115148534D01*
X183839502Y-115150025D01*
X183798097Y-115155476D01*
X183664181Y-115210945D01*
X183549185Y-115299185D01*
X183460945Y-115414181D01*
X183405476Y-115548097D01*
X183386556Y-115691806D01*
X158250221Y-115691806D01*
X159085897Y-113795463D01*
X159131671Y-113741194D01*
X159199519Y-113720286D01*
X159267900Y-113739379D01*
X159282861Y-113750321D01*
X159335903Y-113795463D01*
X159371238Y-113825535D01*
X159376616Y-113828541D01*
X159376618Y-113828542D01*
X159430460Y-113858633D01*
X159542513Y-113921257D01*
X159729118Y-113981889D01*
X159923946Y-114005121D01*
X159930081Y-114004649D01*
X159930083Y-114004649D01*
X160113434Y-113990541D01*
X160113438Y-113990540D01*
X160119576Y-113990068D01*
X160308556Y-113937303D01*
X160483689Y-113848837D01*
X160513515Y-113825535D01*
X160609784Y-113750321D01*
X160638303Y-113728040D01*
X160648850Y-113715822D01*
X160762485Y-113584173D01*
X160762485Y-113584172D01*
X160766509Y-113579511D01*
X160863425Y-113408909D01*
X160925358Y-113222732D01*
X160949949Y-113028071D01*
X160950341Y-113000000D01*
X160948965Y-112985963D01*
X161479757Y-112985963D01*
X161496175Y-113181483D01*
X161550258Y-113370091D01*
X161553076Y-113375574D01*
X161637123Y-113539113D01*
X161637126Y-113539117D01*
X161639944Y-113544601D01*
X161761818Y-113698369D01*
X161766511Y-113702363D01*
X161766512Y-113702364D01*
X161822862Y-113750321D01*
X161911238Y-113825535D01*
X161916616Y-113828541D01*
X161916618Y-113828542D01*
X161970460Y-113858633D01*
X162082513Y-113921257D01*
X162269118Y-113981889D01*
X162463946Y-114005121D01*
X162470081Y-114004649D01*
X162470083Y-114004649D01*
X162653434Y-113990541D01*
X162653438Y-113990540D01*
X162659576Y-113990068D01*
X162848556Y-113937303D01*
X162992048Y-113864820D01*
X164024500Y-113864820D01*
X164033233Y-113908722D01*
X164040127Y-113919040D01*
X164040128Y-113919042D01*
X164052330Y-113937303D01*
X164066496Y-113958504D01*
X164076815Y-113965399D01*
X164105958Y-113984872D01*
X164105960Y-113984873D01*
X164116278Y-113991767D01*
X164160180Y-114000500D01*
X165889820Y-114000500D01*
X165933722Y-113991767D01*
X165944040Y-113984873D01*
X165944042Y-113984872D01*
X165973185Y-113965399D01*
X165983504Y-113958504D01*
X165997670Y-113937303D01*
X166009872Y-113919042D01*
X166009873Y-113919040D01*
X166016767Y-113908722D01*
X166025500Y-113864820D01*
X168974500Y-113864820D01*
X168983233Y-113908722D01*
X168990127Y-113919040D01*
X168990128Y-113919042D01*
X169002330Y-113937303D01*
X169016496Y-113958504D01*
X169026815Y-113965399D01*
X169055958Y-113984872D01*
X169055960Y-113984873D01*
X169066278Y-113991767D01*
X169110180Y-114000500D01*
X170839820Y-114000500D01*
X170883722Y-113991767D01*
X170894040Y-113984873D01*
X170894042Y-113984872D01*
X170923185Y-113965399D01*
X170933504Y-113958504D01*
X170947670Y-113937303D01*
X170959872Y-113919042D01*
X170959873Y-113919040D01*
X170966767Y-113908722D01*
X170975500Y-113864820D01*
X170975500Y-112985963D01*
X171509757Y-112985963D01*
X171526175Y-113181483D01*
X171580258Y-113370091D01*
X171583076Y-113375574D01*
X171667123Y-113539113D01*
X171667126Y-113539117D01*
X171669944Y-113544601D01*
X171791818Y-113698369D01*
X171796511Y-113702363D01*
X171796512Y-113702364D01*
X171852862Y-113750321D01*
X171941238Y-113825535D01*
X171946616Y-113828541D01*
X171946618Y-113828542D01*
X172000460Y-113858633D01*
X172112513Y-113921257D01*
X172299118Y-113981889D01*
X172493946Y-114005121D01*
X172500081Y-114004649D01*
X172500083Y-114004649D01*
X172683434Y-113990541D01*
X172683438Y-113990540D01*
X172689576Y-113990068D01*
X172878556Y-113937303D01*
X173053689Y-113848837D01*
X173083515Y-113825535D01*
X173179784Y-113750321D01*
X173208303Y-113728040D01*
X173218850Y-113715822D01*
X173332485Y-113584173D01*
X173332485Y-113584172D01*
X173336509Y-113579511D01*
X173433425Y-113408909D01*
X173495358Y-113222732D01*
X173519949Y-113028071D01*
X173520341Y-113000000D01*
X173501194Y-112804728D01*
X173499413Y-112798829D01*
X173499412Y-112798824D01*
X173446265Y-112622793D01*
X173444484Y-112616894D01*
X173352370Y-112443653D01*
X173264541Y-112335963D01*
X176689757Y-112335963D01*
X176706175Y-112531483D01*
X176760258Y-112720091D01*
X176763076Y-112725574D01*
X176847123Y-112889113D01*
X176847126Y-112889117D01*
X176849944Y-112894601D01*
X176971818Y-113048369D01*
X177121238Y-113175535D01*
X177126616Y-113178541D01*
X177126618Y-113178542D01*
X177162932Y-113198837D01*
X177292513Y-113271257D01*
X177479118Y-113331889D01*
X177673946Y-113355121D01*
X177680081Y-113354649D01*
X177680083Y-113354649D01*
X177863434Y-113340541D01*
X177863438Y-113340540D01*
X177869576Y-113340068D01*
X178058556Y-113287303D01*
X178233689Y-113198837D01*
X178263515Y-113175535D01*
X178383453Y-113081829D01*
X178388303Y-113078040D01*
X178418084Y-113043539D01*
X178512485Y-112934173D01*
X178512485Y-112934172D01*
X178516509Y-112929511D01*
X178613425Y-112758909D01*
X178675358Y-112572732D01*
X178699949Y-112378071D01*
X178700341Y-112350000D01*
X178698965Y-112335963D01*
X179229757Y-112335963D01*
X179246175Y-112531483D01*
X179300258Y-112720091D01*
X179303076Y-112725574D01*
X179387123Y-112889113D01*
X179387126Y-112889117D01*
X179389944Y-112894601D01*
X179511818Y-113048369D01*
X179661238Y-113175535D01*
X179666616Y-113178541D01*
X179666618Y-113178542D01*
X179702932Y-113198837D01*
X179832513Y-113271257D01*
X180019118Y-113331889D01*
X180213946Y-113355121D01*
X180220081Y-113354649D01*
X180220083Y-113354649D01*
X180403434Y-113340541D01*
X180403438Y-113340540D01*
X180409576Y-113340068D01*
X180598556Y-113287303D01*
X180742048Y-113214820D01*
X181774500Y-113214820D01*
X181783233Y-113258722D01*
X181790127Y-113269040D01*
X181790128Y-113269042D01*
X181802330Y-113287303D01*
X181816496Y-113308504D01*
X181826815Y-113315399D01*
X181855958Y-113334872D01*
X181855960Y-113334873D01*
X181866278Y-113341767D01*
X181910180Y-113350500D01*
X183639820Y-113350500D01*
X183683722Y-113341767D01*
X183694040Y-113334873D01*
X183694042Y-113334872D01*
X183723185Y-113315399D01*
X183733504Y-113308504D01*
X183747670Y-113287303D01*
X183759872Y-113269042D01*
X183759873Y-113269040D01*
X183766767Y-113258722D01*
X183775500Y-113214820D01*
X183775500Y-111485180D01*
X183766767Y-111441278D01*
X183759873Y-111430960D01*
X183759872Y-111430958D01*
X183740399Y-111401815D01*
X183733504Y-111391496D01*
X183723185Y-111384601D01*
X183694042Y-111365128D01*
X183694040Y-111365127D01*
X183683722Y-111358233D01*
X183639820Y-111349500D01*
X181910180Y-111349500D01*
X181866278Y-111358233D01*
X181855960Y-111365127D01*
X181855958Y-111365128D01*
X181826815Y-111384601D01*
X181816496Y-111391496D01*
X181809601Y-111401815D01*
X181790128Y-111430958D01*
X181790127Y-111430960D01*
X181783233Y-111441278D01*
X181774500Y-111485180D01*
X181774500Y-113214820D01*
X180742048Y-113214820D01*
X180773689Y-113198837D01*
X180803515Y-113175535D01*
X180923453Y-113081829D01*
X180928303Y-113078040D01*
X180958084Y-113043539D01*
X181052485Y-112934173D01*
X181052485Y-112934172D01*
X181056509Y-112929511D01*
X181153425Y-112758909D01*
X181215358Y-112572732D01*
X181239949Y-112378071D01*
X181240341Y-112350000D01*
X181221194Y-112154728D01*
X181219413Y-112148829D01*
X181219412Y-112148824D01*
X181166265Y-111972793D01*
X181164484Y-111966894D01*
X181072370Y-111793653D01*
X180948361Y-111641602D01*
X180797180Y-111516535D01*
X180624585Y-111423213D01*
X180522124Y-111391496D01*
X180443039Y-111367015D01*
X180443036Y-111367014D01*
X180437152Y-111365193D01*
X180431027Y-111364549D01*
X180431026Y-111364549D01*
X180248147Y-111345327D01*
X180248146Y-111345327D01*
X180242019Y-111344683D01*
X180119733Y-111355812D01*
X180052759Y-111361907D01*
X180052758Y-111361907D01*
X180046618Y-111362466D01*
X180040704Y-111364207D01*
X180040702Y-111364207D01*
X179971410Y-111384601D01*
X179858393Y-111417864D01*
X179852928Y-111420721D01*
X179689972Y-111505912D01*
X179689968Y-111505915D01*
X179684512Y-111508767D01*
X179679712Y-111512627D01*
X179679711Y-111512627D01*
X179645326Y-111540273D01*
X179531600Y-111631711D01*
X179405480Y-111782016D01*
X179402516Y-111787408D01*
X179402513Y-111787412D01*
X179379466Y-111829335D01*
X179310956Y-111953954D01*
X179309095Y-111959821D01*
X179309094Y-111959823D01*
X179292572Y-112011907D01*
X179251628Y-112140978D01*
X179229757Y-112335963D01*
X178698965Y-112335963D01*
X178681194Y-112154728D01*
X178679413Y-112148829D01*
X178679412Y-112148824D01*
X178626265Y-111972793D01*
X178624484Y-111966894D01*
X178532370Y-111793653D01*
X178408361Y-111641602D01*
X178257180Y-111516535D01*
X178084585Y-111423213D01*
X177982124Y-111391496D01*
X177903039Y-111367015D01*
X177903036Y-111367014D01*
X177897152Y-111365193D01*
X177891027Y-111364549D01*
X177891026Y-111364549D01*
X177708147Y-111345327D01*
X177708146Y-111345327D01*
X177702019Y-111344683D01*
X177579733Y-111355812D01*
X177512759Y-111361907D01*
X177512758Y-111361907D01*
X177506618Y-111362466D01*
X177500704Y-111364207D01*
X177500702Y-111364207D01*
X177431410Y-111384601D01*
X177318393Y-111417864D01*
X177312928Y-111420721D01*
X177149972Y-111505912D01*
X177149968Y-111505915D01*
X177144512Y-111508767D01*
X177139712Y-111512627D01*
X177139711Y-111512627D01*
X177105326Y-111540273D01*
X176991600Y-111631711D01*
X176865480Y-111782016D01*
X176862516Y-111787408D01*
X176862513Y-111787412D01*
X176839466Y-111829335D01*
X176770956Y-111953954D01*
X176769095Y-111959821D01*
X176769094Y-111959823D01*
X176752572Y-112011907D01*
X176711628Y-112140978D01*
X176689757Y-112335963D01*
X173264541Y-112335963D01*
X173228361Y-112291602D01*
X173077180Y-112166535D01*
X172904585Y-112073213D01*
X172802124Y-112041496D01*
X172723039Y-112017015D01*
X172723036Y-112017014D01*
X172717152Y-112015193D01*
X172711027Y-112014549D01*
X172711026Y-112014549D01*
X172528147Y-111995327D01*
X172528146Y-111995327D01*
X172522019Y-111994683D01*
X172403710Y-112005450D01*
X172332759Y-112011907D01*
X172332758Y-112011907D01*
X172326618Y-112012466D01*
X172320704Y-112014207D01*
X172320702Y-112014207D01*
X172251410Y-112034601D01*
X172138393Y-112067864D01*
X172132928Y-112070721D01*
X171969972Y-112155912D01*
X171969968Y-112155915D01*
X171964512Y-112158767D01*
X171959712Y-112162627D01*
X171959711Y-112162627D01*
X171925326Y-112190273D01*
X171811600Y-112281711D01*
X171685480Y-112432016D01*
X171682516Y-112437408D01*
X171682513Y-112437412D01*
X171634172Y-112525344D01*
X171590956Y-112603954D01*
X171531628Y-112790978D01*
X171509757Y-112985963D01*
X170975500Y-112985963D01*
X170975500Y-112135180D01*
X170966767Y-112091278D01*
X170959873Y-112080960D01*
X170959872Y-112080958D01*
X170940399Y-112051815D01*
X170933504Y-112041496D01*
X170923185Y-112034601D01*
X170894042Y-112015128D01*
X170894040Y-112015127D01*
X170883722Y-112008233D01*
X170839820Y-111999500D01*
X169110180Y-111999500D01*
X169066278Y-112008233D01*
X169055960Y-112015127D01*
X169055958Y-112015128D01*
X169026815Y-112034601D01*
X169016496Y-112041496D01*
X169009601Y-112051815D01*
X168990128Y-112080958D01*
X168990127Y-112080960D01*
X168983233Y-112091278D01*
X168974500Y-112135180D01*
X168974500Y-113864820D01*
X166025500Y-113864820D01*
X166025500Y-112135180D01*
X166016767Y-112091278D01*
X166009873Y-112080960D01*
X166009872Y-112080958D01*
X165990399Y-112051815D01*
X165983504Y-112041496D01*
X165973185Y-112034601D01*
X165944042Y-112015128D01*
X165944040Y-112015127D01*
X165933722Y-112008233D01*
X165889820Y-111999500D01*
X164160180Y-111999500D01*
X164116278Y-112008233D01*
X164105960Y-112015127D01*
X164105958Y-112015128D01*
X164076815Y-112034601D01*
X164066496Y-112041496D01*
X164059601Y-112051815D01*
X164040128Y-112080958D01*
X164040127Y-112080960D01*
X164033233Y-112091278D01*
X164024500Y-112135180D01*
X164024500Y-113864820D01*
X162992048Y-113864820D01*
X163023689Y-113848837D01*
X163053515Y-113825535D01*
X163149784Y-113750321D01*
X163178303Y-113728040D01*
X163188850Y-113715822D01*
X163302485Y-113584173D01*
X163302485Y-113584172D01*
X163306509Y-113579511D01*
X163403425Y-113408909D01*
X163465358Y-113222732D01*
X163489949Y-113028071D01*
X163490341Y-113000000D01*
X163471194Y-112804728D01*
X163469413Y-112798829D01*
X163469412Y-112798824D01*
X163416265Y-112622793D01*
X163414484Y-112616894D01*
X163322370Y-112443653D01*
X163198361Y-112291602D01*
X163047180Y-112166535D01*
X162874585Y-112073213D01*
X162772124Y-112041496D01*
X162693039Y-112017015D01*
X162693036Y-112017014D01*
X162687152Y-112015193D01*
X162681027Y-112014549D01*
X162681026Y-112014549D01*
X162498147Y-111995327D01*
X162498146Y-111995327D01*
X162492019Y-111994683D01*
X162373710Y-112005450D01*
X162302759Y-112011907D01*
X162302758Y-112011907D01*
X162296618Y-112012466D01*
X162290704Y-112014207D01*
X162290702Y-112014207D01*
X162221410Y-112034601D01*
X162108393Y-112067864D01*
X162102928Y-112070721D01*
X161939972Y-112155912D01*
X161939968Y-112155915D01*
X161934512Y-112158767D01*
X161929712Y-112162627D01*
X161929711Y-112162627D01*
X161895326Y-112190273D01*
X161781600Y-112281711D01*
X161655480Y-112432016D01*
X161652516Y-112437408D01*
X161652513Y-112437412D01*
X161604172Y-112525344D01*
X161560956Y-112603954D01*
X161501628Y-112790978D01*
X161479757Y-112985963D01*
X160948965Y-112985963D01*
X160931194Y-112804728D01*
X160929413Y-112798829D01*
X160929412Y-112798824D01*
X160876265Y-112622793D01*
X160874484Y-112616894D01*
X160782370Y-112443653D01*
X160658361Y-112291602D01*
X160507180Y-112166535D01*
X160334585Y-112073213D01*
X160232124Y-112041496D01*
X160153039Y-112017015D01*
X160153036Y-112017014D01*
X160147152Y-112015193D01*
X160137771Y-112014207D01*
X160054459Y-112005450D01*
X159988802Y-111978436D01*
X159948173Y-111920214D01*
X159945470Y-111849269D01*
X159952327Y-111829335D01*
X161309322Y-108750000D01*
X178944750Y-108750000D01*
X178963670Y-108893709D01*
X179019139Y-109027625D01*
X179107379Y-109142621D01*
X179222375Y-109230861D01*
X179356291Y-109286330D01*
X179500000Y-109305250D01*
X179643709Y-109286330D01*
X179777625Y-109230861D01*
X179892621Y-109142621D01*
X179980861Y-109027625D01*
X180036330Y-108893709D01*
X180055250Y-108750000D01*
X180036330Y-108606291D01*
X179980861Y-108472375D01*
X179892621Y-108357379D01*
X179777625Y-108269139D01*
X179643709Y-108213670D01*
X179500000Y-108194750D01*
X179356291Y-108213670D01*
X179222375Y-108269139D01*
X179107379Y-108357379D01*
X179019139Y-108472375D01*
X178963670Y-108606291D01*
X178944750Y-108750000D01*
X161309322Y-108750000D01*
X161717186Y-107824463D01*
X161762959Y-107770194D01*
X161831371Y-107749280D01*
X170888889Y-107669125D01*
X170957184Y-107688523D01*
X171006413Y-107746902D01*
X171019139Y-107777625D01*
X171107379Y-107892621D01*
X171222375Y-107980861D01*
X171356291Y-108036330D01*
X171500000Y-108055250D01*
X171643709Y-108036330D01*
X171777625Y-107980861D01*
X171892621Y-107892621D01*
X171980861Y-107777625D01*
X171998075Y-107736066D01*
X172042624Y-107680785D01*
X172113369Y-107658289D01*
X174814108Y-107634388D01*
X180734962Y-107581991D01*
X180803255Y-107601389D01*
X180850221Y-107654632D01*
X180858259Y-107680886D01*
X180858796Y-107680749D01*
X180910845Y-107885690D01*
X180999369Y-108077714D01*
X181121405Y-108250391D01*
X181272865Y-108397937D01*
X181277661Y-108401142D01*
X181277664Y-108401144D01*
X181374462Y-108465822D01*
X181448677Y-108515411D01*
X181453985Y-108517692D01*
X181453986Y-108517692D01*
X181637650Y-108596600D01*
X181637653Y-108596601D01*
X181642953Y-108598878D01*
X181648582Y-108600152D01*
X181648583Y-108600152D01*
X181843550Y-108644269D01*
X181843553Y-108644269D01*
X181849186Y-108645544D01*
X181854957Y-108645771D01*
X181854959Y-108645771D01*
X181916989Y-108648208D01*
X182060470Y-108653846D01*
X182066179Y-108653018D01*
X182066183Y-108653018D01*
X182264015Y-108624333D01*
X182264019Y-108624332D01*
X182269730Y-108623504D01*
X182348987Y-108596600D01*
X182464483Y-108557395D01*
X182464488Y-108557393D01*
X182469955Y-108555537D01*
X182474998Y-108552713D01*
X182649395Y-108455046D01*
X182649399Y-108455043D01*
X182654442Y-108452219D01*
X182817012Y-108317012D01*
X182952219Y-108154442D01*
X182955043Y-108149399D01*
X182955046Y-108149395D01*
X183052713Y-107974998D01*
X183052714Y-107974996D01*
X183055537Y-107969955D01*
X183057393Y-107964488D01*
X183057395Y-107964483D01*
X183121648Y-107775199D01*
X183121649Y-107775194D01*
X183123504Y-107769730D01*
X183126470Y-107749280D01*
X183131369Y-107715486D01*
X183138321Y-107667543D01*
X183167890Y-107602999D01*
X183227661Y-107564687D01*
X183261901Y-107559630D01*
X187229429Y-107524519D01*
X187297724Y-107543917D01*
X187344690Y-107597160D01*
X187356274Y-107642273D01*
X187358796Y-107680749D01*
X187360217Y-107686345D01*
X187360218Y-107686350D01*
X187385064Y-107784178D01*
X187410845Y-107885690D01*
X187499369Y-108077714D01*
X187621405Y-108250391D01*
X187772865Y-108397937D01*
X187777661Y-108401142D01*
X187777664Y-108401144D01*
X187874462Y-108465822D01*
X187948677Y-108515411D01*
X187953985Y-108517692D01*
X187953986Y-108517692D01*
X188137650Y-108596600D01*
X188137653Y-108596601D01*
X188142953Y-108598878D01*
X188148582Y-108600152D01*
X188148583Y-108600152D01*
X188343550Y-108644269D01*
X188343553Y-108644269D01*
X188349186Y-108645544D01*
X188354957Y-108645771D01*
X188354959Y-108645771D01*
X188416989Y-108648208D01*
X188560470Y-108653846D01*
X188566179Y-108653018D01*
X188566183Y-108653018D01*
X188764015Y-108624333D01*
X188764019Y-108624332D01*
X188769730Y-108623504D01*
X188848987Y-108596600D01*
X188964483Y-108557395D01*
X188964488Y-108557393D01*
X188969955Y-108555537D01*
X188974998Y-108552713D01*
X189149395Y-108455046D01*
X189149399Y-108455043D01*
X189154442Y-108452219D01*
X189317012Y-108317012D01*
X189452219Y-108154442D01*
X189455043Y-108149399D01*
X189455046Y-108149395D01*
X189552713Y-107974998D01*
X189552714Y-107974996D01*
X189555537Y-107969955D01*
X189557393Y-107964488D01*
X189557395Y-107964483D01*
X189604925Y-107824463D01*
X189623504Y-107769730D01*
X189638092Y-107669125D01*
X189646672Y-107609947D01*
X189676242Y-107545402D01*
X189736014Y-107507090D01*
X189770252Y-107502033D01*
X189836231Y-107501449D01*
X189872885Y-107501125D01*
X189941180Y-107520524D01*
G37*
%TD.AperFunction*%
%TD*%
%TA.AperFunction,Conductor*%
%TO.N,Wind Pow*%
G36*
X142600185Y-104771707D02*
G01*
X146371926Y-105588917D01*
X157344256Y-107966256D01*
X157406596Y-108000230D01*
X157440673Y-108062513D01*
X157435667Y-108133333D01*
X157431244Y-108143762D01*
X156489098Y-110113704D01*
X155939321Y-111263239D01*
X154797229Y-113651249D01*
X154749793Y-113704073D01*
X154681329Y-113722866D01*
X154645617Y-113717037D01*
X154437288Y-113651249D01*
X146318256Y-111087344D01*
X149907016Y-111087344D01*
X149916898Y-111099834D01*
X149960279Y-111128820D01*
X149970389Y-111134310D01*
X150155318Y-111213762D01*
X150166261Y-111217317D01*
X150362567Y-111261737D01*
X150373975Y-111263239D01*
X150575096Y-111271140D01*
X150586580Y-111270538D01*
X150785774Y-111241657D01*
X150796957Y-111238972D01*
X150987547Y-111174276D01*
X150998060Y-111169595D01*
X151124766Y-111098635D01*
X151134631Y-111088557D01*
X151131675Y-111080885D01*
X150532812Y-110482022D01*
X150518868Y-110474408D01*
X150517035Y-110474539D01*
X150510420Y-110478790D01*
X149913212Y-111075998D01*
X149907016Y-111087344D01*
X146318256Y-111087344D01*
X145328597Y-110774820D01*
X147179500Y-110774820D01*
X147188233Y-110818722D01*
X147195127Y-110829040D01*
X147195128Y-110829042D01*
X147214601Y-110858185D01*
X147221496Y-110868504D01*
X147231815Y-110875399D01*
X147260958Y-110894872D01*
X147260960Y-110894873D01*
X147271278Y-110901767D01*
X147315180Y-110910500D01*
X148644820Y-110910500D01*
X148688722Y-110901767D01*
X148699040Y-110894873D01*
X148699042Y-110894872D01*
X148728185Y-110875399D01*
X148738504Y-110868504D01*
X148745399Y-110858185D01*
X148764872Y-110829042D01*
X148764873Y-110829040D01*
X148771767Y-110818722D01*
X148780500Y-110774820D01*
X148780500Y-109700798D01*
X148800502Y-109632677D01*
X148854158Y-109586184D01*
X148924432Y-109576080D01*
X148950419Y-109582700D01*
X149055116Y-109621636D01*
X149062097Y-109622567D01*
X149062099Y-109622568D01*
X149226149Y-109644457D01*
X149226153Y-109644457D01*
X149233130Y-109645388D01*
X149270378Y-109641998D01*
X149340030Y-109655745D01*
X149391194Y-109704967D01*
X149407624Y-109774037D01*
X149402127Y-109804845D01*
X149384166Y-109862687D01*
X149381773Y-109873946D01*
X149358117Y-110073821D01*
X149357816Y-110085323D01*
X149370979Y-110286159D01*
X149372780Y-110297529D01*
X149422323Y-110492604D01*
X149426164Y-110503451D01*
X149510429Y-110686238D01*
X149516178Y-110696195D01*
X149529912Y-110715628D01*
X149540501Y-110724016D01*
X149553802Y-110716988D01*
X150159658Y-110111132D01*
X150884408Y-110111132D01*
X150884539Y-110112965D01*
X150888790Y-110119580D01*
X151486971Y-110717761D01*
X151499351Y-110724521D01*
X151505931Y-110719595D01*
X151579595Y-110588060D01*
X151584276Y-110577547D01*
X151648972Y-110386957D01*
X151651657Y-110375774D01*
X151680834Y-110174539D01*
X151681464Y-110167157D01*
X151682864Y-110113704D01*
X151682621Y-110106305D01*
X151664016Y-109903824D01*
X151661918Y-109892503D01*
X151607287Y-109698797D01*
X151603163Y-109688050D01*
X151514141Y-109507534D01*
X151510617Y-109501784D01*
X151500595Y-109494262D01*
X151488176Y-109501034D01*
X150892022Y-110097188D01*
X150884408Y-110111132D01*
X150159658Y-110111132D01*
X151126533Y-109144257D01*
X151133293Y-109131877D01*
X151127263Y-109123822D01*
X151052857Y-109076875D01*
X151042609Y-109071654D01*
X150855663Y-108997070D01*
X150844635Y-108993803D01*
X150647230Y-108954537D01*
X150635784Y-108953334D01*
X150434537Y-108950700D01*
X150423057Y-108951603D01*
X150224701Y-108985687D01*
X150213643Y-108988650D01*
X150142666Y-108986960D01*
X150083871Y-108947166D01*
X150055923Y-108881901D01*
X150055513Y-108862497D01*
X150055251Y-108862493D01*
X150055510Y-108843963D01*
X150055510Y-108843958D01*
X150055565Y-108840000D01*
X150035546Y-108661528D01*
X150029427Y-108643955D01*
X149978803Y-108498584D01*
X149976485Y-108491927D01*
X149881316Y-108339625D01*
X149817771Y-108275635D01*
X149759733Y-108217190D01*
X149759729Y-108217187D01*
X149754770Y-108212193D01*
X149743761Y-108205206D01*
X149646940Y-108143762D01*
X149603136Y-108115963D01*
X149573352Y-108105357D01*
X149440586Y-108058081D01*
X149440581Y-108058080D01*
X149433951Y-108055719D01*
X149426965Y-108054886D01*
X149426961Y-108054885D01*
X149299177Y-108039648D01*
X149255624Y-108034455D01*
X149248621Y-108035191D01*
X149248620Y-108035191D01*
X149084025Y-108052490D01*
X149084021Y-108052491D01*
X149077017Y-108053227D01*
X149070346Y-108055498D01*
X148913677Y-108108832D01*
X148913674Y-108108833D01*
X148907007Y-108111103D01*
X148901009Y-108114793D01*
X148901007Y-108114794D01*
X148853921Y-108143762D01*
X148754045Y-108205206D01*
X148749014Y-108210132D01*
X148749011Y-108210135D01*
X148741807Y-108217190D01*
X148625732Y-108330859D01*
X148621913Y-108336784D01*
X148621912Y-108336786D01*
X148532265Y-108475891D01*
X148528446Y-108481817D01*
X148467022Y-108650578D01*
X148444514Y-108828753D01*
X148445201Y-108835760D01*
X148445201Y-108835763D01*
X148449725Y-108881901D01*
X148462039Y-109007486D01*
X148464262Y-109014168D01*
X148464262Y-109014169D01*
X148507360Y-109143729D01*
X148509882Y-109214681D01*
X148473644Y-109275733D01*
X148410152Y-109307502D01*
X148387801Y-109309500D01*
X147315180Y-109309500D01*
X147271278Y-109318233D01*
X147260960Y-109325127D01*
X147260958Y-109325128D01*
X147231815Y-109344601D01*
X147221496Y-109351496D01*
X147214601Y-109361815D01*
X147195128Y-109390958D01*
X147195127Y-109390960D01*
X147188233Y-109401278D01*
X147179500Y-109445180D01*
X147179500Y-110774820D01*
X145328597Y-110774820D01*
X140634467Y-109292463D01*
X140575533Y-109252878D01*
X140547356Y-109187712D01*
X140557271Y-109121140D01*
X140610900Y-109000476D01*
X142458366Y-104843677D01*
X142504310Y-104789551D01*
X142572224Y-104768857D01*
X142600185Y-104771707D01*
G37*
%TD.AperFunction*%
%TD*%
%TA.AperFunction,Conductor*%
%TO.N,Main 5V*%
G36*
X144942121Y-118770002D02*
G01*
X144988614Y-118823658D01*
X145000000Y-118876000D01*
X145000000Y-120428326D01*
X144979998Y-120496447D01*
X144972069Y-120503317D01*
X144998660Y-120561059D01*
X145000000Y-120579386D01*
X145000000Y-129371402D01*
X144979998Y-129439523D01*
X144926342Y-129486016D01*
X144871429Y-129497376D01*
X142304108Y-129444982D01*
X135115607Y-129298278D01*
X135047910Y-129276890D01*
X135041473Y-129272265D01*
X135034177Y-129266666D01*
X135034174Y-129266664D01*
X135027625Y-129261639D01*
X134893709Y-129206170D01*
X134750000Y-129187250D01*
X134606291Y-129206170D01*
X134472375Y-129261639D01*
X134465821Y-129266668D01*
X134465563Y-129266817D01*
X134399990Y-129283673D01*
X133076970Y-129256673D01*
X132873429Y-129252519D01*
X132805731Y-129231131D01*
X132760342Y-129176538D01*
X132750000Y-129126545D01*
X132750000Y-124500000D01*
X139694750Y-124500000D01*
X139713670Y-124643709D01*
X139769139Y-124777625D01*
X139857379Y-124892621D01*
X139972375Y-124980861D01*
X140106291Y-125036330D01*
X140250000Y-125055250D01*
X140393709Y-125036330D01*
X140527625Y-124980861D01*
X140642621Y-124892621D01*
X140730861Y-124777625D01*
X140786330Y-124643709D01*
X140805250Y-124500000D01*
X140786330Y-124356291D01*
X140730861Y-124222375D01*
X140642621Y-124107379D01*
X140527625Y-124019139D01*
X140393709Y-123963670D01*
X140250000Y-123944750D01*
X140106291Y-123963670D01*
X139972375Y-124019139D01*
X139857379Y-124107379D01*
X139769139Y-124222375D01*
X139713670Y-124356291D01*
X139694750Y-124500000D01*
X132750000Y-124500000D01*
X132750000Y-123837500D01*
X137782250Y-123837500D01*
X137801170Y-123981209D01*
X137856639Y-124115125D01*
X137944879Y-124230121D01*
X138059875Y-124318361D01*
X138193791Y-124373830D01*
X138337500Y-124392750D01*
X138481209Y-124373830D01*
X138615125Y-124318361D01*
X138730121Y-124230121D01*
X138818361Y-124115125D01*
X138873830Y-123981209D01*
X138892750Y-123837500D01*
X138873830Y-123693791D01*
X138818361Y-123559875D01*
X138730121Y-123444879D01*
X138615125Y-123356639D01*
X138481209Y-123301170D01*
X138337500Y-123282250D01*
X138193791Y-123301170D01*
X138059875Y-123356639D01*
X137944879Y-123444879D01*
X137856639Y-123559875D01*
X137801170Y-123693791D01*
X137782250Y-123837500D01*
X132750000Y-123837500D01*
X132750000Y-121441294D01*
X141923066Y-121441294D01*
X141932948Y-121453783D01*
X141964239Y-121474691D01*
X141974349Y-121480181D01*
X142150835Y-121556005D01*
X142161778Y-121559560D01*
X142349120Y-121601952D01*
X142360530Y-121603454D01*
X142552469Y-121610995D01*
X142563951Y-121610393D01*
X142754045Y-121582832D01*
X142765240Y-121580144D01*
X142947131Y-121518400D01*
X142957628Y-121513726D01*
X143068032Y-121451898D01*
X143077895Y-121441821D01*
X143074940Y-121434151D01*
X142512811Y-120872021D01*
X142498868Y-120864408D01*
X142497034Y-120864539D01*
X142490420Y-120868790D01*
X141929259Y-121429952D01*
X141923066Y-121441294D01*
X132750000Y-121441294D01*
X132750000Y-120476638D01*
X141388012Y-120476638D01*
X141400575Y-120668304D01*
X141402376Y-120679674D01*
X141449657Y-120865843D01*
X141453498Y-120876690D01*
X141533916Y-121051130D01*
X141539664Y-121061086D01*
X141545788Y-121069751D01*
X141556377Y-121078140D01*
X141569676Y-121071113D01*
X142127979Y-120512811D01*
X142134356Y-120501132D01*
X142864408Y-120501132D01*
X142864539Y-120502966D01*
X142868790Y-120509580D01*
X143430239Y-121071028D01*
X143444176Y-121078638D01*
X143464314Y-121077198D01*
X143533689Y-121092289D01*
X143542283Y-121097436D01*
X143659475Y-121174125D01*
X143817289Y-121232815D01*
X143824270Y-121233746D01*
X143824272Y-121233747D01*
X143869812Y-121239823D01*
X143984183Y-121255083D01*
X143991194Y-121254445D01*
X143991198Y-121254445D01*
X144144843Y-121240462D01*
X144151864Y-121239823D01*
X144158566Y-121237645D01*
X144158568Y-121237645D01*
X144305298Y-121189970D01*
X144305301Y-121189969D01*
X144311997Y-121187793D01*
X144456623Y-121101578D01*
X144461717Y-121096727D01*
X144461721Y-121096724D01*
X144573454Y-120990322D01*
X144573455Y-120990320D01*
X144578554Y-120985465D01*
X144594934Y-120960812D01*
X144667836Y-120851085D01*
X144671731Y-120845223D01*
X144731521Y-120687823D01*
X144749226Y-120561850D01*
X144776871Y-120500806D01*
X144753104Y-120463824D01*
X144748785Y-120442371D01*
X144737266Y-120339672D01*
X144737265Y-120339669D01*
X144736481Y-120332676D01*
X144681108Y-120173668D01*
X144591884Y-120030879D01*
X144583723Y-120022661D01*
X144478205Y-119916403D01*
X144478201Y-119916400D01*
X144473242Y-119911406D01*
X144331079Y-119821187D01*
X144172462Y-119764706D01*
X144165474Y-119763873D01*
X144165471Y-119763872D01*
X144072300Y-119752762D01*
X144005273Y-119744769D01*
X143998270Y-119745505D01*
X143998269Y-119745505D01*
X143952712Y-119750293D01*
X143837821Y-119762369D01*
X143831155Y-119764638D01*
X143831152Y-119764639D01*
X143685098Y-119814360D01*
X143685095Y-119814361D01*
X143678431Y-119816630D01*
X143672429Y-119820322D01*
X143672430Y-119820322D01*
X143539536Y-119902079D01*
X143464362Y-119920429D01*
X143446456Y-119919125D01*
X143432449Y-119926762D01*
X142872021Y-120487189D01*
X142864408Y-120501132D01*
X142134356Y-120501132D01*
X142135592Y-120498868D01*
X142135461Y-120497034D01*
X142131210Y-120490420D01*
X141568538Y-119927749D01*
X141556163Y-119920992D01*
X141550197Y-119925458D01*
X141474645Y-120069058D01*
X141470242Y-120079691D01*
X141413281Y-120263132D01*
X141410891Y-120274376D01*
X141388313Y-120465137D01*
X141388012Y-120476638D01*
X132750000Y-120476638D01*
X132750000Y-119558675D01*
X141922788Y-119558675D01*
X141926275Y-119567064D01*
X142487189Y-120127979D01*
X142501132Y-120135592D01*
X142502966Y-120135461D01*
X142509580Y-120131210D01*
X143070285Y-119570504D01*
X143077042Y-119558129D01*
X143071012Y-119550073D01*
X143010061Y-119511616D01*
X142999813Y-119506395D01*
X142821401Y-119435216D01*
X142810373Y-119431949D01*
X142621982Y-119394476D01*
X142610535Y-119393273D01*
X142418477Y-119390759D01*
X142406997Y-119391662D01*
X142217697Y-119424190D01*
X142206577Y-119427170D01*
X142026365Y-119493653D01*
X142015991Y-119498601D01*
X141932385Y-119548342D01*
X141922788Y-119558675D01*
X132750000Y-119558675D01*
X132750000Y-118876000D01*
X132770002Y-118807879D01*
X132823658Y-118761386D01*
X132876000Y-118750000D01*
X144874000Y-118750000D01*
X144942121Y-118770002D01*
G37*
%TD.AperFunction*%
%TD*%
M02*
