%TF.GenerationSoftware,KiCad,Pcbnew,(6.0.9)*%
%TF.CreationDate,2023-04-25T00:13:10-06:00*%
%TF.ProjectId,WeatherStation,57656174-6865-4725-9374-6174696f6e2e,rev?*%
%TF.SameCoordinates,Original*%
%TF.FileFunction,Legend,Top*%
%TF.FilePolarity,Positive*%
%FSLAX46Y46*%
G04 Gerber Fmt 4.6, Leading zero omitted, Abs format (unit mm)*
G04 Created by KiCad (PCBNEW (6.0.9)) date 2023-04-25 00:13:10*
%MOMM*%
%LPD*%
G01*
G04 APERTURE LIST*
G04 Aperture macros list*
%AMRoundRect*
0 Rectangle with rounded corners*
0 $1 Rounding radius*
0 $2 $3 $4 $5 $6 $7 $8 $9 X,Y pos of 4 corners*
0 Add a 4 corners polygon primitive as box body*
4,1,4,$2,$3,$4,$5,$6,$7,$8,$9,$2,$3,0*
0 Add four circle primitives for the rounded corners*
1,1,$1+$1,$2,$3*
1,1,$1+$1,$4,$5*
1,1,$1+$1,$6,$7*
1,1,$1+$1,$8,$9*
0 Add four rect primitives between the rounded corners*
20,1,$1+$1,$2,$3,$4,$5,0*
20,1,$1+$1,$4,$5,$6,$7,0*
20,1,$1+$1,$6,$7,$8,$9,0*
20,1,$1+$1,$8,$9,$2,$3,0*%
G04 Aperture macros list end*
%ADD10C,0.150000*%
%ADD11C,0.200000*%
%ADD12C,0.080430*%
%ADD13C,0.120000*%
%ADD14C,0.127000*%
%ADD15C,0.010000*%
%ADD16R,1.100000X1.100000*%
%ADD17C,2.000000*%
%ADD18RoundRect,0.237500X-0.250000X-0.237500X0.250000X-0.237500X0.250000X0.237500X-0.250000X0.237500X0*%
%ADD19RoundRect,0.237500X-0.300000X-0.237500X0.300000X-0.237500X0.300000X0.237500X-0.300000X0.237500X0*%
%ADD20C,1.600000*%
%ADD21R,1.300000X1.300000*%
%ADD22C,1.300000*%
%ADD23RoundRect,0.237500X-0.237500X0.300000X-0.237500X-0.300000X0.237500X-0.300000X0.237500X0.300000X0*%
%ADD24RoundRect,0.237500X0.250000X0.237500X-0.250000X0.237500X-0.250000X-0.237500X0.250000X-0.237500X0*%
%ADD25RoundRect,0.250000X0.337500X0.475000X-0.337500X0.475000X-0.337500X-0.475000X0.337500X-0.475000X0*%
%ADD26RoundRect,0.237500X0.237500X-0.300000X0.237500X0.300000X-0.237500X0.300000X-0.237500X-0.300000X0*%
%ADD27RoundRect,0.237500X0.287500X0.237500X-0.287500X0.237500X-0.287500X-0.237500X0.287500X-0.237500X0*%
%ADD28RoundRect,0.006000X0.094000X-0.319000X0.094000X0.319000X-0.094000X0.319000X-0.094000X-0.319000X0*%
%ADD29R,0.940000X0.300000*%
%ADD30RoundRect,0.237500X0.237500X-0.250000X0.237500X0.250000X-0.237500X0.250000X-0.237500X-0.250000X0*%
%ADD31C,1.200000*%
%ADD32RoundRect,0.155000X-0.155000X0.212500X-0.155000X-0.212500X0.155000X-0.212500X0.155000X0.212500X0*%
%ADD33R,1.700000X1.700000*%
%ADD34O,1.700000X1.700000*%
%ADD35RoundRect,0.027000X-0.218000X-0.198000X0.218000X-0.198000X0.218000X0.198000X-0.218000X0.198000X0*%
%ADD36RoundRect,0.025600X-0.454400X-0.134400X0.454400X-0.134400X0.454400X0.134400X-0.454400X0.134400X0*%
%ADD37RoundRect,0.025600X0.454400X0.134400X-0.454400X0.134400X-0.454400X-0.134400X0.454400X-0.134400X0*%
%ADD38R,2.200000X3.000000*%
%ADD39R,1.980000X3.960000*%
%ADD40O,1.980000X3.960000*%
%ADD41R,0.400000X1.500000*%
%ADD42RoundRect,0.237500X0.237500X-0.287500X0.237500X0.287500X-0.237500X0.287500X-0.237500X-0.287500X0*%
%ADD43RoundRect,0.250000X-0.337500X-0.475000X0.337500X-0.475000X0.337500X0.475000X-0.337500X0.475000X0*%
%ADD44RoundRect,0.250000X-0.625000X0.400000X-0.625000X-0.400000X0.625000X-0.400000X0.625000X0.400000X0*%
%ADD45R,0.220000X0.760000*%
%ADD46R,1.500000X0.900000*%
%ADD47RoundRect,0.237500X0.300000X0.237500X-0.300000X0.237500X-0.300000X-0.237500X0.300000X-0.237500X0*%
%ADD48R,0.400000X0.800000*%
%ADD49R,0.800000X0.400000*%
%ADD50R,1.200000X1.200000*%
%ADD51R,0.800000X0.800000*%
%ADD52RoundRect,0.237500X-0.237500X0.250000X-0.237500X-0.250000X0.237500X-0.250000X0.237500X0.250000X0*%
G04 APERTURE END LIST*
D10*
X176419047Y-114061904D02*
X176914285Y-114061904D01*
X176647619Y-114366666D01*
X176761904Y-114366666D01*
X176838095Y-114404761D01*
X176876190Y-114442857D01*
X176914285Y-114519047D01*
X176914285Y-114709523D01*
X176876190Y-114785714D01*
X176838095Y-114823809D01*
X176761904Y-114861904D01*
X176533333Y-114861904D01*
X176457142Y-114823809D01*
X176419047Y-114785714D01*
X177257142Y-114785714D02*
X177295238Y-114823809D01*
X177257142Y-114861904D01*
X177219047Y-114823809D01*
X177257142Y-114785714D01*
X177257142Y-114861904D01*
X177561904Y-114061904D02*
X178057142Y-114061904D01*
X177790476Y-114366666D01*
X177904761Y-114366666D01*
X177980952Y-114404761D01*
X178019047Y-114442857D01*
X178057142Y-114519047D01*
X178057142Y-114709523D01*
X178019047Y-114785714D01*
X177980952Y-114823809D01*
X177904761Y-114861904D01*
X177676190Y-114861904D01*
X177600000Y-114823809D01*
X177561904Y-114785714D01*
X178285714Y-114061904D02*
X178552380Y-114861904D01*
X178819047Y-114061904D01*
X182333333Y-114011904D02*
X182485714Y-114011904D01*
X182561904Y-114050000D01*
X182638095Y-114126190D01*
X182676190Y-114278571D01*
X182676190Y-114545238D01*
X182638095Y-114697619D01*
X182561904Y-114773809D01*
X182485714Y-114811904D01*
X182333333Y-114811904D01*
X182257142Y-114773809D01*
X182180952Y-114697619D01*
X182142857Y-114545238D01*
X182142857Y-114278571D01*
X182180952Y-114126190D01*
X182257142Y-114050000D01*
X182333333Y-114011904D01*
X183361904Y-114278571D02*
X183361904Y-114811904D01*
X183019047Y-114278571D02*
X183019047Y-114697619D01*
X183057142Y-114773809D01*
X183133333Y-114811904D01*
X183247619Y-114811904D01*
X183323809Y-114773809D01*
X183361904Y-114735714D01*
X183628571Y-114278571D02*
X183933333Y-114278571D01*
X183742857Y-114011904D02*
X183742857Y-114697619D01*
X183780952Y-114773809D01*
X183857142Y-114811904D01*
X183933333Y-114811904D01*
X179840476Y-114050000D02*
X179764285Y-114011904D01*
X179650000Y-114011904D01*
X179535714Y-114050000D01*
X179459523Y-114126190D01*
X179421428Y-114202380D01*
X179383333Y-114354761D01*
X179383333Y-114469047D01*
X179421428Y-114621428D01*
X179459523Y-114697619D01*
X179535714Y-114773809D01*
X179650000Y-114811904D01*
X179726190Y-114811904D01*
X179840476Y-114773809D01*
X179878571Y-114735714D01*
X179878571Y-114469047D01*
X179726190Y-114469047D01*
X180221428Y-114811904D02*
X180221428Y-114011904D01*
X180678571Y-114811904D01*
X180678571Y-114011904D01*
X181059523Y-114811904D02*
X181059523Y-114011904D01*
X181250000Y-114011904D01*
X181364285Y-114050000D01*
X181440476Y-114126190D01*
X181478571Y-114202380D01*
X181516666Y-114354761D01*
X181516666Y-114469047D01*
X181478571Y-114621428D01*
X181440476Y-114697619D01*
X181364285Y-114773809D01*
X181250000Y-114811904D01*
X181059523Y-114811904D01*
X170821428Y-136411904D02*
X171278571Y-136411904D01*
X171050000Y-137211904D02*
X171050000Y-136411904D01*
X172002380Y-137135714D02*
X171964285Y-137173809D01*
X171850000Y-137211904D01*
X171773809Y-137211904D01*
X171659523Y-137173809D01*
X171583333Y-137097619D01*
X171545238Y-137021428D01*
X171507142Y-136869047D01*
X171507142Y-136754761D01*
X171545238Y-136602380D01*
X171583333Y-136526190D01*
X171659523Y-136450000D01*
X171773809Y-136411904D01*
X171850000Y-136411904D01*
X171964285Y-136450000D01*
X172002380Y-136488095D01*
X172345238Y-137211904D02*
X172345238Y-136411904D01*
X172802380Y-137211904D02*
X172459523Y-136754761D01*
X172802380Y-136411904D02*
X172345238Y-136869047D01*
X168152380Y-136411904D02*
X168609523Y-136411904D01*
X168380952Y-137211904D02*
X168380952Y-136411904D01*
X168876190Y-137211904D02*
X168876190Y-136411904D01*
X169066666Y-136411904D01*
X169180952Y-136450000D01*
X169257142Y-136526190D01*
X169295238Y-136602380D01*
X169333333Y-136754761D01*
X169333333Y-136869047D01*
X169295238Y-137021428D01*
X169257142Y-137097619D01*
X169180952Y-137173809D01*
X169066666Y-137211904D01*
X168876190Y-137211904D01*
X169828571Y-136411904D02*
X169980952Y-136411904D01*
X170057142Y-136450000D01*
X170133333Y-136526190D01*
X170171428Y-136678571D01*
X170171428Y-136945238D01*
X170133333Y-137097619D01*
X170057142Y-137173809D01*
X169980952Y-137211904D01*
X169828571Y-137211904D01*
X169752380Y-137173809D01*
X169676190Y-137097619D01*
X169638095Y-136945238D01*
X169638095Y-136678571D01*
X169676190Y-136526190D01*
X169752380Y-136450000D01*
X169828571Y-136411904D01*
X165830952Y-136411904D02*
X166288095Y-136411904D01*
X166059523Y-137211904D02*
X166059523Y-136411904D01*
X166554761Y-137211904D02*
X166554761Y-136411904D01*
X166745238Y-136411904D01*
X166859523Y-136450000D01*
X166935714Y-136526190D01*
X166973809Y-136602380D01*
X167011904Y-136754761D01*
X167011904Y-136869047D01*
X166973809Y-137021428D01*
X166935714Y-137097619D01*
X166859523Y-137173809D01*
X166745238Y-137211904D01*
X166554761Y-137211904D01*
X167354761Y-137211904D02*
X167354761Y-136411904D01*
X162733333Y-136411904D02*
X163190476Y-136411904D01*
X162961904Y-137211904D02*
X162961904Y-136411904D01*
X163457142Y-137211904D02*
X163457142Y-136411904D01*
X163723809Y-136983333D01*
X163990476Y-136411904D01*
X163990476Y-137211904D01*
X164333333Y-137173809D02*
X164447619Y-137211904D01*
X164638095Y-137211904D01*
X164714285Y-137173809D01*
X164752380Y-137135714D01*
X164790476Y-137059523D01*
X164790476Y-136983333D01*
X164752380Y-136907142D01*
X164714285Y-136869047D01*
X164638095Y-136830952D01*
X164485714Y-136792857D01*
X164409523Y-136754761D01*
X164371428Y-136716666D01*
X164333333Y-136640476D01*
X164333333Y-136564285D01*
X164371428Y-136488095D01*
X164409523Y-136450000D01*
X164485714Y-136411904D01*
X164676190Y-136411904D01*
X164790476Y-136450000D01*
X157119047Y-136411904D02*
X157614285Y-136411904D01*
X157347619Y-136716666D01*
X157461904Y-136716666D01*
X157538095Y-136754761D01*
X157576190Y-136792857D01*
X157614285Y-136869047D01*
X157614285Y-137059523D01*
X157576190Y-137135714D01*
X157538095Y-137173809D01*
X157461904Y-137211904D01*
X157233333Y-137211904D01*
X157157142Y-137173809D01*
X157119047Y-137135714D01*
X157957142Y-137135714D02*
X157995238Y-137173809D01*
X157957142Y-137211904D01*
X157919047Y-137173809D01*
X157957142Y-137135714D01*
X157957142Y-137211904D01*
X158261904Y-136411904D02*
X158757142Y-136411904D01*
X158490476Y-136716666D01*
X158604761Y-136716666D01*
X158680952Y-136754761D01*
X158719047Y-136792857D01*
X158757142Y-136869047D01*
X158757142Y-137059523D01*
X158719047Y-137135714D01*
X158680952Y-137173809D01*
X158604761Y-137211904D01*
X158376190Y-137211904D01*
X158300000Y-137173809D01*
X158261904Y-137135714D01*
X158985714Y-136411904D02*
X159252380Y-137211904D01*
X159519047Y-136411904D01*
X155516666Y-137211904D02*
X155250000Y-136830952D01*
X155059523Y-137211904D02*
X155059523Y-136411904D01*
X155364285Y-136411904D01*
X155440476Y-136450000D01*
X155478571Y-136488095D01*
X155516666Y-136564285D01*
X155516666Y-136678571D01*
X155478571Y-136754761D01*
X155440476Y-136792857D01*
X155364285Y-136830952D01*
X155059523Y-136830952D01*
X155783333Y-136411904D02*
X156316666Y-137211904D01*
X156316666Y-136411904D02*
X155783333Y-137211904D01*
X152340476Y-136411904D02*
X152797619Y-136411904D01*
X152569047Y-137211904D02*
X152569047Y-136411904D01*
X152988095Y-136411904D02*
X153521428Y-137211904D01*
X153521428Y-136411904D02*
X152988095Y-137211904D01*
X149590476Y-136450000D02*
X149514285Y-136411904D01*
X149400000Y-136411904D01*
X149285714Y-136450000D01*
X149209523Y-136526190D01*
X149171428Y-136602380D01*
X149133333Y-136754761D01*
X149133333Y-136869047D01*
X149171428Y-137021428D01*
X149209523Y-137097619D01*
X149285714Y-137173809D01*
X149400000Y-137211904D01*
X149476190Y-137211904D01*
X149590476Y-137173809D01*
X149628571Y-137135714D01*
X149628571Y-136869047D01*
X149476190Y-136869047D01*
X149971428Y-137211904D02*
X149971428Y-136411904D01*
X150428571Y-137211904D01*
X150428571Y-136411904D01*
X150809523Y-137211904D02*
X150809523Y-136411904D01*
X151000000Y-136411904D01*
X151114285Y-136450000D01*
X151190476Y-136526190D01*
X151228571Y-136602380D01*
X151266666Y-136754761D01*
X151266666Y-136869047D01*
X151228571Y-137021428D01*
X151190476Y-137097619D01*
X151114285Y-137173809D01*
X151000000Y-137211904D01*
X150809523Y-137211904D01*
X159190476Y-115100000D02*
X159114285Y-115061904D01*
X159000000Y-115061904D01*
X158885714Y-115100000D01*
X158809523Y-115176190D01*
X158771428Y-115252380D01*
X158733333Y-115404761D01*
X158733333Y-115519047D01*
X158771428Y-115671428D01*
X158809523Y-115747619D01*
X158885714Y-115823809D01*
X159000000Y-115861904D01*
X159076190Y-115861904D01*
X159190476Y-115823809D01*
X159228571Y-115785714D01*
X159228571Y-115519047D01*
X159076190Y-115519047D01*
X159571428Y-115861904D02*
X159571428Y-115061904D01*
X160028571Y-115861904D01*
X160028571Y-115061904D01*
X160409523Y-115861904D02*
X160409523Y-115061904D01*
X160600000Y-115061904D01*
X160714285Y-115100000D01*
X160790476Y-115176190D01*
X160828571Y-115252380D01*
X160866666Y-115404761D01*
X160866666Y-115519047D01*
X160828571Y-115671428D01*
X160790476Y-115747619D01*
X160714285Y-115823809D01*
X160600000Y-115861904D01*
X160409523Y-115861904D01*
X162154761Y-115811904D02*
X161697619Y-115811904D01*
X161926190Y-115811904D02*
X161926190Y-115011904D01*
X161850000Y-115126190D01*
X161773809Y-115202380D01*
X161697619Y-115240476D01*
X162459523Y-115088095D02*
X162497619Y-115050000D01*
X162573809Y-115011904D01*
X162764285Y-115011904D01*
X162840476Y-115050000D01*
X162878571Y-115088095D01*
X162916666Y-115164285D01*
X162916666Y-115240476D01*
X162878571Y-115354761D01*
X162421428Y-115811904D01*
X162916666Y-115811904D01*
X163145238Y-115011904D02*
X163411904Y-115811904D01*
X163678571Y-115011904D01*
X164733333Y-115011904D02*
X164885714Y-115011904D01*
X164961904Y-115050000D01*
X165038095Y-115126190D01*
X165076190Y-115278571D01*
X165076190Y-115545238D01*
X165038095Y-115697619D01*
X164961904Y-115773809D01*
X164885714Y-115811904D01*
X164733333Y-115811904D01*
X164657142Y-115773809D01*
X164580952Y-115697619D01*
X164542857Y-115545238D01*
X164542857Y-115278571D01*
X164580952Y-115126190D01*
X164657142Y-115050000D01*
X164733333Y-115011904D01*
X165761904Y-115278571D02*
X165761904Y-115811904D01*
X165419047Y-115278571D02*
X165419047Y-115697619D01*
X165457142Y-115773809D01*
X165533333Y-115811904D01*
X165647619Y-115811904D01*
X165723809Y-115773809D01*
X165761904Y-115735714D01*
X166028571Y-115278571D02*
X166333333Y-115278571D01*
X166142857Y-115011904D02*
X166142857Y-115697619D01*
X166180952Y-115773809D01*
X166257142Y-115811904D01*
X166333333Y-115811904D01*
X169283333Y-115011904D02*
X169435714Y-115011904D01*
X169511904Y-115050000D01*
X169588095Y-115126190D01*
X169626190Y-115278571D01*
X169626190Y-115545238D01*
X169588095Y-115697619D01*
X169511904Y-115773809D01*
X169435714Y-115811904D01*
X169283333Y-115811904D01*
X169207142Y-115773809D01*
X169130952Y-115697619D01*
X169092857Y-115545238D01*
X169092857Y-115278571D01*
X169130952Y-115126190D01*
X169207142Y-115050000D01*
X169283333Y-115011904D01*
X170311904Y-115278571D02*
X170311904Y-115811904D01*
X169969047Y-115278571D02*
X169969047Y-115697619D01*
X170007142Y-115773809D01*
X170083333Y-115811904D01*
X170197619Y-115811904D01*
X170273809Y-115773809D01*
X170311904Y-115735714D01*
X170578571Y-115278571D02*
X170883333Y-115278571D01*
X170692857Y-115011904D02*
X170692857Y-115697619D01*
X170730952Y-115773809D01*
X170807142Y-115811904D01*
X170883333Y-115811904D01*
X172190476Y-115050000D02*
X172114285Y-115011904D01*
X172000000Y-115011904D01*
X171885714Y-115050000D01*
X171809523Y-115126190D01*
X171771428Y-115202380D01*
X171733333Y-115354761D01*
X171733333Y-115469047D01*
X171771428Y-115621428D01*
X171809523Y-115697619D01*
X171885714Y-115773809D01*
X172000000Y-115811904D01*
X172076190Y-115811904D01*
X172190476Y-115773809D01*
X172228571Y-115735714D01*
X172228571Y-115469047D01*
X172076190Y-115469047D01*
X172571428Y-115811904D02*
X172571428Y-115011904D01*
X173028571Y-115811904D01*
X173028571Y-115011904D01*
X173409523Y-115811904D02*
X173409523Y-115011904D01*
X173600000Y-115011904D01*
X173714285Y-115050000D01*
X173790476Y-115126190D01*
X173828571Y-115202380D01*
X173866666Y-115354761D01*
X173866666Y-115469047D01*
X173828571Y-115621428D01*
X173790476Y-115697619D01*
X173714285Y-115773809D01*
X173600000Y-115811904D01*
X173409523Y-115811904D01*
X171466666Y-132361904D02*
X171200000Y-131980952D01*
X171009523Y-132361904D02*
X171009523Y-131561904D01*
X171314285Y-131561904D01*
X171390476Y-131600000D01*
X171428571Y-131638095D01*
X171466666Y-131714285D01*
X171466666Y-131828571D01*
X171428571Y-131904761D01*
X171390476Y-131942857D01*
X171314285Y-131980952D01*
X171009523Y-131980952D01*
X171733333Y-131561904D02*
X172266666Y-132361904D01*
X172266666Y-131561904D02*
X171733333Y-132361904D01*
X168797619Y-131561904D02*
X168416666Y-131561904D01*
X168378571Y-131942857D01*
X168416666Y-131904761D01*
X168492857Y-131866666D01*
X168683333Y-131866666D01*
X168759523Y-131904761D01*
X168797619Y-131942857D01*
X168835714Y-132019047D01*
X168835714Y-132209523D01*
X168797619Y-132285714D01*
X168759523Y-132323809D01*
X168683333Y-132361904D01*
X168492857Y-132361904D01*
X168416666Y-132323809D01*
X168378571Y-132285714D01*
X169064285Y-131561904D02*
X169330952Y-132361904D01*
X169597619Y-131561904D01*
X165740476Y-131600000D02*
X165664285Y-131561904D01*
X165550000Y-131561904D01*
X165435714Y-131600000D01*
X165359523Y-131676190D01*
X165321428Y-131752380D01*
X165283333Y-131904761D01*
X165283333Y-132019047D01*
X165321428Y-132171428D01*
X165359523Y-132247619D01*
X165435714Y-132323809D01*
X165550000Y-132361904D01*
X165626190Y-132361904D01*
X165740476Y-132323809D01*
X165778571Y-132285714D01*
X165778571Y-132019047D01*
X165626190Y-132019047D01*
X166121428Y-132361904D02*
X166121428Y-131561904D01*
X166578571Y-132361904D01*
X166578571Y-131561904D01*
X166959523Y-132361904D02*
X166959523Y-131561904D01*
X167150000Y-131561904D01*
X167264285Y-131600000D01*
X167340476Y-131676190D01*
X167378571Y-131752380D01*
X167416666Y-131904761D01*
X167416666Y-132019047D01*
X167378571Y-132171428D01*
X167340476Y-132247619D01*
X167264285Y-132323809D01*
X167150000Y-132361904D01*
X166959523Y-132361904D01*
X170971428Y-125061904D02*
X171428571Y-125061904D01*
X171200000Y-125861904D02*
X171200000Y-125061904D01*
X171695238Y-125861904D02*
X171695238Y-125328571D01*
X171695238Y-125480952D02*
X171733333Y-125404761D01*
X171771428Y-125366666D01*
X171847619Y-125328571D01*
X171923809Y-125328571D01*
X172190476Y-125861904D02*
X172190476Y-125328571D01*
X172190476Y-125061904D02*
X172152380Y-125100000D01*
X172190476Y-125138095D01*
X172228571Y-125100000D01*
X172190476Y-125061904D01*
X172190476Y-125138095D01*
X172914285Y-125328571D02*
X172914285Y-125976190D01*
X172876190Y-126052380D01*
X172838095Y-126090476D01*
X172761904Y-126128571D01*
X172647619Y-126128571D01*
X172571428Y-126090476D01*
X172914285Y-125823809D02*
X172838095Y-125861904D01*
X172685714Y-125861904D01*
X172609523Y-125823809D01*
X172571428Y-125785714D01*
X172533333Y-125709523D01*
X172533333Y-125480952D01*
X172571428Y-125404761D01*
X172609523Y-125366666D01*
X172685714Y-125328571D01*
X172838095Y-125328571D01*
X172914285Y-125366666D01*
X167961904Y-125442857D02*
X168228571Y-125442857D01*
X168342857Y-125861904D02*
X167961904Y-125861904D01*
X167961904Y-125061904D01*
X168342857Y-125061904D01*
X169028571Y-125823809D02*
X168952380Y-125861904D01*
X168800000Y-125861904D01*
X168723809Y-125823809D01*
X168685714Y-125785714D01*
X168647619Y-125709523D01*
X168647619Y-125480952D01*
X168685714Y-125404761D01*
X168723809Y-125366666D01*
X168800000Y-125328571D01*
X168952380Y-125328571D01*
X169028571Y-125366666D01*
X169371428Y-125861904D02*
X169371428Y-125061904D01*
X169714285Y-125861904D02*
X169714285Y-125442857D01*
X169676190Y-125366666D01*
X169600000Y-125328571D01*
X169485714Y-125328571D01*
X169409523Y-125366666D01*
X169371428Y-125404761D01*
X170209523Y-125861904D02*
X170133333Y-125823809D01*
X170095238Y-125785714D01*
X170057142Y-125709523D01*
X170057142Y-125480952D01*
X170095238Y-125404761D01*
X170133333Y-125366666D01*
X170209523Y-125328571D01*
X170323809Y-125328571D01*
X170400000Y-125366666D01*
X170438095Y-125404761D01*
X170476190Y-125480952D01*
X170476190Y-125709523D01*
X170438095Y-125785714D01*
X170400000Y-125823809D01*
X170323809Y-125861904D01*
X170209523Y-125861904D01*
X165690476Y-125100000D02*
X165614285Y-125061904D01*
X165500000Y-125061904D01*
X165385714Y-125100000D01*
X165309523Y-125176190D01*
X165271428Y-125252380D01*
X165233333Y-125404761D01*
X165233333Y-125519047D01*
X165271428Y-125671428D01*
X165309523Y-125747619D01*
X165385714Y-125823809D01*
X165500000Y-125861904D01*
X165576190Y-125861904D01*
X165690476Y-125823809D01*
X165728571Y-125785714D01*
X165728571Y-125519047D01*
X165576190Y-125519047D01*
X166071428Y-125861904D02*
X166071428Y-125061904D01*
X166528571Y-125861904D01*
X166528571Y-125061904D01*
X166909523Y-125861904D02*
X166909523Y-125061904D01*
X167100000Y-125061904D01*
X167214285Y-125100000D01*
X167290476Y-125176190D01*
X167328571Y-125252380D01*
X167366666Y-125404761D01*
X167366666Y-125519047D01*
X167328571Y-125671428D01*
X167290476Y-125747619D01*
X167214285Y-125823809D01*
X167100000Y-125861904D01*
X166909523Y-125861904D01*
X163547619Y-125061904D02*
X163166666Y-125061904D01*
X163128571Y-125442857D01*
X163166666Y-125404761D01*
X163242857Y-125366666D01*
X163433333Y-125366666D01*
X163509523Y-125404761D01*
X163547619Y-125442857D01*
X163585714Y-125519047D01*
X163585714Y-125709523D01*
X163547619Y-125785714D01*
X163509523Y-125823809D01*
X163433333Y-125861904D01*
X163242857Y-125861904D01*
X163166666Y-125823809D01*
X163128571Y-125785714D01*
X163814285Y-125061904D02*
X164080952Y-125861904D01*
X164347619Y-125061904D01*
D11*
X143985714Y-81126619D02*
X143461904Y-81126619D01*
X143461904Y-80026619D01*
X144509523Y-81126619D02*
X144404761Y-81074238D01*
X144352380Y-81021857D01*
X144300000Y-80917095D01*
X144300000Y-80602809D01*
X144352380Y-80498047D01*
X144404761Y-80445666D01*
X144509523Y-80393285D01*
X144666666Y-80393285D01*
X144771428Y-80445666D01*
X144823809Y-80498047D01*
X144876190Y-80602809D01*
X144876190Y-80917095D01*
X144823809Y-81021857D01*
X144771428Y-81074238D01*
X144666666Y-81126619D01*
X144509523Y-81126619D01*
X145819047Y-80393285D02*
X145819047Y-81283761D01*
X145766666Y-81388523D01*
X145714285Y-81440904D01*
X145609523Y-81493285D01*
X145452380Y-81493285D01*
X145347619Y-81440904D01*
X145819047Y-81074238D02*
X145714285Y-81126619D01*
X145504761Y-81126619D01*
X145400000Y-81074238D01*
X145347619Y-81021857D01*
X145295238Y-80917095D01*
X145295238Y-80602809D01*
X145347619Y-80498047D01*
X145400000Y-80445666D01*
X145504761Y-80393285D01*
X145714285Y-80393285D01*
X145819047Y-80445666D01*
X146814285Y-81126619D02*
X146814285Y-80550428D01*
X146761904Y-80445666D01*
X146657142Y-80393285D01*
X146447619Y-80393285D01*
X146342857Y-80445666D01*
X146814285Y-81074238D02*
X146709523Y-81126619D01*
X146447619Y-81126619D01*
X146342857Y-81074238D01*
X146290476Y-80969476D01*
X146290476Y-80864714D01*
X146342857Y-80759952D01*
X146447619Y-80707571D01*
X146709523Y-80707571D01*
X146814285Y-80655190D01*
X147338095Y-80393285D02*
X147338095Y-81126619D01*
X147338095Y-80498047D02*
X147390476Y-80445666D01*
X147495238Y-80393285D01*
X147652380Y-80393285D01*
X147757142Y-80445666D01*
X147809523Y-80550428D01*
X147809523Y-81126619D01*
X149119047Y-81074238D02*
X149276190Y-81126619D01*
X149538095Y-81126619D01*
X149642857Y-81074238D01*
X149695238Y-81021857D01*
X149747619Y-80917095D01*
X149747619Y-80812333D01*
X149695238Y-80707571D01*
X149642857Y-80655190D01*
X149538095Y-80602809D01*
X149328571Y-80550428D01*
X149223809Y-80498047D01*
X149171428Y-80445666D01*
X149119047Y-80340904D01*
X149119047Y-80236142D01*
X149171428Y-80131380D01*
X149223809Y-80079000D01*
X149328571Y-80026619D01*
X149590476Y-80026619D01*
X149747619Y-80079000D01*
X150061904Y-80393285D02*
X150480952Y-80393285D01*
X150219047Y-80026619D02*
X150219047Y-80969476D01*
X150271428Y-81074238D01*
X150376190Y-81126619D01*
X150480952Y-81126619D01*
X150847619Y-81126619D02*
X150847619Y-80393285D01*
X150847619Y-80602809D02*
X150900000Y-80498047D01*
X150952380Y-80445666D01*
X151057142Y-80393285D01*
X151161904Y-80393285D01*
X152000000Y-81126619D02*
X152000000Y-80550428D01*
X151947619Y-80445666D01*
X151842857Y-80393285D01*
X151633333Y-80393285D01*
X151528571Y-80445666D01*
X152000000Y-81074238D02*
X151895238Y-81126619D01*
X151633333Y-81126619D01*
X151528571Y-81074238D01*
X151476190Y-80969476D01*
X151476190Y-80864714D01*
X151528571Y-80759952D01*
X151633333Y-80707571D01*
X151895238Y-80707571D01*
X152000000Y-80655190D01*
X152523809Y-80393285D02*
X152523809Y-81126619D01*
X152523809Y-80498047D02*
X152576190Y-80445666D01*
X152680952Y-80393285D01*
X152838095Y-80393285D01*
X152942857Y-80445666D01*
X152995238Y-80550428D01*
X152995238Y-81126619D01*
X153990476Y-81074238D02*
X153885714Y-81126619D01*
X153676190Y-81126619D01*
X153571428Y-81074238D01*
X153519047Y-81021857D01*
X153466666Y-80917095D01*
X153466666Y-80602809D01*
X153519047Y-80498047D01*
X153571428Y-80445666D01*
X153676190Y-80393285D01*
X153885714Y-80393285D01*
X153990476Y-80445666D01*
X139795238Y-81797619D02*
X139795238Y-82688095D01*
X139847619Y-82792857D01*
X139900000Y-82845238D01*
X140004761Y-82897619D01*
X140214285Y-82897619D01*
X140319047Y-82845238D01*
X140371428Y-82792857D01*
X140423809Y-82688095D01*
X140423809Y-81797619D01*
X140790476Y-82164285D02*
X141209523Y-82164285D01*
X140947619Y-81797619D02*
X140947619Y-82740476D01*
X141000000Y-82845238D01*
X141104761Y-82897619D01*
X141209523Y-82897619D01*
X142047619Y-82897619D02*
X142047619Y-82321428D01*
X141995238Y-82216666D01*
X141890476Y-82164285D01*
X141680952Y-82164285D01*
X141576190Y-82216666D01*
X142047619Y-82845238D02*
X141942857Y-82897619D01*
X141680952Y-82897619D01*
X141576190Y-82845238D01*
X141523809Y-82740476D01*
X141523809Y-82635714D01*
X141576190Y-82530952D01*
X141680952Y-82478571D01*
X141942857Y-82478571D01*
X142047619Y-82426190D01*
X142571428Y-82897619D02*
X142571428Y-81797619D01*
X143042857Y-82897619D02*
X143042857Y-82321428D01*
X142990476Y-82216666D01*
X142885714Y-82164285D01*
X142728571Y-82164285D01*
X142623809Y-82216666D01*
X142571428Y-82269047D01*
X144247619Y-81797619D02*
X144614285Y-82897619D01*
X144980952Y-81797619D01*
X145819047Y-82897619D02*
X145819047Y-82321428D01*
X145766666Y-82216666D01*
X145661904Y-82164285D01*
X145452380Y-82164285D01*
X145347619Y-82216666D01*
X145819047Y-82845238D02*
X145714285Y-82897619D01*
X145452380Y-82897619D01*
X145347619Y-82845238D01*
X145295238Y-82740476D01*
X145295238Y-82635714D01*
X145347619Y-82530952D01*
X145452380Y-82478571D01*
X145714285Y-82478571D01*
X145819047Y-82426190D01*
X146500000Y-82897619D02*
X146395238Y-82845238D01*
X146342857Y-82740476D01*
X146342857Y-81797619D01*
X147076190Y-82897619D02*
X146971428Y-82845238D01*
X146919047Y-82740476D01*
X146919047Y-81797619D01*
X147914285Y-82845238D02*
X147809523Y-82897619D01*
X147600000Y-82897619D01*
X147495238Y-82845238D01*
X147442857Y-82740476D01*
X147442857Y-82321428D01*
X147495238Y-82216666D01*
X147600000Y-82164285D01*
X147809523Y-82164285D01*
X147914285Y-82216666D01*
X147966666Y-82321428D01*
X147966666Y-82426190D01*
X147442857Y-82530952D01*
X148333333Y-82164285D02*
X148595238Y-82897619D01*
X148857142Y-82164285D02*
X148595238Y-82897619D01*
X148490476Y-83159523D01*
X148438095Y-83211904D01*
X148333333Y-83264285D01*
X150114285Y-81797619D02*
X150114285Y-82688095D01*
X150166666Y-82792857D01*
X150219047Y-82845238D01*
X150323809Y-82897619D01*
X150533333Y-82897619D01*
X150638095Y-82845238D01*
X150690476Y-82792857D01*
X150742857Y-82688095D01*
X150742857Y-81797619D01*
X151266666Y-82164285D02*
X151266666Y-82897619D01*
X151266666Y-82269047D02*
X151319047Y-82216666D01*
X151423809Y-82164285D01*
X151580952Y-82164285D01*
X151685714Y-82216666D01*
X151738095Y-82321428D01*
X151738095Y-82897619D01*
X152261904Y-82897619D02*
X152261904Y-82164285D01*
X152261904Y-81797619D02*
X152209523Y-81850000D01*
X152261904Y-81902380D01*
X152314285Y-81850000D01*
X152261904Y-81797619D01*
X152261904Y-81902380D01*
X152680952Y-82164285D02*
X152942857Y-82897619D01*
X153204761Y-82164285D01*
X154042857Y-82845238D02*
X153938095Y-82897619D01*
X153728571Y-82897619D01*
X153623809Y-82845238D01*
X153571428Y-82740476D01*
X153571428Y-82321428D01*
X153623809Y-82216666D01*
X153728571Y-82164285D01*
X153938095Y-82164285D01*
X154042857Y-82216666D01*
X154095238Y-82321428D01*
X154095238Y-82426190D01*
X153571428Y-82530952D01*
X154566666Y-82897619D02*
X154566666Y-82164285D01*
X154566666Y-82373809D02*
X154619047Y-82269047D01*
X154671428Y-82216666D01*
X154776190Y-82164285D01*
X154880952Y-82164285D01*
X155195238Y-82845238D02*
X155300000Y-82897619D01*
X155509523Y-82897619D01*
X155614285Y-82845238D01*
X155666666Y-82740476D01*
X155666666Y-82688095D01*
X155614285Y-82583333D01*
X155509523Y-82530952D01*
X155352380Y-82530952D01*
X155247619Y-82478571D01*
X155195238Y-82373809D01*
X155195238Y-82321428D01*
X155247619Y-82216666D01*
X155352380Y-82164285D01*
X155509523Y-82164285D01*
X155614285Y-82216666D01*
X156138095Y-82897619D02*
X156138095Y-82164285D01*
X156138095Y-81797619D02*
X156085714Y-81850000D01*
X156138095Y-81902380D01*
X156190476Y-81850000D01*
X156138095Y-81797619D01*
X156138095Y-81902380D01*
X156504761Y-82164285D02*
X156923809Y-82164285D01*
X156661904Y-81797619D02*
X156661904Y-82740476D01*
X156714285Y-82845238D01*
X156819047Y-82897619D01*
X156923809Y-82897619D01*
X157185714Y-82164285D02*
X157447619Y-82897619D01*
X157709523Y-82164285D02*
X157447619Y-82897619D01*
X157342857Y-83159523D01*
X157290476Y-83211904D01*
X157185714Y-83264285D01*
X140161904Y-83568619D02*
X140423809Y-84668619D01*
X140633333Y-83882904D01*
X140842857Y-84668619D01*
X141104761Y-83568619D01*
X141942857Y-84616238D02*
X141838095Y-84668619D01*
X141628571Y-84668619D01*
X141523809Y-84616238D01*
X141471428Y-84511476D01*
X141471428Y-84092428D01*
X141523809Y-83987666D01*
X141628571Y-83935285D01*
X141838095Y-83935285D01*
X141942857Y-83987666D01*
X141995238Y-84092428D01*
X141995238Y-84197190D01*
X141471428Y-84301952D01*
X142938095Y-84668619D02*
X142938095Y-84092428D01*
X142885714Y-83987666D01*
X142780952Y-83935285D01*
X142571428Y-83935285D01*
X142466666Y-83987666D01*
X142938095Y-84616238D02*
X142833333Y-84668619D01*
X142571428Y-84668619D01*
X142466666Y-84616238D01*
X142414285Y-84511476D01*
X142414285Y-84406714D01*
X142466666Y-84301952D01*
X142571428Y-84249571D01*
X142833333Y-84249571D01*
X142938095Y-84197190D01*
X143304761Y-83935285D02*
X143723809Y-83935285D01*
X143461904Y-83568619D02*
X143461904Y-84511476D01*
X143514285Y-84616238D01*
X143619047Y-84668619D01*
X143723809Y-84668619D01*
X144090476Y-84668619D02*
X144090476Y-83568619D01*
X144561904Y-84668619D02*
X144561904Y-84092428D01*
X144509523Y-83987666D01*
X144404761Y-83935285D01*
X144247619Y-83935285D01*
X144142857Y-83987666D01*
X144090476Y-84040047D01*
X145504761Y-84616238D02*
X145400000Y-84668619D01*
X145190476Y-84668619D01*
X145085714Y-84616238D01*
X145033333Y-84511476D01*
X145033333Y-84092428D01*
X145085714Y-83987666D01*
X145190476Y-83935285D01*
X145400000Y-83935285D01*
X145504761Y-83987666D01*
X145557142Y-84092428D01*
X145557142Y-84197190D01*
X145033333Y-84301952D01*
X146028571Y-84668619D02*
X146028571Y-83935285D01*
X146028571Y-84144809D02*
X146080952Y-84040047D01*
X146133333Y-83987666D01*
X146238095Y-83935285D01*
X146342857Y-83935285D01*
X147495238Y-84616238D02*
X147652380Y-84668619D01*
X147914285Y-84668619D01*
X148019047Y-84616238D01*
X148071428Y-84563857D01*
X148123809Y-84459095D01*
X148123809Y-84354333D01*
X148071428Y-84249571D01*
X148019047Y-84197190D01*
X147914285Y-84144809D01*
X147704761Y-84092428D01*
X147600000Y-84040047D01*
X147547619Y-83987666D01*
X147495238Y-83882904D01*
X147495238Y-83778142D01*
X147547619Y-83673380D01*
X147600000Y-83621000D01*
X147704761Y-83568619D01*
X147966666Y-83568619D01*
X148123809Y-83621000D01*
X148438095Y-83935285D02*
X148857142Y-83935285D01*
X148595238Y-83568619D02*
X148595238Y-84511476D01*
X148647619Y-84616238D01*
X148752380Y-84668619D01*
X148857142Y-84668619D01*
X149695238Y-84668619D02*
X149695238Y-84092428D01*
X149642857Y-83987666D01*
X149538095Y-83935285D01*
X149328571Y-83935285D01*
X149223809Y-83987666D01*
X149695238Y-84616238D02*
X149590476Y-84668619D01*
X149328571Y-84668619D01*
X149223809Y-84616238D01*
X149171428Y-84511476D01*
X149171428Y-84406714D01*
X149223809Y-84301952D01*
X149328571Y-84249571D01*
X149590476Y-84249571D01*
X149695238Y-84197190D01*
X150061904Y-83935285D02*
X150480952Y-83935285D01*
X150219047Y-83568619D02*
X150219047Y-84511476D01*
X150271428Y-84616238D01*
X150376190Y-84668619D01*
X150480952Y-84668619D01*
X150847619Y-84668619D02*
X150847619Y-83935285D01*
X150847619Y-83568619D02*
X150795238Y-83621000D01*
X150847619Y-83673380D01*
X150900000Y-83621000D01*
X150847619Y-83568619D01*
X150847619Y-83673380D01*
X151528571Y-84668619D02*
X151423809Y-84616238D01*
X151371428Y-84563857D01*
X151319047Y-84459095D01*
X151319047Y-84144809D01*
X151371428Y-84040047D01*
X151423809Y-83987666D01*
X151528571Y-83935285D01*
X151685714Y-83935285D01*
X151790476Y-83987666D01*
X151842857Y-84040047D01*
X151895238Y-84144809D01*
X151895238Y-84459095D01*
X151842857Y-84563857D01*
X151790476Y-84616238D01*
X151685714Y-84668619D01*
X151528571Y-84668619D01*
X152366666Y-83935285D02*
X152366666Y-84668619D01*
X152366666Y-84040047D02*
X152419047Y-83987666D01*
X152523809Y-83935285D01*
X152680952Y-83935285D01*
X152785714Y-83987666D01*
X152838095Y-84092428D01*
X152838095Y-84668619D01*
X154095238Y-83935285D02*
X154357142Y-84668619D01*
X154619047Y-83935285D01*
X155614285Y-84668619D02*
X154985714Y-84668619D01*
X155300000Y-84668619D02*
X155300000Y-83568619D01*
X155195238Y-83725761D01*
X155090476Y-83830523D01*
X154985714Y-83882904D01*
X156085714Y-84563857D02*
X156138095Y-84616238D01*
X156085714Y-84668619D01*
X156033333Y-84616238D01*
X156085714Y-84563857D01*
X156085714Y-84668619D01*
X156819047Y-83568619D02*
X156923809Y-83568619D01*
X157028571Y-83621000D01*
X157080952Y-83673380D01*
X157133333Y-83778142D01*
X157185714Y-83987666D01*
X157185714Y-84249571D01*
X157133333Y-84459095D01*
X157080952Y-84563857D01*
X157028571Y-84616238D01*
X156923809Y-84668619D01*
X156819047Y-84668619D01*
X156714285Y-84616238D01*
X156661904Y-84563857D01*
X156609523Y-84459095D01*
X156557142Y-84249571D01*
X156557142Y-83987666D01*
X156609523Y-83778142D01*
X156661904Y-83673380D01*
X156714285Y-83621000D01*
X156819047Y-83568619D01*
D10*
%TO.C,D6*%
X142638904Y-106107380D02*
X142638904Y-105107380D01*
X142877000Y-105107380D01*
X143019857Y-105155000D01*
X143115095Y-105250238D01*
X143162714Y-105345476D01*
X143210333Y-105535952D01*
X143210333Y-105678809D01*
X143162714Y-105869285D01*
X143115095Y-105964523D01*
X143019857Y-106059761D01*
X142877000Y-106107380D01*
X142638904Y-106107380D01*
X144067476Y-105107380D02*
X143877000Y-105107380D01*
X143781761Y-105155000D01*
X143734142Y-105202619D01*
X143638904Y-105345476D01*
X143591285Y-105535952D01*
X143591285Y-105916904D01*
X143638904Y-106012142D01*
X143686523Y-106059761D01*
X143781761Y-106107380D01*
X143972238Y-106107380D01*
X144067476Y-106059761D01*
X144115095Y-106012142D01*
X144162714Y-105916904D01*
X144162714Y-105678809D01*
X144115095Y-105583571D01*
X144067476Y-105535952D01*
X143972238Y-105488333D01*
X143781761Y-105488333D01*
X143686523Y-105535952D01*
X143638904Y-105583571D01*
X143591285Y-105678809D01*
%TO.C,D7*%
X134636904Y-119952380D02*
X134636904Y-118952380D01*
X134875000Y-118952380D01*
X135017857Y-119000000D01*
X135113095Y-119095238D01*
X135160714Y-119190476D01*
X135208333Y-119380952D01*
X135208333Y-119523809D01*
X135160714Y-119714285D01*
X135113095Y-119809523D01*
X135017857Y-119904761D01*
X134875000Y-119952380D01*
X134636904Y-119952380D01*
X135541666Y-118952380D02*
X136208333Y-118952380D01*
X135779761Y-119952380D01*
%TO.C,L1*%
X138632583Y-86402380D02*
X138156392Y-86402380D01*
X138156392Y-85402380D01*
X139489726Y-86402380D02*
X138918297Y-86402380D01*
X139204011Y-86402380D02*
X139204011Y-85402380D01*
X139108773Y-85545238D01*
X139013535Y-85640476D01*
X138918297Y-85688095D01*
%TO.C,L2*%
X135833333Y-107702380D02*
X135357142Y-107702380D01*
X135357142Y-106702380D01*
X136119047Y-106797619D02*
X136166666Y-106750000D01*
X136261904Y-106702380D01*
X136500000Y-106702380D01*
X136595238Y-106750000D01*
X136642857Y-106797619D01*
X136690476Y-106892857D01*
X136690476Y-106988095D01*
X136642857Y-107130952D01*
X136071428Y-107702380D01*
X136690476Y-107702380D01*
%TO.C,R34*%
X148694642Y-127522380D02*
X148361309Y-127046190D01*
X148123214Y-127522380D02*
X148123214Y-126522380D01*
X148504166Y-126522380D01*
X148599404Y-126570000D01*
X148647023Y-126617619D01*
X148694642Y-126712857D01*
X148694642Y-126855714D01*
X148647023Y-126950952D01*
X148599404Y-126998571D01*
X148504166Y-127046190D01*
X148123214Y-127046190D01*
X149027976Y-126522380D02*
X149647023Y-126522380D01*
X149313690Y-126903333D01*
X149456547Y-126903333D01*
X149551785Y-126950952D01*
X149599404Y-126998571D01*
X149647023Y-127093809D01*
X149647023Y-127331904D01*
X149599404Y-127427142D01*
X149551785Y-127474761D01*
X149456547Y-127522380D01*
X149170833Y-127522380D01*
X149075595Y-127474761D01*
X149027976Y-127427142D01*
X150504166Y-126855714D02*
X150504166Y-127522380D01*
X150266071Y-126474761D02*
X150027976Y-127189047D01*
X150647023Y-127189047D01*
%TO.C,C4*%
X177607142Y-96416666D02*
X177654761Y-96464285D01*
X177702380Y-96607142D01*
X177702380Y-96702380D01*
X177654761Y-96845238D01*
X177559523Y-96940476D01*
X177464285Y-96988095D01*
X177273809Y-97035714D01*
X177130952Y-97035714D01*
X176940476Y-96988095D01*
X176845238Y-96940476D01*
X176750000Y-96845238D01*
X176702380Y-96702380D01*
X176702380Y-96607142D01*
X176750000Y-96464285D01*
X176797619Y-96416666D01*
X177035714Y-95559523D02*
X177702380Y-95559523D01*
X176654761Y-95797619D02*
X177369047Y-96035714D01*
X177369047Y-95416666D01*
%TO.C,C14*%
X151857142Y-95957142D02*
X151809523Y-96004761D01*
X151666666Y-96052380D01*
X151571428Y-96052380D01*
X151428571Y-96004761D01*
X151333333Y-95909523D01*
X151285714Y-95814285D01*
X151238095Y-95623809D01*
X151238095Y-95480952D01*
X151285714Y-95290476D01*
X151333333Y-95195238D01*
X151428571Y-95100000D01*
X151571428Y-95052380D01*
X151666666Y-95052380D01*
X151809523Y-95100000D01*
X151857142Y-95147619D01*
X152809523Y-96052380D02*
X152238095Y-96052380D01*
X152523809Y-96052380D02*
X152523809Y-95052380D01*
X152428571Y-95195238D01*
X152333333Y-95290476D01*
X152238095Y-95338095D01*
X153666666Y-95385714D02*
X153666666Y-96052380D01*
X153428571Y-95004761D02*
X153190476Y-95719047D01*
X153809523Y-95719047D01*
%TO.C,R30*%
X138107142Y-103272380D02*
X137773809Y-102796190D01*
X137535714Y-103272380D02*
X137535714Y-102272380D01*
X137916666Y-102272380D01*
X138011904Y-102320000D01*
X138059523Y-102367619D01*
X138107142Y-102462857D01*
X138107142Y-102605714D01*
X138059523Y-102700952D01*
X138011904Y-102748571D01*
X137916666Y-102796190D01*
X137535714Y-102796190D01*
X138440476Y-102272380D02*
X139059523Y-102272380D01*
X138726190Y-102653333D01*
X138869047Y-102653333D01*
X138964285Y-102700952D01*
X139011904Y-102748571D01*
X139059523Y-102843809D01*
X139059523Y-103081904D01*
X139011904Y-103177142D01*
X138964285Y-103224761D01*
X138869047Y-103272380D01*
X138583333Y-103272380D01*
X138488095Y-103224761D01*
X138440476Y-103177142D01*
X139678571Y-102272380D02*
X139773809Y-102272380D01*
X139869047Y-102320000D01*
X139916666Y-102367619D01*
X139964285Y-102462857D01*
X140011904Y-102653333D01*
X140011904Y-102891428D01*
X139964285Y-103081904D01*
X139916666Y-103177142D01*
X139869047Y-103224761D01*
X139773809Y-103272380D01*
X139678571Y-103272380D01*
X139583333Y-103224761D01*
X139535714Y-103177142D01*
X139488095Y-103081904D01*
X139440476Y-102891428D01*
X139440476Y-102653333D01*
X139488095Y-102462857D01*
X139535714Y-102367619D01*
X139583333Y-102320000D01*
X139678571Y-102272380D01*
%TO.C,Q2*%
X148904761Y-121097619D02*
X148809523Y-121050000D01*
X148714285Y-120954761D01*
X148571428Y-120811904D01*
X148476190Y-120764285D01*
X148380952Y-120764285D01*
X148428571Y-121002380D02*
X148333333Y-120954761D01*
X148238095Y-120859523D01*
X148190476Y-120669047D01*
X148190476Y-120335714D01*
X148238095Y-120145238D01*
X148333333Y-120050000D01*
X148428571Y-120002380D01*
X148619047Y-120002380D01*
X148714285Y-120050000D01*
X148809523Y-120145238D01*
X148857142Y-120335714D01*
X148857142Y-120669047D01*
X148809523Y-120859523D01*
X148714285Y-120954761D01*
X148619047Y-121002380D01*
X148428571Y-121002380D01*
X149238095Y-120097619D02*
X149285714Y-120050000D01*
X149380952Y-120002380D01*
X149619047Y-120002380D01*
X149714285Y-120050000D01*
X149761904Y-120097619D01*
X149809523Y-120192857D01*
X149809523Y-120288095D01*
X149761904Y-120430952D01*
X149190476Y-121002380D01*
X149809523Y-121002380D01*
%TO.C,C12*%
X176607142Y-116857142D02*
X176559523Y-116904761D01*
X176416666Y-116952380D01*
X176321428Y-116952380D01*
X176178571Y-116904761D01*
X176083333Y-116809523D01*
X176035714Y-116714285D01*
X175988095Y-116523809D01*
X175988095Y-116380952D01*
X176035714Y-116190476D01*
X176083333Y-116095238D01*
X176178571Y-116000000D01*
X176321428Y-115952380D01*
X176416666Y-115952380D01*
X176559523Y-116000000D01*
X176607142Y-116047619D01*
X177559523Y-116952380D02*
X176988095Y-116952380D01*
X177273809Y-116952380D02*
X177273809Y-115952380D01*
X177178571Y-116095238D01*
X177083333Y-116190476D01*
X176988095Y-116238095D01*
X177940476Y-116047619D02*
X177988095Y-116000000D01*
X178083333Y-115952380D01*
X178321428Y-115952380D01*
X178416666Y-116000000D01*
X178464285Y-116047619D01*
X178511904Y-116142857D01*
X178511904Y-116238095D01*
X178464285Y-116380952D01*
X177892857Y-116952380D01*
X178511904Y-116952380D01*
%TO.C,R25*%
X154607142Y-121132380D02*
X154273809Y-120656190D01*
X154035714Y-121132380D02*
X154035714Y-120132380D01*
X154416666Y-120132380D01*
X154511904Y-120180000D01*
X154559523Y-120227619D01*
X154607142Y-120322857D01*
X154607142Y-120465714D01*
X154559523Y-120560952D01*
X154511904Y-120608571D01*
X154416666Y-120656190D01*
X154035714Y-120656190D01*
X154988095Y-120227619D02*
X155035714Y-120180000D01*
X155130952Y-120132380D01*
X155369047Y-120132380D01*
X155464285Y-120180000D01*
X155511904Y-120227619D01*
X155559523Y-120322857D01*
X155559523Y-120418095D01*
X155511904Y-120560952D01*
X154940476Y-121132380D01*
X155559523Y-121132380D01*
X156464285Y-120132380D02*
X155988095Y-120132380D01*
X155940476Y-120608571D01*
X155988095Y-120560952D01*
X156083333Y-120513333D01*
X156321428Y-120513333D01*
X156416666Y-120560952D01*
X156464285Y-120608571D01*
X156511904Y-120703809D01*
X156511904Y-120941904D01*
X156464285Y-121037142D01*
X156416666Y-121084761D01*
X156321428Y-121132380D01*
X156083333Y-121132380D01*
X155988095Y-121084761D01*
X155940476Y-121037142D01*
%TO.C,C5*%
X177357142Y-93166666D02*
X177404761Y-93214285D01*
X177452380Y-93357142D01*
X177452380Y-93452380D01*
X177404761Y-93595238D01*
X177309523Y-93690476D01*
X177214285Y-93738095D01*
X177023809Y-93785714D01*
X176880952Y-93785714D01*
X176690476Y-93738095D01*
X176595238Y-93690476D01*
X176500000Y-93595238D01*
X176452380Y-93452380D01*
X176452380Y-93357142D01*
X176500000Y-93214285D01*
X176547619Y-93166666D01*
X176452380Y-92261904D02*
X176452380Y-92738095D01*
X176928571Y-92785714D01*
X176880952Y-92738095D01*
X176833333Y-92642857D01*
X176833333Y-92404761D01*
X176880952Y-92309523D01*
X176928571Y-92261904D01*
X177023809Y-92214285D01*
X177261904Y-92214285D01*
X177357142Y-92261904D01*
X177404761Y-92309523D01*
X177452380Y-92404761D01*
X177452380Y-92642857D01*
X177404761Y-92738095D01*
X177357142Y-92785714D01*
%TO.C,C2*%
X185083333Y-117357142D02*
X185035714Y-117404761D01*
X184892857Y-117452380D01*
X184797619Y-117452380D01*
X184654761Y-117404761D01*
X184559523Y-117309523D01*
X184511904Y-117214285D01*
X184464285Y-117023809D01*
X184464285Y-116880952D01*
X184511904Y-116690476D01*
X184559523Y-116595238D01*
X184654761Y-116500000D01*
X184797619Y-116452380D01*
X184892857Y-116452380D01*
X185035714Y-116500000D01*
X185083333Y-116547619D01*
X185464285Y-116547619D02*
X185511904Y-116500000D01*
X185607142Y-116452380D01*
X185845238Y-116452380D01*
X185940476Y-116500000D01*
X185988095Y-116547619D01*
X186035714Y-116642857D01*
X186035714Y-116738095D01*
X185988095Y-116880952D01*
X185416666Y-117452380D01*
X186035714Y-117452380D01*
%TO.C,C17*%
X131927142Y-127780357D02*
X131974761Y-127827976D01*
X132022380Y-127970833D01*
X132022380Y-128066071D01*
X131974761Y-128208928D01*
X131879523Y-128304166D01*
X131784285Y-128351785D01*
X131593809Y-128399404D01*
X131450952Y-128399404D01*
X131260476Y-128351785D01*
X131165238Y-128304166D01*
X131070000Y-128208928D01*
X131022380Y-128066071D01*
X131022380Y-127970833D01*
X131070000Y-127827976D01*
X131117619Y-127780357D01*
X132022380Y-126827976D02*
X132022380Y-127399404D01*
X132022380Y-127113690D02*
X131022380Y-127113690D01*
X131165238Y-127208928D01*
X131260476Y-127304166D01*
X131308095Y-127399404D01*
X131022380Y-126494642D02*
X131022380Y-125827976D01*
X132022380Y-126256547D01*
%TO.C,R33*%
X144357142Y-127572380D02*
X144023809Y-127096190D01*
X143785714Y-127572380D02*
X143785714Y-126572380D01*
X144166666Y-126572380D01*
X144261904Y-126620000D01*
X144309523Y-126667619D01*
X144357142Y-126762857D01*
X144357142Y-126905714D01*
X144309523Y-127000952D01*
X144261904Y-127048571D01*
X144166666Y-127096190D01*
X143785714Y-127096190D01*
X144690476Y-126572380D02*
X145309523Y-126572380D01*
X144976190Y-126953333D01*
X145119047Y-126953333D01*
X145214285Y-127000952D01*
X145261904Y-127048571D01*
X145309523Y-127143809D01*
X145309523Y-127381904D01*
X145261904Y-127477142D01*
X145214285Y-127524761D01*
X145119047Y-127572380D01*
X144833333Y-127572380D01*
X144738095Y-127524761D01*
X144690476Y-127477142D01*
X145642857Y-126572380D02*
X146261904Y-126572380D01*
X145928571Y-126953333D01*
X146071428Y-126953333D01*
X146166666Y-127000952D01*
X146214285Y-127048571D01*
X146261904Y-127143809D01*
X146261904Y-127381904D01*
X146214285Y-127477142D01*
X146166666Y-127524761D01*
X146071428Y-127572380D01*
X145785714Y-127572380D01*
X145690476Y-127524761D01*
X145642857Y-127477142D01*
%TO.C,Wind1*%
X153202380Y-111382380D02*
X153440476Y-112382380D01*
X153630952Y-111668095D01*
X153821428Y-112382380D01*
X154059523Y-111382380D01*
X154440476Y-112382380D02*
X154440476Y-111715714D01*
X154440476Y-111382380D02*
X154392857Y-111430000D01*
X154440476Y-111477619D01*
X154488095Y-111430000D01*
X154440476Y-111382380D01*
X154440476Y-111477619D01*
X154916666Y-111715714D02*
X154916666Y-112382380D01*
X154916666Y-111810952D02*
X154964285Y-111763333D01*
X155059523Y-111715714D01*
X155202380Y-111715714D01*
X155297619Y-111763333D01*
X155345238Y-111858571D01*
X155345238Y-112382380D01*
X156250000Y-112382380D02*
X156250000Y-111382380D01*
X156250000Y-112334761D02*
X156154761Y-112382380D01*
X155964285Y-112382380D01*
X155869047Y-112334761D01*
X155821428Y-112287142D01*
X155773809Y-112191904D01*
X155773809Y-111906190D01*
X155821428Y-111810952D01*
X155869047Y-111763333D01*
X155964285Y-111715714D01*
X156154761Y-111715714D01*
X156250000Y-111763333D01*
X157250000Y-112382380D02*
X156678571Y-112382380D01*
X156964285Y-112382380D02*
X156964285Y-111382380D01*
X156869047Y-111525238D01*
X156773809Y-111620476D01*
X156678571Y-111668095D01*
%TO.C,C7*%
X160083333Y-108857142D02*
X160035714Y-108904761D01*
X159892857Y-108952380D01*
X159797619Y-108952380D01*
X159654761Y-108904761D01*
X159559523Y-108809523D01*
X159511904Y-108714285D01*
X159464285Y-108523809D01*
X159464285Y-108380952D01*
X159511904Y-108190476D01*
X159559523Y-108095238D01*
X159654761Y-108000000D01*
X159797619Y-107952380D01*
X159892857Y-107952380D01*
X160035714Y-108000000D01*
X160083333Y-108047619D01*
X160416666Y-107952380D02*
X161083333Y-107952380D01*
X160654761Y-108952380D01*
%TO.C,U2*%
X175988095Y-103452380D02*
X175988095Y-104261904D01*
X176035714Y-104357142D01*
X176083333Y-104404761D01*
X176178571Y-104452380D01*
X176369047Y-104452380D01*
X176464285Y-104404761D01*
X176511904Y-104357142D01*
X176559523Y-104261904D01*
X176559523Y-103452380D01*
X176988095Y-103547619D02*
X177035714Y-103500000D01*
X177130952Y-103452380D01*
X177369047Y-103452380D01*
X177464285Y-103500000D01*
X177511904Y-103547619D01*
X177559523Y-103642857D01*
X177559523Y-103738095D01*
X177511904Y-103880952D01*
X176940476Y-104452380D01*
X177559523Y-104452380D01*
%TO.C,R4*%
X177522380Y-99416666D02*
X177046190Y-99750000D01*
X177522380Y-99988095D02*
X176522380Y-99988095D01*
X176522380Y-99607142D01*
X176570000Y-99511904D01*
X176617619Y-99464285D01*
X176712857Y-99416666D01*
X176855714Y-99416666D01*
X176950952Y-99464285D01*
X176998571Y-99511904D01*
X177046190Y-99607142D01*
X177046190Y-99988095D01*
X176855714Y-98559523D02*
X177522380Y-98559523D01*
X176474761Y-98797619D02*
X177189047Y-99035714D01*
X177189047Y-98416666D01*
%TO.C,R9*%
X185495833Y-111952380D02*
X185162500Y-111476190D01*
X184924404Y-111952380D02*
X184924404Y-110952380D01*
X185305357Y-110952380D01*
X185400595Y-111000000D01*
X185448214Y-111047619D01*
X185495833Y-111142857D01*
X185495833Y-111285714D01*
X185448214Y-111380952D01*
X185400595Y-111428571D01*
X185305357Y-111476190D01*
X184924404Y-111476190D01*
X185972023Y-111952380D02*
X186162500Y-111952380D01*
X186257738Y-111904761D01*
X186305357Y-111857142D01*
X186400595Y-111714285D01*
X186448214Y-111523809D01*
X186448214Y-111142857D01*
X186400595Y-111047619D01*
X186352976Y-111000000D01*
X186257738Y-110952380D01*
X186067261Y-110952380D01*
X185972023Y-111000000D01*
X185924404Y-111047619D01*
X185876785Y-111142857D01*
X185876785Y-111380952D01*
X185924404Y-111476190D01*
X185972023Y-111523809D01*
X186067261Y-111571428D01*
X186257738Y-111571428D01*
X186352976Y-111523809D01*
X186400595Y-111476190D01*
X186448214Y-111380952D01*
%TO.C,Q3*%
X149154761Y-107097619D02*
X149059523Y-107050000D01*
X148964285Y-106954761D01*
X148821428Y-106811904D01*
X148726190Y-106764285D01*
X148630952Y-106764285D01*
X148678571Y-107002380D02*
X148583333Y-106954761D01*
X148488095Y-106859523D01*
X148440476Y-106669047D01*
X148440476Y-106335714D01*
X148488095Y-106145238D01*
X148583333Y-106050000D01*
X148678571Y-106002380D01*
X148869047Y-106002380D01*
X148964285Y-106050000D01*
X149059523Y-106145238D01*
X149107142Y-106335714D01*
X149107142Y-106669047D01*
X149059523Y-106859523D01*
X148964285Y-106954761D01*
X148869047Y-107002380D01*
X148678571Y-107002380D01*
X149440476Y-106002380D02*
X150059523Y-106002380D01*
X149726190Y-106383333D01*
X149869047Y-106383333D01*
X149964285Y-106430952D01*
X150011904Y-106478571D01*
X150059523Y-106573809D01*
X150059523Y-106811904D01*
X150011904Y-106907142D01*
X149964285Y-106954761D01*
X149869047Y-107002380D01*
X149583333Y-107002380D01*
X149488095Y-106954761D01*
X149440476Y-106907142D01*
%TO.C,R19*%
X154769642Y-124132380D02*
X154436309Y-123656190D01*
X154198214Y-124132380D02*
X154198214Y-123132380D01*
X154579166Y-123132380D01*
X154674404Y-123180000D01*
X154722023Y-123227619D01*
X154769642Y-123322857D01*
X154769642Y-123465714D01*
X154722023Y-123560952D01*
X154674404Y-123608571D01*
X154579166Y-123656190D01*
X154198214Y-123656190D01*
X155722023Y-124132380D02*
X155150595Y-124132380D01*
X155436309Y-124132380D02*
X155436309Y-123132380D01*
X155341071Y-123275238D01*
X155245833Y-123370476D01*
X155150595Y-123418095D01*
X156198214Y-124132380D02*
X156388690Y-124132380D01*
X156483928Y-124084761D01*
X156531547Y-124037142D01*
X156626785Y-123894285D01*
X156674404Y-123703809D01*
X156674404Y-123322857D01*
X156626785Y-123227619D01*
X156579166Y-123180000D01*
X156483928Y-123132380D01*
X156293452Y-123132380D01*
X156198214Y-123180000D01*
X156150595Y-123227619D01*
X156102976Y-123322857D01*
X156102976Y-123560952D01*
X156150595Y-123656190D01*
X156198214Y-123703809D01*
X156293452Y-123751428D01*
X156483928Y-123751428D01*
X156579166Y-123703809D01*
X156626785Y-123656190D01*
X156674404Y-123560952D01*
%TO.C,R16*%
X158607142Y-124202380D02*
X158273809Y-123726190D01*
X158035714Y-124202380D02*
X158035714Y-123202380D01*
X158416666Y-123202380D01*
X158511904Y-123250000D01*
X158559523Y-123297619D01*
X158607142Y-123392857D01*
X158607142Y-123535714D01*
X158559523Y-123630952D01*
X158511904Y-123678571D01*
X158416666Y-123726190D01*
X158035714Y-123726190D01*
X159559523Y-124202380D02*
X158988095Y-124202380D01*
X159273809Y-124202380D02*
X159273809Y-123202380D01*
X159178571Y-123345238D01*
X159083333Y-123440476D01*
X158988095Y-123488095D01*
X160416666Y-123202380D02*
X160226190Y-123202380D01*
X160130952Y-123250000D01*
X160083333Y-123297619D01*
X159988095Y-123440476D01*
X159940476Y-123630952D01*
X159940476Y-124011904D01*
X159988095Y-124107142D01*
X160035714Y-124154761D01*
X160130952Y-124202380D01*
X160321428Y-124202380D01*
X160416666Y-124154761D01*
X160464285Y-124107142D01*
X160511904Y-124011904D01*
X160511904Y-123773809D01*
X160464285Y-123678571D01*
X160416666Y-123630952D01*
X160321428Y-123583333D01*
X160130952Y-123583333D01*
X160035714Y-123630952D01*
X159988095Y-123678571D01*
X159940476Y-123773809D01*
%TO.C,R28*%
X154607142Y-109382380D02*
X154273809Y-108906190D01*
X154035714Y-109382380D02*
X154035714Y-108382380D01*
X154416666Y-108382380D01*
X154511904Y-108430000D01*
X154559523Y-108477619D01*
X154607142Y-108572857D01*
X154607142Y-108715714D01*
X154559523Y-108810952D01*
X154511904Y-108858571D01*
X154416666Y-108906190D01*
X154035714Y-108906190D01*
X154988095Y-108477619D02*
X155035714Y-108430000D01*
X155130952Y-108382380D01*
X155369047Y-108382380D01*
X155464285Y-108430000D01*
X155511904Y-108477619D01*
X155559523Y-108572857D01*
X155559523Y-108668095D01*
X155511904Y-108810952D01*
X154940476Y-109382380D01*
X155559523Y-109382380D01*
X156130952Y-108810952D02*
X156035714Y-108763333D01*
X155988095Y-108715714D01*
X155940476Y-108620476D01*
X155940476Y-108572857D01*
X155988095Y-108477619D01*
X156035714Y-108430000D01*
X156130952Y-108382380D01*
X156321428Y-108382380D01*
X156416666Y-108430000D01*
X156464285Y-108477619D01*
X156511904Y-108572857D01*
X156511904Y-108620476D01*
X156464285Y-108715714D01*
X156416666Y-108763333D01*
X156321428Y-108810952D01*
X156130952Y-108810952D01*
X156035714Y-108858571D01*
X155988095Y-108906190D01*
X155940476Y-109001428D01*
X155940476Y-109191904D01*
X155988095Y-109287142D01*
X156035714Y-109334761D01*
X156130952Y-109382380D01*
X156321428Y-109382380D01*
X156416666Y-109334761D01*
X156464285Y-109287142D01*
X156511904Y-109191904D01*
X156511904Y-109001428D01*
X156464285Y-108906190D01*
X156416666Y-108858571D01*
X156321428Y-108810952D01*
%TO.C,C15*%
X142607142Y-117607142D02*
X142559523Y-117654761D01*
X142416666Y-117702380D01*
X142321428Y-117702380D01*
X142178571Y-117654761D01*
X142083333Y-117559523D01*
X142035714Y-117464285D01*
X141988095Y-117273809D01*
X141988095Y-117130952D01*
X142035714Y-116940476D01*
X142083333Y-116845238D01*
X142178571Y-116750000D01*
X142321428Y-116702380D01*
X142416666Y-116702380D01*
X142559523Y-116750000D01*
X142607142Y-116797619D01*
X143559523Y-117702380D02*
X142988095Y-117702380D01*
X143273809Y-117702380D02*
X143273809Y-116702380D01*
X143178571Y-116845238D01*
X143083333Y-116940476D01*
X142988095Y-116988095D01*
X144464285Y-116702380D02*
X143988095Y-116702380D01*
X143940476Y-117178571D01*
X143988095Y-117130952D01*
X144083333Y-117083333D01*
X144321428Y-117083333D01*
X144416666Y-117130952D01*
X144464285Y-117178571D01*
X144511904Y-117273809D01*
X144511904Y-117511904D01*
X144464285Y-117607142D01*
X144416666Y-117654761D01*
X144321428Y-117702380D01*
X144083333Y-117702380D01*
X143988095Y-117654761D01*
X143940476Y-117607142D01*
%TO.C,R35*%
X138607142Y-121702380D02*
X138273809Y-121226190D01*
X138035714Y-121702380D02*
X138035714Y-120702380D01*
X138416666Y-120702380D01*
X138511904Y-120750000D01*
X138559523Y-120797619D01*
X138607142Y-120892857D01*
X138607142Y-121035714D01*
X138559523Y-121130952D01*
X138511904Y-121178571D01*
X138416666Y-121226190D01*
X138035714Y-121226190D01*
X138940476Y-120702380D02*
X139559523Y-120702380D01*
X139226190Y-121083333D01*
X139369047Y-121083333D01*
X139464285Y-121130952D01*
X139511904Y-121178571D01*
X139559523Y-121273809D01*
X139559523Y-121511904D01*
X139511904Y-121607142D01*
X139464285Y-121654761D01*
X139369047Y-121702380D01*
X139083333Y-121702380D01*
X138988095Y-121654761D01*
X138940476Y-121607142D01*
X140464285Y-120702380D02*
X139988095Y-120702380D01*
X139940476Y-121178571D01*
X139988095Y-121130952D01*
X140083333Y-121083333D01*
X140321428Y-121083333D01*
X140416666Y-121130952D01*
X140464285Y-121178571D01*
X140511904Y-121273809D01*
X140511904Y-121511904D01*
X140464285Y-121607142D01*
X140416666Y-121654761D01*
X140321428Y-121702380D01*
X140083333Y-121702380D01*
X139988095Y-121654761D01*
X139940476Y-121607142D01*
%TO.C,R18*%
X172932142Y-105702380D02*
X172598809Y-105226190D01*
X172360714Y-105702380D02*
X172360714Y-104702380D01*
X172741666Y-104702380D01*
X172836904Y-104750000D01*
X172884523Y-104797619D01*
X172932142Y-104892857D01*
X172932142Y-105035714D01*
X172884523Y-105130952D01*
X172836904Y-105178571D01*
X172741666Y-105226190D01*
X172360714Y-105226190D01*
X173884523Y-105702380D02*
X173313095Y-105702380D01*
X173598809Y-105702380D02*
X173598809Y-104702380D01*
X173503571Y-104845238D01*
X173408333Y-104940476D01*
X173313095Y-104988095D01*
X174455952Y-105130952D02*
X174360714Y-105083333D01*
X174313095Y-105035714D01*
X174265476Y-104940476D01*
X174265476Y-104892857D01*
X174313095Y-104797619D01*
X174360714Y-104750000D01*
X174455952Y-104702380D01*
X174646428Y-104702380D01*
X174741666Y-104750000D01*
X174789285Y-104797619D01*
X174836904Y-104892857D01*
X174836904Y-104940476D01*
X174789285Y-105035714D01*
X174741666Y-105083333D01*
X174646428Y-105130952D01*
X174455952Y-105130952D01*
X174360714Y-105178571D01*
X174313095Y-105226190D01*
X174265476Y-105321428D01*
X174265476Y-105511904D01*
X174313095Y-105607142D01*
X174360714Y-105654761D01*
X174455952Y-105702380D01*
X174646428Y-105702380D01*
X174741666Y-105654761D01*
X174789285Y-105607142D01*
X174836904Y-105511904D01*
X174836904Y-105321428D01*
X174789285Y-105226190D01*
X174741666Y-105178571D01*
X174646428Y-105130952D01*
%TO.C,R1*%
X169495833Y-105632380D02*
X169162500Y-105156190D01*
X168924404Y-105632380D02*
X168924404Y-104632380D01*
X169305357Y-104632380D01*
X169400595Y-104680000D01*
X169448214Y-104727619D01*
X169495833Y-104822857D01*
X169495833Y-104965714D01*
X169448214Y-105060952D01*
X169400595Y-105108571D01*
X169305357Y-105156190D01*
X168924404Y-105156190D01*
X170448214Y-105632380D02*
X169876785Y-105632380D01*
X170162500Y-105632380D02*
X170162500Y-104632380D01*
X170067261Y-104775238D01*
X169972023Y-104870476D01*
X169876785Y-104918095D01*
%TO.C,C16*%
X134607142Y-103357142D02*
X134559523Y-103404761D01*
X134416666Y-103452380D01*
X134321428Y-103452380D01*
X134178571Y-103404761D01*
X134083333Y-103309523D01*
X134035714Y-103214285D01*
X133988095Y-103023809D01*
X133988095Y-102880952D01*
X134035714Y-102690476D01*
X134083333Y-102595238D01*
X134178571Y-102500000D01*
X134321428Y-102452380D01*
X134416666Y-102452380D01*
X134559523Y-102500000D01*
X134607142Y-102547619D01*
X135559523Y-103452380D02*
X134988095Y-103452380D01*
X135273809Y-103452380D02*
X135273809Y-102452380D01*
X135178571Y-102595238D01*
X135083333Y-102690476D01*
X134988095Y-102738095D01*
X136416666Y-102452380D02*
X136226190Y-102452380D01*
X136130952Y-102500000D01*
X136083333Y-102547619D01*
X135988095Y-102690476D01*
X135940476Y-102880952D01*
X135940476Y-103261904D01*
X135988095Y-103357142D01*
X136035714Y-103404761D01*
X136130952Y-103452380D01*
X136321428Y-103452380D01*
X136416666Y-103404761D01*
X136464285Y-103357142D01*
X136511904Y-103261904D01*
X136511904Y-103023809D01*
X136464285Y-102928571D01*
X136416666Y-102880952D01*
X136321428Y-102833333D01*
X136130952Y-102833333D01*
X136035714Y-102880952D01*
X135988095Y-102928571D01*
X135940476Y-103023809D01*
%TO.C,R23*%
X184985714Y-115361904D02*
X184719047Y-114980952D01*
X184528571Y-115361904D02*
X184528571Y-114561904D01*
X184833333Y-114561904D01*
X184909523Y-114600000D01*
X184947619Y-114638095D01*
X184985714Y-114714285D01*
X184985714Y-114828571D01*
X184947619Y-114904761D01*
X184909523Y-114942857D01*
X184833333Y-114980952D01*
X184528571Y-114980952D01*
X185290476Y-114638095D02*
X185328571Y-114600000D01*
X185404761Y-114561904D01*
X185595238Y-114561904D01*
X185671428Y-114600000D01*
X185709523Y-114638095D01*
X185747619Y-114714285D01*
X185747619Y-114790476D01*
X185709523Y-114904761D01*
X185252380Y-115361904D01*
X185747619Y-115361904D01*
X186014285Y-114561904D02*
X186509523Y-114561904D01*
X186242857Y-114866666D01*
X186357142Y-114866666D01*
X186433333Y-114904761D01*
X186471428Y-114942857D01*
X186509523Y-115019047D01*
X186509523Y-115209523D01*
X186471428Y-115285714D01*
X186433333Y-115323809D01*
X186357142Y-115361904D01*
X186128571Y-115361904D01*
X186052380Y-115323809D01*
X186014285Y-115285714D01*
%TO.C,Main1*%
X153297619Y-127132380D02*
X153297619Y-126132380D01*
X153630952Y-126846666D01*
X153964285Y-126132380D01*
X153964285Y-127132380D01*
X154869047Y-127132380D02*
X154869047Y-126608571D01*
X154821428Y-126513333D01*
X154726190Y-126465714D01*
X154535714Y-126465714D01*
X154440476Y-126513333D01*
X154869047Y-127084761D02*
X154773809Y-127132380D01*
X154535714Y-127132380D01*
X154440476Y-127084761D01*
X154392857Y-126989523D01*
X154392857Y-126894285D01*
X154440476Y-126799047D01*
X154535714Y-126751428D01*
X154773809Y-126751428D01*
X154869047Y-126703809D01*
X155345238Y-127132380D02*
X155345238Y-126465714D01*
X155345238Y-126132380D02*
X155297619Y-126180000D01*
X155345238Y-126227619D01*
X155392857Y-126180000D01*
X155345238Y-126132380D01*
X155345238Y-126227619D01*
X155821428Y-126465714D02*
X155821428Y-127132380D01*
X155821428Y-126560952D02*
X155869047Y-126513333D01*
X155964285Y-126465714D01*
X156107142Y-126465714D01*
X156202380Y-126513333D01*
X156250000Y-126608571D01*
X156250000Y-127132380D01*
X157250000Y-127132380D02*
X156678571Y-127132380D01*
X156964285Y-127132380D02*
X156964285Y-126132380D01*
X156869047Y-126275238D01*
X156773809Y-126370476D01*
X156678571Y-126418095D01*
%TO.C,Air1*%
X167713095Y-127166666D02*
X168189285Y-127166666D01*
X167617857Y-127452380D02*
X167951190Y-126452380D01*
X168284523Y-127452380D01*
X168617857Y-127452380D02*
X168617857Y-126785714D01*
X168617857Y-126452380D02*
X168570238Y-126500000D01*
X168617857Y-126547619D01*
X168665476Y-126500000D01*
X168617857Y-126452380D01*
X168617857Y-126547619D01*
X169094047Y-127452380D02*
X169094047Y-126785714D01*
X169094047Y-126976190D02*
X169141666Y-126880952D01*
X169189285Y-126833333D01*
X169284523Y-126785714D01*
X169379761Y-126785714D01*
X170236904Y-127452380D02*
X169665476Y-127452380D01*
X169951190Y-127452380D02*
X169951190Y-126452380D01*
X169855952Y-126595238D01*
X169760714Y-126690476D01*
X169665476Y-126738095D01*
%TO.C,Short1*%
X167488095Y-102334761D02*
X167630952Y-102382380D01*
X167869047Y-102382380D01*
X167964285Y-102334761D01*
X168011904Y-102287142D01*
X168059523Y-102191904D01*
X168059523Y-102096666D01*
X168011904Y-102001428D01*
X167964285Y-101953809D01*
X167869047Y-101906190D01*
X167678571Y-101858571D01*
X167583333Y-101810952D01*
X167535714Y-101763333D01*
X167488095Y-101668095D01*
X167488095Y-101572857D01*
X167535714Y-101477619D01*
X167583333Y-101430000D01*
X167678571Y-101382380D01*
X167916666Y-101382380D01*
X168059523Y-101430000D01*
X168488095Y-102382380D02*
X168488095Y-101382380D01*
X168916666Y-102382380D02*
X168916666Y-101858571D01*
X168869047Y-101763333D01*
X168773809Y-101715714D01*
X168630952Y-101715714D01*
X168535714Y-101763333D01*
X168488095Y-101810952D01*
X169535714Y-102382380D02*
X169440476Y-102334761D01*
X169392857Y-102287142D01*
X169345238Y-102191904D01*
X169345238Y-101906190D01*
X169392857Y-101810952D01*
X169440476Y-101763333D01*
X169535714Y-101715714D01*
X169678571Y-101715714D01*
X169773809Y-101763333D01*
X169821428Y-101810952D01*
X169869047Y-101906190D01*
X169869047Y-102191904D01*
X169821428Y-102287142D01*
X169773809Y-102334761D01*
X169678571Y-102382380D01*
X169535714Y-102382380D01*
X170297619Y-102382380D02*
X170297619Y-101715714D01*
X170297619Y-101906190D02*
X170345238Y-101810952D01*
X170392857Y-101763333D01*
X170488095Y-101715714D01*
X170583333Y-101715714D01*
X170773809Y-101715714D02*
X171154761Y-101715714D01*
X170916666Y-101382380D02*
X170916666Y-102239523D01*
X170964285Y-102334761D01*
X171059523Y-102382380D01*
X171154761Y-102382380D01*
X172011904Y-102382380D02*
X171440476Y-102382380D01*
X171726190Y-102382380D02*
X171726190Y-101382380D01*
X171630952Y-101525238D01*
X171535714Y-101620476D01*
X171440476Y-101668095D01*
%TO.C,R27*%
X147357142Y-103772380D02*
X147023809Y-103296190D01*
X146785714Y-103772380D02*
X146785714Y-102772380D01*
X147166666Y-102772380D01*
X147261904Y-102820000D01*
X147309523Y-102867619D01*
X147357142Y-102962857D01*
X147357142Y-103105714D01*
X147309523Y-103200952D01*
X147261904Y-103248571D01*
X147166666Y-103296190D01*
X146785714Y-103296190D01*
X147738095Y-102867619D02*
X147785714Y-102820000D01*
X147880952Y-102772380D01*
X148119047Y-102772380D01*
X148214285Y-102820000D01*
X148261904Y-102867619D01*
X148309523Y-102962857D01*
X148309523Y-103058095D01*
X148261904Y-103200952D01*
X147690476Y-103772380D01*
X148309523Y-103772380D01*
X148642857Y-102772380D02*
X149309523Y-102772380D01*
X148880952Y-103772380D01*
%TO.C,UV1*%
X179309523Y-109302380D02*
X179309523Y-110111904D01*
X179357142Y-110207142D01*
X179404761Y-110254761D01*
X179500000Y-110302380D01*
X179690476Y-110302380D01*
X179785714Y-110254761D01*
X179833333Y-110207142D01*
X179880952Y-110111904D01*
X179880952Y-109302380D01*
X180214285Y-109302380D02*
X180547619Y-110302380D01*
X180880952Y-109302380D01*
X181738095Y-110302380D02*
X181166666Y-110302380D01*
X181452380Y-110302380D02*
X181452380Y-109302380D01*
X181357142Y-109445238D01*
X181261904Y-109540476D01*
X181166666Y-109588095D01*
%TO.C,First1*%
X186428571Y-97108571D02*
X186095238Y-97108571D01*
X186095238Y-97632380D02*
X186095238Y-96632380D01*
X186571428Y-96632380D01*
X186952380Y-97632380D02*
X186952380Y-96965714D01*
X186952380Y-96632380D02*
X186904761Y-96680000D01*
X186952380Y-96727619D01*
X187000000Y-96680000D01*
X186952380Y-96632380D01*
X186952380Y-96727619D01*
X187428571Y-97632380D02*
X187428571Y-96965714D01*
X187428571Y-97156190D02*
X187476190Y-97060952D01*
X187523809Y-97013333D01*
X187619047Y-96965714D01*
X187714285Y-96965714D01*
X188000000Y-97584761D02*
X188095238Y-97632380D01*
X188285714Y-97632380D01*
X188380952Y-97584761D01*
X188428571Y-97489523D01*
X188428571Y-97441904D01*
X188380952Y-97346666D01*
X188285714Y-97299047D01*
X188142857Y-97299047D01*
X188047619Y-97251428D01*
X188000000Y-97156190D01*
X188000000Y-97108571D01*
X188047619Y-97013333D01*
X188142857Y-96965714D01*
X188285714Y-96965714D01*
X188380952Y-97013333D01*
X188714285Y-96965714D02*
X189095238Y-96965714D01*
X188857142Y-96632380D02*
X188857142Y-97489523D01*
X188904761Y-97584761D01*
X189000000Y-97632380D01*
X189095238Y-97632380D01*
X189952380Y-97632380D02*
X189380952Y-97632380D01*
X189666666Y-97632380D02*
X189666666Y-96632380D01*
X189571428Y-96775238D01*
X189476190Y-96870476D01*
X189380952Y-96918095D01*
%TO.C,Program1*%
X182119047Y-110202380D02*
X182119047Y-109202380D01*
X182500000Y-109202380D01*
X182595238Y-109250000D01*
X182642857Y-109297619D01*
X182690476Y-109392857D01*
X182690476Y-109535714D01*
X182642857Y-109630952D01*
X182595238Y-109678571D01*
X182500000Y-109726190D01*
X182119047Y-109726190D01*
X183119047Y-110202380D02*
X183119047Y-109535714D01*
X183119047Y-109726190D02*
X183166666Y-109630952D01*
X183214285Y-109583333D01*
X183309523Y-109535714D01*
X183404761Y-109535714D01*
X183880952Y-110202380D02*
X183785714Y-110154761D01*
X183738095Y-110107142D01*
X183690476Y-110011904D01*
X183690476Y-109726190D01*
X183738095Y-109630952D01*
X183785714Y-109583333D01*
X183880952Y-109535714D01*
X184023809Y-109535714D01*
X184119047Y-109583333D01*
X184166666Y-109630952D01*
X184214285Y-109726190D01*
X184214285Y-110011904D01*
X184166666Y-110107142D01*
X184119047Y-110154761D01*
X184023809Y-110202380D01*
X183880952Y-110202380D01*
X185071428Y-109535714D02*
X185071428Y-110345238D01*
X185023809Y-110440476D01*
X184976190Y-110488095D01*
X184880952Y-110535714D01*
X184738095Y-110535714D01*
X184642857Y-110488095D01*
X185071428Y-110154761D02*
X184976190Y-110202380D01*
X184785714Y-110202380D01*
X184690476Y-110154761D01*
X184642857Y-110107142D01*
X184595238Y-110011904D01*
X184595238Y-109726190D01*
X184642857Y-109630952D01*
X184690476Y-109583333D01*
X184785714Y-109535714D01*
X184976190Y-109535714D01*
X185071428Y-109583333D01*
X185547619Y-110202380D02*
X185547619Y-109535714D01*
X185547619Y-109726190D02*
X185595238Y-109630952D01*
X185642857Y-109583333D01*
X185738095Y-109535714D01*
X185833333Y-109535714D01*
X186595238Y-110202380D02*
X186595238Y-109678571D01*
X186547619Y-109583333D01*
X186452380Y-109535714D01*
X186261904Y-109535714D01*
X186166666Y-109583333D01*
X186595238Y-110154761D02*
X186500000Y-110202380D01*
X186261904Y-110202380D01*
X186166666Y-110154761D01*
X186119047Y-110059523D01*
X186119047Y-109964285D01*
X186166666Y-109869047D01*
X186261904Y-109821428D01*
X186500000Y-109821428D01*
X186595238Y-109773809D01*
X187071428Y-110202380D02*
X187071428Y-109535714D01*
X187071428Y-109630952D02*
X187119047Y-109583333D01*
X187214285Y-109535714D01*
X187357142Y-109535714D01*
X187452380Y-109583333D01*
X187500000Y-109678571D01*
X187500000Y-110202380D01*
X187500000Y-109678571D02*
X187547619Y-109583333D01*
X187642857Y-109535714D01*
X187785714Y-109535714D01*
X187880952Y-109583333D01*
X187928571Y-109678571D01*
X187928571Y-110202380D01*
X188928571Y-110202380D02*
X188357142Y-110202380D01*
X188642857Y-110202380D02*
X188642857Y-109202380D01*
X188547619Y-109345238D01*
X188452380Y-109440476D01*
X188357142Y-109488095D01*
%TO.C,C13*%
X151857142Y-88357142D02*
X151809523Y-88404761D01*
X151666666Y-88452380D01*
X151571428Y-88452380D01*
X151428571Y-88404761D01*
X151333333Y-88309523D01*
X151285714Y-88214285D01*
X151238095Y-88023809D01*
X151238095Y-87880952D01*
X151285714Y-87690476D01*
X151333333Y-87595238D01*
X151428571Y-87500000D01*
X151571428Y-87452380D01*
X151666666Y-87452380D01*
X151809523Y-87500000D01*
X151857142Y-87547619D01*
X152809523Y-88452380D02*
X152238095Y-88452380D01*
X152523809Y-88452380D02*
X152523809Y-87452380D01*
X152428571Y-87595238D01*
X152333333Y-87690476D01*
X152238095Y-87738095D01*
X153142857Y-87452380D02*
X153761904Y-87452380D01*
X153428571Y-87833333D01*
X153571428Y-87833333D01*
X153666666Y-87880952D01*
X153714285Y-87928571D01*
X153761904Y-88023809D01*
X153761904Y-88261904D01*
X153714285Y-88357142D01*
X153666666Y-88404761D01*
X153571428Y-88452380D01*
X153285714Y-88452380D01*
X153190476Y-88404761D01*
X153142857Y-88357142D01*
%TO.C,R14*%
X158772380Y-95642857D02*
X158296190Y-95976190D01*
X158772380Y-96214285D02*
X157772380Y-96214285D01*
X157772380Y-95833333D01*
X157820000Y-95738095D01*
X157867619Y-95690476D01*
X157962857Y-95642857D01*
X158105714Y-95642857D01*
X158200952Y-95690476D01*
X158248571Y-95738095D01*
X158296190Y-95833333D01*
X158296190Y-96214285D01*
X158772380Y-94690476D02*
X158772380Y-95261904D01*
X158772380Y-94976190D02*
X157772380Y-94976190D01*
X157915238Y-95071428D01*
X158010476Y-95166666D01*
X158058095Y-95261904D01*
X158105714Y-93833333D02*
X158772380Y-93833333D01*
X157724761Y-94071428D02*
X158439047Y-94309523D01*
X158439047Y-93690476D01*
%TO.C,R36*%
X142607142Y-124022380D02*
X142273809Y-123546190D01*
X142035714Y-124022380D02*
X142035714Y-123022380D01*
X142416666Y-123022380D01*
X142511904Y-123070000D01*
X142559523Y-123117619D01*
X142607142Y-123212857D01*
X142607142Y-123355714D01*
X142559523Y-123450952D01*
X142511904Y-123498571D01*
X142416666Y-123546190D01*
X142035714Y-123546190D01*
X142940476Y-123022380D02*
X143559523Y-123022380D01*
X143226190Y-123403333D01*
X143369047Y-123403333D01*
X143464285Y-123450952D01*
X143511904Y-123498571D01*
X143559523Y-123593809D01*
X143559523Y-123831904D01*
X143511904Y-123927142D01*
X143464285Y-123974761D01*
X143369047Y-124022380D01*
X143083333Y-124022380D01*
X142988095Y-123974761D01*
X142940476Y-123927142D01*
X144416666Y-123022380D02*
X144226190Y-123022380D01*
X144130952Y-123070000D01*
X144083333Y-123117619D01*
X143988095Y-123260476D01*
X143940476Y-123450952D01*
X143940476Y-123831904D01*
X143988095Y-123927142D01*
X144035714Y-123974761D01*
X144130952Y-124022380D01*
X144321428Y-124022380D01*
X144416666Y-123974761D01*
X144464285Y-123927142D01*
X144511904Y-123831904D01*
X144511904Y-123593809D01*
X144464285Y-123498571D01*
X144416666Y-123450952D01*
X144321428Y-123403333D01*
X144130952Y-123403333D01*
X144035714Y-123450952D01*
X143988095Y-123498571D01*
X143940476Y-123593809D01*
%TO.C,C18*%
X142607142Y-109857142D02*
X142559523Y-109904761D01*
X142416666Y-109952380D01*
X142321428Y-109952380D01*
X142178571Y-109904761D01*
X142083333Y-109809523D01*
X142035714Y-109714285D01*
X141988095Y-109523809D01*
X141988095Y-109380952D01*
X142035714Y-109190476D01*
X142083333Y-109095238D01*
X142178571Y-109000000D01*
X142321428Y-108952380D01*
X142416666Y-108952380D01*
X142559523Y-109000000D01*
X142607142Y-109047619D01*
X143559523Y-109952380D02*
X142988095Y-109952380D01*
X143273809Y-109952380D02*
X143273809Y-108952380D01*
X143178571Y-109095238D01*
X143083333Y-109190476D01*
X142988095Y-109238095D01*
X144130952Y-109380952D02*
X144035714Y-109333333D01*
X143988095Y-109285714D01*
X143940476Y-109190476D01*
X143940476Y-109142857D01*
X143988095Y-109047619D01*
X144035714Y-109000000D01*
X144130952Y-108952380D01*
X144321428Y-108952380D01*
X144416666Y-109000000D01*
X144464285Y-109047619D01*
X144511904Y-109142857D01*
X144511904Y-109190476D01*
X144464285Y-109285714D01*
X144416666Y-109333333D01*
X144321428Y-109380952D01*
X144130952Y-109380952D01*
X144035714Y-109428571D01*
X143988095Y-109476190D01*
X143940476Y-109571428D01*
X143940476Y-109761904D01*
X143988095Y-109857142D01*
X144035714Y-109904761D01*
X144130952Y-109952380D01*
X144321428Y-109952380D01*
X144416666Y-109904761D01*
X144464285Y-109857142D01*
X144511904Y-109761904D01*
X144511904Y-109571428D01*
X144464285Y-109476190D01*
X144416666Y-109428571D01*
X144321428Y-109380952D01*
%TO.C,R10*%
X163342142Y-108952380D02*
X163008809Y-108476190D01*
X162770714Y-108952380D02*
X162770714Y-107952380D01*
X163151666Y-107952380D01*
X163246904Y-108000000D01*
X163294523Y-108047619D01*
X163342142Y-108142857D01*
X163342142Y-108285714D01*
X163294523Y-108380952D01*
X163246904Y-108428571D01*
X163151666Y-108476190D01*
X162770714Y-108476190D01*
X164294523Y-108952380D02*
X163723095Y-108952380D01*
X164008809Y-108952380D02*
X164008809Y-107952380D01*
X163913571Y-108095238D01*
X163818333Y-108190476D01*
X163723095Y-108238095D01*
X164913571Y-107952380D02*
X165008809Y-107952380D01*
X165104047Y-108000000D01*
X165151666Y-108047619D01*
X165199285Y-108142857D01*
X165246904Y-108333333D01*
X165246904Y-108571428D01*
X165199285Y-108761904D01*
X165151666Y-108857142D01*
X165104047Y-108904761D01*
X165008809Y-108952380D01*
X164913571Y-108952380D01*
X164818333Y-108904761D01*
X164770714Y-108857142D01*
X164723095Y-108761904D01*
X164675476Y-108571428D01*
X164675476Y-108333333D01*
X164723095Y-108142857D01*
X164770714Y-108047619D01*
X164818333Y-108000000D01*
X164913571Y-107952380D01*
D12*
%TO.C,U5*%
X181769634Y-115457056D02*
X181769634Y-115717497D01*
X181784954Y-115748137D01*
X181800274Y-115763457D01*
X181830914Y-115778777D01*
X181892194Y-115778777D01*
X181922834Y-115763457D01*
X181938154Y-115748137D01*
X181953474Y-115717497D01*
X181953474Y-115457056D01*
X182259875Y-115457056D02*
X182106675Y-115457056D01*
X182091355Y-115610256D01*
X182106675Y-115594936D01*
X182137315Y-115579616D01*
X182213915Y-115579616D01*
X182244555Y-115594936D01*
X182259875Y-115610256D01*
X182275195Y-115640897D01*
X182275195Y-115717497D01*
X182259875Y-115748137D01*
X182244555Y-115763457D01*
X182213915Y-115778777D01*
X182137315Y-115778777D01*
X182106675Y-115763457D01*
X182091355Y-115748137D01*
D10*
%TO.C,R6*%
X185083333Y-93452380D02*
X184750000Y-92976190D01*
X184511904Y-93452380D02*
X184511904Y-92452380D01*
X184892857Y-92452380D01*
X184988095Y-92500000D01*
X185035714Y-92547619D01*
X185083333Y-92642857D01*
X185083333Y-92785714D01*
X185035714Y-92880952D01*
X184988095Y-92928571D01*
X184892857Y-92976190D01*
X184511904Y-92976190D01*
X185940476Y-92452380D02*
X185750000Y-92452380D01*
X185654761Y-92500000D01*
X185607142Y-92547619D01*
X185511904Y-92690476D01*
X185464285Y-92880952D01*
X185464285Y-93261904D01*
X185511904Y-93357142D01*
X185559523Y-93404761D01*
X185654761Y-93452380D01*
X185845238Y-93452380D01*
X185940476Y-93404761D01*
X185988095Y-93357142D01*
X186035714Y-93261904D01*
X186035714Y-93023809D01*
X185988095Y-92928571D01*
X185940476Y-92880952D01*
X185845238Y-92833333D01*
X185654761Y-92833333D01*
X185559523Y-92880952D01*
X185511904Y-92928571D01*
X185464285Y-93023809D01*
%TO.C,C11*%
X176357142Y-102107142D02*
X176309523Y-102154761D01*
X176166666Y-102202380D01*
X176071428Y-102202380D01*
X175928571Y-102154761D01*
X175833333Y-102059523D01*
X175785714Y-101964285D01*
X175738095Y-101773809D01*
X175738095Y-101630952D01*
X175785714Y-101440476D01*
X175833333Y-101345238D01*
X175928571Y-101250000D01*
X176071428Y-101202380D01*
X176166666Y-101202380D01*
X176309523Y-101250000D01*
X176357142Y-101297619D01*
X177309523Y-102202380D02*
X176738095Y-102202380D01*
X177023809Y-102202380D02*
X177023809Y-101202380D01*
X176928571Y-101345238D01*
X176833333Y-101440476D01*
X176738095Y-101488095D01*
X178261904Y-102202380D02*
X177690476Y-102202380D01*
X177976190Y-102202380D02*
X177976190Y-101202380D01*
X177880952Y-101345238D01*
X177785714Y-101440476D01*
X177690476Y-101488095D01*
%TO.C,U7*%
X135988095Y-123202380D02*
X135988095Y-124011904D01*
X136035714Y-124107142D01*
X136083333Y-124154761D01*
X136178571Y-124202380D01*
X136369047Y-124202380D01*
X136464285Y-124154761D01*
X136511904Y-124107142D01*
X136559523Y-124011904D01*
X136559523Y-123202380D01*
X136940476Y-123202380D02*
X137607142Y-123202380D01*
X137178571Y-124202380D01*
%TO.C,C10*%
X135177142Y-131635357D02*
X135224761Y-131682976D01*
X135272380Y-131825833D01*
X135272380Y-131921071D01*
X135224761Y-132063928D01*
X135129523Y-132159166D01*
X135034285Y-132206785D01*
X134843809Y-132254404D01*
X134700952Y-132254404D01*
X134510476Y-132206785D01*
X134415238Y-132159166D01*
X134320000Y-132063928D01*
X134272380Y-131921071D01*
X134272380Y-131825833D01*
X134320000Y-131682976D01*
X134367619Y-131635357D01*
X135272380Y-130682976D02*
X135272380Y-131254404D01*
X135272380Y-130968690D02*
X134272380Y-130968690D01*
X134415238Y-131063928D01*
X134510476Y-131159166D01*
X134558095Y-131254404D01*
X134272380Y-130063928D02*
X134272380Y-129968690D01*
X134320000Y-129873452D01*
X134367619Y-129825833D01*
X134462857Y-129778214D01*
X134653333Y-129730595D01*
X134891428Y-129730595D01*
X135081904Y-129778214D01*
X135177142Y-129825833D01*
X135224761Y-129873452D01*
X135272380Y-129968690D01*
X135272380Y-130063928D01*
X135224761Y-130159166D01*
X135177142Y-130206785D01*
X135081904Y-130254404D01*
X134891428Y-130302023D01*
X134653333Y-130302023D01*
X134462857Y-130254404D01*
X134367619Y-130206785D01*
X134320000Y-130159166D01*
X134272380Y-130063928D01*
%TO.C,Q1*%
X148904761Y-114097619D02*
X148809523Y-114050000D01*
X148714285Y-113954761D01*
X148571428Y-113811904D01*
X148476190Y-113764285D01*
X148380952Y-113764285D01*
X148428571Y-114002380D02*
X148333333Y-113954761D01*
X148238095Y-113859523D01*
X148190476Y-113669047D01*
X148190476Y-113335714D01*
X148238095Y-113145238D01*
X148333333Y-113050000D01*
X148428571Y-113002380D01*
X148619047Y-113002380D01*
X148714285Y-113050000D01*
X148809523Y-113145238D01*
X148857142Y-113335714D01*
X148857142Y-113669047D01*
X148809523Y-113859523D01*
X148714285Y-113954761D01*
X148619047Y-114002380D01*
X148428571Y-114002380D01*
X149809523Y-114002380D02*
X149238095Y-114002380D01*
X149523809Y-114002380D02*
X149523809Y-113002380D01*
X149428571Y-113145238D01*
X149333333Y-113240476D01*
X149238095Y-113288095D01*
%TO.C,SolarIn1*%
X173519761Y-87728571D02*
X173567380Y-87585714D01*
X173567380Y-87347619D01*
X173519761Y-87252380D01*
X173472142Y-87204761D01*
X173376904Y-87157142D01*
X173281666Y-87157142D01*
X173186428Y-87204761D01*
X173138809Y-87252380D01*
X173091190Y-87347619D01*
X173043571Y-87538095D01*
X172995952Y-87633333D01*
X172948333Y-87680952D01*
X172853095Y-87728571D01*
X172757857Y-87728571D01*
X172662619Y-87680952D01*
X172615000Y-87633333D01*
X172567380Y-87538095D01*
X172567380Y-87300000D01*
X172615000Y-87157142D01*
X173567380Y-86585714D02*
X173519761Y-86680952D01*
X173472142Y-86728571D01*
X173376904Y-86776190D01*
X173091190Y-86776190D01*
X172995952Y-86728571D01*
X172948333Y-86680952D01*
X172900714Y-86585714D01*
X172900714Y-86442857D01*
X172948333Y-86347619D01*
X172995952Y-86300000D01*
X173091190Y-86252380D01*
X173376904Y-86252380D01*
X173472142Y-86300000D01*
X173519761Y-86347619D01*
X173567380Y-86442857D01*
X173567380Y-86585714D01*
X173567380Y-85680952D02*
X173519761Y-85776190D01*
X173424523Y-85823809D01*
X172567380Y-85823809D01*
X173567380Y-84871428D02*
X173043571Y-84871428D01*
X172948333Y-84919047D01*
X172900714Y-85014285D01*
X172900714Y-85204761D01*
X172948333Y-85300000D01*
X173519761Y-84871428D02*
X173567380Y-84966666D01*
X173567380Y-85204761D01*
X173519761Y-85300000D01*
X173424523Y-85347619D01*
X173329285Y-85347619D01*
X173234047Y-85300000D01*
X173186428Y-85204761D01*
X173186428Y-84966666D01*
X173138809Y-84871428D01*
X173567380Y-84395238D02*
X172900714Y-84395238D01*
X173091190Y-84395238D02*
X172995952Y-84347619D01*
X172948333Y-84300000D01*
X172900714Y-84204761D01*
X172900714Y-84109523D01*
X173567380Y-83776190D02*
X172567380Y-83776190D01*
X172900714Y-83300000D02*
X173567380Y-83300000D01*
X172995952Y-83300000D02*
X172948333Y-83252380D01*
X172900714Y-83157142D01*
X172900714Y-83014285D01*
X172948333Y-82919047D01*
X173043571Y-82871428D01*
X173567380Y-82871428D01*
X173567380Y-81871428D02*
X173567380Y-82442857D01*
X173567380Y-82157142D02*
X172567380Y-82157142D01*
X172710238Y-82252380D01*
X172805476Y-82347619D01*
X172853095Y-82442857D01*
%TO.C,U8*%
X159452380Y-129761904D02*
X160261904Y-129761904D01*
X160357142Y-129714285D01*
X160404761Y-129666666D01*
X160452380Y-129571428D01*
X160452380Y-129380952D01*
X160404761Y-129285714D01*
X160357142Y-129238095D01*
X160261904Y-129190476D01*
X159452380Y-129190476D01*
X159880952Y-128571428D02*
X159833333Y-128666666D01*
X159785714Y-128714285D01*
X159690476Y-128761904D01*
X159642857Y-128761904D01*
X159547619Y-128714285D01*
X159500000Y-128666666D01*
X159452380Y-128571428D01*
X159452380Y-128380952D01*
X159500000Y-128285714D01*
X159547619Y-128238095D01*
X159642857Y-128190476D01*
X159690476Y-128190476D01*
X159785714Y-128238095D01*
X159833333Y-128285714D01*
X159880952Y-128380952D01*
X159880952Y-128571428D01*
X159928571Y-128666666D01*
X159976190Y-128714285D01*
X160071428Y-128761904D01*
X160261904Y-128761904D01*
X160357142Y-128714285D01*
X160404761Y-128666666D01*
X160452380Y-128571428D01*
X160452380Y-128380952D01*
X160404761Y-128285714D01*
X160357142Y-128238095D01*
X160261904Y-128190476D01*
X160071428Y-128190476D01*
X159976190Y-128238095D01*
X159928571Y-128285714D01*
X159880952Y-128380952D01*
%TO.C,C6*%
X165833333Y-100857142D02*
X165785714Y-100904761D01*
X165642857Y-100952380D01*
X165547619Y-100952380D01*
X165404761Y-100904761D01*
X165309523Y-100809523D01*
X165261904Y-100714285D01*
X165214285Y-100523809D01*
X165214285Y-100380952D01*
X165261904Y-100190476D01*
X165309523Y-100095238D01*
X165404761Y-100000000D01*
X165547619Y-99952380D01*
X165642857Y-99952380D01*
X165785714Y-100000000D01*
X165833333Y-100047619D01*
X166690476Y-99952380D02*
X166500000Y-99952380D01*
X166404761Y-100000000D01*
X166357142Y-100047619D01*
X166261904Y-100190476D01*
X166214285Y-100380952D01*
X166214285Y-100761904D01*
X166261904Y-100857142D01*
X166309523Y-100904761D01*
X166404761Y-100952380D01*
X166595238Y-100952380D01*
X166690476Y-100904761D01*
X166738095Y-100857142D01*
X166785714Y-100761904D01*
X166785714Y-100523809D01*
X166738095Y-100428571D01*
X166690476Y-100380952D01*
X166595238Y-100333333D01*
X166404761Y-100333333D01*
X166309523Y-100380952D01*
X166261904Y-100428571D01*
X166214285Y-100523809D01*
%TO.C,Bat1*%
X159598571Y-85672857D02*
X159646190Y-85530000D01*
X159693809Y-85482380D01*
X159789047Y-85434761D01*
X159931904Y-85434761D01*
X160027142Y-85482380D01*
X160074761Y-85530000D01*
X160122380Y-85625238D01*
X160122380Y-86006190D01*
X159122380Y-86006190D01*
X159122380Y-85672857D01*
X159170000Y-85577619D01*
X159217619Y-85530000D01*
X159312857Y-85482380D01*
X159408095Y-85482380D01*
X159503333Y-85530000D01*
X159550952Y-85577619D01*
X159598571Y-85672857D01*
X159598571Y-86006190D01*
X160122380Y-84577619D02*
X159598571Y-84577619D01*
X159503333Y-84625238D01*
X159455714Y-84720476D01*
X159455714Y-84910952D01*
X159503333Y-85006190D01*
X160074761Y-84577619D02*
X160122380Y-84672857D01*
X160122380Y-84910952D01*
X160074761Y-85006190D01*
X159979523Y-85053809D01*
X159884285Y-85053809D01*
X159789047Y-85006190D01*
X159741428Y-84910952D01*
X159741428Y-84672857D01*
X159693809Y-84577619D01*
X159455714Y-84244285D02*
X159455714Y-83863333D01*
X159122380Y-84101428D02*
X159979523Y-84101428D01*
X160074761Y-84053809D01*
X160122380Y-83958571D01*
X160122380Y-83863333D01*
X160122380Y-83006190D02*
X160122380Y-83577619D01*
X160122380Y-83291904D02*
X159122380Y-83291904D01*
X159265238Y-83387142D01*
X159360476Y-83482380D01*
X159408095Y-83577619D01*
%TO.C,U1*%
X157729880Y-99511904D02*
X158539404Y-99511904D01*
X158634642Y-99464285D01*
X158682261Y-99416666D01*
X158729880Y-99321428D01*
X158729880Y-99130952D01*
X158682261Y-99035714D01*
X158634642Y-98988095D01*
X158539404Y-98940476D01*
X157729880Y-98940476D01*
X158729880Y-97940476D02*
X158729880Y-98511904D01*
X158729880Y-98226190D02*
X157729880Y-98226190D01*
X157872738Y-98321428D01*
X157967976Y-98416666D01*
X158015595Y-98511904D01*
%TO.C,Charging1*%
X173607142Y-101226190D02*
X173654761Y-101273809D01*
X173702380Y-101416666D01*
X173702380Y-101511904D01*
X173654761Y-101654761D01*
X173559523Y-101750000D01*
X173464285Y-101797619D01*
X173273809Y-101845238D01*
X173130952Y-101845238D01*
X172940476Y-101797619D01*
X172845238Y-101750000D01*
X172750000Y-101654761D01*
X172702380Y-101511904D01*
X172702380Y-101416666D01*
X172750000Y-101273809D01*
X172797619Y-101226190D01*
X173702380Y-100797619D02*
X172702380Y-100797619D01*
X173702380Y-100369047D02*
X173178571Y-100369047D01*
X173083333Y-100416666D01*
X173035714Y-100511904D01*
X173035714Y-100654761D01*
X173083333Y-100750000D01*
X173130952Y-100797619D01*
X173702380Y-99464285D02*
X173178571Y-99464285D01*
X173083333Y-99511904D01*
X173035714Y-99607142D01*
X173035714Y-99797619D01*
X173083333Y-99892857D01*
X173654761Y-99464285D02*
X173702380Y-99559523D01*
X173702380Y-99797619D01*
X173654761Y-99892857D01*
X173559523Y-99940476D01*
X173464285Y-99940476D01*
X173369047Y-99892857D01*
X173321428Y-99797619D01*
X173321428Y-99559523D01*
X173273809Y-99464285D01*
X173702380Y-98988095D02*
X173035714Y-98988095D01*
X173226190Y-98988095D02*
X173130952Y-98940476D01*
X173083333Y-98892857D01*
X173035714Y-98797619D01*
X173035714Y-98702380D01*
X173035714Y-97940476D02*
X173845238Y-97940476D01*
X173940476Y-97988095D01*
X173988095Y-98035714D01*
X174035714Y-98130952D01*
X174035714Y-98273809D01*
X173988095Y-98369047D01*
X173654761Y-97940476D02*
X173702380Y-98035714D01*
X173702380Y-98226190D01*
X173654761Y-98321428D01*
X173607142Y-98369047D01*
X173511904Y-98416666D01*
X173226190Y-98416666D01*
X173130952Y-98369047D01*
X173083333Y-98321428D01*
X173035714Y-98226190D01*
X173035714Y-98035714D01*
X173083333Y-97940476D01*
X173702380Y-97464285D02*
X173035714Y-97464285D01*
X172702380Y-97464285D02*
X172750000Y-97511904D01*
X172797619Y-97464285D01*
X172750000Y-97416666D01*
X172702380Y-97464285D01*
X172797619Y-97464285D01*
X173035714Y-96988095D02*
X173702380Y-96988095D01*
X173130952Y-96988095D02*
X173083333Y-96940476D01*
X173035714Y-96845238D01*
X173035714Y-96702380D01*
X173083333Y-96607142D01*
X173178571Y-96559523D01*
X173702380Y-96559523D01*
X173035714Y-95654761D02*
X173845238Y-95654761D01*
X173940476Y-95702380D01*
X173988095Y-95750000D01*
X174035714Y-95845238D01*
X174035714Y-95988095D01*
X173988095Y-96083333D01*
X173654761Y-95654761D02*
X173702380Y-95750000D01*
X173702380Y-95940476D01*
X173654761Y-96035714D01*
X173607142Y-96083333D01*
X173511904Y-96130952D01*
X173226190Y-96130952D01*
X173130952Y-96083333D01*
X173083333Y-96035714D01*
X173035714Y-95940476D01*
X173035714Y-95750000D01*
X173083333Y-95654761D01*
X173702380Y-94654761D02*
X173702380Y-95226190D01*
X173702380Y-94940476D02*
X172702380Y-94940476D01*
X172845238Y-95035714D01*
X172940476Y-95130952D01*
X172988095Y-95226190D01*
%TO.C,C8*%
X179083333Y-107357142D02*
X179035714Y-107404761D01*
X178892857Y-107452380D01*
X178797619Y-107452380D01*
X178654761Y-107404761D01*
X178559523Y-107309523D01*
X178511904Y-107214285D01*
X178464285Y-107023809D01*
X178464285Y-106880952D01*
X178511904Y-106690476D01*
X178559523Y-106595238D01*
X178654761Y-106500000D01*
X178797619Y-106452380D01*
X178892857Y-106452380D01*
X179035714Y-106500000D01*
X179083333Y-106547619D01*
X179654761Y-106880952D02*
X179559523Y-106833333D01*
X179511904Y-106785714D01*
X179464285Y-106690476D01*
X179464285Y-106642857D01*
X179511904Y-106547619D01*
X179559523Y-106500000D01*
X179654761Y-106452380D01*
X179845238Y-106452380D01*
X179940476Y-106500000D01*
X179988095Y-106547619D01*
X180035714Y-106642857D01*
X180035714Y-106690476D01*
X179988095Y-106785714D01*
X179940476Y-106833333D01*
X179845238Y-106880952D01*
X179654761Y-106880952D01*
X179559523Y-106928571D01*
X179511904Y-106976190D01*
X179464285Y-107071428D01*
X179464285Y-107261904D01*
X179511904Y-107357142D01*
X179559523Y-107404761D01*
X179654761Y-107452380D01*
X179845238Y-107452380D01*
X179940476Y-107404761D01*
X179988095Y-107357142D01*
X180035714Y-107261904D01*
X180035714Y-107071428D01*
X179988095Y-106976190D01*
X179940476Y-106928571D01*
X179845238Y-106880952D01*
%TO.C,R8*%
X180522380Y-99416666D02*
X180046190Y-99750000D01*
X180522380Y-99988095D02*
X179522380Y-99988095D01*
X179522380Y-99607142D01*
X179570000Y-99511904D01*
X179617619Y-99464285D01*
X179712857Y-99416666D01*
X179855714Y-99416666D01*
X179950952Y-99464285D01*
X179998571Y-99511904D01*
X180046190Y-99607142D01*
X180046190Y-99988095D01*
X179950952Y-98845238D02*
X179903333Y-98940476D01*
X179855714Y-98988095D01*
X179760476Y-99035714D01*
X179712857Y-99035714D01*
X179617619Y-98988095D01*
X179570000Y-98940476D01*
X179522380Y-98845238D01*
X179522380Y-98654761D01*
X179570000Y-98559523D01*
X179617619Y-98511904D01*
X179712857Y-98464285D01*
X179760476Y-98464285D01*
X179855714Y-98511904D01*
X179903333Y-98559523D01*
X179950952Y-98654761D01*
X179950952Y-98845238D01*
X179998571Y-98940476D01*
X180046190Y-98988095D01*
X180141428Y-99035714D01*
X180331904Y-99035714D01*
X180427142Y-98988095D01*
X180474761Y-98940476D01*
X180522380Y-98845238D01*
X180522380Y-98654761D01*
X180474761Y-98559523D01*
X180427142Y-98511904D01*
X180331904Y-98464285D01*
X180141428Y-98464285D01*
X180046190Y-98511904D01*
X179998571Y-98559523D01*
X179950952Y-98654761D01*
%TO.C,R7*%
X187833333Y-100952380D02*
X187500000Y-100476190D01*
X187261904Y-100952380D02*
X187261904Y-99952380D01*
X187642857Y-99952380D01*
X187738095Y-100000000D01*
X187785714Y-100047619D01*
X187833333Y-100142857D01*
X187833333Y-100285714D01*
X187785714Y-100380952D01*
X187738095Y-100428571D01*
X187642857Y-100476190D01*
X187261904Y-100476190D01*
X188166666Y-99952380D02*
X188833333Y-99952380D01*
X188404761Y-100952380D01*
%TO.C,R32*%
X146357142Y-96402380D02*
X146023809Y-95926190D01*
X145785714Y-96402380D02*
X145785714Y-95402380D01*
X146166666Y-95402380D01*
X146261904Y-95450000D01*
X146309523Y-95497619D01*
X146357142Y-95592857D01*
X146357142Y-95735714D01*
X146309523Y-95830952D01*
X146261904Y-95878571D01*
X146166666Y-95926190D01*
X145785714Y-95926190D01*
X146690476Y-95402380D02*
X147309523Y-95402380D01*
X146976190Y-95783333D01*
X147119047Y-95783333D01*
X147214285Y-95830952D01*
X147261904Y-95878571D01*
X147309523Y-95973809D01*
X147309523Y-96211904D01*
X147261904Y-96307142D01*
X147214285Y-96354761D01*
X147119047Y-96402380D01*
X146833333Y-96402380D01*
X146738095Y-96354761D01*
X146690476Y-96307142D01*
X147690476Y-95497619D02*
X147738095Y-95450000D01*
X147833333Y-95402380D01*
X148071428Y-95402380D01*
X148166666Y-95450000D01*
X148214285Y-95497619D01*
X148261904Y-95592857D01*
X148261904Y-95688095D01*
X148214285Y-95830952D01*
X147642857Y-96402380D01*
X148261904Y-96402380D01*
%TO.C,R22*%
X184985714Y-113611904D02*
X184719047Y-113230952D01*
X184528571Y-113611904D02*
X184528571Y-112811904D01*
X184833333Y-112811904D01*
X184909523Y-112850000D01*
X184947619Y-112888095D01*
X184985714Y-112964285D01*
X184985714Y-113078571D01*
X184947619Y-113154761D01*
X184909523Y-113192857D01*
X184833333Y-113230952D01*
X184528571Y-113230952D01*
X185290476Y-112888095D02*
X185328571Y-112850000D01*
X185404761Y-112811904D01*
X185595238Y-112811904D01*
X185671428Y-112850000D01*
X185709523Y-112888095D01*
X185747619Y-112964285D01*
X185747619Y-113040476D01*
X185709523Y-113154761D01*
X185252380Y-113611904D01*
X185747619Y-113611904D01*
X186052380Y-112888095D02*
X186090476Y-112850000D01*
X186166666Y-112811904D01*
X186357142Y-112811904D01*
X186433333Y-112850000D01*
X186471428Y-112888095D01*
X186509523Y-112964285D01*
X186509523Y-113040476D01*
X186471428Y-113154761D01*
X186014285Y-113611904D01*
X186509523Y-113611904D01*
%TO.C,U4*%
X180713123Y-95455619D02*
X181231219Y-95455619D01*
X181292171Y-95425142D01*
X181322647Y-95394666D01*
X181353123Y-95333714D01*
X181353123Y-95211809D01*
X181322647Y-95150857D01*
X181292171Y-95120380D01*
X181231219Y-95089904D01*
X180713123Y-95089904D01*
X180926457Y-94510857D02*
X181353123Y-94510857D01*
X180682647Y-94663238D02*
X181139790Y-94815619D01*
X181139790Y-94419428D01*
%TO.C,R13*%
X161522380Y-95642857D02*
X161046190Y-95976190D01*
X161522380Y-96214285D02*
X160522380Y-96214285D01*
X160522380Y-95833333D01*
X160570000Y-95738095D01*
X160617619Y-95690476D01*
X160712857Y-95642857D01*
X160855714Y-95642857D01*
X160950952Y-95690476D01*
X160998571Y-95738095D01*
X161046190Y-95833333D01*
X161046190Y-96214285D01*
X161522380Y-94690476D02*
X161522380Y-95261904D01*
X161522380Y-94976190D02*
X160522380Y-94976190D01*
X160665238Y-95071428D01*
X160760476Y-95166666D01*
X160808095Y-95261904D01*
X160522380Y-94357142D02*
X160522380Y-93738095D01*
X160903333Y-94071428D01*
X160903333Y-93928571D01*
X160950952Y-93833333D01*
X160998571Y-93785714D01*
X161093809Y-93738095D01*
X161331904Y-93738095D01*
X161427142Y-93785714D01*
X161474761Y-93833333D01*
X161522380Y-93928571D01*
X161522380Y-94214285D01*
X161474761Y-94309523D01*
X161427142Y-94357142D01*
%TO.C,Ultra1*%
X165928571Y-119202380D02*
X165928571Y-120011904D01*
X165976190Y-120107142D01*
X166023809Y-120154761D01*
X166119047Y-120202380D01*
X166309523Y-120202380D01*
X166404761Y-120154761D01*
X166452380Y-120107142D01*
X166500000Y-120011904D01*
X166500000Y-119202380D01*
X167119047Y-120202380D02*
X167023809Y-120154761D01*
X166976190Y-120059523D01*
X166976190Y-119202380D01*
X167357142Y-119535714D02*
X167738095Y-119535714D01*
X167500000Y-119202380D02*
X167500000Y-120059523D01*
X167547619Y-120154761D01*
X167642857Y-120202380D01*
X167738095Y-120202380D01*
X168071428Y-120202380D02*
X168071428Y-119535714D01*
X168071428Y-119726190D02*
X168119047Y-119630952D01*
X168166666Y-119583333D01*
X168261904Y-119535714D01*
X168357142Y-119535714D01*
X169119047Y-120202380D02*
X169119047Y-119678571D01*
X169071428Y-119583333D01*
X168976190Y-119535714D01*
X168785714Y-119535714D01*
X168690476Y-119583333D01*
X169119047Y-120154761D02*
X169023809Y-120202380D01*
X168785714Y-120202380D01*
X168690476Y-120154761D01*
X168642857Y-120059523D01*
X168642857Y-119964285D01*
X168690476Y-119869047D01*
X168785714Y-119821428D01*
X169023809Y-119821428D01*
X169119047Y-119773809D01*
X170119047Y-120202380D02*
X169547619Y-120202380D01*
X169833333Y-120202380D02*
X169833333Y-119202380D01*
X169738095Y-119345238D01*
X169642857Y-119440476D01*
X169547619Y-119488095D01*
%TO.C,C3*%
X185583333Y-119357142D02*
X185535714Y-119404761D01*
X185392857Y-119452380D01*
X185297619Y-119452380D01*
X185154761Y-119404761D01*
X185059523Y-119309523D01*
X185011904Y-119214285D01*
X184964285Y-119023809D01*
X184964285Y-118880952D01*
X185011904Y-118690476D01*
X185059523Y-118595238D01*
X185154761Y-118500000D01*
X185297619Y-118452380D01*
X185392857Y-118452380D01*
X185535714Y-118500000D01*
X185583333Y-118547619D01*
X185916666Y-118452380D02*
X186535714Y-118452380D01*
X186202380Y-118833333D01*
X186345238Y-118833333D01*
X186440476Y-118880952D01*
X186488095Y-118928571D01*
X186535714Y-119023809D01*
X186535714Y-119261904D01*
X186488095Y-119357142D01*
X186440476Y-119404761D01*
X186345238Y-119452380D01*
X186059523Y-119452380D01*
X185964285Y-119404761D01*
X185916666Y-119357142D01*
%TO.C,Wind_Sen1*%
X158739285Y-109452380D02*
X158977380Y-110452380D01*
X159167857Y-109738095D01*
X159358333Y-110452380D01*
X159596428Y-109452380D01*
X159977380Y-110452380D02*
X159977380Y-109785714D01*
X159977380Y-109452380D02*
X159929761Y-109500000D01*
X159977380Y-109547619D01*
X160025000Y-109500000D01*
X159977380Y-109452380D01*
X159977380Y-109547619D01*
X160453571Y-109785714D02*
X160453571Y-110452380D01*
X160453571Y-109880952D02*
X160501190Y-109833333D01*
X160596428Y-109785714D01*
X160739285Y-109785714D01*
X160834523Y-109833333D01*
X160882142Y-109928571D01*
X160882142Y-110452380D01*
X161786904Y-110452380D02*
X161786904Y-109452380D01*
X161786904Y-110404761D02*
X161691666Y-110452380D01*
X161501190Y-110452380D01*
X161405952Y-110404761D01*
X161358333Y-110357142D01*
X161310714Y-110261904D01*
X161310714Y-109976190D01*
X161358333Y-109880952D01*
X161405952Y-109833333D01*
X161501190Y-109785714D01*
X161691666Y-109785714D01*
X161786904Y-109833333D01*
X162025000Y-110547619D02*
X162786904Y-110547619D01*
X162977380Y-110404761D02*
X163120238Y-110452380D01*
X163358333Y-110452380D01*
X163453571Y-110404761D01*
X163501190Y-110357142D01*
X163548809Y-110261904D01*
X163548809Y-110166666D01*
X163501190Y-110071428D01*
X163453571Y-110023809D01*
X163358333Y-109976190D01*
X163167857Y-109928571D01*
X163072619Y-109880952D01*
X163025000Y-109833333D01*
X162977380Y-109738095D01*
X162977380Y-109642857D01*
X163025000Y-109547619D01*
X163072619Y-109500000D01*
X163167857Y-109452380D01*
X163405952Y-109452380D01*
X163548809Y-109500000D01*
X164358333Y-110404761D02*
X164263095Y-110452380D01*
X164072619Y-110452380D01*
X163977380Y-110404761D01*
X163929761Y-110309523D01*
X163929761Y-109928571D01*
X163977380Y-109833333D01*
X164072619Y-109785714D01*
X164263095Y-109785714D01*
X164358333Y-109833333D01*
X164405952Y-109928571D01*
X164405952Y-110023809D01*
X163929761Y-110119047D01*
X164834523Y-109785714D02*
X164834523Y-110452380D01*
X164834523Y-109880952D02*
X164882142Y-109833333D01*
X164977380Y-109785714D01*
X165120238Y-109785714D01*
X165215476Y-109833333D01*
X165263095Y-109928571D01*
X165263095Y-110452380D01*
X166263095Y-110452380D02*
X165691666Y-110452380D01*
X165977380Y-110452380D02*
X165977380Y-109452380D01*
X165882142Y-109595238D01*
X165786904Y-109690476D01*
X165691666Y-109738095D01*
%TO.C,Rst1*%
X140892857Y-129202380D02*
X140559523Y-128726190D01*
X140321428Y-129202380D02*
X140321428Y-128202380D01*
X140702380Y-128202380D01*
X140797619Y-128250000D01*
X140845238Y-128297619D01*
X140892857Y-128392857D01*
X140892857Y-128535714D01*
X140845238Y-128630952D01*
X140797619Y-128678571D01*
X140702380Y-128726190D01*
X140321428Y-128726190D01*
X141273809Y-129154761D02*
X141369047Y-129202380D01*
X141559523Y-129202380D01*
X141654761Y-129154761D01*
X141702380Y-129059523D01*
X141702380Y-129011904D01*
X141654761Y-128916666D01*
X141559523Y-128869047D01*
X141416666Y-128869047D01*
X141321428Y-128821428D01*
X141273809Y-128726190D01*
X141273809Y-128678571D01*
X141321428Y-128583333D01*
X141416666Y-128535714D01*
X141559523Y-128535714D01*
X141654761Y-128583333D01*
X141988095Y-128535714D02*
X142369047Y-128535714D01*
X142130952Y-128202380D02*
X142130952Y-129059523D01*
X142178571Y-129154761D01*
X142273809Y-129202380D01*
X142369047Y-129202380D01*
X143226190Y-129202380D02*
X142654761Y-129202380D01*
X142940476Y-129202380D02*
X142940476Y-128202380D01*
X142845238Y-128345238D01*
X142750000Y-128440476D01*
X142654761Y-128488095D01*
%TO.C,C1*%
X132107142Y-131305433D02*
X132154761Y-131353052D01*
X132202380Y-131495909D01*
X132202380Y-131591147D01*
X132154761Y-131734005D01*
X132059523Y-131829243D01*
X131964285Y-131876862D01*
X131773809Y-131924481D01*
X131630952Y-131924481D01*
X131440476Y-131876862D01*
X131345238Y-131829243D01*
X131250000Y-131734005D01*
X131202380Y-131591147D01*
X131202380Y-131495909D01*
X131250000Y-131353052D01*
X131297619Y-131305433D01*
X132202380Y-130353052D02*
X132202380Y-130924481D01*
X132202380Y-130638767D02*
X131202380Y-130638767D01*
X131345238Y-130734005D01*
X131440476Y-130829243D01*
X131488095Y-130924481D01*
%TO.C,JTAG1*%
X160552380Y-136042857D02*
X161266666Y-136042857D01*
X161409523Y-136090476D01*
X161504761Y-136185714D01*
X161552380Y-136328571D01*
X161552380Y-136423809D01*
X160552380Y-135709523D02*
X160552380Y-135138095D01*
X161552380Y-135423809D02*
X160552380Y-135423809D01*
X161266666Y-134852380D02*
X161266666Y-134376190D01*
X161552380Y-134947619D02*
X160552380Y-134614285D01*
X161552380Y-134280952D01*
X160600000Y-133423809D02*
X160552380Y-133519047D01*
X160552380Y-133661904D01*
X160600000Y-133804761D01*
X160695238Y-133900000D01*
X160790476Y-133947619D01*
X160980952Y-133995238D01*
X161123809Y-133995238D01*
X161314285Y-133947619D01*
X161409523Y-133900000D01*
X161504761Y-133804761D01*
X161552380Y-133661904D01*
X161552380Y-133566666D01*
X161504761Y-133423809D01*
X161457142Y-133376190D01*
X161123809Y-133376190D01*
X161123809Y-133566666D01*
X161552380Y-132423809D02*
X161552380Y-132995238D01*
X161552380Y-132709523D02*
X160552380Y-132709523D01*
X160695238Y-132804761D01*
X160790476Y-132900000D01*
X160838095Y-132995238D01*
%TO.C,R29*%
X141857142Y-100022380D02*
X141523809Y-99546190D01*
X141285714Y-100022380D02*
X141285714Y-99022380D01*
X141666666Y-99022380D01*
X141761904Y-99070000D01*
X141809523Y-99117619D01*
X141857142Y-99212857D01*
X141857142Y-99355714D01*
X141809523Y-99450952D01*
X141761904Y-99498571D01*
X141666666Y-99546190D01*
X141285714Y-99546190D01*
X142238095Y-99117619D02*
X142285714Y-99070000D01*
X142380952Y-99022380D01*
X142619047Y-99022380D01*
X142714285Y-99070000D01*
X142761904Y-99117619D01*
X142809523Y-99212857D01*
X142809523Y-99308095D01*
X142761904Y-99450952D01*
X142190476Y-100022380D01*
X142809523Y-100022380D01*
X143285714Y-100022380D02*
X143476190Y-100022380D01*
X143571428Y-99974761D01*
X143619047Y-99927142D01*
X143714285Y-99784285D01*
X143761904Y-99593809D01*
X143761904Y-99212857D01*
X143714285Y-99117619D01*
X143666666Y-99070000D01*
X143571428Y-99022380D01*
X143380952Y-99022380D01*
X143285714Y-99070000D01*
X143238095Y-99117619D01*
X143190476Y-99212857D01*
X143190476Y-99450952D01*
X143238095Y-99546190D01*
X143285714Y-99593809D01*
X143380952Y-99641428D01*
X143571428Y-99641428D01*
X143666666Y-99593809D01*
X143714285Y-99546190D01*
X143761904Y-99450952D01*
%TO.C,U6*%
X137163095Y-95637380D02*
X137163095Y-96446904D01*
X137210714Y-96542142D01*
X137258333Y-96589761D01*
X137353571Y-96637380D01*
X137544047Y-96637380D01*
X137639285Y-96589761D01*
X137686904Y-96542142D01*
X137734523Y-96446904D01*
X137734523Y-95637380D01*
X138639285Y-95637380D02*
X138448809Y-95637380D01*
X138353571Y-95685000D01*
X138305952Y-95732619D01*
X138210714Y-95875476D01*
X138163095Y-96065952D01*
X138163095Y-96446904D01*
X138210714Y-96542142D01*
X138258333Y-96589761D01*
X138353571Y-96637380D01*
X138544047Y-96637380D01*
X138639285Y-96589761D01*
X138686904Y-96542142D01*
X138734523Y-96446904D01*
X138734523Y-96208809D01*
X138686904Y-96113571D01*
X138639285Y-96065952D01*
X138544047Y-96018333D01*
X138353571Y-96018333D01*
X138258333Y-96065952D01*
X138210714Y-96113571D01*
X138163095Y-96208809D01*
%TO.C,R5*%
X183452380Y-99416666D02*
X182976190Y-99750000D01*
X183452380Y-99988095D02*
X182452380Y-99988095D01*
X182452380Y-99607142D01*
X182500000Y-99511904D01*
X182547619Y-99464285D01*
X182642857Y-99416666D01*
X182785714Y-99416666D01*
X182880952Y-99464285D01*
X182928571Y-99511904D01*
X182976190Y-99607142D01*
X182976190Y-99988095D01*
X182452380Y-98511904D02*
X182452380Y-98988095D01*
X182928571Y-99035714D01*
X182880952Y-98988095D01*
X182833333Y-98892857D01*
X182833333Y-98654761D01*
X182880952Y-98559523D01*
X182928571Y-98511904D01*
X183023809Y-98464285D01*
X183261904Y-98464285D01*
X183357142Y-98511904D01*
X183404761Y-98559523D01*
X183452380Y-98654761D01*
X183452380Y-98892857D01*
X183404761Y-98988095D01*
X183357142Y-99035714D01*
%TO.C,U3*%
X176738095Y-118452380D02*
X176738095Y-119261904D01*
X176785714Y-119357142D01*
X176833333Y-119404761D01*
X176928571Y-119452380D01*
X177119047Y-119452380D01*
X177214285Y-119404761D01*
X177261904Y-119357142D01*
X177309523Y-119261904D01*
X177309523Y-118452380D01*
X177690476Y-118452380D02*
X178309523Y-118452380D01*
X177976190Y-118833333D01*
X178119047Y-118833333D01*
X178214285Y-118880952D01*
X178261904Y-118928571D01*
X178309523Y-119023809D01*
X178309523Y-119261904D01*
X178261904Y-119357142D01*
X178214285Y-119404761D01*
X178119047Y-119452380D01*
X177833333Y-119452380D01*
X177738095Y-119404761D01*
X177690476Y-119357142D01*
%TO.C,R2*%
X153583333Y-129022380D02*
X153250000Y-128546190D01*
X153011904Y-129022380D02*
X153011904Y-128022380D01*
X153392857Y-128022380D01*
X153488095Y-128070000D01*
X153535714Y-128117619D01*
X153583333Y-128212857D01*
X153583333Y-128355714D01*
X153535714Y-128450952D01*
X153488095Y-128498571D01*
X153392857Y-128546190D01*
X153011904Y-128546190D01*
X153964285Y-128117619D02*
X154011904Y-128070000D01*
X154107142Y-128022380D01*
X154345238Y-128022380D01*
X154440476Y-128070000D01*
X154488095Y-128117619D01*
X154535714Y-128212857D01*
X154535714Y-128308095D01*
X154488095Y-128450952D01*
X153916666Y-129022380D01*
X154535714Y-129022380D01*
%TO.C,R21*%
X172357142Y-118882380D02*
X172023809Y-118406190D01*
X171785714Y-118882380D02*
X171785714Y-117882380D01*
X172166666Y-117882380D01*
X172261904Y-117930000D01*
X172309523Y-117977619D01*
X172357142Y-118072857D01*
X172357142Y-118215714D01*
X172309523Y-118310952D01*
X172261904Y-118358571D01*
X172166666Y-118406190D01*
X171785714Y-118406190D01*
X172738095Y-117977619D02*
X172785714Y-117930000D01*
X172880952Y-117882380D01*
X173119047Y-117882380D01*
X173214285Y-117930000D01*
X173261904Y-117977619D01*
X173309523Y-118072857D01*
X173309523Y-118168095D01*
X173261904Y-118310952D01*
X172690476Y-118882380D01*
X173309523Y-118882380D01*
X174261904Y-118882380D02*
X173690476Y-118882380D01*
X173976190Y-118882380D02*
X173976190Y-117882380D01*
X173880952Y-118025238D01*
X173785714Y-118120476D01*
X173690476Y-118168095D01*
%TO.C,R11*%
X156857142Y-101452380D02*
X156523809Y-100976190D01*
X156285714Y-101452380D02*
X156285714Y-100452380D01*
X156666666Y-100452380D01*
X156761904Y-100500000D01*
X156809523Y-100547619D01*
X156857142Y-100642857D01*
X156857142Y-100785714D01*
X156809523Y-100880952D01*
X156761904Y-100928571D01*
X156666666Y-100976190D01*
X156285714Y-100976190D01*
X157809523Y-101452380D02*
X157238095Y-101452380D01*
X157523809Y-101452380D02*
X157523809Y-100452380D01*
X157428571Y-100595238D01*
X157333333Y-100690476D01*
X157238095Y-100738095D01*
X158761904Y-101452380D02*
X158190476Y-101452380D01*
X158476190Y-101452380D02*
X158476190Y-100452380D01*
X158380952Y-100595238D01*
X158285714Y-100690476D01*
X158190476Y-100738095D01*
%TO.C,UART1*%
X152328571Y-131152380D02*
X152328571Y-131961904D01*
X152376190Y-132057142D01*
X152423809Y-132104761D01*
X152519047Y-132152380D01*
X152709523Y-132152380D01*
X152804761Y-132104761D01*
X152852380Y-132057142D01*
X152900000Y-131961904D01*
X152900000Y-131152380D01*
X153328571Y-131866666D02*
X153804761Y-131866666D01*
X153233333Y-132152380D02*
X153566666Y-131152380D01*
X153900000Y-132152380D01*
X154804761Y-132152380D02*
X154471428Y-131676190D01*
X154233333Y-132152380D02*
X154233333Y-131152380D01*
X154614285Y-131152380D01*
X154709523Y-131200000D01*
X154757142Y-131247619D01*
X154804761Y-131342857D01*
X154804761Y-131485714D01*
X154757142Y-131580952D01*
X154709523Y-131628571D01*
X154614285Y-131676190D01*
X154233333Y-131676190D01*
X155090476Y-131152380D02*
X155661904Y-131152380D01*
X155376190Y-132152380D02*
X155376190Y-131152380D01*
X156519047Y-132152380D02*
X155947619Y-132152380D01*
X156233333Y-132152380D02*
X156233333Y-131152380D01*
X156138095Y-131295238D01*
X156042857Y-131390476D01*
X155947619Y-131438095D01*
%TO.C,R26*%
X154694642Y-115382380D02*
X154361309Y-114906190D01*
X154123214Y-115382380D02*
X154123214Y-114382380D01*
X154504166Y-114382380D01*
X154599404Y-114430000D01*
X154647023Y-114477619D01*
X154694642Y-114572857D01*
X154694642Y-114715714D01*
X154647023Y-114810952D01*
X154599404Y-114858571D01*
X154504166Y-114906190D01*
X154123214Y-114906190D01*
X155075595Y-114477619D02*
X155123214Y-114430000D01*
X155218452Y-114382380D01*
X155456547Y-114382380D01*
X155551785Y-114430000D01*
X155599404Y-114477619D01*
X155647023Y-114572857D01*
X155647023Y-114668095D01*
X155599404Y-114810952D01*
X155027976Y-115382380D01*
X155647023Y-115382380D01*
X156504166Y-114382380D02*
X156313690Y-114382380D01*
X156218452Y-114430000D01*
X156170833Y-114477619D01*
X156075595Y-114620476D01*
X156027976Y-114810952D01*
X156027976Y-115191904D01*
X156075595Y-115287142D01*
X156123214Y-115334761D01*
X156218452Y-115382380D01*
X156408928Y-115382380D01*
X156504166Y-115334761D01*
X156551785Y-115287142D01*
X156599404Y-115191904D01*
X156599404Y-114953809D01*
X156551785Y-114858571D01*
X156504166Y-114810952D01*
X156408928Y-114763333D01*
X156218452Y-114763333D01*
X156123214Y-114810952D01*
X156075595Y-114858571D01*
X156027976Y-114953809D01*
%TO.C,R31*%
X141607142Y-96452380D02*
X141273809Y-95976190D01*
X141035714Y-96452380D02*
X141035714Y-95452380D01*
X141416666Y-95452380D01*
X141511904Y-95500000D01*
X141559523Y-95547619D01*
X141607142Y-95642857D01*
X141607142Y-95785714D01*
X141559523Y-95880952D01*
X141511904Y-95928571D01*
X141416666Y-95976190D01*
X141035714Y-95976190D01*
X141940476Y-95452380D02*
X142559523Y-95452380D01*
X142226190Y-95833333D01*
X142369047Y-95833333D01*
X142464285Y-95880952D01*
X142511904Y-95928571D01*
X142559523Y-96023809D01*
X142559523Y-96261904D01*
X142511904Y-96357142D01*
X142464285Y-96404761D01*
X142369047Y-96452380D01*
X142083333Y-96452380D01*
X141988095Y-96404761D01*
X141940476Y-96357142D01*
X143511904Y-96452380D02*
X142940476Y-96452380D01*
X143226190Y-96452380D02*
X143226190Y-95452380D01*
X143130952Y-95595238D01*
X143035714Y-95690476D01*
X142940476Y-95738095D01*
%TO.C,R24*%
X154694642Y-118382380D02*
X154361309Y-117906190D01*
X154123214Y-118382380D02*
X154123214Y-117382380D01*
X154504166Y-117382380D01*
X154599404Y-117430000D01*
X154647023Y-117477619D01*
X154694642Y-117572857D01*
X154694642Y-117715714D01*
X154647023Y-117810952D01*
X154599404Y-117858571D01*
X154504166Y-117906190D01*
X154123214Y-117906190D01*
X155075595Y-117477619D02*
X155123214Y-117430000D01*
X155218452Y-117382380D01*
X155456547Y-117382380D01*
X155551785Y-117430000D01*
X155599404Y-117477619D01*
X155647023Y-117572857D01*
X155647023Y-117668095D01*
X155599404Y-117810952D01*
X155027976Y-118382380D01*
X155647023Y-118382380D01*
X156504166Y-117715714D02*
X156504166Y-118382380D01*
X156266071Y-117334761D02*
X156027976Y-118049047D01*
X156647023Y-118049047D01*
%TO.C,R20*%
X172932142Y-108632380D02*
X172598809Y-108156190D01*
X172360714Y-108632380D02*
X172360714Y-107632380D01*
X172741666Y-107632380D01*
X172836904Y-107680000D01*
X172884523Y-107727619D01*
X172932142Y-107822857D01*
X172932142Y-107965714D01*
X172884523Y-108060952D01*
X172836904Y-108108571D01*
X172741666Y-108156190D01*
X172360714Y-108156190D01*
X173313095Y-107727619D02*
X173360714Y-107680000D01*
X173455952Y-107632380D01*
X173694047Y-107632380D01*
X173789285Y-107680000D01*
X173836904Y-107727619D01*
X173884523Y-107822857D01*
X173884523Y-107918095D01*
X173836904Y-108060952D01*
X173265476Y-108632380D01*
X173884523Y-108632380D01*
X174503571Y-107632380D02*
X174598809Y-107632380D01*
X174694047Y-107680000D01*
X174741666Y-107727619D01*
X174789285Y-107822857D01*
X174836904Y-108013333D01*
X174836904Y-108251428D01*
X174789285Y-108441904D01*
X174741666Y-108537142D01*
X174694047Y-108584761D01*
X174598809Y-108632380D01*
X174503571Y-108632380D01*
X174408333Y-108584761D01*
X174360714Y-108537142D01*
X174313095Y-108441904D01*
X174265476Y-108251428D01*
X174265476Y-108013333D01*
X174313095Y-107822857D01*
X174360714Y-107727619D01*
X174408333Y-107680000D01*
X174503571Y-107632380D01*
%TO.C,R12*%
X164272380Y-95642857D02*
X163796190Y-95976190D01*
X164272380Y-96214285D02*
X163272380Y-96214285D01*
X163272380Y-95833333D01*
X163320000Y-95738095D01*
X163367619Y-95690476D01*
X163462857Y-95642857D01*
X163605714Y-95642857D01*
X163700952Y-95690476D01*
X163748571Y-95738095D01*
X163796190Y-95833333D01*
X163796190Y-96214285D01*
X164272380Y-94690476D02*
X164272380Y-95261904D01*
X164272380Y-94976190D02*
X163272380Y-94976190D01*
X163415238Y-95071428D01*
X163510476Y-95166666D01*
X163558095Y-95261904D01*
X163367619Y-94309523D02*
X163320000Y-94261904D01*
X163272380Y-94166666D01*
X163272380Y-93928571D01*
X163320000Y-93833333D01*
X163367619Y-93785714D01*
X163462857Y-93738095D01*
X163558095Y-93738095D01*
X163700952Y-93785714D01*
X164272380Y-94357142D01*
X164272380Y-93738095D01*
%TO.C,Rain1*%
X169915476Y-110452380D02*
X169582142Y-109976190D01*
X169344047Y-110452380D02*
X169344047Y-109452380D01*
X169725000Y-109452380D01*
X169820238Y-109500000D01*
X169867857Y-109547619D01*
X169915476Y-109642857D01*
X169915476Y-109785714D01*
X169867857Y-109880952D01*
X169820238Y-109928571D01*
X169725000Y-109976190D01*
X169344047Y-109976190D01*
X170772619Y-110452380D02*
X170772619Y-109928571D01*
X170725000Y-109833333D01*
X170629761Y-109785714D01*
X170439285Y-109785714D01*
X170344047Y-109833333D01*
X170772619Y-110404761D02*
X170677380Y-110452380D01*
X170439285Y-110452380D01*
X170344047Y-110404761D01*
X170296428Y-110309523D01*
X170296428Y-110214285D01*
X170344047Y-110119047D01*
X170439285Y-110071428D01*
X170677380Y-110071428D01*
X170772619Y-110023809D01*
X171248809Y-110452380D02*
X171248809Y-109785714D01*
X171248809Y-109452380D02*
X171201190Y-109500000D01*
X171248809Y-109547619D01*
X171296428Y-109500000D01*
X171248809Y-109452380D01*
X171248809Y-109547619D01*
X171725000Y-109785714D02*
X171725000Y-110452380D01*
X171725000Y-109880952D02*
X171772619Y-109833333D01*
X171867857Y-109785714D01*
X172010714Y-109785714D01*
X172105952Y-109833333D01*
X172153571Y-109928571D01*
X172153571Y-110452380D01*
X173153571Y-110452380D02*
X172582142Y-110452380D01*
X172867857Y-110452380D02*
X172867857Y-109452380D01*
X172772619Y-109595238D01*
X172677380Y-109690476D01*
X172582142Y-109738095D01*
%TO.C,C9*%
X169583333Y-93107142D02*
X169535714Y-93154761D01*
X169392857Y-93202380D01*
X169297619Y-93202380D01*
X169154761Y-93154761D01*
X169059523Y-93059523D01*
X169011904Y-92964285D01*
X168964285Y-92773809D01*
X168964285Y-92630952D01*
X169011904Y-92440476D01*
X169059523Y-92345238D01*
X169154761Y-92250000D01*
X169297619Y-92202380D01*
X169392857Y-92202380D01*
X169535714Y-92250000D01*
X169583333Y-92297619D01*
X170059523Y-93202380D02*
X170250000Y-93202380D01*
X170345238Y-93154761D01*
X170392857Y-93107142D01*
X170488095Y-92964285D01*
X170535714Y-92773809D01*
X170535714Y-92392857D01*
X170488095Y-92297619D01*
X170440476Y-92250000D01*
X170345238Y-92202380D01*
X170154761Y-92202380D01*
X170059523Y-92250000D01*
X170011904Y-92297619D01*
X169964285Y-92392857D01*
X169964285Y-92630952D01*
X170011904Y-92726190D01*
X170059523Y-92773809D01*
X170154761Y-92821428D01*
X170345238Y-92821428D01*
X170440476Y-92773809D01*
X170488095Y-92726190D01*
X170535714Y-92630952D01*
%TO.C,R17*%
X169019642Y-108702380D02*
X168686309Y-108226190D01*
X168448214Y-108702380D02*
X168448214Y-107702380D01*
X168829166Y-107702380D01*
X168924404Y-107750000D01*
X168972023Y-107797619D01*
X169019642Y-107892857D01*
X169019642Y-108035714D01*
X168972023Y-108130952D01*
X168924404Y-108178571D01*
X168829166Y-108226190D01*
X168448214Y-108226190D01*
X169972023Y-108702380D02*
X169400595Y-108702380D01*
X169686309Y-108702380D02*
X169686309Y-107702380D01*
X169591071Y-107845238D01*
X169495833Y-107940476D01*
X169400595Y-107988095D01*
X170305357Y-107702380D02*
X170972023Y-107702380D01*
X170543452Y-108702380D01*
%TO.C,R3*%
X159333333Y-121202380D02*
X159000000Y-120726190D01*
X158761904Y-121202380D02*
X158761904Y-120202380D01*
X159142857Y-120202380D01*
X159238095Y-120250000D01*
X159285714Y-120297619D01*
X159333333Y-120392857D01*
X159333333Y-120535714D01*
X159285714Y-120630952D01*
X159238095Y-120678571D01*
X159142857Y-120726190D01*
X158761904Y-120726190D01*
X159666666Y-120202380D02*
X160285714Y-120202380D01*
X159952380Y-120583333D01*
X160095238Y-120583333D01*
X160190476Y-120630952D01*
X160238095Y-120678571D01*
X160285714Y-120773809D01*
X160285714Y-121011904D01*
X160238095Y-121107142D01*
X160190476Y-121154761D01*
X160095238Y-121202380D01*
X159809523Y-121202380D01*
X159714285Y-121154761D01*
X159666666Y-121107142D01*
D13*
%TO.C,D6*%
X145450000Y-104750000D02*
X141600000Y-104750000D01*
X145450000Y-102750000D02*
X141600000Y-102750000D01*
X145450000Y-104750000D02*
X145450000Y-102750000D01*
%TO.C,D7*%
X137300000Y-122500000D02*
X133450000Y-122500000D01*
X137300000Y-120500000D02*
X133450000Y-120500000D01*
X137300000Y-122500000D02*
X137300000Y-120500000D01*
%TO.C,L1*%
X133679250Y-88120000D02*
X137544250Y-88120000D01*
X133679250Y-88120000D02*
X133679250Y-92010000D01*
X140054250Y-88120000D02*
X143919250Y-88120000D01*
X143919250Y-88120000D02*
X143934250Y-92010000D01*
X133679250Y-92010000D02*
X137544250Y-92010000D01*
X140069250Y-92010000D02*
X143934250Y-92010000D01*
%TO.C,L2*%
X137830000Y-108130000D02*
X137830000Y-111995000D01*
X137830000Y-108130000D02*
X133940000Y-108130000D01*
X137830000Y-114505000D02*
X137830000Y-118370000D01*
X137830000Y-118370000D02*
X133940000Y-118385000D01*
X133940000Y-108130000D02*
X133940000Y-111995000D01*
X133940000Y-114520000D02*
X133940000Y-118385000D01*
%TO.C,R34*%
X149082776Y-129022500D02*
X149592224Y-129022500D01*
X149082776Y-127977500D02*
X149592224Y-127977500D01*
%TO.C,C4*%
X179353733Y-95740000D02*
X179646267Y-95740000D01*
X179353733Y-96760000D02*
X179646267Y-96760000D01*
%TO.C,C14*%
X155770000Y-100000000D02*
G75*
G03*
X155770000Y-100000000I-3270000J0D01*
G01*
%TO.C,R30*%
X138495276Y-104772500D02*
X139004724Y-104772500D01*
X138495276Y-103727500D02*
X139004724Y-103727500D01*
%TO.C,Q2*%
X147200000Y-125960000D02*
X150800000Y-125960000D01*
X149000000Y-121509999D02*
G75*
G03*
X147161522Y-125948478I0J-2600001D01*
G01*
X150838478Y-125948478D02*
G75*
G03*
X149000000Y-121510000I-1838478J1838478D01*
G01*
%TO.C,C12*%
X180010000Y-116603733D02*
X180010000Y-116896267D01*
X178990000Y-116603733D02*
X178990000Y-116896267D01*
%TO.C,R25*%
X155504724Y-118727500D02*
X154995276Y-118727500D01*
X155504724Y-119772500D02*
X154995276Y-119772500D01*
%TO.C,C5*%
X179353733Y-92490000D02*
X179646267Y-92490000D01*
X179353733Y-93510000D02*
X179646267Y-93510000D01*
%TO.C,C2*%
X188511252Y-116265000D02*
X187988748Y-116265000D01*
X188511252Y-117735000D02*
X187988748Y-117735000D01*
%TO.C,C17*%
X133510000Y-127283767D02*
X133510000Y-126991233D01*
X132490000Y-127283767D02*
X132490000Y-126991233D01*
%TO.C,R33*%
X145254724Y-129022500D02*
X144745276Y-129022500D01*
X145254724Y-127977500D02*
X144745276Y-127977500D01*
%TO.C,Wind1*%
X154450000Y-111235000D02*
X156910000Y-111235000D01*
X156910000Y-111235000D02*
X156910000Y-109765000D01*
X156910000Y-109765000D02*
X154450000Y-109765000D01*
%TO.C,C7*%
X160103733Y-106240000D02*
X160396267Y-106240000D01*
X160103733Y-107260000D02*
X160396267Y-107260000D01*
D14*
%TO.C,U2*%
X177570000Y-106625000D02*
X177570000Y-105375000D01*
X175930000Y-106625000D02*
X175930000Y-105375000D01*
D11*
X176450000Y-107475000D02*
G75*
G03*
X176450000Y-107475000I-100000J0D01*
G01*
D13*
%TO.C,R4*%
X179022500Y-99504724D02*
X179022500Y-98995276D01*
X177977500Y-99504724D02*
X177977500Y-98995276D01*
%TO.C,R9*%
X187995276Y-112022500D02*
X188504724Y-112022500D01*
X187995276Y-110977500D02*
X188504724Y-110977500D01*
%TO.C,Q3*%
X147450000Y-111960000D02*
X151050000Y-111960000D01*
X149250000Y-107509999D02*
G75*
G03*
X147411522Y-111948478I0J-2600001D01*
G01*
X151088478Y-111948478D02*
G75*
G03*
X149250000Y-107510000I-1838478J1838478D01*
G01*
%TO.C,R19*%
X155667224Y-121727500D02*
X155157776Y-121727500D01*
X155667224Y-122772500D02*
X155157776Y-122772500D01*
%TO.C,R16*%
X159754724Y-124727500D02*
X159245276Y-124727500D01*
X159754724Y-125772500D02*
X159245276Y-125772500D01*
%TO.C,R28*%
X155504724Y-106977500D02*
X154995276Y-106977500D01*
X155504724Y-108022500D02*
X154995276Y-108022500D01*
%TO.C,C15*%
X145370000Y-120500000D02*
G75*
G03*
X145370000Y-120500000I-2120000J0D01*
G01*
%TO.C,R35*%
X139504724Y-123272500D02*
X138995276Y-123272500D01*
X139504724Y-122227500D02*
X138995276Y-122227500D01*
%TO.C,R18*%
X173320276Y-103227500D02*
X173829724Y-103227500D01*
X173320276Y-104272500D02*
X173829724Y-104272500D01*
%TO.C,R1*%
X169917224Y-104272500D02*
X169407776Y-104272500D01*
X169917224Y-103227500D02*
X169407776Y-103227500D01*
%TO.C,C16*%
X134610000Y-100884165D02*
X134610000Y-101115835D01*
X133890000Y-100884165D02*
X133890000Y-101115835D01*
%TO.C,R23*%
X188504724Y-114477500D02*
X187995276Y-114477500D01*
X188504724Y-115522500D02*
X187995276Y-115522500D01*
%TO.C,Main1*%
X156910000Y-125985000D02*
X156910000Y-124515000D01*
X154450000Y-125985000D02*
X156910000Y-125985000D01*
X156910000Y-124515000D02*
X154450000Y-124515000D01*
%TO.C,Air1*%
X170230000Y-128420000D02*
X165090000Y-128420000D01*
X172830000Y-128420000D02*
X172830000Y-129750000D01*
X170230000Y-131080000D02*
X165090000Y-131080000D01*
X171500000Y-128420000D02*
X172830000Y-128420000D01*
X165090000Y-128420000D02*
X165090000Y-131080000D01*
X170230000Y-128420000D02*
X170230000Y-131080000D01*
%TO.C,Short1*%
X168950000Y-101235000D02*
X171410000Y-101235000D01*
X171410000Y-101235000D02*
X171410000Y-99765000D01*
X171410000Y-99765000D02*
X168950000Y-99765000D01*
%TO.C,R27*%
X147745276Y-105272500D02*
X148254724Y-105272500D01*
X147745276Y-104227500D02*
X148254724Y-104227500D01*
%TO.C,UV1*%
X182775000Y-111020000D02*
X184105000Y-111020000D01*
X181505000Y-111020000D02*
X176365000Y-111020000D01*
X181505000Y-113680000D02*
X176365000Y-113680000D01*
X181505000Y-111020000D02*
X181505000Y-113680000D01*
X184105000Y-111020000D02*
X184105000Y-112350000D01*
X176365000Y-111020000D02*
X176365000Y-113680000D01*
%TO.C,First1*%
X187200000Y-96485000D02*
X189660000Y-96485000D01*
X189660000Y-96485000D02*
X189660000Y-95015000D01*
X189660000Y-95015000D02*
X187200000Y-95015000D01*
%TO.C,Program1*%
X188750000Y-106000000D02*
X188750000Y-104500000D01*
X187500000Y-102000000D02*
X183000000Y-102000000D01*
X181750000Y-104500000D02*
X181750000Y-106000000D01*
X183000000Y-108500000D02*
X187500000Y-108500000D01*
%TO.C,C13*%
X155120000Y-91750000D02*
G75*
G03*
X155120000Y-91750000I-2620000J0D01*
G01*
%TO.C,R14*%
X160272500Y-95254724D02*
X160272500Y-94745276D01*
X159227500Y-95254724D02*
X159227500Y-94745276D01*
%TO.C,R36*%
X142995276Y-125522500D02*
X143504724Y-125522500D01*
X142995276Y-124477500D02*
X143504724Y-124477500D01*
%TO.C,C18*%
X145870000Y-113250000D02*
G75*
G03*
X145870000Y-113250000I-2620000J0D01*
G01*
%TO.C,R10*%
X164254724Y-107272500D02*
X163745276Y-107272500D01*
X164254724Y-106227500D02*
X163745276Y-106227500D01*
D14*
%TO.C,U5*%
X180950000Y-116115000D02*
X183550000Y-116115000D01*
X180950000Y-118885000D02*
X183550000Y-118885000D01*
D11*
X183900000Y-116500000D02*
G75*
G03*
X183900000Y-116500000I-50000J0D01*
G01*
D13*
%TO.C,R6*%
X188254724Y-93522500D02*
X187745276Y-93522500D01*
X188254724Y-92477500D02*
X187745276Y-92477500D01*
%TO.C,C11*%
X179760000Y-103896267D02*
X179760000Y-103603733D01*
X178740000Y-103896267D02*
X178740000Y-103603733D01*
D14*
%TO.C,U7*%
X135337500Y-124700000D02*
X135337500Y-125070000D01*
X135337500Y-128800000D02*
X135337500Y-128430000D01*
X139437500Y-124700000D02*
X135337500Y-124700000D01*
X139437500Y-128800000D02*
X135337500Y-128800000D01*
X139437500Y-128800000D02*
X139437500Y-128430000D01*
X139437500Y-124700000D02*
X139437500Y-125070000D01*
D11*
X134267500Y-125450000D02*
G75*
G03*
X134267500Y-125450000I-100000J0D01*
G01*
D13*
%TO.C,C10*%
X135740000Y-131138767D02*
X135740000Y-130846233D01*
X136760000Y-131138767D02*
X136760000Y-130846233D01*
%TO.C,Q1*%
X147200000Y-118960000D02*
X150800000Y-118960000D01*
X150838478Y-118948478D02*
G75*
G03*
X149000000Y-114510000I-1838478J1838478D01*
G01*
X149000000Y-114509999D02*
G75*
G03*
X147161522Y-118948478I0J-2600001D01*
G01*
%TO.C,SolarIn1*%
X174165000Y-81400000D02*
X174665000Y-81150000D01*
X174165000Y-86250000D02*
X174165000Y-91350000D01*
X174665000Y-81150000D02*
X174665000Y-86550000D01*
X185015000Y-78750000D02*
X174665000Y-78750000D01*
X174665000Y-79700000D02*
X174165000Y-79450000D01*
X174165000Y-91350000D02*
X185015000Y-91350000D01*
X174165000Y-79450000D02*
X174165000Y-81350000D01*
X174165000Y-81350000D02*
X174165000Y-81400000D01*
X174665000Y-86550000D02*
X174165000Y-86250000D01*
X185015000Y-91350000D02*
X185015000Y-78750000D01*
X174665000Y-78750000D02*
X174665000Y-79700000D01*
%TO.C,U8*%
X163160000Y-129700000D02*
X163160000Y-128300000D01*
X160840000Y-128300000D02*
X160840000Y-130200000D01*
%TO.C,C6*%
X165490000Y-103146267D02*
X165490000Y-102853733D01*
X166510000Y-103146267D02*
X166510000Y-102853733D01*
%TO.C,Bat1*%
X171950000Y-78750000D02*
X161600000Y-78750000D01*
X161600000Y-79700000D02*
X161100000Y-79450000D01*
X161600000Y-81150000D02*
X161600000Y-86550000D01*
X161600000Y-86550000D02*
X161100000Y-86250000D01*
X161600000Y-78750000D02*
X161600000Y-79700000D01*
X161100000Y-81400000D02*
X161600000Y-81150000D01*
X171950000Y-91350000D02*
X171950000Y-78750000D01*
X161100000Y-79450000D02*
X161100000Y-81350000D01*
X161100000Y-91350000D02*
X171950000Y-91350000D01*
X161100000Y-86250000D02*
X161100000Y-91350000D01*
X161100000Y-81350000D02*
X161100000Y-81400000D01*
D14*
%TO.C,U1*%
X164437500Y-103200000D02*
X164437500Y-99300000D01*
X159387500Y-103200000D02*
X159387500Y-99300000D01*
D11*
X160107500Y-105320000D02*
G75*
G03*
X160107500Y-105320000I-100000J0D01*
G01*
D13*
%TO.C,Charging1*%
X175735000Y-99910000D02*
X175735000Y-97450000D01*
X174265000Y-97450000D02*
X174265000Y-99910000D01*
X174265000Y-99910000D02*
X175735000Y-99910000D01*
%TO.C,C8*%
X176951248Y-108015000D02*
X177473752Y-108015000D01*
X176951248Y-109485000D02*
X177473752Y-109485000D01*
%TO.C,R8*%
X180977500Y-99504724D02*
X180977500Y-98995276D01*
X182022500Y-99504724D02*
X182022500Y-98995276D01*
%TO.C,R7*%
X188254724Y-99522500D02*
X187745276Y-99522500D01*
X188254724Y-98477500D02*
X187745276Y-98477500D01*
%TO.C,R32*%
X147660000Y-98472936D02*
X147660000Y-99927064D01*
X145840000Y-98472936D02*
X145840000Y-99927064D01*
%TO.C,R22*%
X188504724Y-112727500D02*
X187995276Y-112727500D01*
X188504724Y-113772500D02*
X187995276Y-113772500D01*
D14*
%TO.C,U4*%
X184230000Y-96000000D02*
X184230000Y-94000000D01*
X181770000Y-96000000D02*
X181770000Y-94000000D01*
D11*
X182200000Y-96900000D02*
G75*
G03*
X182200000Y-96900000I-100000J0D01*
G01*
D13*
%TO.C,R13*%
X161977500Y-95254724D02*
X161977500Y-94745276D01*
X163022500Y-95254724D02*
X163022500Y-94745276D01*
%TO.C,Ultra1*%
X170230000Y-124080000D02*
X162550000Y-124080000D01*
X162550000Y-121420000D02*
X162550000Y-124080000D01*
X171500000Y-121420000D02*
X172830000Y-121420000D01*
X170230000Y-121420000D02*
X162550000Y-121420000D01*
X170230000Y-121420000D02*
X170230000Y-124080000D01*
X172830000Y-121420000D02*
X172830000Y-122750000D01*
%TO.C,C3*%
X188646267Y-118490000D02*
X188353733Y-118490000D01*
X188646267Y-119510000D02*
X188353733Y-119510000D01*
%TO.C,Wind_Sen1*%
X165025000Y-111670000D02*
X166355000Y-111670000D01*
X158615000Y-111670000D02*
X158615000Y-114330000D01*
X163755000Y-111670000D02*
X158615000Y-111670000D01*
X163755000Y-111670000D02*
X163755000Y-114330000D01*
X166355000Y-111670000D02*
X166355000Y-113000000D01*
X163755000Y-114330000D02*
X158615000Y-114330000D01*
%TO.C,Rst1*%
X138880000Y-132690000D02*
X138880000Y-134190000D01*
X144630000Y-130190000D02*
X140130000Y-130190000D01*
X140130000Y-136690000D02*
X144630000Y-136690000D01*
X145880000Y-134190000D02*
X145880000Y-132690000D01*
%TO.C,C1*%
X133760000Y-130846233D02*
X133760000Y-131138767D01*
X132740000Y-130846233D02*
X132740000Y-131138767D01*
%TO.C,JTAG1*%
X172900000Y-135580000D02*
X172900000Y-132920000D01*
X165220000Y-135580000D02*
X165220000Y-132920000D01*
X162620000Y-135580000D02*
X162620000Y-134250000D01*
X165220000Y-135580000D02*
X172900000Y-135580000D01*
X165220000Y-132920000D02*
X172900000Y-132920000D01*
X163950000Y-135580000D02*
X162620000Y-135580000D01*
%TO.C,R29*%
X142245276Y-100477500D02*
X142754724Y-100477500D01*
X142245276Y-101522500D02*
X142754724Y-101522500D01*
D14*
%TO.C,U6*%
X139800000Y-97700000D02*
X139800000Y-98070000D01*
X135700000Y-97700000D02*
X135700000Y-98070000D01*
X135700000Y-101800000D02*
X135700000Y-101430000D01*
X139800000Y-101800000D02*
X135700000Y-101800000D01*
X139800000Y-97700000D02*
X135700000Y-97700000D01*
X139800000Y-101800000D02*
X139800000Y-101430000D01*
D11*
X134630000Y-98450000D02*
G75*
G03*
X134630000Y-98450000I-100000J0D01*
G01*
D13*
%TO.C,R5*%
X185022500Y-99504724D02*
X185022500Y-98995276D01*
X183977500Y-99504724D02*
X183977500Y-98995276D01*
D14*
%TO.C,U3*%
X174600000Y-135737500D02*
X174600000Y-120337500D01*
D13*
%TO.C,R2*%
X153495276Y-129477500D02*
X154004724Y-129477500D01*
X153495276Y-130522500D02*
X154004724Y-130522500D01*
%TO.C,R21*%
X173254724Y-117522500D02*
X172745276Y-117522500D01*
X173254724Y-116477500D02*
X172745276Y-116477500D01*
%TO.C,R11*%
X158272500Y-103245276D02*
X158272500Y-103754724D01*
X157227500Y-103245276D02*
X157227500Y-103754724D01*
%TO.C,UART1*%
X151770000Y-135580000D02*
X151770000Y-132920000D01*
X149170000Y-135580000D02*
X149170000Y-134250000D01*
X150500000Y-135580000D02*
X149170000Y-135580000D01*
X151770000Y-132920000D02*
X159450000Y-132920000D01*
X159450000Y-135580000D02*
X159450000Y-132920000D01*
X151770000Y-135580000D02*
X159450000Y-135580000D01*
%TO.C,R26*%
X155592224Y-114022500D02*
X155082776Y-114022500D01*
X155592224Y-112977500D02*
X155082776Y-112977500D01*
%TO.C,R31*%
X142754724Y-98272500D02*
X142245276Y-98272500D01*
X142754724Y-97227500D02*
X142245276Y-97227500D01*
%TO.C,R24*%
X155592224Y-115977500D02*
X155082776Y-115977500D01*
X155592224Y-117022500D02*
X155082776Y-117022500D01*
%TO.C,R20*%
X173829724Y-106227500D02*
X173320276Y-106227500D01*
X173829724Y-107272500D02*
X173320276Y-107272500D01*
%TO.C,R12*%
X164727500Y-95254724D02*
X164727500Y-94745276D01*
X165772500Y-95254724D02*
X165772500Y-94745276D01*
%TO.C,Rain1*%
X173845000Y-114330000D02*
X173845000Y-111670000D01*
X168645000Y-114330000D02*
X168645000Y-113000000D01*
X171245000Y-114330000D02*
X171245000Y-111670000D01*
X171245000Y-114330000D02*
X173845000Y-114330000D01*
X171245000Y-111670000D02*
X173845000Y-111670000D01*
X169975000Y-114330000D02*
X168645000Y-114330000D01*
%TO.C,C9*%
X172370000Y-96500000D02*
G75*
G03*
X172370000Y-96500000I-2620000J0D01*
G01*
%TO.C,R17*%
X169320276Y-107272500D02*
X169829724Y-107272500D01*
X169320276Y-106227500D02*
X169829724Y-106227500D01*
%TO.C,R3*%
X159245276Y-121727500D02*
X159754724Y-121727500D01*
X159245276Y-122772500D02*
X159754724Y-122772500D01*
%TD*%
%LPC*%
%TO.C,U1*%
G36*
X161605500Y-103106000D02*
G01*
X161607500Y-103106000D01*
X161610500Y-103107000D01*
X161612500Y-103107000D01*
X161615500Y-103108000D01*
X161617500Y-103109000D01*
X161620500Y-103110000D01*
X161622500Y-103112000D01*
X161624500Y-103113000D01*
X161626500Y-103115000D01*
X161628500Y-103116000D01*
X161636500Y-103124000D01*
X161637500Y-103126000D01*
X161639500Y-103128000D01*
X161640500Y-103130000D01*
X161642500Y-103132000D01*
X161643500Y-103135000D01*
X161644500Y-103137000D01*
X161645500Y-103140000D01*
X161645500Y-103142000D01*
X161646500Y-103145000D01*
X161646500Y-103147000D01*
X161647500Y-103150000D01*
X161647500Y-104750000D01*
X161646500Y-104753000D01*
X161646500Y-104755000D01*
X161645500Y-104758000D01*
X161645500Y-104760000D01*
X161644500Y-104763000D01*
X161643500Y-104765000D01*
X161642500Y-104768000D01*
X161640500Y-104770000D01*
X161639500Y-104772000D01*
X161637500Y-104774000D01*
X161636500Y-104776000D01*
X161628500Y-104784000D01*
X161626500Y-104785000D01*
X161624500Y-104787000D01*
X161622500Y-104788000D01*
X161620500Y-104790000D01*
X161617500Y-104791000D01*
X161615500Y-104792000D01*
X161612500Y-104793000D01*
X161610500Y-104793000D01*
X161607500Y-104794000D01*
X161605500Y-104794000D01*
X161602500Y-104795000D01*
X160952500Y-104795000D01*
X160949500Y-104794000D01*
X160947500Y-104794000D01*
X160944500Y-104793000D01*
X160942500Y-104793000D01*
X160939500Y-104792000D01*
X160937500Y-104791000D01*
X160934500Y-104790000D01*
X160932500Y-104788000D01*
X160930500Y-104787000D01*
X160928500Y-104785000D01*
X160926500Y-104784000D01*
X160918500Y-104776000D01*
X160917500Y-104774000D01*
X160915500Y-104772000D01*
X160914500Y-104770000D01*
X160912500Y-104768000D01*
X160911500Y-104765000D01*
X160910500Y-104763000D01*
X160909500Y-104760000D01*
X160909500Y-104758000D01*
X160908500Y-104755000D01*
X160908500Y-104753000D01*
X160907500Y-104750000D01*
X160907500Y-103150000D01*
X160908500Y-103147000D01*
X160908500Y-103145000D01*
X160909500Y-103142000D01*
X160909500Y-103140000D01*
X160910500Y-103137000D01*
X160911500Y-103135000D01*
X160912500Y-103132000D01*
X160914500Y-103130000D01*
X160915500Y-103128000D01*
X160917500Y-103126000D01*
X160918500Y-103124000D01*
X160926500Y-103116000D01*
X160928500Y-103115000D01*
X160930500Y-103113000D01*
X160932500Y-103112000D01*
X160934500Y-103110000D01*
X160937500Y-103109000D01*
X160939500Y-103108000D01*
X160942500Y-103107000D01*
X160944500Y-103107000D01*
X160947500Y-103106000D01*
X160949500Y-103106000D01*
X160952500Y-103105000D01*
X161602500Y-103105000D01*
X161605500Y-103106000D01*
G37*
D15*
X161605500Y-103106000D02*
X161607500Y-103106000D01*
X161610500Y-103107000D01*
X161612500Y-103107000D01*
X161615500Y-103108000D01*
X161617500Y-103109000D01*
X161620500Y-103110000D01*
X161622500Y-103112000D01*
X161624500Y-103113000D01*
X161626500Y-103115000D01*
X161628500Y-103116000D01*
X161636500Y-103124000D01*
X161637500Y-103126000D01*
X161639500Y-103128000D01*
X161640500Y-103130000D01*
X161642500Y-103132000D01*
X161643500Y-103135000D01*
X161644500Y-103137000D01*
X161645500Y-103140000D01*
X161645500Y-103142000D01*
X161646500Y-103145000D01*
X161646500Y-103147000D01*
X161647500Y-103150000D01*
X161647500Y-104750000D01*
X161646500Y-104753000D01*
X161646500Y-104755000D01*
X161645500Y-104758000D01*
X161645500Y-104760000D01*
X161644500Y-104763000D01*
X161643500Y-104765000D01*
X161642500Y-104768000D01*
X161640500Y-104770000D01*
X161639500Y-104772000D01*
X161637500Y-104774000D01*
X161636500Y-104776000D01*
X161628500Y-104784000D01*
X161626500Y-104785000D01*
X161624500Y-104787000D01*
X161622500Y-104788000D01*
X161620500Y-104790000D01*
X161617500Y-104791000D01*
X161615500Y-104792000D01*
X161612500Y-104793000D01*
X161610500Y-104793000D01*
X161607500Y-104794000D01*
X161605500Y-104794000D01*
X161602500Y-104795000D01*
X160952500Y-104795000D01*
X160949500Y-104794000D01*
X160947500Y-104794000D01*
X160944500Y-104793000D01*
X160942500Y-104793000D01*
X160939500Y-104792000D01*
X160937500Y-104791000D01*
X160934500Y-104790000D01*
X160932500Y-104788000D01*
X160930500Y-104787000D01*
X160928500Y-104785000D01*
X160926500Y-104784000D01*
X160918500Y-104776000D01*
X160917500Y-104774000D01*
X160915500Y-104772000D01*
X160914500Y-104770000D01*
X160912500Y-104768000D01*
X160911500Y-104765000D01*
X160910500Y-104763000D01*
X160909500Y-104760000D01*
X160909500Y-104758000D01*
X160908500Y-104755000D01*
X160908500Y-104753000D01*
X160907500Y-104750000D01*
X160907500Y-103150000D01*
X160908500Y-103147000D01*
X160908500Y-103145000D01*
X160909500Y-103142000D01*
X160909500Y-103140000D01*
X160910500Y-103137000D01*
X160911500Y-103135000D01*
X160912500Y-103132000D01*
X160914500Y-103130000D01*
X160915500Y-103128000D01*
X160917500Y-103126000D01*
X160918500Y-103124000D01*
X160926500Y-103116000D01*
X160928500Y-103115000D01*
X160930500Y-103113000D01*
X160932500Y-103112000D01*
X160934500Y-103110000D01*
X160937500Y-103109000D01*
X160939500Y-103108000D01*
X160942500Y-103107000D01*
X160944500Y-103107000D01*
X160947500Y-103106000D01*
X160949500Y-103106000D01*
X160952500Y-103105000D01*
X161602500Y-103105000D01*
X161605500Y-103106000D01*
G36*
X162875500Y-97706000D02*
G01*
X162877500Y-97706000D01*
X162880500Y-97707000D01*
X162882500Y-97707000D01*
X162885500Y-97708000D01*
X162887500Y-97709000D01*
X162890500Y-97710000D01*
X162892500Y-97712000D01*
X162894500Y-97713000D01*
X162896500Y-97715000D01*
X162898500Y-97716000D01*
X162906500Y-97724000D01*
X162907500Y-97726000D01*
X162909500Y-97728000D01*
X162910500Y-97730000D01*
X162912500Y-97732000D01*
X162913500Y-97735000D01*
X162914500Y-97737000D01*
X162915500Y-97740000D01*
X162915500Y-97742000D01*
X162916500Y-97745000D01*
X162916500Y-97747000D01*
X162917500Y-97750000D01*
X162917500Y-99350000D01*
X162916500Y-99353000D01*
X162916500Y-99355000D01*
X162915500Y-99358000D01*
X162915500Y-99360000D01*
X162914500Y-99363000D01*
X162913500Y-99365000D01*
X162912500Y-99368000D01*
X162910500Y-99370000D01*
X162909500Y-99372000D01*
X162907500Y-99374000D01*
X162906500Y-99376000D01*
X162898500Y-99384000D01*
X162896500Y-99385000D01*
X162894500Y-99387000D01*
X162892500Y-99388000D01*
X162890500Y-99390000D01*
X162887500Y-99391000D01*
X162885500Y-99392000D01*
X162882500Y-99393000D01*
X162880500Y-99393000D01*
X162877500Y-99394000D01*
X162875500Y-99394000D01*
X162872500Y-99395000D01*
X162222500Y-99395000D01*
X162219500Y-99394000D01*
X162217500Y-99394000D01*
X162214500Y-99393000D01*
X162212500Y-99393000D01*
X162209500Y-99392000D01*
X162207500Y-99391000D01*
X162204500Y-99390000D01*
X162202500Y-99388000D01*
X162200500Y-99387000D01*
X162198500Y-99385000D01*
X162196500Y-99384000D01*
X162188500Y-99376000D01*
X162187500Y-99374000D01*
X162185500Y-99372000D01*
X162184500Y-99370000D01*
X162182500Y-99368000D01*
X162181500Y-99365000D01*
X162180500Y-99363000D01*
X162179500Y-99360000D01*
X162179500Y-99358000D01*
X162178500Y-99355000D01*
X162178500Y-99353000D01*
X162177500Y-99350000D01*
X162177500Y-97750000D01*
X162178500Y-97747000D01*
X162178500Y-97745000D01*
X162179500Y-97742000D01*
X162179500Y-97740000D01*
X162180500Y-97737000D01*
X162181500Y-97735000D01*
X162182500Y-97732000D01*
X162184500Y-97730000D01*
X162185500Y-97728000D01*
X162187500Y-97726000D01*
X162188500Y-97724000D01*
X162196500Y-97716000D01*
X162198500Y-97715000D01*
X162200500Y-97713000D01*
X162202500Y-97712000D01*
X162204500Y-97710000D01*
X162207500Y-97709000D01*
X162209500Y-97708000D01*
X162212500Y-97707000D01*
X162214500Y-97707000D01*
X162217500Y-97706000D01*
X162219500Y-97706000D01*
X162222500Y-97705000D01*
X162872500Y-97705000D01*
X162875500Y-97706000D01*
G37*
X162875500Y-97706000D02*
X162877500Y-97706000D01*
X162880500Y-97707000D01*
X162882500Y-97707000D01*
X162885500Y-97708000D01*
X162887500Y-97709000D01*
X162890500Y-97710000D01*
X162892500Y-97712000D01*
X162894500Y-97713000D01*
X162896500Y-97715000D01*
X162898500Y-97716000D01*
X162906500Y-97724000D01*
X162907500Y-97726000D01*
X162909500Y-97728000D01*
X162910500Y-97730000D01*
X162912500Y-97732000D01*
X162913500Y-97735000D01*
X162914500Y-97737000D01*
X162915500Y-97740000D01*
X162915500Y-97742000D01*
X162916500Y-97745000D01*
X162916500Y-97747000D01*
X162917500Y-97750000D01*
X162917500Y-99350000D01*
X162916500Y-99353000D01*
X162916500Y-99355000D01*
X162915500Y-99358000D01*
X162915500Y-99360000D01*
X162914500Y-99363000D01*
X162913500Y-99365000D01*
X162912500Y-99368000D01*
X162910500Y-99370000D01*
X162909500Y-99372000D01*
X162907500Y-99374000D01*
X162906500Y-99376000D01*
X162898500Y-99384000D01*
X162896500Y-99385000D01*
X162894500Y-99387000D01*
X162892500Y-99388000D01*
X162890500Y-99390000D01*
X162887500Y-99391000D01*
X162885500Y-99392000D01*
X162882500Y-99393000D01*
X162880500Y-99393000D01*
X162877500Y-99394000D01*
X162875500Y-99394000D01*
X162872500Y-99395000D01*
X162222500Y-99395000D01*
X162219500Y-99394000D01*
X162217500Y-99394000D01*
X162214500Y-99393000D01*
X162212500Y-99393000D01*
X162209500Y-99392000D01*
X162207500Y-99391000D01*
X162204500Y-99390000D01*
X162202500Y-99388000D01*
X162200500Y-99387000D01*
X162198500Y-99385000D01*
X162196500Y-99384000D01*
X162188500Y-99376000D01*
X162187500Y-99374000D01*
X162185500Y-99372000D01*
X162184500Y-99370000D01*
X162182500Y-99368000D01*
X162181500Y-99365000D01*
X162180500Y-99363000D01*
X162179500Y-99360000D01*
X162179500Y-99358000D01*
X162178500Y-99355000D01*
X162178500Y-99353000D01*
X162177500Y-99350000D01*
X162177500Y-97750000D01*
X162178500Y-97747000D01*
X162178500Y-97745000D01*
X162179500Y-97742000D01*
X162179500Y-97740000D01*
X162180500Y-97737000D01*
X162181500Y-97735000D01*
X162182500Y-97732000D01*
X162184500Y-97730000D01*
X162185500Y-97728000D01*
X162187500Y-97726000D01*
X162188500Y-97724000D01*
X162196500Y-97716000D01*
X162198500Y-97715000D01*
X162200500Y-97713000D01*
X162202500Y-97712000D01*
X162204500Y-97710000D01*
X162207500Y-97709000D01*
X162209500Y-97708000D01*
X162212500Y-97707000D01*
X162214500Y-97707000D01*
X162217500Y-97706000D01*
X162219500Y-97706000D01*
X162222500Y-97705000D01*
X162872500Y-97705000D01*
X162875500Y-97706000D01*
G36*
X162875500Y-103106000D02*
G01*
X162877500Y-103106000D01*
X162880500Y-103107000D01*
X162882500Y-103107000D01*
X162885500Y-103108000D01*
X162887500Y-103109000D01*
X162890500Y-103110000D01*
X162892500Y-103112000D01*
X162894500Y-103113000D01*
X162896500Y-103115000D01*
X162898500Y-103116000D01*
X162906500Y-103124000D01*
X162907500Y-103126000D01*
X162909500Y-103128000D01*
X162910500Y-103130000D01*
X162912500Y-103132000D01*
X162913500Y-103135000D01*
X162914500Y-103137000D01*
X162915500Y-103140000D01*
X162915500Y-103142000D01*
X162916500Y-103145000D01*
X162916500Y-103147000D01*
X162917500Y-103150000D01*
X162917500Y-104750000D01*
X162916500Y-104753000D01*
X162916500Y-104755000D01*
X162915500Y-104758000D01*
X162915500Y-104760000D01*
X162914500Y-104763000D01*
X162913500Y-104765000D01*
X162912500Y-104768000D01*
X162910500Y-104770000D01*
X162909500Y-104772000D01*
X162907500Y-104774000D01*
X162906500Y-104776000D01*
X162898500Y-104784000D01*
X162896500Y-104785000D01*
X162894500Y-104787000D01*
X162892500Y-104788000D01*
X162890500Y-104790000D01*
X162887500Y-104791000D01*
X162885500Y-104792000D01*
X162882500Y-104793000D01*
X162880500Y-104793000D01*
X162877500Y-104794000D01*
X162875500Y-104794000D01*
X162872500Y-104795000D01*
X162222500Y-104795000D01*
X162219500Y-104794000D01*
X162217500Y-104794000D01*
X162214500Y-104793000D01*
X162212500Y-104793000D01*
X162209500Y-104792000D01*
X162207500Y-104791000D01*
X162204500Y-104790000D01*
X162202500Y-104788000D01*
X162200500Y-104787000D01*
X162198500Y-104785000D01*
X162196500Y-104784000D01*
X162188500Y-104776000D01*
X162187500Y-104774000D01*
X162185500Y-104772000D01*
X162184500Y-104770000D01*
X162182500Y-104768000D01*
X162181500Y-104765000D01*
X162180500Y-104763000D01*
X162179500Y-104760000D01*
X162179500Y-104758000D01*
X162178500Y-104755000D01*
X162178500Y-104753000D01*
X162177500Y-104750000D01*
X162177500Y-103150000D01*
X162178500Y-103147000D01*
X162178500Y-103145000D01*
X162179500Y-103142000D01*
X162179500Y-103140000D01*
X162180500Y-103137000D01*
X162181500Y-103135000D01*
X162182500Y-103132000D01*
X162184500Y-103130000D01*
X162185500Y-103128000D01*
X162187500Y-103126000D01*
X162188500Y-103124000D01*
X162196500Y-103116000D01*
X162198500Y-103115000D01*
X162200500Y-103113000D01*
X162202500Y-103112000D01*
X162204500Y-103110000D01*
X162207500Y-103109000D01*
X162209500Y-103108000D01*
X162212500Y-103107000D01*
X162214500Y-103107000D01*
X162217500Y-103106000D01*
X162219500Y-103106000D01*
X162222500Y-103105000D01*
X162872500Y-103105000D01*
X162875500Y-103106000D01*
G37*
X162875500Y-103106000D02*
X162877500Y-103106000D01*
X162880500Y-103107000D01*
X162882500Y-103107000D01*
X162885500Y-103108000D01*
X162887500Y-103109000D01*
X162890500Y-103110000D01*
X162892500Y-103112000D01*
X162894500Y-103113000D01*
X162896500Y-103115000D01*
X162898500Y-103116000D01*
X162906500Y-103124000D01*
X162907500Y-103126000D01*
X162909500Y-103128000D01*
X162910500Y-103130000D01*
X162912500Y-103132000D01*
X162913500Y-103135000D01*
X162914500Y-103137000D01*
X162915500Y-103140000D01*
X162915500Y-103142000D01*
X162916500Y-103145000D01*
X162916500Y-103147000D01*
X162917500Y-103150000D01*
X162917500Y-104750000D01*
X162916500Y-104753000D01*
X162916500Y-104755000D01*
X162915500Y-104758000D01*
X162915500Y-104760000D01*
X162914500Y-104763000D01*
X162913500Y-104765000D01*
X162912500Y-104768000D01*
X162910500Y-104770000D01*
X162909500Y-104772000D01*
X162907500Y-104774000D01*
X162906500Y-104776000D01*
X162898500Y-104784000D01*
X162896500Y-104785000D01*
X162894500Y-104787000D01*
X162892500Y-104788000D01*
X162890500Y-104790000D01*
X162887500Y-104791000D01*
X162885500Y-104792000D01*
X162882500Y-104793000D01*
X162880500Y-104793000D01*
X162877500Y-104794000D01*
X162875500Y-104794000D01*
X162872500Y-104795000D01*
X162222500Y-104795000D01*
X162219500Y-104794000D01*
X162217500Y-104794000D01*
X162214500Y-104793000D01*
X162212500Y-104793000D01*
X162209500Y-104792000D01*
X162207500Y-104791000D01*
X162204500Y-104790000D01*
X162202500Y-104788000D01*
X162200500Y-104787000D01*
X162198500Y-104785000D01*
X162196500Y-104784000D01*
X162188500Y-104776000D01*
X162187500Y-104774000D01*
X162185500Y-104772000D01*
X162184500Y-104770000D01*
X162182500Y-104768000D01*
X162181500Y-104765000D01*
X162180500Y-104763000D01*
X162179500Y-104760000D01*
X162179500Y-104758000D01*
X162178500Y-104755000D01*
X162178500Y-104753000D01*
X162177500Y-104750000D01*
X162177500Y-103150000D01*
X162178500Y-103147000D01*
X162178500Y-103145000D01*
X162179500Y-103142000D01*
X162179500Y-103140000D01*
X162180500Y-103137000D01*
X162181500Y-103135000D01*
X162182500Y-103132000D01*
X162184500Y-103130000D01*
X162185500Y-103128000D01*
X162187500Y-103126000D01*
X162188500Y-103124000D01*
X162196500Y-103116000D01*
X162198500Y-103115000D01*
X162200500Y-103113000D01*
X162202500Y-103112000D01*
X162204500Y-103110000D01*
X162207500Y-103109000D01*
X162209500Y-103108000D01*
X162212500Y-103107000D01*
X162214500Y-103107000D01*
X162217500Y-103106000D01*
X162219500Y-103106000D01*
X162222500Y-103105000D01*
X162872500Y-103105000D01*
X162875500Y-103106000D01*
G36*
X164145500Y-97706000D02*
G01*
X164147500Y-97706000D01*
X164150500Y-97707000D01*
X164152500Y-97707000D01*
X164155500Y-97708000D01*
X164157500Y-97709000D01*
X164160500Y-97710000D01*
X164162500Y-97712000D01*
X164164500Y-97713000D01*
X164166500Y-97715000D01*
X164168500Y-97716000D01*
X164176500Y-97724000D01*
X164177500Y-97726000D01*
X164179500Y-97728000D01*
X164180500Y-97730000D01*
X164182500Y-97732000D01*
X164183500Y-97735000D01*
X164184500Y-97737000D01*
X164185500Y-97740000D01*
X164185500Y-97742000D01*
X164186500Y-97745000D01*
X164186500Y-97747000D01*
X164187500Y-97750000D01*
X164187500Y-99350000D01*
X164186500Y-99353000D01*
X164186500Y-99355000D01*
X164185500Y-99358000D01*
X164185500Y-99360000D01*
X164184500Y-99363000D01*
X164183500Y-99365000D01*
X164182500Y-99368000D01*
X164180500Y-99370000D01*
X164179500Y-99372000D01*
X164177500Y-99374000D01*
X164176500Y-99376000D01*
X164168500Y-99384000D01*
X164166500Y-99385000D01*
X164164500Y-99387000D01*
X164162500Y-99388000D01*
X164160500Y-99390000D01*
X164157500Y-99391000D01*
X164155500Y-99392000D01*
X164152500Y-99393000D01*
X164150500Y-99393000D01*
X164147500Y-99394000D01*
X164145500Y-99394000D01*
X164142500Y-99395000D01*
X163492500Y-99395000D01*
X163489500Y-99394000D01*
X163487500Y-99394000D01*
X163484500Y-99393000D01*
X163482500Y-99393000D01*
X163479500Y-99392000D01*
X163477500Y-99391000D01*
X163474500Y-99390000D01*
X163472500Y-99388000D01*
X163470500Y-99387000D01*
X163468500Y-99385000D01*
X163466500Y-99384000D01*
X163458500Y-99376000D01*
X163457500Y-99374000D01*
X163455500Y-99372000D01*
X163454500Y-99370000D01*
X163452500Y-99368000D01*
X163451500Y-99365000D01*
X163450500Y-99363000D01*
X163449500Y-99360000D01*
X163449500Y-99358000D01*
X163448500Y-99355000D01*
X163448500Y-99353000D01*
X163447500Y-99350000D01*
X163447500Y-97750000D01*
X163448500Y-97747000D01*
X163448500Y-97745000D01*
X163449500Y-97742000D01*
X163449500Y-97740000D01*
X163450500Y-97737000D01*
X163451500Y-97735000D01*
X163452500Y-97732000D01*
X163454500Y-97730000D01*
X163455500Y-97728000D01*
X163457500Y-97726000D01*
X163458500Y-97724000D01*
X163466500Y-97716000D01*
X163468500Y-97715000D01*
X163470500Y-97713000D01*
X163472500Y-97712000D01*
X163474500Y-97710000D01*
X163477500Y-97709000D01*
X163479500Y-97708000D01*
X163482500Y-97707000D01*
X163484500Y-97707000D01*
X163487500Y-97706000D01*
X163489500Y-97706000D01*
X163492500Y-97705000D01*
X164142500Y-97705000D01*
X164145500Y-97706000D01*
G37*
X164145500Y-97706000D02*
X164147500Y-97706000D01*
X164150500Y-97707000D01*
X164152500Y-97707000D01*
X164155500Y-97708000D01*
X164157500Y-97709000D01*
X164160500Y-97710000D01*
X164162500Y-97712000D01*
X164164500Y-97713000D01*
X164166500Y-97715000D01*
X164168500Y-97716000D01*
X164176500Y-97724000D01*
X164177500Y-97726000D01*
X164179500Y-97728000D01*
X164180500Y-97730000D01*
X164182500Y-97732000D01*
X164183500Y-97735000D01*
X164184500Y-97737000D01*
X164185500Y-97740000D01*
X164185500Y-97742000D01*
X164186500Y-97745000D01*
X164186500Y-97747000D01*
X164187500Y-97750000D01*
X164187500Y-99350000D01*
X164186500Y-99353000D01*
X164186500Y-99355000D01*
X164185500Y-99358000D01*
X164185500Y-99360000D01*
X164184500Y-99363000D01*
X164183500Y-99365000D01*
X164182500Y-99368000D01*
X164180500Y-99370000D01*
X164179500Y-99372000D01*
X164177500Y-99374000D01*
X164176500Y-99376000D01*
X164168500Y-99384000D01*
X164166500Y-99385000D01*
X164164500Y-99387000D01*
X164162500Y-99388000D01*
X164160500Y-99390000D01*
X164157500Y-99391000D01*
X164155500Y-99392000D01*
X164152500Y-99393000D01*
X164150500Y-99393000D01*
X164147500Y-99394000D01*
X164145500Y-99394000D01*
X164142500Y-99395000D01*
X163492500Y-99395000D01*
X163489500Y-99394000D01*
X163487500Y-99394000D01*
X163484500Y-99393000D01*
X163482500Y-99393000D01*
X163479500Y-99392000D01*
X163477500Y-99391000D01*
X163474500Y-99390000D01*
X163472500Y-99388000D01*
X163470500Y-99387000D01*
X163468500Y-99385000D01*
X163466500Y-99384000D01*
X163458500Y-99376000D01*
X163457500Y-99374000D01*
X163455500Y-99372000D01*
X163454500Y-99370000D01*
X163452500Y-99368000D01*
X163451500Y-99365000D01*
X163450500Y-99363000D01*
X163449500Y-99360000D01*
X163449500Y-99358000D01*
X163448500Y-99355000D01*
X163448500Y-99353000D01*
X163447500Y-99350000D01*
X163447500Y-97750000D01*
X163448500Y-97747000D01*
X163448500Y-97745000D01*
X163449500Y-97742000D01*
X163449500Y-97740000D01*
X163450500Y-97737000D01*
X163451500Y-97735000D01*
X163452500Y-97732000D01*
X163454500Y-97730000D01*
X163455500Y-97728000D01*
X163457500Y-97726000D01*
X163458500Y-97724000D01*
X163466500Y-97716000D01*
X163468500Y-97715000D01*
X163470500Y-97713000D01*
X163472500Y-97712000D01*
X163474500Y-97710000D01*
X163477500Y-97709000D01*
X163479500Y-97708000D01*
X163482500Y-97707000D01*
X163484500Y-97707000D01*
X163487500Y-97706000D01*
X163489500Y-97706000D01*
X163492500Y-97705000D01*
X164142500Y-97705000D01*
X164145500Y-97706000D01*
G36*
X161605500Y-97706000D02*
G01*
X161607500Y-97706000D01*
X161610500Y-97707000D01*
X161612500Y-97707000D01*
X161615500Y-97708000D01*
X161617500Y-97709000D01*
X161620500Y-97710000D01*
X161622500Y-97712000D01*
X161624500Y-97713000D01*
X161626500Y-97715000D01*
X161628500Y-97716000D01*
X161636500Y-97724000D01*
X161637500Y-97726000D01*
X161639500Y-97728000D01*
X161640500Y-97730000D01*
X161642500Y-97732000D01*
X161643500Y-97735000D01*
X161644500Y-97737000D01*
X161645500Y-97740000D01*
X161645500Y-97742000D01*
X161646500Y-97745000D01*
X161646500Y-97747000D01*
X161647500Y-97750000D01*
X161647500Y-99350000D01*
X161646500Y-99353000D01*
X161646500Y-99355000D01*
X161645500Y-99358000D01*
X161645500Y-99360000D01*
X161644500Y-99363000D01*
X161643500Y-99365000D01*
X161642500Y-99368000D01*
X161640500Y-99370000D01*
X161639500Y-99372000D01*
X161637500Y-99374000D01*
X161636500Y-99376000D01*
X161628500Y-99384000D01*
X161626500Y-99385000D01*
X161624500Y-99387000D01*
X161622500Y-99388000D01*
X161620500Y-99390000D01*
X161617500Y-99391000D01*
X161615500Y-99392000D01*
X161612500Y-99393000D01*
X161610500Y-99393000D01*
X161607500Y-99394000D01*
X161605500Y-99394000D01*
X161602500Y-99395000D01*
X160952500Y-99395000D01*
X160949500Y-99394000D01*
X160947500Y-99394000D01*
X160944500Y-99393000D01*
X160942500Y-99393000D01*
X160939500Y-99392000D01*
X160937500Y-99391000D01*
X160934500Y-99390000D01*
X160932500Y-99388000D01*
X160930500Y-99387000D01*
X160928500Y-99385000D01*
X160926500Y-99384000D01*
X160918500Y-99376000D01*
X160917500Y-99374000D01*
X160915500Y-99372000D01*
X160914500Y-99370000D01*
X160912500Y-99368000D01*
X160911500Y-99365000D01*
X160910500Y-99363000D01*
X160909500Y-99360000D01*
X160909500Y-99358000D01*
X160908500Y-99355000D01*
X160908500Y-99353000D01*
X160907500Y-99350000D01*
X160907500Y-97750000D01*
X160908500Y-97747000D01*
X160908500Y-97745000D01*
X160909500Y-97742000D01*
X160909500Y-97740000D01*
X160910500Y-97737000D01*
X160911500Y-97735000D01*
X160912500Y-97732000D01*
X160914500Y-97730000D01*
X160915500Y-97728000D01*
X160917500Y-97726000D01*
X160918500Y-97724000D01*
X160926500Y-97716000D01*
X160928500Y-97715000D01*
X160930500Y-97713000D01*
X160932500Y-97712000D01*
X160934500Y-97710000D01*
X160937500Y-97709000D01*
X160939500Y-97708000D01*
X160942500Y-97707000D01*
X160944500Y-97707000D01*
X160947500Y-97706000D01*
X160949500Y-97706000D01*
X160952500Y-97705000D01*
X161602500Y-97705000D01*
X161605500Y-97706000D01*
G37*
X161605500Y-97706000D02*
X161607500Y-97706000D01*
X161610500Y-97707000D01*
X161612500Y-97707000D01*
X161615500Y-97708000D01*
X161617500Y-97709000D01*
X161620500Y-97710000D01*
X161622500Y-97712000D01*
X161624500Y-97713000D01*
X161626500Y-97715000D01*
X161628500Y-97716000D01*
X161636500Y-97724000D01*
X161637500Y-97726000D01*
X161639500Y-97728000D01*
X161640500Y-97730000D01*
X161642500Y-97732000D01*
X161643500Y-97735000D01*
X161644500Y-97737000D01*
X161645500Y-97740000D01*
X161645500Y-97742000D01*
X161646500Y-97745000D01*
X161646500Y-97747000D01*
X161647500Y-97750000D01*
X161647500Y-99350000D01*
X161646500Y-99353000D01*
X161646500Y-99355000D01*
X161645500Y-99358000D01*
X161645500Y-99360000D01*
X161644500Y-99363000D01*
X161643500Y-99365000D01*
X161642500Y-99368000D01*
X161640500Y-99370000D01*
X161639500Y-99372000D01*
X161637500Y-99374000D01*
X161636500Y-99376000D01*
X161628500Y-99384000D01*
X161626500Y-99385000D01*
X161624500Y-99387000D01*
X161622500Y-99388000D01*
X161620500Y-99390000D01*
X161617500Y-99391000D01*
X161615500Y-99392000D01*
X161612500Y-99393000D01*
X161610500Y-99393000D01*
X161607500Y-99394000D01*
X161605500Y-99394000D01*
X161602500Y-99395000D01*
X160952500Y-99395000D01*
X160949500Y-99394000D01*
X160947500Y-99394000D01*
X160944500Y-99393000D01*
X160942500Y-99393000D01*
X160939500Y-99392000D01*
X160937500Y-99391000D01*
X160934500Y-99390000D01*
X160932500Y-99388000D01*
X160930500Y-99387000D01*
X160928500Y-99385000D01*
X160926500Y-99384000D01*
X160918500Y-99376000D01*
X160917500Y-99374000D01*
X160915500Y-99372000D01*
X160914500Y-99370000D01*
X160912500Y-99368000D01*
X160911500Y-99365000D01*
X160910500Y-99363000D01*
X160909500Y-99360000D01*
X160909500Y-99358000D01*
X160908500Y-99355000D01*
X160908500Y-99353000D01*
X160907500Y-99350000D01*
X160907500Y-97750000D01*
X160908500Y-97747000D01*
X160908500Y-97745000D01*
X160909500Y-97742000D01*
X160909500Y-97740000D01*
X160910500Y-97737000D01*
X160911500Y-97735000D01*
X160912500Y-97732000D01*
X160914500Y-97730000D01*
X160915500Y-97728000D01*
X160917500Y-97726000D01*
X160918500Y-97724000D01*
X160926500Y-97716000D01*
X160928500Y-97715000D01*
X160930500Y-97713000D01*
X160932500Y-97712000D01*
X160934500Y-97710000D01*
X160937500Y-97709000D01*
X160939500Y-97708000D01*
X160942500Y-97707000D01*
X160944500Y-97707000D01*
X160947500Y-97706000D01*
X160949500Y-97706000D01*
X160952500Y-97705000D01*
X161602500Y-97705000D01*
X161605500Y-97706000D01*
G36*
X160335500Y-97706000D02*
G01*
X160337500Y-97706000D01*
X160340500Y-97707000D01*
X160342500Y-97707000D01*
X160345500Y-97708000D01*
X160347500Y-97709000D01*
X160350500Y-97710000D01*
X160352500Y-97712000D01*
X160354500Y-97713000D01*
X160356500Y-97715000D01*
X160358500Y-97716000D01*
X160366500Y-97724000D01*
X160367500Y-97726000D01*
X160369500Y-97728000D01*
X160370500Y-97730000D01*
X160372500Y-97732000D01*
X160373500Y-97735000D01*
X160374500Y-97737000D01*
X160375500Y-97740000D01*
X160375500Y-97742000D01*
X160376500Y-97745000D01*
X160376500Y-97747000D01*
X160377500Y-97750000D01*
X160377500Y-99350000D01*
X160376500Y-99353000D01*
X160376500Y-99355000D01*
X160375500Y-99358000D01*
X160375500Y-99360000D01*
X160374500Y-99363000D01*
X160373500Y-99365000D01*
X160372500Y-99368000D01*
X160370500Y-99370000D01*
X160369500Y-99372000D01*
X160367500Y-99374000D01*
X160366500Y-99376000D01*
X160358500Y-99384000D01*
X160356500Y-99385000D01*
X160354500Y-99387000D01*
X160352500Y-99388000D01*
X160350500Y-99390000D01*
X160347500Y-99391000D01*
X160345500Y-99392000D01*
X160342500Y-99393000D01*
X160340500Y-99393000D01*
X160337500Y-99394000D01*
X160335500Y-99394000D01*
X160332500Y-99395000D01*
X159682500Y-99395000D01*
X159679500Y-99394000D01*
X159677500Y-99394000D01*
X159674500Y-99393000D01*
X159672500Y-99393000D01*
X159669500Y-99392000D01*
X159667500Y-99391000D01*
X159664500Y-99390000D01*
X159662500Y-99388000D01*
X159660500Y-99387000D01*
X159658500Y-99385000D01*
X159656500Y-99384000D01*
X159648500Y-99376000D01*
X159647500Y-99374000D01*
X159645500Y-99372000D01*
X159644500Y-99370000D01*
X159642500Y-99368000D01*
X159641500Y-99365000D01*
X159640500Y-99363000D01*
X159639500Y-99360000D01*
X159639500Y-99358000D01*
X159638500Y-99355000D01*
X159638500Y-99353000D01*
X159637500Y-99350000D01*
X159637500Y-97750000D01*
X159638500Y-97747000D01*
X159638500Y-97745000D01*
X159639500Y-97742000D01*
X159639500Y-97740000D01*
X159640500Y-97737000D01*
X159641500Y-97735000D01*
X159642500Y-97732000D01*
X159644500Y-97730000D01*
X159645500Y-97728000D01*
X159647500Y-97726000D01*
X159648500Y-97724000D01*
X159656500Y-97716000D01*
X159658500Y-97715000D01*
X159660500Y-97713000D01*
X159662500Y-97712000D01*
X159664500Y-97710000D01*
X159667500Y-97709000D01*
X159669500Y-97708000D01*
X159672500Y-97707000D01*
X159674500Y-97707000D01*
X159677500Y-97706000D01*
X159679500Y-97706000D01*
X159682500Y-97705000D01*
X160332500Y-97705000D01*
X160335500Y-97706000D01*
G37*
X160335500Y-97706000D02*
X160337500Y-97706000D01*
X160340500Y-97707000D01*
X160342500Y-97707000D01*
X160345500Y-97708000D01*
X160347500Y-97709000D01*
X160350500Y-97710000D01*
X160352500Y-97712000D01*
X160354500Y-97713000D01*
X160356500Y-97715000D01*
X160358500Y-97716000D01*
X160366500Y-97724000D01*
X160367500Y-97726000D01*
X160369500Y-97728000D01*
X160370500Y-97730000D01*
X160372500Y-97732000D01*
X160373500Y-97735000D01*
X160374500Y-97737000D01*
X160375500Y-97740000D01*
X160375500Y-97742000D01*
X160376500Y-97745000D01*
X160376500Y-97747000D01*
X160377500Y-97750000D01*
X160377500Y-99350000D01*
X160376500Y-99353000D01*
X160376500Y-99355000D01*
X160375500Y-99358000D01*
X160375500Y-99360000D01*
X160374500Y-99363000D01*
X160373500Y-99365000D01*
X160372500Y-99368000D01*
X160370500Y-99370000D01*
X160369500Y-99372000D01*
X160367500Y-99374000D01*
X160366500Y-99376000D01*
X160358500Y-99384000D01*
X160356500Y-99385000D01*
X160354500Y-99387000D01*
X160352500Y-99388000D01*
X160350500Y-99390000D01*
X160347500Y-99391000D01*
X160345500Y-99392000D01*
X160342500Y-99393000D01*
X160340500Y-99393000D01*
X160337500Y-99394000D01*
X160335500Y-99394000D01*
X160332500Y-99395000D01*
X159682500Y-99395000D01*
X159679500Y-99394000D01*
X159677500Y-99394000D01*
X159674500Y-99393000D01*
X159672500Y-99393000D01*
X159669500Y-99392000D01*
X159667500Y-99391000D01*
X159664500Y-99390000D01*
X159662500Y-99388000D01*
X159660500Y-99387000D01*
X159658500Y-99385000D01*
X159656500Y-99384000D01*
X159648500Y-99376000D01*
X159647500Y-99374000D01*
X159645500Y-99372000D01*
X159644500Y-99370000D01*
X159642500Y-99368000D01*
X159641500Y-99365000D01*
X159640500Y-99363000D01*
X159639500Y-99360000D01*
X159639500Y-99358000D01*
X159638500Y-99355000D01*
X159638500Y-99353000D01*
X159637500Y-99350000D01*
X159637500Y-97750000D01*
X159638500Y-97747000D01*
X159638500Y-97745000D01*
X159639500Y-97742000D01*
X159639500Y-97740000D01*
X159640500Y-97737000D01*
X159641500Y-97735000D01*
X159642500Y-97732000D01*
X159644500Y-97730000D01*
X159645500Y-97728000D01*
X159647500Y-97726000D01*
X159648500Y-97724000D01*
X159656500Y-97716000D01*
X159658500Y-97715000D01*
X159660500Y-97713000D01*
X159662500Y-97712000D01*
X159664500Y-97710000D01*
X159667500Y-97709000D01*
X159669500Y-97708000D01*
X159672500Y-97707000D01*
X159674500Y-97707000D01*
X159677500Y-97706000D01*
X159679500Y-97706000D01*
X159682500Y-97705000D01*
X160332500Y-97705000D01*
X160335500Y-97706000D01*
G36*
X164145500Y-103106000D02*
G01*
X164147500Y-103106000D01*
X164150500Y-103107000D01*
X164152500Y-103107000D01*
X164155500Y-103108000D01*
X164157500Y-103109000D01*
X164160500Y-103110000D01*
X164162500Y-103112000D01*
X164164500Y-103113000D01*
X164166500Y-103115000D01*
X164168500Y-103116000D01*
X164176500Y-103124000D01*
X164177500Y-103126000D01*
X164179500Y-103128000D01*
X164180500Y-103130000D01*
X164182500Y-103132000D01*
X164183500Y-103135000D01*
X164184500Y-103137000D01*
X164185500Y-103140000D01*
X164185500Y-103142000D01*
X164186500Y-103145000D01*
X164186500Y-103147000D01*
X164187500Y-103150000D01*
X164187500Y-104750000D01*
X164186500Y-104753000D01*
X164186500Y-104755000D01*
X164185500Y-104758000D01*
X164185500Y-104760000D01*
X164184500Y-104763000D01*
X164183500Y-104765000D01*
X164182500Y-104768000D01*
X164180500Y-104770000D01*
X164179500Y-104772000D01*
X164177500Y-104774000D01*
X164176500Y-104776000D01*
X164168500Y-104784000D01*
X164166500Y-104785000D01*
X164164500Y-104787000D01*
X164162500Y-104788000D01*
X164160500Y-104790000D01*
X164157500Y-104791000D01*
X164155500Y-104792000D01*
X164152500Y-104793000D01*
X164150500Y-104793000D01*
X164147500Y-104794000D01*
X164145500Y-104794000D01*
X164142500Y-104795000D01*
X163492500Y-104795000D01*
X163489500Y-104794000D01*
X163487500Y-104794000D01*
X163484500Y-104793000D01*
X163482500Y-104793000D01*
X163479500Y-104792000D01*
X163477500Y-104791000D01*
X163474500Y-104790000D01*
X163472500Y-104788000D01*
X163470500Y-104787000D01*
X163468500Y-104785000D01*
X163466500Y-104784000D01*
X163458500Y-104776000D01*
X163457500Y-104774000D01*
X163455500Y-104772000D01*
X163454500Y-104770000D01*
X163452500Y-104768000D01*
X163451500Y-104765000D01*
X163450500Y-104763000D01*
X163449500Y-104760000D01*
X163449500Y-104758000D01*
X163448500Y-104755000D01*
X163448500Y-104753000D01*
X163447500Y-104750000D01*
X163447500Y-103150000D01*
X163448500Y-103147000D01*
X163448500Y-103145000D01*
X163449500Y-103142000D01*
X163449500Y-103140000D01*
X163450500Y-103137000D01*
X163451500Y-103135000D01*
X163452500Y-103132000D01*
X163454500Y-103130000D01*
X163455500Y-103128000D01*
X163457500Y-103126000D01*
X163458500Y-103124000D01*
X163466500Y-103116000D01*
X163468500Y-103115000D01*
X163470500Y-103113000D01*
X163472500Y-103112000D01*
X163474500Y-103110000D01*
X163477500Y-103109000D01*
X163479500Y-103108000D01*
X163482500Y-103107000D01*
X163484500Y-103107000D01*
X163487500Y-103106000D01*
X163489500Y-103106000D01*
X163492500Y-103105000D01*
X164142500Y-103105000D01*
X164145500Y-103106000D01*
G37*
X164145500Y-103106000D02*
X164147500Y-103106000D01*
X164150500Y-103107000D01*
X164152500Y-103107000D01*
X164155500Y-103108000D01*
X164157500Y-103109000D01*
X164160500Y-103110000D01*
X164162500Y-103112000D01*
X164164500Y-103113000D01*
X164166500Y-103115000D01*
X164168500Y-103116000D01*
X164176500Y-103124000D01*
X164177500Y-103126000D01*
X164179500Y-103128000D01*
X164180500Y-103130000D01*
X164182500Y-103132000D01*
X164183500Y-103135000D01*
X164184500Y-103137000D01*
X164185500Y-103140000D01*
X164185500Y-103142000D01*
X164186500Y-103145000D01*
X164186500Y-103147000D01*
X164187500Y-103150000D01*
X164187500Y-104750000D01*
X164186500Y-104753000D01*
X164186500Y-104755000D01*
X164185500Y-104758000D01*
X164185500Y-104760000D01*
X164184500Y-104763000D01*
X164183500Y-104765000D01*
X164182500Y-104768000D01*
X164180500Y-104770000D01*
X164179500Y-104772000D01*
X164177500Y-104774000D01*
X164176500Y-104776000D01*
X164168500Y-104784000D01*
X164166500Y-104785000D01*
X164164500Y-104787000D01*
X164162500Y-104788000D01*
X164160500Y-104790000D01*
X164157500Y-104791000D01*
X164155500Y-104792000D01*
X164152500Y-104793000D01*
X164150500Y-104793000D01*
X164147500Y-104794000D01*
X164145500Y-104794000D01*
X164142500Y-104795000D01*
X163492500Y-104795000D01*
X163489500Y-104794000D01*
X163487500Y-104794000D01*
X163484500Y-104793000D01*
X163482500Y-104793000D01*
X163479500Y-104792000D01*
X163477500Y-104791000D01*
X163474500Y-104790000D01*
X163472500Y-104788000D01*
X163470500Y-104787000D01*
X163468500Y-104785000D01*
X163466500Y-104784000D01*
X163458500Y-104776000D01*
X163457500Y-104774000D01*
X163455500Y-104772000D01*
X163454500Y-104770000D01*
X163452500Y-104768000D01*
X163451500Y-104765000D01*
X163450500Y-104763000D01*
X163449500Y-104760000D01*
X163449500Y-104758000D01*
X163448500Y-104755000D01*
X163448500Y-104753000D01*
X163447500Y-104750000D01*
X163447500Y-103150000D01*
X163448500Y-103147000D01*
X163448500Y-103145000D01*
X163449500Y-103142000D01*
X163449500Y-103140000D01*
X163450500Y-103137000D01*
X163451500Y-103135000D01*
X163452500Y-103132000D01*
X163454500Y-103130000D01*
X163455500Y-103128000D01*
X163457500Y-103126000D01*
X163458500Y-103124000D01*
X163466500Y-103116000D01*
X163468500Y-103115000D01*
X163470500Y-103113000D01*
X163472500Y-103112000D01*
X163474500Y-103110000D01*
X163477500Y-103109000D01*
X163479500Y-103108000D01*
X163482500Y-103107000D01*
X163484500Y-103107000D01*
X163487500Y-103106000D01*
X163489500Y-103106000D01*
X163492500Y-103105000D01*
X164142500Y-103105000D01*
X164145500Y-103106000D01*
G36*
X163612500Y-102605000D02*
G01*
X160212500Y-102605000D01*
X160212500Y-99895000D01*
X163612500Y-99895000D01*
X163612500Y-102605000D01*
G37*
X163612500Y-102605000D02*
X160212500Y-102605000D01*
X160212500Y-99895000D01*
X163612500Y-99895000D01*
X163612500Y-102605000D01*
G36*
X160335500Y-103106000D02*
G01*
X160337500Y-103106000D01*
X160340500Y-103107000D01*
X160342500Y-103107000D01*
X160345500Y-103108000D01*
X160347500Y-103109000D01*
X160350500Y-103110000D01*
X160352500Y-103112000D01*
X160354500Y-103113000D01*
X160356500Y-103115000D01*
X160358500Y-103116000D01*
X160366500Y-103124000D01*
X160367500Y-103126000D01*
X160369500Y-103128000D01*
X160370500Y-103130000D01*
X160372500Y-103132000D01*
X160373500Y-103135000D01*
X160374500Y-103137000D01*
X160375500Y-103140000D01*
X160375500Y-103142000D01*
X160376500Y-103145000D01*
X160376500Y-103147000D01*
X160377500Y-103150000D01*
X160377500Y-104750000D01*
X160376500Y-104753000D01*
X160376500Y-104755000D01*
X160375500Y-104758000D01*
X160375500Y-104760000D01*
X160374500Y-104763000D01*
X160373500Y-104765000D01*
X160372500Y-104768000D01*
X160370500Y-104770000D01*
X160369500Y-104772000D01*
X160367500Y-104774000D01*
X160366500Y-104776000D01*
X160358500Y-104784000D01*
X160356500Y-104785000D01*
X160354500Y-104787000D01*
X160352500Y-104788000D01*
X160350500Y-104790000D01*
X160347500Y-104791000D01*
X160345500Y-104792000D01*
X160342500Y-104793000D01*
X160340500Y-104793000D01*
X160337500Y-104794000D01*
X160335500Y-104794000D01*
X160332500Y-104795000D01*
X159682500Y-104795000D01*
X159679500Y-104794000D01*
X159677500Y-104794000D01*
X159674500Y-104793000D01*
X159672500Y-104793000D01*
X159669500Y-104792000D01*
X159667500Y-104791000D01*
X159664500Y-104790000D01*
X159662500Y-104788000D01*
X159660500Y-104787000D01*
X159658500Y-104785000D01*
X159656500Y-104784000D01*
X159648500Y-104776000D01*
X159647500Y-104774000D01*
X159645500Y-104772000D01*
X159644500Y-104770000D01*
X159642500Y-104768000D01*
X159641500Y-104765000D01*
X159640500Y-104763000D01*
X159639500Y-104760000D01*
X159639500Y-104758000D01*
X159638500Y-104755000D01*
X159638500Y-104753000D01*
X159637500Y-104750000D01*
X159637500Y-103150000D01*
X159638500Y-103147000D01*
X159638500Y-103145000D01*
X159639500Y-103142000D01*
X159639500Y-103140000D01*
X159640500Y-103137000D01*
X159641500Y-103135000D01*
X159642500Y-103132000D01*
X159644500Y-103130000D01*
X159645500Y-103128000D01*
X159647500Y-103126000D01*
X159648500Y-103124000D01*
X159656500Y-103116000D01*
X159658500Y-103115000D01*
X159660500Y-103113000D01*
X159662500Y-103112000D01*
X159664500Y-103110000D01*
X159667500Y-103109000D01*
X159669500Y-103108000D01*
X159672500Y-103107000D01*
X159674500Y-103107000D01*
X159677500Y-103106000D01*
X159679500Y-103106000D01*
X159682500Y-103105000D01*
X160332500Y-103105000D01*
X160335500Y-103106000D01*
G37*
X160335500Y-103106000D02*
X160337500Y-103106000D01*
X160340500Y-103107000D01*
X160342500Y-103107000D01*
X160345500Y-103108000D01*
X160347500Y-103109000D01*
X160350500Y-103110000D01*
X160352500Y-103112000D01*
X160354500Y-103113000D01*
X160356500Y-103115000D01*
X160358500Y-103116000D01*
X160366500Y-103124000D01*
X160367500Y-103126000D01*
X160369500Y-103128000D01*
X160370500Y-103130000D01*
X160372500Y-103132000D01*
X160373500Y-103135000D01*
X160374500Y-103137000D01*
X160375500Y-103140000D01*
X160375500Y-103142000D01*
X160376500Y-103145000D01*
X160376500Y-103147000D01*
X160377500Y-103150000D01*
X160377500Y-104750000D01*
X160376500Y-104753000D01*
X160376500Y-104755000D01*
X160375500Y-104758000D01*
X160375500Y-104760000D01*
X160374500Y-104763000D01*
X160373500Y-104765000D01*
X160372500Y-104768000D01*
X160370500Y-104770000D01*
X160369500Y-104772000D01*
X160367500Y-104774000D01*
X160366500Y-104776000D01*
X160358500Y-104784000D01*
X160356500Y-104785000D01*
X160354500Y-104787000D01*
X160352500Y-104788000D01*
X160350500Y-104790000D01*
X160347500Y-104791000D01*
X160345500Y-104792000D01*
X160342500Y-104793000D01*
X160340500Y-104793000D01*
X160337500Y-104794000D01*
X160335500Y-104794000D01*
X160332500Y-104795000D01*
X159682500Y-104795000D01*
X159679500Y-104794000D01*
X159677500Y-104794000D01*
X159674500Y-104793000D01*
X159672500Y-104793000D01*
X159669500Y-104792000D01*
X159667500Y-104791000D01*
X159664500Y-104790000D01*
X159662500Y-104788000D01*
X159660500Y-104787000D01*
X159658500Y-104785000D01*
X159656500Y-104784000D01*
X159648500Y-104776000D01*
X159647500Y-104774000D01*
X159645500Y-104772000D01*
X159644500Y-104770000D01*
X159642500Y-104768000D01*
X159641500Y-104765000D01*
X159640500Y-104763000D01*
X159639500Y-104760000D01*
X159639500Y-104758000D01*
X159638500Y-104755000D01*
X159638500Y-104753000D01*
X159637500Y-104750000D01*
X159637500Y-103150000D01*
X159638500Y-103147000D01*
X159638500Y-103145000D01*
X159639500Y-103142000D01*
X159639500Y-103140000D01*
X159640500Y-103137000D01*
X159641500Y-103135000D01*
X159642500Y-103132000D01*
X159644500Y-103130000D01*
X159645500Y-103128000D01*
X159647500Y-103126000D01*
X159648500Y-103124000D01*
X159656500Y-103116000D01*
X159658500Y-103115000D01*
X159660500Y-103113000D01*
X159662500Y-103112000D01*
X159664500Y-103110000D01*
X159667500Y-103109000D01*
X159669500Y-103108000D01*
X159672500Y-103107000D01*
X159674500Y-103107000D01*
X159677500Y-103106000D01*
X159679500Y-103106000D01*
X159682500Y-103105000D01*
X160332500Y-103105000D01*
X160335500Y-103106000D01*
%TO.C,U3*%
G36*
X184700000Y-126337500D02*
G01*
X184700000Y-127087500D01*
X183300000Y-127087500D01*
X183300000Y-125687500D01*
X184050000Y-125687500D01*
X184700000Y-126337500D01*
G37*
X184700000Y-126337500D02*
X184700000Y-127087500D01*
X183300000Y-127087500D01*
X183300000Y-125687500D01*
X184050000Y-125687500D01*
X184700000Y-126337500D01*
%TD*%
D16*
%TO.C,D6*%
X144650000Y-103750000D03*
X141850000Y-103750000D03*
%TD*%
%TO.C,D7*%
X136500000Y-121500000D03*
X133700000Y-121500000D03*
%TD*%
D17*
%TO.C,L1*%
X138799250Y-88200000D03*
X138799250Y-92010000D03*
%TD*%
%TO.C,L2*%
X137750000Y-113250000D03*
X133940000Y-113250000D03*
%TD*%
D18*
%TO.C,R34*%
X148425000Y-128500000D03*
X150250000Y-128500000D03*
%TD*%
D19*
%TO.C,C4*%
X178637500Y-96250000D03*
X180362500Y-96250000D03*
%TD*%
D20*
%TO.C,C14*%
X151250000Y-100000000D03*
X153750000Y-100000000D03*
%TD*%
D18*
%TO.C,R30*%
X137837500Y-104250000D03*
X139662500Y-104250000D03*
%TD*%
D21*
%TO.C,Q2*%
X147730000Y-124110000D03*
D22*
X149000000Y-122840000D03*
X150270000Y-124110000D03*
%TD*%
D23*
%TO.C,C12*%
X179500000Y-115887500D03*
X179500000Y-117612500D03*
%TD*%
D24*
%TO.C,R25*%
X156162500Y-119250000D03*
X154337500Y-119250000D03*
%TD*%
D19*
%TO.C,C5*%
X178637500Y-93000000D03*
X180362500Y-93000000D03*
%TD*%
D25*
%TO.C,C2*%
X189287500Y-117000000D03*
X187212500Y-117000000D03*
%TD*%
D26*
%TO.C,C17*%
X133000000Y-128000000D03*
X133000000Y-126275000D03*
%TD*%
D24*
%TO.C,R33*%
X145912500Y-128500000D03*
X144087500Y-128500000D03*
%TD*%
D27*
%TO.C,Wind1*%
X156125000Y-110500000D03*
X154375000Y-110500000D03*
%TD*%
D19*
%TO.C,C7*%
X159387500Y-106750000D03*
X161112500Y-106750000D03*
%TD*%
D28*
%TO.C,U2*%
X176350000Y-106625000D03*
X176750000Y-106625000D03*
X177150000Y-106625000D03*
X177150000Y-105375000D03*
X176750000Y-105375000D03*
X176350000Y-105375000D03*
D29*
X176750000Y-106000000D03*
%TD*%
D30*
%TO.C,R4*%
X178500000Y-100162500D03*
X178500000Y-98337500D03*
%TD*%
D18*
%TO.C,R9*%
X187337500Y-111500000D03*
X189162500Y-111500000D03*
%TD*%
D21*
%TO.C,Q3*%
X147980000Y-110110000D03*
D22*
X149250000Y-108840000D03*
X150520000Y-110110000D03*
%TD*%
D24*
%TO.C,R19*%
X156325000Y-122250000D03*
X154500000Y-122250000D03*
%TD*%
%TO.C,R16*%
X160412500Y-125250000D03*
X158587500Y-125250000D03*
%TD*%
%TO.C,R28*%
X156162500Y-107500000D03*
X154337500Y-107500000D03*
%TD*%
D31*
%TO.C,C15*%
X142500000Y-120500000D03*
X144000000Y-120500000D03*
%TD*%
D24*
%TO.C,R35*%
X140162500Y-122750000D03*
X138337500Y-122750000D03*
%TD*%
D18*
%TO.C,R18*%
X172662500Y-103750000D03*
X174487500Y-103750000D03*
%TD*%
D24*
%TO.C,R1*%
X170575000Y-103750000D03*
X168750000Y-103750000D03*
%TD*%
D32*
%TO.C,C16*%
X134250000Y-100432500D03*
X134250000Y-101567500D03*
%TD*%
D24*
%TO.C,R23*%
X189162500Y-115000000D03*
X187337500Y-115000000D03*
%TD*%
D27*
%TO.C,Main1*%
X156125000Y-125250000D03*
X154375000Y-125250000D03*
%TD*%
D33*
%TO.C,Air1*%
X171500000Y-129750000D03*
D34*
X168960000Y-129750000D03*
X166420000Y-129750000D03*
%TD*%
D27*
%TO.C,Short1*%
X170625000Y-100500000D03*
X168875000Y-100500000D03*
%TD*%
D18*
%TO.C,R27*%
X147087500Y-104750000D03*
X148912500Y-104750000D03*
%TD*%
D33*
%TO.C,UV1*%
X182775000Y-112350000D03*
D34*
X180235000Y-112350000D03*
X177695000Y-112350000D03*
%TD*%
D27*
%TO.C,First1*%
X188875000Y-95750000D03*
X187125000Y-95750000D03*
%TD*%
D17*
%TO.C,Program1*%
X188500000Y-107500000D03*
X182000000Y-107500000D03*
X182000000Y-103000000D03*
X188500000Y-103000000D03*
%TD*%
D20*
%TO.C,C13*%
X151500000Y-91750000D03*
X153500000Y-91750000D03*
%TD*%
D30*
%TO.C,R14*%
X159750000Y-95912500D03*
X159750000Y-94087500D03*
%TD*%
D18*
%TO.C,R36*%
X142337500Y-125000000D03*
X144162500Y-125000000D03*
%TD*%
D20*
%TO.C,C18*%
X142250000Y-113250000D03*
X144250000Y-113250000D03*
%TD*%
D24*
%TO.C,R10*%
X164912500Y-106750000D03*
X163087500Y-106750000D03*
%TD*%
D35*
%TO.C,U5*%
X183220000Y-116525000D03*
X183220000Y-117175000D03*
X183220000Y-117825000D03*
X183220000Y-118475000D03*
X181280000Y-118475000D03*
X181280000Y-117825000D03*
X181280000Y-117175000D03*
X181280000Y-116525000D03*
%TD*%
D24*
%TO.C,R6*%
X188912500Y-93000000D03*
X187087500Y-93000000D03*
%TD*%
D26*
%TO.C,C11*%
X179250000Y-104612500D03*
X179250000Y-102887500D03*
%TD*%
D36*
%TO.C,U7*%
X135502500Y-125550000D03*
X135502500Y-126350000D03*
X135502500Y-127150000D03*
X135502500Y-127950000D03*
D37*
X139272500Y-127950000D03*
X139272500Y-127150000D03*
X139272500Y-126350000D03*
X139272500Y-125550000D03*
D38*
X137387500Y-126750000D03*
%TD*%
D26*
%TO.C,C10*%
X136250000Y-131855000D03*
X136250000Y-130130000D03*
%TD*%
D21*
%TO.C,Q1*%
X147730000Y-117110000D03*
D22*
X149000000Y-115840000D03*
X150270000Y-117110000D03*
%TD*%
D39*
%TO.C,SolarIn1*%
X182365000Y-85050000D03*
D40*
X177365000Y-85050000D03*
%TD*%
D41*
%TO.C,U8*%
X161350000Y-130330000D03*
X162000000Y-130330000D03*
X162650000Y-130330000D03*
X162650000Y-127670000D03*
X162000000Y-127670000D03*
X161350000Y-127670000D03*
%TD*%
D26*
%TO.C,C6*%
X166000000Y-103862500D03*
X166000000Y-102137500D03*
%TD*%
D39*
%TO.C,Bat1*%
X169300000Y-85050000D03*
D40*
X164300000Y-85050000D03*
%TD*%
D42*
%TO.C,Charging1*%
X175000000Y-99125000D03*
X175000000Y-97375000D03*
%TD*%
D43*
%TO.C,C8*%
X176175000Y-108750000D03*
X178250000Y-108750000D03*
%TD*%
D30*
%TO.C,R8*%
X181500000Y-100162500D03*
X181500000Y-98337500D03*
%TD*%
D24*
%TO.C,R7*%
X188912500Y-99000000D03*
X187087500Y-99000000D03*
%TD*%
D44*
%TO.C,R32*%
X146750000Y-97650000D03*
X146750000Y-100750000D03*
%TD*%
D24*
%TO.C,R22*%
X189162500Y-113250000D03*
X187337500Y-113250000D03*
%TD*%
D45*
%TO.C,U4*%
X182200000Y-95985000D03*
X182600000Y-95985000D03*
X183000000Y-95985000D03*
X183400000Y-95985000D03*
X183800000Y-95985000D03*
X183800000Y-94015000D03*
X183400000Y-94015000D03*
X183000000Y-94015000D03*
X182600000Y-94015000D03*
X182200000Y-94015000D03*
D46*
X183000000Y-95000000D03*
%TD*%
D30*
%TO.C,R13*%
X162500000Y-95912500D03*
X162500000Y-94087500D03*
%TD*%
D33*
%TO.C,Ultra1*%
X171500000Y-122750000D03*
D34*
X168960000Y-122750000D03*
X166420000Y-122750000D03*
X163880000Y-122750000D03*
%TD*%
D47*
%TO.C,C3*%
X189362500Y-119000000D03*
X187637500Y-119000000D03*
%TD*%
D33*
%TO.C,Wind_Sen1*%
X165025000Y-113000000D03*
D34*
X162485000Y-113000000D03*
X159945000Y-113000000D03*
%TD*%
D17*
%TO.C,Rst1*%
X139130000Y-135690000D03*
X145630000Y-135690000D03*
X139130000Y-131190000D03*
X145630000Y-131190000D03*
%TD*%
D23*
%TO.C,C1*%
X133250000Y-130130000D03*
X133250000Y-131855000D03*
%TD*%
D33*
%TO.C,JTAG1*%
X163950000Y-134250000D03*
D34*
X166490000Y-134250000D03*
X169030000Y-134250000D03*
X171570000Y-134250000D03*
%TD*%
D18*
%TO.C,R29*%
X141587500Y-101000000D03*
X143412500Y-101000000D03*
%TD*%
D36*
%TO.C,U6*%
X135865000Y-98550000D03*
X135865000Y-99350000D03*
X135865000Y-100150000D03*
X135865000Y-100950000D03*
D37*
X139635000Y-100950000D03*
X139635000Y-100150000D03*
X139635000Y-99350000D03*
X139635000Y-98550000D03*
D38*
X137750000Y-99750000D03*
%TD*%
D30*
%TO.C,R5*%
X184500000Y-100162500D03*
X184500000Y-98337500D03*
%TD*%
D48*
%TO.C,U3*%
X188300000Y-121037500D03*
X187450000Y-121037500D03*
X186600000Y-121037500D03*
X185750000Y-121037500D03*
X184900000Y-121037500D03*
X184050000Y-121037500D03*
X183200000Y-121037500D03*
X182350000Y-121037500D03*
X181500000Y-121037500D03*
X180650000Y-121037500D03*
X179800000Y-121037500D03*
X178950000Y-121037500D03*
X178100000Y-121037500D03*
X177250000Y-121037500D03*
X176400000Y-121037500D03*
D49*
X175350000Y-122087500D03*
X175350000Y-122937500D03*
X175350000Y-123787500D03*
X175350000Y-124637500D03*
X175350000Y-125487500D03*
X175350000Y-126337500D03*
X175350000Y-127187500D03*
X175350000Y-128037500D03*
X175350000Y-128887500D03*
X175350000Y-129737500D03*
X175350000Y-130587500D03*
X175350000Y-131437500D03*
X175350000Y-132287500D03*
X175350000Y-133137500D03*
X175350000Y-133987500D03*
D48*
X176400000Y-135037500D03*
X177250000Y-135037500D03*
X178100000Y-135037500D03*
X178950000Y-135037500D03*
X179800000Y-135037500D03*
X180650000Y-135037500D03*
X181500000Y-135037500D03*
X182350000Y-135037500D03*
X183200000Y-135037500D03*
X184050000Y-135037500D03*
X184900000Y-135037500D03*
X185750000Y-135037500D03*
X186600000Y-135037500D03*
X187450000Y-135037500D03*
X188300000Y-135037500D03*
D49*
X189350000Y-133987500D03*
X189350000Y-133137500D03*
X189350000Y-132287500D03*
X189350000Y-131437500D03*
X189350000Y-130587500D03*
X189350000Y-129737500D03*
X189350000Y-128887500D03*
X189350000Y-128037500D03*
X189350000Y-127187500D03*
X189350000Y-126337500D03*
X189350000Y-125487500D03*
X189350000Y-124637500D03*
X189350000Y-123787500D03*
X189350000Y-122937500D03*
X189350000Y-122087500D03*
D50*
X182350000Y-128037500D03*
X182350000Y-126387500D03*
X180700000Y-126387500D03*
X180700000Y-128037500D03*
X180700000Y-129687500D03*
X182350000Y-129687500D03*
X184000000Y-129687500D03*
X184000000Y-128037500D03*
D51*
X189350000Y-121037500D03*
X175350000Y-121037500D03*
X175350000Y-135037500D03*
X189350000Y-135037500D03*
%TD*%
D18*
%TO.C,R2*%
X152837500Y-130000000D03*
X154662500Y-130000000D03*
%TD*%
D24*
%TO.C,R21*%
X173912500Y-117000000D03*
X172087500Y-117000000D03*
%TD*%
D52*
%TO.C,R11*%
X157750000Y-102587500D03*
X157750000Y-104412500D03*
%TD*%
D33*
%TO.C,UART1*%
X150500000Y-134250000D03*
D34*
X153040000Y-134250000D03*
X155580000Y-134250000D03*
X158120000Y-134250000D03*
%TD*%
D24*
%TO.C,R26*%
X156250000Y-113500000D03*
X154425000Y-113500000D03*
%TD*%
%TO.C,R31*%
X143412500Y-97750000D03*
X141587500Y-97750000D03*
%TD*%
%TO.C,R24*%
X156250000Y-116500000D03*
X154425000Y-116500000D03*
%TD*%
%TO.C,R20*%
X174487500Y-106750000D03*
X172662500Y-106750000D03*
%TD*%
D30*
%TO.C,R12*%
X165250000Y-95912500D03*
X165250000Y-94087500D03*
%TD*%
D33*
%TO.C,Rain1*%
X169975000Y-113000000D03*
D34*
X172515000Y-113000000D03*
%TD*%
D20*
%TO.C,C9*%
X168750000Y-96500000D03*
X170750000Y-96500000D03*
%TD*%
D18*
%TO.C,R17*%
X168662500Y-106750000D03*
X170487500Y-106750000D03*
%TD*%
%TO.C,R3*%
X158587500Y-122250000D03*
X160412500Y-122250000D03*
%TD*%
M02*
