%TF.GenerationSoftware,KiCad,Pcbnew,(6.0.9)*%
%TF.CreationDate,2023-05-01T22:34:10-06:00*%
%TF.ProjectId,WeatherStation,57656174-6865-4725-9374-6174696f6e2e,rev?*%
%TF.SameCoordinates,Original*%
%TF.FileFunction,Drillmap*%
%TF.FilePolarity,Positive*%
%FSLAX45Y45*%
G04 Gerber Fmt 4.5, Leading zero omitted, Abs format (unit mm)*
G04 Created by KiCad (PCBNEW (6.0.9)) date 2023-05-01 22:34:10*
%MOMM*%
%LPD*%
G01*
G04 APERTURE LIST*
%ADD10C,0.010000*%
%ADD11C,0.200000*%
G04 APERTURE END LIST*
D10*
X18915461Y-8110000D02*
G75*
G03*
X18915461Y-8110000I-120461J0D01*
G01*
X19075150Y-7797000D02*
X13074850Y-7797000D01*
X13074850Y-7797000D02*
X13074850Y-13797800D01*
X13074850Y-13797800D02*
X19075150Y-13797800D01*
X19075150Y-13797800D02*
X19075150Y-7797000D01*
X13585461Y-8110000D02*
G75*
G03*
X13585461Y-8110000I-120461J0D01*
G01*
X13585461Y-13540460D02*
G75*
G03*
X13585461Y-13540460I-120461J0D01*
G01*
D11*
X13331969Y-14108776D02*
X13331969Y-13908776D01*
X13379588Y-13908776D01*
X13408159Y-13918300D01*
X13427207Y-13937348D01*
X13436731Y-13956395D01*
X13446255Y-13994490D01*
X13446255Y-14023062D01*
X13436731Y-14061157D01*
X13427207Y-14080205D01*
X13408159Y-14099252D01*
X13379588Y-14108776D01*
X13331969Y-14108776D01*
X13531969Y-14108776D02*
X13531969Y-13975443D01*
X13531969Y-14013538D02*
X13541493Y-13994490D01*
X13551017Y-13984967D01*
X13570064Y-13975443D01*
X13589112Y-13975443D01*
X13655778Y-14108776D02*
X13655778Y-13975443D01*
X13655778Y-13908776D02*
X13646255Y-13918300D01*
X13655778Y-13927824D01*
X13665302Y-13918300D01*
X13655778Y-13908776D01*
X13655778Y-13927824D01*
X13779588Y-14108776D02*
X13760540Y-14099252D01*
X13751017Y-14080205D01*
X13751017Y-13908776D01*
X13884350Y-14108776D02*
X13865302Y-14099252D01*
X13855778Y-14080205D01*
X13855778Y-13908776D01*
X14112921Y-14108776D02*
X14112921Y-13908776D01*
X14179588Y-14051633D01*
X14246255Y-13908776D01*
X14246255Y-14108776D01*
X14427207Y-14108776D02*
X14427207Y-14004014D01*
X14417683Y-13984967D01*
X14398636Y-13975443D01*
X14360540Y-13975443D01*
X14341493Y-13984967D01*
X14427207Y-14099252D02*
X14408159Y-14108776D01*
X14360540Y-14108776D01*
X14341493Y-14099252D01*
X14331969Y-14080205D01*
X14331969Y-14061157D01*
X14341493Y-14042109D01*
X14360540Y-14032586D01*
X14408159Y-14032586D01*
X14427207Y-14023062D01*
X14522445Y-13975443D02*
X14522445Y-14175443D01*
X14522445Y-13984967D02*
X14541493Y-13975443D01*
X14579588Y-13975443D01*
X14598636Y-13984967D01*
X14608159Y-13994490D01*
X14617683Y-14013538D01*
X14617683Y-14070681D01*
X14608159Y-14089728D01*
X14598636Y-14099252D01*
X14579588Y-14108776D01*
X14541493Y-14108776D01*
X14522445Y-14099252D01*
X14703398Y-14089728D02*
X14712921Y-14099252D01*
X14703398Y-14108776D01*
X14693874Y-14099252D01*
X14703398Y-14089728D01*
X14703398Y-14108776D01*
X14703398Y-13984967D02*
X14712921Y-13994490D01*
X14703398Y-14004014D01*
X14693874Y-13994490D01*
X14703398Y-13984967D01*
X14703398Y-14004014D01*
M02*
