%TF.GenerationSoftware,KiCad,Pcbnew,(6.0.9)*%
%TF.CreationDate,2023-04-25T00:15:43-06:00*%
%TF.ProjectId,WeatherStation,57656174-6865-4725-9374-6174696f6e2e,rev?*%
%TF.SameCoordinates,Original*%
%TF.FileFunction,Drillmap*%
%TF.FilePolarity,Positive*%
%FSLAX45Y45*%
G04 Gerber Fmt 4.5, Leading zero omitted, Abs format (unit mm)*
G04 Created by KiCad (PCBNEW (6.0.9)) date 2023-04-25 00:15:43*
%MOMM*%
%LPD*%
G01*
G04 APERTURE LIST*
%ADD10C,0.100000*%
%ADD11C,0.200000*%
%ADD12C,0.040000*%
%ADD13C,0.060000*%
%ADD14C,0.075000*%
%ADD15C,0.080000*%
%ADD16C,0.110000*%
%ADD17C,0.132000*%
G04 APERTURE END LIST*
D10*
X18915461Y-8110000D02*
G75*
G03*
X18915461Y-8110000I-120461J0D01*
G01*
X13585461Y-8110000D02*
G75*
G03*
X13585461Y-8110000I-120461J0D01*
G01*
X13585461Y-13540460D02*
G75*
G03*
X13585461Y-13540460I-120461J0D01*
G01*
X19075150Y-7797000D02*
X13074850Y-7797000D01*
X13074850Y-7797000D02*
X13074850Y-13797800D01*
X13074850Y-13797800D02*
X19075150Y-13797800D01*
X19075150Y-13797800D02*
X19075150Y-7797000D01*
D11*
D12*
X13455000Y-9905000D02*
X13495000Y-9945000D01*
X13495000Y-9905000D02*
X13455000Y-9945000D01*
X13455000Y-12954250D02*
X13495000Y-12994250D01*
X13495000Y-12954250D02*
X13455000Y-12994250D01*
X13480000Y-10230000D02*
X13520000Y-10270000D01*
X13520000Y-10230000D02*
X13480000Y-10270000D01*
X13580000Y-11980000D02*
X13620000Y-12020000D01*
X13620000Y-11980000D02*
X13580000Y-12020000D01*
X13630000Y-10405000D02*
X13670000Y-10445000D01*
X13670000Y-10405000D02*
X13630000Y-10445000D01*
X13813750Y-12363750D02*
X13853750Y-12403750D01*
X13853750Y-12363750D02*
X13813750Y-12403750D01*
X14005000Y-12430000D02*
X14045000Y-12470000D01*
X14045000Y-12430000D02*
X14005000Y-12470000D01*
X14355000Y-12705000D02*
X14395000Y-12745000D01*
X14395000Y-12705000D02*
X14355000Y-12745000D01*
X14455000Y-10080000D02*
X14495000Y-10120000D01*
X14495000Y-10080000D02*
X14455000Y-10120000D01*
X14505000Y-10580000D02*
X14545000Y-10620000D01*
X14545000Y-10580000D02*
X14505000Y-10620000D01*
X15030000Y-10330000D02*
X15070000Y-10370000D01*
X15070000Y-10330000D02*
X15030000Y-10370000D01*
X15055000Y-12680000D02*
X15095000Y-12720000D01*
X15095000Y-12680000D02*
X15055000Y-12720000D01*
X15380000Y-10605000D02*
X15420000Y-10645000D01*
X15420000Y-10605000D02*
X15380000Y-10645000D01*
X15405000Y-11505000D02*
X15445000Y-11545000D01*
X15445000Y-11505000D02*
X15405000Y-11545000D01*
X15430000Y-12630000D02*
X15470000Y-12670000D01*
X15470000Y-12630000D02*
X15430000Y-12670000D01*
X15480000Y-10480000D02*
X15520000Y-10520000D01*
X15520000Y-10480000D02*
X15480000Y-10520000D01*
X15580000Y-12980000D02*
X15620000Y-13020000D01*
X15620000Y-12980000D02*
X15580000Y-13020000D01*
X15805000Y-12755000D02*
X15845000Y-12795000D01*
X15845000Y-12755000D02*
X15805000Y-12795000D01*
X15880000Y-10530000D02*
X15920000Y-10570000D01*
X15920000Y-10530000D02*
X15880000Y-10570000D01*
X15980000Y-13055000D02*
X16020000Y-13095000D01*
X16020000Y-13055000D02*
X15980000Y-13095000D01*
X16080000Y-9305000D02*
X16120000Y-9345000D01*
X16120000Y-9305000D02*
X16080000Y-9345000D01*
X16155000Y-12530000D02*
X16195000Y-12570000D01*
X16195000Y-12530000D02*
X16155000Y-12570000D01*
X16475000Y-9835000D02*
X16515000Y-9875000D01*
X16515000Y-9835000D02*
X16475000Y-9875000D01*
X16480000Y-10505000D02*
X16520000Y-10545000D01*
X16520000Y-10505000D02*
X16480000Y-10545000D01*
X16505000Y-10055000D02*
X16545000Y-10095000D01*
X16545000Y-10055000D02*
X16505000Y-10095000D01*
X16730000Y-9955000D02*
X16770000Y-9995000D01*
X16770000Y-9955000D02*
X16730000Y-9995000D01*
X17130000Y-10730000D02*
X17170000Y-10770000D01*
X17170000Y-10730000D02*
X17130000Y-10770000D01*
X17230000Y-10230000D02*
X17270000Y-10270000D01*
X17270000Y-10230000D02*
X17230000Y-10270000D01*
X17455000Y-10880000D02*
X17495000Y-10920000D01*
X17495000Y-10880000D02*
X17455000Y-10920000D01*
X17480000Y-9580000D02*
X17520000Y-9620000D01*
X17520000Y-9580000D02*
X17480000Y-9620000D01*
X17630000Y-12205000D02*
X17670000Y-12245000D01*
X17670000Y-12205000D02*
X17630000Y-12245000D01*
X17630000Y-13355000D02*
X17670000Y-13395000D01*
X17670000Y-13355000D02*
X17630000Y-13395000D01*
X17655000Y-10405000D02*
X17695000Y-10445000D01*
X17695000Y-10405000D02*
X17655000Y-10445000D01*
X17780000Y-10605000D02*
X17820000Y-10645000D01*
X17820000Y-10605000D02*
X17780000Y-10645000D01*
X17808955Y-11733955D02*
X17848955Y-11773955D01*
X17848955Y-11733955D02*
X17808955Y-11773955D01*
X17830000Y-9430000D02*
X17870000Y-9470000D01*
X17870000Y-9430000D02*
X17830000Y-9470000D01*
X17855000Y-10130000D02*
X17895000Y-10170000D01*
X17895000Y-10130000D02*
X17855000Y-10170000D01*
X17930000Y-10855000D02*
X17970000Y-10895000D01*
X17970000Y-10855000D02*
X17930000Y-10895000D01*
X18130000Y-12480000D02*
X18170000Y-12520000D01*
X18170000Y-12480000D02*
X18130000Y-12520000D01*
X18155000Y-9255000D02*
X18195000Y-9295000D01*
X18195000Y-9255000D02*
X18155000Y-9295000D01*
X18280000Y-9705000D02*
X18320000Y-9745000D01*
X18320000Y-9705000D02*
X18280000Y-9745000D01*
X18305000Y-13080000D02*
X18345000Y-13120000D01*
X18345000Y-13080000D02*
X18305000Y-13120000D01*
X18305000Y-13630000D02*
X18345000Y-13670000D01*
X18345000Y-13630000D02*
X18305000Y-13670000D01*
X18374181Y-11549181D02*
X18414181Y-11589181D01*
X18414181Y-11549181D02*
X18374181Y-11589181D01*
X18405000Y-11430000D02*
X18445000Y-11470000D01*
X18445000Y-11430000D02*
X18405000Y-11470000D01*
X18455000Y-11830000D02*
X18495000Y-11870000D01*
X18495000Y-11830000D02*
X18455000Y-11870000D01*
X18480000Y-10130000D02*
X18520000Y-10170000D01*
X18520000Y-10130000D02*
X18480000Y-10170000D01*
X18505000Y-11480000D02*
X18545000Y-11520000D01*
X18545000Y-11480000D02*
X18505000Y-11520000D01*
X18505000Y-12705000D02*
X18545000Y-12745000D01*
X18545000Y-12705000D02*
X18505000Y-12745000D01*
X18572450Y-11380000D02*
X18612450Y-11420000D01*
X18612450Y-11380000D02*
X18572450Y-11420000D01*
X18580000Y-13630000D02*
X18620000Y-13670000D01*
X18620000Y-13630000D02*
X18580000Y-13670000D01*
X18605000Y-11855000D02*
X18645000Y-11895000D01*
X18645000Y-11855000D02*
X18605000Y-11895000D01*
X18605000Y-13380000D02*
X18645000Y-13420000D01*
X18645000Y-13380000D02*
X18605000Y-13420000D01*
X18705000Y-9430000D02*
X18745000Y-9470000D01*
X18745000Y-9430000D02*
X18705000Y-9470000D01*
X18755000Y-12180000D02*
X18795000Y-12220000D01*
X18795000Y-12180000D02*
X18755000Y-12220000D01*
X18805000Y-12380000D02*
X18845000Y-12420000D01*
X18845000Y-12380000D02*
X18805000Y-12420000D01*
X18805000Y-12630000D02*
X18845000Y-12670000D01*
X18845000Y-12630000D02*
X18805000Y-12670000D01*
X18805000Y-12905000D02*
X18845000Y-12945000D01*
X18845000Y-12905000D02*
X18805000Y-12945000D01*
X18805000Y-13155000D02*
X18845000Y-13195000D01*
X18845000Y-13155000D02*
X18805000Y-13195000D01*
X18805000Y-13355000D02*
X18845000Y-13395000D01*
X18845000Y-13355000D02*
X18805000Y-13395000D01*
X18880000Y-9405000D02*
X18920000Y-9445000D01*
X18920000Y-9405000D02*
X18880000Y-9445000D01*
D13*
X14280000Y-12050000D02*
G75*
G03*
X14280000Y-12050000I-30000J0D01*
G01*
X14430000Y-12050000D02*
G75*
G03*
X14430000Y-12050000I-30000J0D01*
G01*
D14*
X14773000Y-11673500D02*
X14773000Y-11748500D01*
X14735500Y-11711000D02*
X14810500Y-11711000D01*
X14773000Y-12373500D02*
X14773000Y-12448500D01*
X14735500Y-12411000D02*
X14810500Y-12411000D01*
X14798000Y-10973500D02*
X14798000Y-11048500D01*
X14760500Y-11011000D02*
X14835500Y-11011000D01*
X14900000Y-11546500D02*
X14900000Y-11621500D01*
X14862500Y-11584000D02*
X14937500Y-11584000D01*
X14900000Y-12246500D02*
X14900000Y-12321500D01*
X14862500Y-12284000D02*
X14937500Y-12284000D01*
X14925000Y-10846500D02*
X14925000Y-10921500D01*
X14887500Y-10884000D02*
X14962500Y-10884000D01*
X15027000Y-11673500D02*
X15027000Y-11748500D01*
X14989500Y-11711000D02*
X15064500Y-11711000D01*
X15027000Y-12373500D02*
X15027000Y-12448500D01*
X14989500Y-12411000D02*
X15064500Y-12411000D01*
X15052000Y-10973500D02*
X15052000Y-11048500D01*
X15014500Y-11011000D02*
X15089500Y-11011000D01*
D15*
X14253284Y-11353284D02*
X14253284Y-11296715D01*
X14196715Y-11296715D01*
X14196715Y-11353284D01*
X14253284Y-11353284D01*
X14453284Y-11353284D02*
X14453284Y-11296715D01*
X14396715Y-11296715D01*
X14396715Y-11353284D01*
X14453284Y-11353284D01*
X15153284Y-10028285D02*
X15153284Y-9971716D01*
X15096715Y-9971716D01*
X15096715Y-10028285D01*
X15153284Y-10028285D01*
X15178284Y-9203285D02*
X15178284Y-9146716D01*
X15121715Y-9146716D01*
X15121715Y-9203285D01*
X15178284Y-9203285D01*
X15378284Y-9203285D02*
X15378284Y-9146716D01*
X15321715Y-9146716D01*
X15321715Y-9203285D01*
X15378284Y-9203285D01*
X15403284Y-10028285D02*
X15403284Y-9971716D01*
X15346715Y-9971716D01*
X15346715Y-10028285D01*
X15403284Y-10028285D01*
X16903285Y-9678285D02*
X16903285Y-9621716D01*
X16846716Y-9621716D01*
X16846716Y-9678285D01*
X16903285Y-9678285D01*
X17103285Y-9678285D02*
X17103285Y-9621716D01*
X17046716Y-9621716D01*
X17046716Y-9678285D01*
X17103285Y-9678285D01*
D10*
X13394000Y-11375000D02*
X13444000Y-11325000D01*
X13394000Y-11275000D01*
X13344000Y-11325000D01*
X13394000Y-11375000D01*
X13775000Y-11375000D02*
X13825000Y-11325000D01*
X13775000Y-11275000D01*
X13725000Y-11325000D01*
X13775000Y-11375000D01*
X13879925Y-8870000D02*
X13929925Y-8820000D01*
X13879925Y-8770000D01*
X13829925Y-8820000D01*
X13879925Y-8870000D01*
X13879925Y-9251000D02*
X13929925Y-9201000D01*
X13879925Y-9151000D01*
X13829925Y-9201000D01*
X13879925Y-9251000D01*
X15050000Y-13475000D02*
X15100000Y-13425000D01*
X15050000Y-13375000D01*
X15000000Y-13425000D01*
X15050000Y-13475000D01*
X15304000Y-13475000D02*
X15354000Y-13425000D01*
X15304000Y-13375000D01*
X15254000Y-13425000D01*
X15304000Y-13475000D01*
X15558000Y-13475000D02*
X15608000Y-13425000D01*
X15558000Y-13375000D01*
X15508000Y-13425000D01*
X15558000Y-13475000D01*
X15812000Y-13475000D02*
X15862000Y-13425000D01*
X15812000Y-13375000D01*
X15762000Y-13425000D01*
X15812000Y-13475000D01*
X15994500Y-11350000D02*
X16044500Y-11300000D01*
X15994500Y-11250000D01*
X15944500Y-11300000D01*
X15994500Y-11350000D01*
X16248500Y-11350000D02*
X16298500Y-11300000D01*
X16248500Y-11250000D01*
X16198500Y-11300000D01*
X16248500Y-11350000D01*
X16388000Y-12325000D02*
X16438000Y-12275000D01*
X16388000Y-12225000D01*
X16338000Y-12275000D01*
X16388000Y-12325000D01*
X16395000Y-13475000D02*
X16445000Y-13425000D01*
X16395000Y-13375000D01*
X16345000Y-13425000D01*
X16395000Y-13475000D01*
X16502500Y-11350000D02*
X16552500Y-11300000D01*
X16502500Y-11250000D01*
X16452500Y-11300000D01*
X16502500Y-11350000D01*
X16642000Y-12325000D02*
X16692000Y-12275000D01*
X16642000Y-12225000D01*
X16592000Y-12275000D01*
X16642000Y-12325000D01*
X16642000Y-13025000D02*
X16692000Y-12975000D01*
X16642000Y-12925000D01*
X16592000Y-12975000D01*
X16642000Y-13025000D01*
X16649000Y-13475000D02*
X16699000Y-13425000D01*
X16649000Y-13375000D01*
X16599000Y-13425000D01*
X16649000Y-13475000D01*
X16896000Y-12325000D02*
X16946000Y-12275000D01*
X16896000Y-12225000D01*
X16846000Y-12275000D01*
X16896000Y-12325000D01*
X16896000Y-13025000D02*
X16946000Y-12975000D01*
X16896000Y-12925000D01*
X16846000Y-12975000D01*
X16896000Y-13025000D01*
X16903000Y-13475000D02*
X16953000Y-13425000D01*
X16903000Y-13375000D01*
X16853000Y-13425000D01*
X16903000Y-13475000D01*
X16997500Y-11350000D02*
X17047500Y-11300000D01*
X16997500Y-11250000D01*
X16947500Y-11300000D01*
X16997500Y-11350000D01*
X17150000Y-12325000D02*
X17200000Y-12275000D01*
X17150000Y-12225000D01*
X17100000Y-12275000D01*
X17150000Y-12325000D01*
X17150000Y-13025000D02*
X17200000Y-12975000D01*
X17150000Y-12925000D01*
X17100000Y-12975000D01*
X17150000Y-13025000D01*
X17157000Y-13475000D02*
X17207000Y-13425000D01*
X17157000Y-13375000D01*
X17107000Y-13425000D01*
X17157000Y-13475000D01*
X17251500Y-11350000D02*
X17301500Y-11300000D01*
X17251500Y-11250000D01*
X17201500Y-11300000D01*
X17251500Y-11350000D01*
X17769500Y-11285000D02*
X17819500Y-11235000D01*
X17769500Y-11185000D01*
X17719500Y-11235000D01*
X17769500Y-11285000D01*
X18023500Y-11285000D02*
X18073500Y-11235000D01*
X18023500Y-11185000D01*
X17973500Y-11235000D01*
X18023500Y-11285000D01*
X18277500Y-11285000D02*
X18327500Y-11235000D01*
X18277500Y-11185000D01*
X18227500Y-11235000D01*
X18277500Y-11285000D01*
D16*
X13858000Y-13064000D02*
X13968000Y-13174000D01*
X13968000Y-13064000D02*
X13858000Y-13174000D01*
X13968000Y-13119000D02*
G75*
G03*
X13968000Y-13119000I-55000J0D01*
G01*
X13858000Y-13514000D02*
X13968000Y-13624000D01*
X13968000Y-13514000D02*
X13858000Y-13624000D01*
X13968000Y-13569000D02*
G75*
G03*
X13968000Y-13569000I-55000J0D01*
G01*
X14508000Y-13064000D02*
X14618000Y-13174000D01*
X14618000Y-13064000D02*
X14508000Y-13174000D01*
X14618000Y-13119000D02*
G75*
G03*
X14618000Y-13119000I-55000J0D01*
G01*
X14508000Y-13514000D02*
X14618000Y-13624000D01*
X14618000Y-13514000D02*
X14508000Y-13624000D01*
X14618000Y-13569000D02*
G75*
G03*
X14618000Y-13569000I-55000J0D01*
G01*
X18145000Y-10245000D02*
X18255000Y-10355000D01*
X18255000Y-10245000D02*
X18145000Y-10355000D01*
X18255000Y-10300000D02*
G75*
G03*
X18255000Y-10300000I-55000J0D01*
G01*
X18145000Y-10695000D02*
X18255000Y-10805000D01*
X18255000Y-10695000D02*
X18145000Y-10805000D01*
X18255000Y-10750000D02*
G75*
G03*
X18255000Y-10750000I-55000J0D01*
G01*
X18795000Y-10245000D02*
X18905000Y-10355000D01*
X18905000Y-10245000D02*
X18795000Y-10355000D01*
X18905000Y-10300000D02*
G75*
G03*
X18905000Y-10300000I-55000J0D01*
G01*
X18795000Y-10695000D02*
X18905000Y-10805000D01*
X18905000Y-10695000D02*
X18795000Y-10805000D01*
X18905000Y-10750000D02*
G75*
G03*
X18905000Y-10750000I-55000J0D01*
G01*
D17*
X16364000Y-8439000D02*
X16496000Y-8571000D01*
X16496000Y-8439000D02*
X16364000Y-8571000D01*
X16430000Y-8439000D02*
X16430000Y-8571000D01*
X16364000Y-8505000D02*
X16496000Y-8505000D01*
X16864000Y-8439000D02*
X16996000Y-8571000D01*
X16996000Y-8439000D02*
X16864000Y-8571000D01*
X16930000Y-8439000D02*
X16930000Y-8571000D01*
X16864000Y-8505000D02*
X16996000Y-8505000D01*
X17670500Y-8439000D02*
X17802500Y-8571000D01*
X17802500Y-8439000D02*
X17670500Y-8571000D01*
X17736500Y-8439000D02*
X17736500Y-8571000D01*
X17670500Y-8505000D02*
X17802500Y-8505000D01*
X18170500Y-8439000D02*
X18302500Y-8571000D01*
X18302500Y-8439000D02*
X18170500Y-8571000D01*
X18236500Y-8439000D02*
X18236500Y-8571000D01*
X18170500Y-8505000D02*
X18302500Y-8505000D01*
D11*
X13327469Y-14113276D02*
X13327469Y-13913276D01*
X13375088Y-13913276D01*
X13403659Y-13922800D01*
X13422707Y-13941848D01*
X13432231Y-13960895D01*
X13441755Y-13998990D01*
X13441755Y-14027562D01*
X13432231Y-14065657D01*
X13422707Y-14084705D01*
X13403659Y-14103752D01*
X13375088Y-14113276D01*
X13327469Y-14113276D01*
X13527469Y-14113276D02*
X13527469Y-13979943D01*
X13527469Y-14018038D02*
X13536993Y-13998990D01*
X13546517Y-13989467D01*
X13565564Y-13979943D01*
X13584612Y-13979943D01*
X13651278Y-14113276D02*
X13651278Y-13979943D01*
X13651278Y-13913276D02*
X13641755Y-13922800D01*
X13651278Y-13932324D01*
X13660802Y-13922800D01*
X13651278Y-13913276D01*
X13651278Y-13932324D01*
X13775088Y-14113276D02*
X13756040Y-14103752D01*
X13746517Y-14084705D01*
X13746517Y-13913276D01*
X13879850Y-14113276D02*
X13860802Y-14103752D01*
X13851278Y-14084705D01*
X13851278Y-13913276D01*
X14108421Y-14113276D02*
X14108421Y-13913276D01*
X14175088Y-14056133D01*
X14241755Y-13913276D01*
X14241755Y-14113276D01*
X14422707Y-14113276D02*
X14422707Y-14008514D01*
X14413183Y-13989467D01*
X14394136Y-13979943D01*
X14356040Y-13979943D01*
X14336993Y-13989467D01*
X14422707Y-14103752D02*
X14403659Y-14113276D01*
X14356040Y-14113276D01*
X14336993Y-14103752D01*
X14327469Y-14084705D01*
X14327469Y-14065657D01*
X14336993Y-14046609D01*
X14356040Y-14037086D01*
X14403659Y-14037086D01*
X14422707Y-14027562D01*
X14517945Y-13979943D02*
X14517945Y-14179943D01*
X14517945Y-13989467D02*
X14536993Y-13979943D01*
X14575088Y-13979943D01*
X14594136Y-13989467D01*
X14603659Y-13998990D01*
X14613183Y-14018038D01*
X14613183Y-14075181D01*
X14603659Y-14094228D01*
X14594136Y-14103752D01*
X14575088Y-14113276D01*
X14536993Y-14113276D01*
X14517945Y-14103752D01*
X14698898Y-14094228D02*
X14708421Y-14103752D01*
X14698898Y-14113276D01*
X14689374Y-14103752D01*
X14698898Y-14094228D01*
X14698898Y-14113276D01*
X14698898Y-13989467D02*
X14708421Y-13998990D01*
X14698898Y-14008514D01*
X14689374Y-13998990D01*
X14698898Y-13989467D01*
X14698898Y-14008514D01*
D12*
X13029850Y-14422800D02*
X13069850Y-14462800D01*
X13069850Y-14422800D02*
X13029850Y-14462800D01*
D11*
X13365564Y-14333276D02*
X13384612Y-14333276D01*
X13403659Y-14342800D01*
X13413183Y-14352324D01*
X13422707Y-14371371D01*
X13432231Y-14409467D01*
X13432231Y-14457086D01*
X13422707Y-14495181D01*
X13413183Y-14514228D01*
X13403659Y-14523752D01*
X13384612Y-14533276D01*
X13365564Y-14533276D01*
X13346517Y-14523752D01*
X13336993Y-14514228D01*
X13327469Y-14495181D01*
X13317945Y-14457086D01*
X13317945Y-14409467D01*
X13327469Y-14371371D01*
X13336993Y-14352324D01*
X13346517Y-14342800D01*
X13365564Y-14333276D01*
X13517945Y-14514228D02*
X13527469Y-14523752D01*
X13517945Y-14533276D01*
X13508421Y-14523752D01*
X13517945Y-14514228D01*
X13517945Y-14533276D01*
X13698898Y-14399943D02*
X13698898Y-14533276D01*
X13651278Y-14323752D02*
X13603659Y-14466609D01*
X13727469Y-14466609D01*
X13841755Y-14333276D02*
X13860802Y-14333276D01*
X13879850Y-14342800D01*
X13889374Y-14352324D01*
X13898898Y-14371371D01*
X13908421Y-14409467D01*
X13908421Y-14457086D01*
X13898898Y-14495181D01*
X13889374Y-14514228D01*
X13879850Y-14523752D01*
X13860802Y-14533276D01*
X13841755Y-14533276D01*
X13822707Y-14523752D01*
X13813183Y-14514228D01*
X13803659Y-14495181D01*
X13794136Y-14457086D01*
X13794136Y-14409467D01*
X13803659Y-14371371D01*
X13813183Y-14352324D01*
X13822707Y-14342800D01*
X13841755Y-14333276D01*
X14032231Y-14333276D02*
X14051278Y-14333276D01*
X14070326Y-14342800D01*
X14079850Y-14352324D01*
X14089374Y-14371371D01*
X14098898Y-14409467D01*
X14098898Y-14457086D01*
X14089374Y-14495181D01*
X14079850Y-14514228D01*
X14070326Y-14523752D01*
X14051278Y-14533276D01*
X14032231Y-14533276D01*
X14013183Y-14523752D01*
X14003659Y-14514228D01*
X13994136Y-14495181D01*
X13984612Y-14457086D01*
X13984612Y-14409467D01*
X13994136Y-14371371D01*
X14003659Y-14352324D01*
X14013183Y-14342800D01*
X14032231Y-14333276D01*
X14184612Y-14533276D02*
X14184612Y-14399943D01*
X14184612Y-14418990D02*
X14194136Y-14409467D01*
X14213183Y-14399943D01*
X14241755Y-14399943D01*
X14260802Y-14409467D01*
X14270326Y-14428514D01*
X14270326Y-14533276D01*
X14270326Y-14428514D02*
X14279850Y-14409467D01*
X14298898Y-14399943D01*
X14327469Y-14399943D01*
X14346517Y-14409467D01*
X14356040Y-14428514D01*
X14356040Y-14533276D01*
X14451278Y-14533276D02*
X14451278Y-14399943D01*
X14451278Y-14418990D02*
X14460802Y-14409467D01*
X14479850Y-14399943D01*
X14508421Y-14399943D01*
X14527469Y-14409467D01*
X14536993Y-14428514D01*
X14536993Y-14533276D01*
X14536993Y-14428514D02*
X14546517Y-14409467D01*
X14565564Y-14399943D01*
X14594136Y-14399943D01*
X14613183Y-14409467D01*
X14622707Y-14428514D01*
X14622707Y-14533276D01*
X15013183Y-14323752D02*
X14841755Y-14580895D01*
X15270326Y-14333276D02*
X15289374Y-14333276D01*
X15308421Y-14342800D01*
X15317945Y-14352324D01*
X15327469Y-14371371D01*
X15336993Y-14409467D01*
X15336993Y-14457086D01*
X15327469Y-14495181D01*
X15317945Y-14514228D01*
X15308421Y-14523752D01*
X15289374Y-14533276D01*
X15270326Y-14533276D01*
X15251278Y-14523752D01*
X15241755Y-14514228D01*
X15232231Y-14495181D01*
X15222707Y-14457086D01*
X15222707Y-14409467D01*
X15232231Y-14371371D01*
X15241755Y-14352324D01*
X15251278Y-14342800D01*
X15270326Y-14333276D01*
X15422707Y-14514228D02*
X15432231Y-14523752D01*
X15422707Y-14533276D01*
X15413183Y-14523752D01*
X15422707Y-14514228D01*
X15422707Y-14533276D01*
X15556040Y-14333276D02*
X15575088Y-14333276D01*
X15594136Y-14342800D01*
X15603659Y-14352324D01*
X15613183Y-14371371D01*
X15622707Y-14409467D01*
X15622707Y-14457086D01*
X15613183Y-14495181D01*
X15603659Y-14514228D01*
X15594136Y-14523752D01*
X15575088Y-14533276D01*
X15556040Y-14533276D01*
X15536993Y-14523752D01*
X15527469Y-14514228D01*
X15517945Y-14495181D01*
X15508421Y-14457086D01*
X15508421Y-14409467D01*
X15517945Y-14371371D01*
X15527469Y-14352324D01*
X15536993Y-14342800D01*
X15556040Y-14333276D01*
X15813183Y-14533276D02*
X15698898Y-14533276D01*
X15756040Y-14533276D02*
X15756040Y-14333276D01*
X15736993Y-14361848D01*
X15717945Y-14380895D01*
X15698898Y-14390419D01*
X15994136Y-14333276D02*
X15898898Y-14333276D01*
X15889374Y-14428514D01*
X15898898Y-14418990D01*
X15917945Y-14409467D01*
X15965564Y-14409467D01*
X15984612Y-14418990D01*
X15994136Y-14428514D01*
X16003659Y-14447562D01*
X16003659Y-14495181D01*
X15994136Y-14514228D01*
X15984612Y-14523752D01*
X15965564Y-14533276D01*
X15917945Y-14533276D01*
X15898898Y-14523752D01*
X15889374Y-14514228D01*
X16070326Y-14333276D02*
X16203659Y-14333276D01*
X16117945Y-14533276D01*
X16270326Y-14333276D02*
X16270326Y-14371371D01*
X16346517Y-14333276D02*
X16346517Y-14371371D01*
X16641755Y-14609467D02*
X16632231Y-14599943D01*
X16613183Y-14571371D01*
X16603659Y-14552324D01*
X16594136Y-14523752D01*
X16584612Y-14476133D01*
X16584612Y-14438038D01*
X16594136Y-14390419D01*
X16603659Y-14361848D01*
X16613183Y-14342800D01*
X16632231Y-14314228D01*
X16641755Y-14304705D01*
X16803660Y-14333276D02*
X16765564Y-14333276D01*
X16746517Y-14342800D01*
X16736993Y-14352324D01*
X16717945Y-14380895D01*
X16708421Y-14418990D01*
X16708421Y-14495181D01*
X16717945Y-14514228D01*
X16727469Y-14523752D01*
X16746517Y-14533276D01*
X16784612Y-14533276D01*
X16803660Y-14523752D01*
X16813183Y-14514228D01*
X16822707Y-14495181D01*
X16822707Y-14447562D01*
X16813183Y-14428514D01*
X16803660Y-14418990D01*
X16784612Y-14409467D01*
X16746517Y-14409467D01*
X16727469Y-14418990D01*
X16717945Y-14428514D01*
X16708421Y-14447562D01*
X17013183Y-14533276D02*
X16898898Y-14533276D01*
X16956040Y-14533276D02*
X16956040Y-14333276D01*
X16936993Y-14361848D01*
X16917945Y-14380895D01*
X16898898Y-14390419D01*
X17251279Y-14533276D02*
X17251279Y-14333276D01*
X17336993Y-14533276D02*
X17336993Y-14428514D01*
X17327469Y-14409467D01*
X17308421Y-14399943D01*
X17279850Y-14399943D01*
X17260802Y-14409467D01*
X17251279Y-14418990D01*
X17460802Y-14533276D02*
X17441755Y-14523752D01*
X17432231Y-14514228D01*
X17422707Y-14495181D01*
X17422707Y-14438038D01*
X17432231Y-14418990D01*
X17441755Y-14409467D01*
X17460802Y-14399943D01*
X17489374Y-14399943D01*
X17508421Y-14409467D01*
X17517945Y-14418990D01*
X17527469Y-14438038D01*
X17527469Y-14495181D01*
X17517945Y-14514228D01*
X17508421Y-14523752D01*
X17489374Y-14533276D01*
X17460802Y-14533276D01*
X17641755Y-14533276D02*
X17622707Y-14523752D01*
X17613183Y-14504705D01*
X17613183Y-14333276D01*
X17794136Y-14523752D02*
X17775088Y-14533276D01*
X17736993Y-14533276D01*
X17717945Y-14523752D01*
X17708421Y-14504705D01*
X17708421Y-14428514D01*
X17717945Y-14409467D01*
X17736993Y-14399943D01*
X17775088Y-14399943D01*
X17794136Y-14409467D01*
X17803660Y-14428514D01*
X17803660Y-14447562D01*
X17708421Y-14466609D01*
X17879850Y-14523752D02*
X17898898Y-14533276D01*
X17936993Y-14533276D01*
X17956040Y-14523752D01*
X17965564Y-14504705D01*
X17965564Y-14495181D01*
X17956040Y-14476133D01*
X17936993Y-14466609D01*
X17908421Y-14466609D01*
X17889374Y-14457086D01*
X17879850Y-14438038D01*
X17879850Y-14428514D01*
X17889374Y-14409467D01*
X17908421Y-14399943D01*
X17936993Y-14399943D01*
X17956040Y-14409467D01*
X18032231Y-14609467D02*
X18041755Y-14599943D01*
X18060802Y-14571371D01*
X18070326Y-14552324D01*
X18079850Y-14523752D01*
X18089374Y-14476133D01*
X18089374Y-14438038D01*
X18079850Y-14390419D01*
X18070326Y-14361848D01*
X18060802Y-14342800D01*
X18041755Y-14314228D01*
X18032231Y-14304705D01*
D13*
X13069850Y-14706800D02*
G75*
G03*
X13069850Y-14706800I-30000J0D01*
G01*
D11*
X13365564Y-14597276D02*
X13384612Y-14597276D01*
X13403659Y-14606800D01*
X13413183Y-14616324D01*
X13422707Y-14635371D01*
X13432231Y-14673467D01*
X13432231Y-14721086D01*
X13422707Y-14759181D01*
X13413183Y-14778228D01*
X13403659Y-14787752D01*
X13384612Y-14797276D01*
X13365564Y-14797276D01*
X13346517Y-14787752D01*
X13336993Y-14778228D01*
X13327469Y-14759181D01*
X13317945Y-14721086D01*
X13317945Y-14673467D01*
X13327469Y-14635371D01*
X13336993Y-14616324D01*
X13346517Y-14606800D01*
X13365564Y-14597276D01*
X13517945Y-14778228D02*
X13527469Y-14787752D01*
X13517945Y-14797276D01*
X13508421Y-14787752D01*
X13517945Y-14778228D01*
X13517945Y-14797276D01*
X13698898Y-14597276D02*
X13660802Y-14597276D01*
X13641755Y-14606800D01*
X13632231Y-14616324D01*
X13613183Y-14644895D01*
X13603659Y-14682990D01*
X13603659Y-14759181D01*
X13613183Y-14778228D01*
X13622707Y-14787752D01*
X13641755Y-14797276D01*
X13679850Y-14797276D01*
X13698898Y-14787752D01*
X13708421Y-14778228D01*
X13717945Y-14759181D01*
X13717945Y-14711562D01*
X13708421Y-14692514D01*
X13698898Y-14682990D01*
X13679850Y-14673467D01*
X13641755Y-14673467D01*
X13622707Y-14682990D01*
X13613183Y-14692514D01*
X13603659Y-14711562D01*
X13841755Y-14597276D02*
X13860802Y-14597276D01*
X13879850Y-14606800D01*
X13889374Y-14616324D01*
X13898898Y-14635371D01*
X13908421Y-14673467D01*
X13908421Y-14721086D01*
X13898898Y-14759181D01*
X13889374Y-14778228D01*
X13879850Y-14787752D01*
X13860802Y-14797276D01*
X13841755Y-14797276D01*
X13822707Y-14787752D01*
X13813183Y-14778228D01*
X13803659Y-14759181D01*
X13794136Y-14721086D01*
X13794136Y-14673467D01*
X13803659Y-14635371D01*
X13813183Y-14616324D01*
X13822707Y-14606800D01*
X13841755Y-14597276D01*
X14032231Y-14597276D02*
X14051278Y-14597276D01*
X14070326Y-14606800D01*
X14079850Y-14616324D01*
X14089374Y-14635371D01*
X14098898Y-14673467D01*
X14098898Y-14721086D01*
X14089374Y-14759181D01*
X14079850Y-14778228D01*
X14070326Y-14787752D01*
X14051278Y-14797276D01*
X14032231Y-14797276D01*
X14013183Y-14787752D01*
X14003659Y-14778228D01*
X13994136Y-14759181D01*
X13984612Y-14721086D01*
X13984612Y-14673467D01*
X13994136Y-14635371D01*
X14003659Y-14616324D01*
X14013183Y-14606800D01*
X14032231Y-14597276D01*
X14184612Y-14797276D02*
X14184612Y-14663943D01*
X14184612Y-14682990D02*
X14194136Y-14673467D01*
X14213183Y-14663943D01*
X14241755Y-14663943D01*
X14260802Y-14673467D01*
X14270326Y-14692514D01*
X14270326Y-14797276D01*
X14270326Y-14692514D02*
X14279850Y-14673467D01*
X14298898Y-14663943D01*
X14327469Y-14663943D01*
X14346517Y-14673467D01*
X14356040Y-14692514D01*
X14356040Y-14797276D01*
X14451278Y-14797276D02*
X14451278Y-14663943D01*
X14451278Y-14682990D02*
X14460802Y-14673467D01*
X14479850Y-14663943D01*
X14508421Y-14663943D01*
X14527469Y-14673467D01*
X14536993Y-14692514D01*
X14536993Y-14797276D01*
X14536993Y-14692514D02*
X14546517Y-14673467D01*
X14565564Y-14663943D01*
X14594136Y-14663943D01*
X14613183Y-14673467D01*
X14622707Y-14692514D01*
X14622707Y-14797276D01*
X15013183Y-14587752D02*
X14841755Y-14844895D01*
X15270326Y-14597276D02*
X15289374Y-14597276D01*
X15308421Y-14606800D01*
X15317945Y-14616324D01*
X15327469Y-14635371D01*
X15336993Y-14673467D01*
X15336993Y-14721086D01*
X15327469Y-14759181D01*
X15317945Y-14778228D01*
X15308421Y-14787752D01*
X15289374Y-14797276D01*
X15270326Y-14797276D01*
X15251278Y-14787752D01*
X15241755Y-14778228D01*
X15232231Y-14759181D01*
X15222707Y-14721086D01*
X15222707Y-14673467D01*
X15232231Y-14635371D01*
X15241755Y-14616324D01*
X15251278Y-14606800D01*
X15270326Y-14597276D01*
X15422707Y-14778228D02*
X15432231Y-14787752D01*
X15422707Y-14797276D01*
X15413183Y-14787752D01*
X15422707Y-14778228D01*
X15422707Y-14797276D01*
X15556040Y-14597276D02*
X15575088Y-14597276D01*
X15594136Y-14606800D01*
X15603659Y-14616324D01*
X15613183Y-14635371D01*
X15622707Y-14673467D01*
X15622707Y-14721086D01*
X15613183Y-14759181D01*
X15603659Y-14778228D01*
X15594136Y-14787752D01*
X15575088Y-14797276D01*
X15556040Y-14797276D01*
X15536993Y-14787752D01*
X15527469Y-14778228D01*
X15517945Y-14759181D01*
X15508421Y-14721086D01*
X15508421Y-14673467D01*
X15517945Y-14635371D01*
X15527469Y-14616324D01*
X15536993Y-14606800D01*
X15556040Y-14597276D01*
X15698898Y-14616324D02*
X15708421Y-14606800D01*
X15727469Y-14597276D01*
X15775088Y-14597276D01*
X15794136Y-14606800D01*
X15803659Y-14616324D01*
X15813183Y-14635371D01*
X15813183Y-14654419D01*
X15803659Y-14682990D01*
X15689374Y-14797276D01*
X15813183Y-14797276D01*
X15879850Y-14597276D02*
X16003659Y-14597276D01*
X15936993Y-14673467D01*
X15965564Y-14673467D01*
X15984612Y-14682990D01*
X15994136Y-14692514D01*
X16003659Y-14711562D01*
X16003659Y-14759181D01*
X15994136Y-14778228D01*
X15984612Y-14787752D01*
X15965564Y-14797276D01*
X15908421Y-14797276D01*
X15889374Y-14787752D01*
X15879850Y-14778228D01*
X16175088Y-14597276D02*
X16136993Y-14597276D01*
X16117945Y-14606800D01*
X16108421Y-14616324D01*
X16089374Y-14644895D01*
X16079850Y-14682990D01*
X16079850Y-14759181D01*
X16089374Y-14778228D01*
X16098898Y-14787752D01*
X16117945Y-14797276D01*
X16156040Y-14797276D01*
X16175088Y-14787752D01*
X16184612Y-14778228D01*
X16194136Y-14759181D01*
X16194136Y-14711562D01*
X16184612Y-14692514D01*
X16175088Y-14682990D01*
X16156040Y-14673467D01*
X16117945Y-14673467D01*
X16098898Y-14682990D01*
X16089374Y-14692514D01*
X16079850Y-14711562D01*
X16270326Y-14597276D02*
X16270326Y-14635371D01*
X16346517Y-14597276D02*
X16346517Y-14635371D01*
X16641755Y-14873467D02*
X16632231Y-14863943D01*
X16613183Y-14835371D01*
X16603659Y-14816324D01*
X16594136Y-14787752D01*
X16584612Y-14740133D01*
X16584612Y-14702038D01*
X16594136Y-14654419D01*
X16603659Y-14625848D01*
X16613183Y-14606800D01*
X16632231Y-14578228D01*
X16641755Y-14568705D01*
X16708421Y-14616324D02*
X16717945Y-14606800D01*
X16736993Y-14597276D01*
X16784612Y-14597276D01*
X16803660Y-14606800D01*
X16813183Y-14616324D01*
X16822707Y-14635371D01*
X16822707Y-14654419D01*
X16813183Y-14682990D01*
X16698898Y-14797276D01*
X16822707Y-14797276D01*
X17060802Y-14797276D02*
X17060802Y-14597276D01*
X17146517Y-14797276D02*
X17146517Y-14692514D01*
X17136993Y-14673467D01*
X17117945Y-14663943D01*
X17089374Y-14663943D01*
X17070326Y-14673467D01*
X17060802Y-14682990D01*
X17270326Y-14797276D02*
X17251279Y-14787752D01*
X17241755Y-14778228D01*
X17232231Y-14759181D01*
X17232231Y-14702038D01*
X17241755Y-14682990D01*
X17251279Y-14673467D01*
X17270326Y-14663943D01*
X17298898Y-14663943D01*
X17317945Y-14673467D01*
X17327469Y-14682990D01*
X17336993Y-14702038D01*
X17336993Y-14759181D01*
X17327469Y-14778228D01*
X17317945Y-14787752D01*
X17298898Y-14797276D01*
X17270326Y-14797276D01*
X17451279Y-14797276D02*
X17432231Y-14787752D01*
X17422707Y-14768705D01*
X17422707Y-14597276D01*
X17603660Y-14787752D02*
X17584612Y-14797276D01*
X17546517Y-14797276D01*
X17527469Y-14787752D01*
X17517945Y-14768705D01*
X17517945Y-14692514D01*
X17527469Y-14673467D01*
X17546517Y-14663943D01*
X17584612Y-14663943D01*
X17603660Y-14673467D01*
X17613183Y-14692514D01*
X17613183Y-14711562D01*
X17517945Y-14730609D01*
X17689374Y-14787752D02*
X17708421Y-14797276D01*
X17746517Y-14797276D01*
X17765564Y-14787752D01*
X17775088Y-14768705D01*
X17775088Y-14759181D01*
X17765564Y-14740133D01*
X17746517Y-14730609D01*
X17717945Y-14730609D01*
X17698898Y-14721086D01*
X17689374Y-14702038D01*
X17689374Y-14692514D01*
X17698898Y-14673467D01*
X17717945Y-14663943D01*
X17746517Y-14663943D01*
X17765564Y-14673467D01*
X17841755Y-14873467D02*
X17851279Y-14863943D01*
X17870326Y-14835371D01*
X17879850Y-14816324D01*
X17889374Y-14787752D01*
X17898898Y-14740133D01*
X17898898Y-14702038D01*
X17889374Y-14654419D01*
X17879850Y-14625848D01*
X17870326Y-14606800D01*
X17851279Y-14578228D01*
X17841755Y-14568705D01*
D14*
X13032350Y-14933300D02*
X13032350Y-15008300D01*
X12994850Y-14970800D02*
X13069850Y-14970800D01*
D11*
X13365564Y-14861276D02*
X13384612Y-14861276D01*
X13403659Y-14870800D01*
X13413183Y-14880324D01*
X13422707Y-14899371D01*
X13432231Y-14937467D01*
X13432231Y-14985086D01*
X13422707Y-15023181D01*
X13413183Y-15042228D01*
X13403659Y-15051752D01*
X13384612Y-15061276D01*
X13365564Y-15061276D01*
X13346517Y-15051752D01*
X13336993Y-15042228D01*
X13327469Y-15023181D01*
X13317945Y-14985086D01*
X13317945Y-14937467D01*
X13327469Y-14899371D01*
X13336993Y-14880324D01*
X13346517Y-14870800D01*
X13365564Y-14861276D01*
X13517945Y-15042228D02*
X13527469Y-15051752D01*
X13517945Y-15061276D01*
X13508421Y-15051752D01*
X13517945Y-15042228D01*
X13517945Y-15061276D01*
X13594136Y-14861276D02*
X13727469Y-14861276D01*
X13641755Y-15061276D01*
X13898898Y-14861276D02*
X13803659Y-14861276D01*
X13794136Y-14956514D01*
X13803659Y-14946990D01*
X13822707Y-14937467D01*
X13870326Y-14937467D01*
X13889374Y-14946990D01*
X13898898Y-14956514D01*
X13908421Y-14975562D01*
X13908421Y-15023181D01*
X13898898Y-15042228D01*
X13889374Y-15051752D01*
X13870326Y-15061276D01*
X13822707Y-15061276D01*
X13803659Y-15051752D01*
X13794136Y-15042228D01*
X14032231Y-14861276D02*
X14051278Y-14861276D01*
X14070326Y-14870800D01*
X14079850Y-14880324D01*
X14089374Y-14899371D01*
X14098898Y-14937467D01*
X14098898Y-14985086D01*
X14089374Y-15023181D01*
X14079850Y-15042228D01*
X14070326Y-15051752D01*
X14051278Y-15061276D01*
X14032231Y-15061276D01*
X14013183Y-15051752D01*
X14003659Y-15042228D01*
X13994136Y-15023181D01*
X13984612Y-14985086D01*
X13984612Y-14937467D01*
X13994136Y-14899371D01*
X14003659Y-14880324D01*
X14013183Y-14870800D01*
X14032231Y-14861276D01*
X14184612Y-15061276D02*
X14184612Y-14927943D01*
X14184612Y-14946990D02*
X14194136Y-14937467D01*
X14213183Y-14927943D01*
X14241755Y-14927943D01*
X14260802Y-14937467D01*
X14270326Y-14956514D01*
X14270326Y-15061276D01*
X14270326Y-14956514D02*
X14279850Y-14937467D01*
X14298898Y-14927943D01*
X14327469Y-14927943D01*
X14346517Y-14937467D01*
X14356040Y-14956514D01*
X14356040Y-15061276D01*
X14451278Y-15061276D02*
X14451278Y-14927943D01*
X14451278Y-14946990D02*
X14460802Y-14937467D01*
X14479850Y-14927943D01*
X14508421Y-14927943D01*
X14527469Y-14937467D01*
X14536993Y-14956514D01*
X14536993Y-15061276D01*
X14536993Y-14956514D02*
X14546517Y-14937467D01*
X14565564Y-14927943D01*
X14594136Y-14927943D01*
X14613183Y-14937467D01*
X14622707Y-14956514D01*
X14622707Y-15061276D01*
X15013183Y-14851752D02*
X14841755Y-15108895D01*
X15270326Y-14861276D02*
X15289374Y-14861276D01*
X15308421Y-14870800D01*
X15317945Y-14880324D01*
X15327469Y-14899371D01*
X15336993Y-14937467D01*
X15336993Y-14985086D01*
X15327469Y-15023181D01*
X15317945Y-15042228D01*
X15308421Y-15051752D01*
X15289374Y-15061276D01*
X15270326Y-15061276D01*
X15251278Y-15051752D01*
X15241755Y-15042228D01*
X15232231Y-15023181D01*
X15222707Y-14985086D01*
X15222707Y-14937467D01*
X15232231Y-14899371D01*
X15241755Y-14880324D01*
X15251278Y-14870800D01*
X15270326Y-14861276D01*
X15422707Y-15042228D02*
X15432231Y-15051752D01*
X15422707Y-15061276D01*
X15413183Y-15051752D01*
X15422707Y-15042228D01*
X15422707Y-15061276D01*
X15556040Y-14861276D02*
X15575088Y-14861276D01*
X15594136Y-14870800D01*
X15603659Y-14880324D01*
X15613183Y-14899371D01*
X15622707Y-14937467D01*
X15622707Y-14985086D01*
X15613183Y-15023181D01*
X15603659Y-15042228D01*
X15594136Y-15051752D01*
X15575088Y-15061276D01*
X15556040Y-15061276D01*
X15536993Y-15051752D01*
X15527469Y-15042228D01*
X15517945Y-15023181D01*
X15508421Y-14985086D01*
X15508421Y-14937467D01*
X15517945Y-14899371D01*
X15527469Y-14880324D01*
X15536993Y-14870800D01*
X15556040Y-14861276D01*
X15698898Y-14880324D02*
X15708421Y-14870800D01*
X15727469Y-14861276D01*
X15775088Y-14861276D01*
X15794136Y-14870800D01*
X15803659Y-14880324D01*
X15813183Y-14899371D01*
X15813183Y-14918419D01*
X15803659Y-14946990D01*
X15689374Y-15061276D01*
X15813183Y-15061276D01*
X15908421Y-15061276D02*
X15946517Y-15061276D01*
X15965564Y-15051752D01*
X15975088Y-15042228D01*
X15994136Y-15013657D01*
X16003659Y-14975562D01*
X16003659Y-14899371D01*
X15994136Y-14880324D01*
X15984612Y-14870800D01*
X15965564Y-14861276D01*
X15927469Y-14861276D01*
X15908421Y-14870800D01*
X15898898Y-14880324D01*
X15889374Y-14899371D01*
X15889374Y-14946990D01*
X15898898Y-14966038D01*
X15908421Y-14975562D01*
X15927469Y-14985086D01*
X15965564Y-14985086D01*
X15984612Y-14975562D01*
X15994136Y-14966038D01*
X16003659Y-14946990D01*
X16184612Y-14861276D02*
X16089374Y-14861276D01*
X16079850Y-14956514D01*
X16089374Y-14946990D01*
X16108421Y-14937467D01*
X16156040Y-14937467D01*
X16175088Y-14946990D01*
X16184612Y-14956514D01*
X16194136Y-14975562D01*
X16194136Y-15023181D01*
X16184612Y-15042228D01*
X16175088Y-15051752D01*
X16156040Y-15061276D01*
X16108421Y-15061276D01*
X16089374Y-15051752D01*
X16079850Y-15042228D01*
X16270326Y-14861276D02*
X16270326Y-14899371D01*
X16346517Y-14861276D02*
X16346517Y-14899371D01*
X16641755Y-15137467D02*
X16632231Y-15127943D01*
X16613183Y-15099371D01*
X16603659Y-15080324D01*
X16594136Y-15051752D01*
X16584612Y-15004133D01*
X16584612Y-14966038D01*
X16594136Y-14918419D01*
X16603659Y-14889848D01*
X16613183Y-14870800D01*
X16632231Y-14842228D01*
X16641755Y-14832705D01*
X16727469Y-15061276D02*
X16765564Y-15061276D01*
X16784612Y-15051752D01*
X16794136Y-15042228D01*
X16813183Y-15013657D01*
X16822707Y-14975562D01*
X16822707Y-14899371D01*
X16813183Y-14880324D01*
X16803660Y-14870800D01*
X16784612Y-14861276D01*
X16746517Y-14861276D01*
X16727469Y-14870800D01*
X16717945Y-14880324D01*
X16708421Y-14899371D01*
X16708421Y-14946990D01*
X16717945Y-14966038D01*
X16727469Y-14975562D01*
X16746517Y-14985086D01*
X16784612Y-14985086D01*
X16803660Y-14975562D01*
X16813183Y-14966038D01*
X16822707Y-14946990D01*
X17060802Y-15061276D02*
X17060802Y-14861276D01*
X17146517Y-15061276D02*
X17146517Y-14956514D01*
X17136993Y-14937467D01*
X17117945Y-14927943D01*
X17089374Y-14927943D01*
X17070326Y-14937467D01*
X17060802Y-14946990D01*
X17270326Y-15061276D02*
X17251279Y-15051752D01*
X17241755Y-15042228D01*
X17232231Y-15023181D01*
X17232231Y-14966038D01*
X17241755Y-14946990D01*
X17251279Y-14937467D01*
X17270326Y-14927943D01*
X17298898Y-14927943D01*
X17317945Y-14937467D01*
X17327469Y-14946990D01*
X17336993Y-14966038D01*
X17336993Y-15023181D01*
X17327469Y-15042228D01*
X17317945Y-15051752D01*
X17298898Y-15061276D01*
X17270326Y-15061276D01*
X17451279Y-15061276D02*
X17432231Y-15051752D01*
X17422707Y-15032705D01*
X17422707Y-14861276D01*
X17603660Y-15051752D02*
X17584612Y-15061276D01*
X17546517Y-15061276D01*
X17527469Y-15051752D01*
X17517945Y-15032705D01*
X17517945Y-14956514D01*
X17527469Y-14937467D01*
X17546517Y-14927943D01*
X17584612Y-14927943D01*
X17603660Y-14937467D01*
X17613183Y-14956514D01*
X17613183Y-14975562D01*
X17517945Y-14994609D01*
X17689374Y-15051752D02*
X17708421Y-15061276D01*
X17746517Y-15061276D01*
X17765564Y-15051752D01*
X17775088Y-15032705D01*
X17775088Y-15023181D01*
X17765564Y-15004133D01*
X17746517Y-14994609D01*
X17717945Y-14994609D01*
X17698898Y-14985086D01*
X17689374Y-14966038D01*
X17689374Y-14956514D01*
X17698898Y-14937467D01*
X17717945Y-14927943D01*
X17746517Y-14927943D01*
X17765564Y-14937467D01*
X17841755Y-15137467D02*
X17851279Y-15127943D01*
X17870326Y-15099371D01*
X17879850Y-15080324D01*
X17889374Y-15051752D01*
X17898898Y-15004133D01*
X17898898Y-14966038D01*
X17889374Y-14918419D01*
X17879850Y-14889848D01*
X17870326Y-14870800D01*
X17851279Y-14842228D01*
X17841755Y-14832705D01*
D15*
X13058134Y-15263084D02*
X13058134Y-15206515D01*
X13001565Y-15206515D01*
X13001565Y-15263084D01*
X13058134Y-15263084D01*
D11*
X13365564Y-15125276D02*
X13384612Y-15125276D01*
X13403659Y-15134800D01*
X13413183Y-15144324D01*
X13422707Y-15163371D01*
X13432231Y-15201467D01*
X13432231Y-15249086D01*
X13422707Y-15287181D01*
X13413183Y-15306228D01*
X13403659Y-15315752D01*
X13384612Y-15325276D01*
X13365564Y-15325276D01*
X13346517Y-15315752D01*
X13336993Y-15306228D01*
X13327469Y-15287181D01*
X13317945Y-15249086D01*
X13317945Y-15201467D01*
X13327469Y-15163371D01*
X13336993Y-15144324D01*
X13346517Y-15134800D01*
X13365564Y-15125276D01*
X13517945Y-15306228D02*
X13527469Y-15315752D01*
X13517945Y-15325276D01*
X13508421Y-15315752D01*
X13517945Y-15306228D01*
X13517945Y-15325276D01*
X13641755Y-15210990D02*
X13622707Y-15201467D01*
X13613183Y-15191943D01*
X13603659Y-15172895D01*
X13603659Y-15163371D01*
X13613183Y-15144324D01*
X13622707Y-15134800D01*
X13641755Y-15125276D01*
X13679850Y-15125276D01*
X13698898Y-15134800D01*
X13708421Y-15144324D01*
X13717945Y-15163371D01*
X13717945Y-15172895D01*
X13708421Y-15191943D01*
X13698898Y-15201467D01*
X13679850Y-15210990D01*
X13641755Y-15210990D01*
X13622707Y-15220514D01*
X13613183Y-15230038D01*
X13603659Y-15249086D01*
X13603659Y-15287181D01*
X13613183Y-15306228D01*
X13622707Y-15315752D01*
X13641755Y-15325276D01*
X13679850Y-15325276D01*
X13698898Y-15315752D01*
X13708421Y-15306228D01*
X13717945Y-15287181D01*
X13717945Y-15249086D01*
X13708421Y-15230038D01*
X13698898Y-15220514D01*
X13679850Y-15210990D01*
X13841755Y-15125276D02*
X13860802Y-15125276D01*
X13879850Y-15134800D01*
X13889374Y-15144324D01*
X13898898Y-15163371D01*
X13908421Y-15201467D01*
X13908421Y-15249086D01*
X13898898Y-15287181D01*
X13889374Y-15306228D01*
X13879850Y-15315752D01*
X13860802Y-15325276D01*
X13841755Y-15325276D01*
X13822707Y-15315752D01*
X13813183Y-15306228D01*
X13803659Y-15287181D01*
X13794136Y-15249086D01*
X13794136Y-15201467D01*
X13803659Y-15163371D01*
X13813183Y-15144324D01*
X13822707Y-15134800D01*
X13841755Y-15125276D01*
X14032231Y-15125276D02*
X14051278Y-15125276D01*
X14070326Y-15134800D01*
X14079850Y-15144324D01*
X14089374Y-15163371D01*
X14098898Y-15201467D01*
X14098898Y-15249086D01*
X14089374Y-15287181D01*
X14079850Y-15306228D01*
X14070326Y-15315752D01*
X14051278Y-15325276D01*
X14032231Y-15325276D01*
X14013183Y-15315752D01*
X14003659Y-15306228D01*
X13994136Y-15287181D01*
X13984612Y-15249086D01*
X13984612Y-15201467D01*
X13994136Y-15163371D01*
X14003659Y-15144324D01*
X14013183Y-15134800D01*
X14032231Y-15125276D01*
X14184612Y-15325276D02*
X14184612Y-15191943D01*
X14184612Y-15210990D02*
X14194136Y-15201467D01*
X14213183Y-15191943D01*
X14241755Y-15191943D01*
X14260802Y-15201467D01*
X14270326Y-15220514D01*
X14270326Y-15325276D01*
X14270326Y-15220514D02*
X14279850Y-15201467D01*
X14298898Y-15191943D01*
X14327469Y-15191943D01*
X14346517Y-15201467D01*
X14356040Y-15220514D01*
X14356040Y-15325276D01*
X14451278Y-15325276D02*
X14451278Y-15191943D01*
X14451278Y-15210990D02*
X14460802Y-15201467D01*
X14479850Y-15191943D01*
X14508421Y-15191943D01*
X14527469Y-15201467D01*
X14536993Y-15220514D01*
X14536993Y-15325276D01*
X14536993Y-15220514D02*
X14546517Y-15201467D01*
X14565564Y-15191943D01*
X14594136Y-15191943D01*
X14613183Y-15201467D01*
X14622707Y-15220514D01*
X14622707Y-15325276D01*
X15013183Y-15115752D02*
X14841755Y-15372895D01*
X15270326Y-15125276D02*
X15289374Y-15125276D01*
X15308421Y-15134800D01*
X15317945Y-15144324D01*
X15327469Y-15163371D01*
X15336993Y-15201467D01*
X15336993Y-15249086D01*
X15327469Y-15287181D01*
X15317945Y-15306228D01*
X15308421Y-15315752D01*
X15289374Y-15325276D01*
X15270326Y-15325276D01*
X15251278Y-15315752D01*
X15241755Y-15306228D01*
X15232231Y-15287181D01*
X15222707Y-15249086D01*
X15222707Y-15201467D01*
X15232231Y-15163371D01*
X15241755Y-15144324D01*
X15251278Y-15134800D01*
X15270326Y-15125276D01*
X15422707Y-15306228D02*
X15432231Y-15315752D01*
X15422707Y-15325276D01*
X15413183Y-15315752D01*
X15422707Y-15306228D01*
X15422707Y-15325276D01*
X15556040Y-15125276D02*
X15575088Y-15125276D01*
X15594136Y-15134800D01*
X15603659Y-15144324D01*
X15613183Y-15163371D01*
X15622707Y-15201467D01*
X15622707Y-15249086D01*
X15613183Y-15287181D01*
X15603659Y-15306228D01*
X15594136Y-15315752D01*
X15575088Y-15325276D01*
X15556040Y-15325276D01*
X15536993Y-15315752D01*
X15527469Y-15306228D01*
X15517945Y-15287181D01*
X15508421Y-15249086D01*
X15508421Y-15201467D01*
X15517945Y-15163371D01*
X15527469Y-15144324D01*
X15536993Y-15134800D01*
X15556040Y-15125276D01*
X15689374Y-15125276D02*
X15813183Y-15125276D01*
X15746517Y-15201467D01*
X15775088Y-15201467D01*
X15794136Y-15210990D01*
X15803659Y-15220514D01*
X15813183Y-15239562D01*
X15813183Y-15287181D01*
X15803659Y-15306228D01*
X15794136Y-15315752D01*
X15775088Y-15325276D01*
X15717945Y-15325276D01*
X15698898Y-15315752D01*
X15689374Y-15306228D01*
X16003659Y-15325276D02*
X15889374Y-15325276D01*
X15946517Y-15325276D02*
X15946517Y-15125276D01*
X15927469Y-15153848D01*
X15908421Y-15172895D01*
X15889374Y-15182419D01*
X16184612Y-15125276D02*
X16089374Y-15125276D01*
X16079850Y-15220514D01*
X16089374Y-15210990D01*
X16108421Y-15201467D01*
X16156040Y-15201467D01*
X16175088Y-15210990D01*
X16184612Y-15220514D01*
X16194136Y-15239562D01*
X16194136Y-15287181D01*
X16184612Y-15306228D01*
X16175088Y-15315752D01*
X16156040Y-15325276D01*
X16108421Y-15325276D01*
X16089374Y-15315752D01*
X16079850Y-15306228D01*
X16270326Y-15125276D02*
X16270326Y-15163371D01*
X16346517Y-15125276D02*
X16346517Y-15163371D01*
X16641755Y-15401467D02*
X16632231Y-15391943D01*
X16613183Y-15363371D01*
X16603659Y-15344324D01*
X16594136Y-15315752D01*
X16584612Y-15268133D01*
X16584612Y-15230038D01*
X16594136Y-15182419D01*
X16603659Y-15153848D01*
X16613183Y-15134800D01*
X16632231Y-15106228D01*
X16641755Y-15096705D01*
X16746517Y-15210990D02*
X16727469Y-15201467D01*
X16717945Y-15191943D01*
X16708421Y-15172895D01*
X16708421Y-15163371D01*
X16717945Y-15144324D01*
X16727469Y-15134800D01*
X16746517Y-15125276D01*
X16784612Y-15125276D01*
X16803660Y-15134800D01*
X16813183Y-15144324D01*
X16822707Y-15163371D01*
X16822707Y-15172895D01*
X16813183Y-15191943D01*
X16803660Y-15201467D01*
X16784612Y-15210990D01*
X16746517Y-15210990D01*
X16727469Y-15220514D01*
X16717945Y-15230038D01*
X16708421Y-15249086D01*
X16708421Y-15287181D01*
X16717945Y-15306228D01*
X16727469Y-15315752D01*
X16746517Y-15325276D01*
X16784612Y-15325276D01*
X16803660Y-15315752D01*
X16813183Y-15306228D01*
X16822707Y-15287181D01*
X16822707Y-15249086D01*
X16813183Y-15230038D01*
X16803660Y-15220514D01*
X16784612Y-15210990D01*
X17060802Y-15325276D02*
X17060802Y-15125276D01*
X17146517Y-15325276D02*
X17146517Y-15220514D01*
X17136993Y-15201467D01*
X17117945Y-15191943D01*
X17089374Y-15191943D01*
X17070326Y-15201467D01*
X17060802Y-15210990D01*
X17270326Y-15325276D02*
X17251279Y-15315752D01*
X17241755Y-15306228D01*
X17232231Y-15287181D01*
X17232231Y-15230038D01*
X17241755Y-15210990D01*
X17251279Y-15201467D01*
X17270326Y-15191943D01*
X17298898Y-15191943D01*
X17317945Y-15201467D01*
X17327469Y-15210990D01*
X17336993Y-15230038D01*
X17336993Y-15287181D01*
X17327469Y-15306228D01*
X17317945Y-15315752D01*
X17298898Y-15325276D01*
X17270326Y-15325276D01*
X17451279Y-15325276D02*
X17432231Y-15315752D01*
X17422707Y-15296705D01*
X17422707Y-15125276D01*
X17603660Y-15315752D02*
X17584612Y-15325276D01*
X17546517Y-15325276D01*
X17527469Y-15315752D01*
X17517945Y-15296705D01*
X17517945Y-15220514D01*
X17527469Y-15201467D01*
X17546517Y-15191943D01*
X17584612Y-15191943D01*
X17603660Y-15201467D01*
X17613183Y-15220514D01*
X17613183Y-15239562D01*
X17517945Y-15258609D01*
X17689374Y-15315752D02*
X17708421Y-15325276D01*
X17746517Y-15325276D01*
X17765564Y-15315752D01*
X17775088Y-15296705D01*
X17775088Y-15287181D01*
X17765564Y-15268133D01*
X17746517Y-15258609D01*
X17717945Y-15258609D01*
X17698898Y-15249086D01*
X17689374Y-15230038D01*
X17689374Y-15220514D01*
X17698898Y-15201467D01*
X17717945Y-15191943D01*
X17746517Y-15191943D01*
X17765564Y-15201467D01*
X17841755Y-15401467D02*
X17851279Y-15391943D01*
X17870326Y-15363371D01*
X17879850Y-15344324D01*
X17889374Y-15315752D01*
X17898898Y-15268133D01*
X17898898Y-15230038D01*
X17889374Y-15182419D01*
X17879850Y-15153848D01*
X17870326Y-15134800D01*
X17851279Y-15106228D01*
X17841755Y-15096705D01*
D10*
X13019850Y-15548800D02*
X13069850Y-15498800D01*
X13019850Y-15448800D01*
X12969850Y-15498800D01*
X13019850Y-15548800D01*
D11*
X13432231Y-15589276D02*
X13317945Y-15589276D01*
X13375088Y-15589276D02*
X13375088Y-15389276D01*
X13356040Y-15417848D01*
X13336993Y-15436895D01*
X13317945Y-15446419D01*
X13517945Y-15570228D02*
X13527469Y-15579752D01*
X13517945Y-15589276D01*
X13508421Y-15579752D01*
X13517945Y-15570228D01*
X13517945Y-15589276D01*
X13651278Y-15389276D02*
X13670326Y-15389276D01*
X13689374Y-15398800D01*
X13698898Y-15408324D01*
X13708421Y-15427371D01*
X13717945Y-15465467D01*
X13717945Y-15513086D01*
X13708421Y-15551181D01*
X13698898Y-15570228D01*
X13689374Y-15579752D01*
X13670326Y-15589276D01*
X13651278Y-15589276D01*
X13632231Y-15579752D01*
X13622707Y-15570228D01*
X13613183Y-15551181D01*
X13603659Y-15513086D01*
X13603659Y-15465467D01*
X13613183Y-15427371D01*
X13622707Y-15408324D01*
X13632231Y-15398800D01*
X13651278Y-15389276D01*
X13841755Y-15389276D02*
X13860802Y-15389276D01*
X13879850Y-15398800D01*
X13889374Y-15408324D01*
X13898898Y-15427371D01*
X13908421Y-15465467D01*
X13908421Y-15513086D01*
X13898898Y-15551181D01*
X13889374Y-15570228D01*
X13879850Y-15579752D01*
X13860802Y-15589276D01*
X13841755Y-15589276D01*
X13822707Y-15579752D01*
X13813183Y-15570228D01*
X13803659Y-15551181D01*
X13794136Y-15513086D01*
X13794136Y-15465467D01*
X13803659Y-15427371D01*
X13813183Y-15408324D01*
X13822707Y-15398800D01*
X13841755Y-15389276D01*
X14032231Y-15389276D02*
X14051278Y-15389276D01*
X14070326Y-15398800D01*
X14079850Y-15408324D01*
X14089374Y-15427371D01*
X14098898Y-15465467D01*
X14098898Y-15513086D01*
X14089374Y-15551181D01*
X14079850Y-15570228D01*
X14070326Y-15579752D01*
X14051278Y-15589276D01*
X14032231Y-15589276D01*
X14013183Y-15579752D01*
X14003659Y-15570228D01*
X13994136Y-15551181D01*
X13984612Y-15513086D01*
X13984612Y-15465467D01*
X13994136Y-15427371D01*
X14003659Y-15408324D01*
X14013183Y-15398800D01*
X14032231Y-15389276D01*
X14184612Y-15589276D02*
X14184612Y-15455943D01*
X14184612Y-15474990D02*
X14194136Y-15465467D01*
X14213183Y-15455943D01*
X14241755Y-15455943D01*
X14260802Y-15465467D01*
X14270326Y-15484514D01*
X14270326Y-15589276D01*
X14270326Y-15484514D02*
X14279850Y-15465467D01*
X14298898Y-15455943D01*
X14327469Y-15455943D01*
X14346517Y-15465467D01*
X14356040Y-15484514D01*
X14356040Y-15589276D01*
X14451278Y-15589276D02*
X14451278Y-15455943D01*
X14451278Y-15474990D02*
X14460802Y-15465467D01*
X14479850Y-15455943D01*
X14508421Y-15455943D01*
X14527469Y-15465467D01*
X14536993Y-15484514D01*
X14536993Y-15589276D01*
X14536993Y-15484514D02*
X14546517Y-15465467D01*
X14565564Y-15455943D01*
X14594136Y-15455943D01*
X14613183Y-15465467D01*
X14622707Y-15484514D01*
X14622707Y-15589276D01*
X15013183Y-15379752D02*
X14841755Y-15636895D01*
X15270326Y-15389276D02*
X15289374Y-15389276D01*
X15308421Y-15398800D01*
X15317945Y-15408324D01*
X15327469Y-15427371D01*
X15336993Y-15465467D01*
X15336993Y-15513086D01*
X15327469Y-15551181D01*
X15317945Y-15570228D01*
X15308421Y-15579752D01*
X15289374Y-15589276D01*
X15270326Y-15589276D01*
X15251278Y-15579752D01*
X15241755Y-15570228D01*
X15232231Y-15551181D01*
X15222707Y-15513086D01*
X15222707Y-15465467D01*
X15232231Y-15427371D01*
X15241755Y-15408324D01*
X15251278Y-15398800D01*
X15270326Y-15389276D01*
X15422707Y-15570228D02*
X15432231Y-15579752D01*
X15422707Y-15589276D01*
X15413183Y-15579752D01*
X15422707Y-15570228D01*
X15422707Y-15589276D01*
X15556040Y-15389276D02*
X15575088Y-15389276D01*
X15594136Y-15398800D01*
X15603659Y-15408324D01*
X15613183Y-15427371D01*
X15622707Y-15465467D01*
X15622707Y-15513086D01*
X15613183Y-15551181D01*
X15603659Y-15570228D01*
X15594136Y-15579752D01*
X15575088Y-15589276D01*
X15556040Y-15589276D01*
X15536993Y-15579752D01*
X15527469Y-15570228D01*
X15517945Y-15551181D01*
X15508421Y-15513086D01*
X15508421Y-15465467D01*
X15517945Y-15427371D01*
X15527469Y-15408324D01*
X15536993Y-15398800D01*
X15556040Y-15389276D01*
X15689374Y-15389276D02*
X15813183Y-15389276D01*
X15746517Y-15465467D01*
X15775088Y-15465467D01*
X15794136Y-15474990D01*
X15803659Y-15484514D01*
X15813183Y-15503562D01*
X15813183Y-15551181D01*
X15803659Y-15570228D01*
X15794136Y-15579752D01*
X15775088Y-15589276D01*
X15717945Y-15589276D01*
X15698898Y-15579752D01*
X15689374Y-15570228D01*
X15908421Y-15589276D02*
X15946517Y-15589276D01*
X15965564Y-15579752D01*
X15975088Y-15570228D01*
X15994136Y-15541657D01*
X16003659Y-15503562D01*
X16003659Y-15427371D01*
X15994136Y-15408324D01*
X15984612Y-15398800D01*
X15965564Y-15389276D01*
X15927469Y-15389276D01*
X15908421Y-15398800D01*
X15898898Y-15408324D01*
X15889374Y-15427371D01*
X15889374Y-15474990D01*
X15898898Y-15494038D01*
X15908421Y-15503562D01*
X15927469Y-15513086D01*
X15965564Y-15513086D01*
X15984612Y-15503562D01*
X15994136Y-15494038D01*
X16003659Y-15474990D01*
X16175088Y-15455943D02*
X16175088Y-15589276D01*
X16127469Y-15379752D02*
X16079850Y-15522609D01*
X16203659Y-15522609D01*
X16270326Y-15389276D02*
X16270326Y-15427371D01*
X16346517Y-15389276D02*
X16346517Y-15427371D01*
X16641755Y-15665467D02*
X16632231Y-15655943D01*
X16613183Y-15627371D01*
X16603659Y-15608324D01*
X16594136Y-15579752D01*
X16584612Y-15532133D01*
X16584612Y-15494038D01*
X16594136Y-15446419D01*
X16603659Y-15417848D01*
X16613183Y-15398800D01*
X16632231Y-15370228D01*
X16641755Y-15360705D01*
X16708421Y-15408324D02*
X16717945Y-15398800D01*
X16736993Y-15389276D01*
X16784612Y-15389276D01*
X16803660Y-15398800D01*
X16813183Y-15408324D01*
X16822707Y-15427371D01*
X16822707Y-15446419D01*
X16813183Y-15474990D01*
X16698898Y-15589276D01*
X16822707Y-15589276D01*
X16889374Y-15389276D02*
X17022707Y-15389276D01*
X16936993Y-15589276D01*
X17251279Y-15589276D02*
X17251279Y-15389276D01*
X17336993Y-15589276D02*
X17336993Y-15484514D01*
X17327469Y-15465467D01*
X17308421Y-15455943D01*
X17279850Y-15455943D01*
X17260802Y-15465467D01*
X17251279Y-15474990D01*
X17460802Y-15589276D02*
X17441755Y-15579752D01*
X17432231Y-15570228D01*
X17422707Y-15551181D01*
X17422707Y-15494038D01*
X17432231Y-15474990D01*
X17441755Y-15465467D01*
X17460802Y-15455943D01*
X17489374Y-15455943D01*
X17508421Y-15465467D01*
X17517945Y-15474990D01*
X17527469Y-15494038D01*
X17527469Y-15551181D01*
X17517945Y-15570228D01*
X17508421Y-15579752D01*
X17489374Y-15589276D01*
X17460802Y-15589276D01*
X17641755Y-15589276D02*
X17622707Y-15579752D01*
X17613183Y-15560705D01*
X17613183Y-15389276D01*
X17794136Y-15579752D02*
X17775088Y-15589276D01*
X17736993Y-15589276D01*
X17717945Y-15579752D01*
X17708421Y-15560705D01*
X17708421Y-15484514D01*
X17717945Y-15465467D01*
X17736993Y-15455943D01*
X17775088Y-15455943D01*
X17794136Y-15465467D01*
X17803660Y-15484514D01*
X17803660Y-15503562D01*
X17708421Y-15522609D01*
X17879850Y-15579752D02*
X17898898Y-15589276D01*
X17936993Y-15589276D01*
X17956040Y-15579752D01*
X17965564Y-15560705D01*
X17965564Y-15551181D01*
X17956040Y-15532133D01*
X17936993Y-15522609D01*
X17908421Y-15522609D01*
X17889374Y-15513086D01*
X17879850Y-15494038D01*
X17879850Y-15484514D01*
X17889374Y-15465467D01*
X17908421Y-15455943D01*
X17936993Y-15455943D01*
X17956040Y-15465467D01*
X18032231Y-15665467D02*
X18041755Y-15655943D01*
X18060802Y-15627371D01*
X18070326Y-15608324D01*
X18079850Y-15579752D01*
X18089374Y-15532133D01*
X18089374Y-15494038D01*
X18079850Y-15446419D01*
X18070326Y-15417848D01*
X18060802Y-15398800D01*
X18041755Y-15370228D01*
X18032231Y-15360705D01*
D16*
X12959850Y-15707800D02*
X13069850Y-15817800D01*
X13069850Y-15707800D02*
X12959850Y-15817800D01*
X13069850Y-15762800D02*
G75*
G03*
X13069850Y-15762800I-55000J0D01*
G01*
D11*
X13432231Y-15853276D02*
X13317945Y-15853276D01*
X13375088Y-15853276D02*
X13375088Y-15653276D01*
X13356040Y-15681848D01*
X13336993Y-15700895D01*
X13317945Y-15710419D01*
X13517945Y-15834228D02*
X13527469Y-15843752D01*
X13517945Y-15853276D01*
X13508421Y-15843752D01*
X13517945Y-15834228D01*
X13517945Y-15853276D01*
X13717945Y-15853276D02*
X13603659Y-15853276D01*
X13660802Y-15853276D02*
X13660802Y-15653276D01*
X13641755Y-15681848D01*
X13622707Y-15700895D01*
X13603659Y-15710419D01*
X13841755Y-15653276D02*
X13860802Y-15653276D01*
X13879850Y-15662800D01*
X13889374Y-15672324D01*
X13898898Y-15691371D01*
X13908421Y-15729467D01*
X13908421Y-15777086D01*
X13898898Y-15815181D01*
X13889374Y-15834228D01*
X13879850Y-15843752D01*
X13860802Y-15853276D01*
X13841755Y-15853276D01*
X13822707Y-15843752D01*
X13813183Y-15834228D01*
X13803659Y-15815181D01*
X13794136Y-15777086D01*
X13794136Y-15729467D01*
X13803659Y-15691371D01*
X13813183Y-15672324D01*
X13822707Y-15662800D01*
X13841755Y-15653276D01*
X14032231Y-15653276D02*
X14051278Y-15653276D01*
X14070326Y-15662800D01*
X14079850Y-15672324D01*
X14089374Y-15691371D01*
X14098898Y-15729467D01*
X14098898Y-15777086D01*
X14089374Y-15815181D01*
X14079850Y-15834228D01*
X14070326Y-15843752D01*
X14051278Y-15853276D01*
X14032231Y-15853276D01*
X14013183Y-15843752D01*
X14003659Y-15834228D01*
X13994136Y-15815181D01*
X13984612Y-15777086D01*
X13984612Y-15729467D01*
X13994136Y-15691371D01*
X14003659Y-15672324D01*
X14013183Y-15662800D01*
X14032231Y-15653276D01*
X14184612Y-15853276D02*
X14184612Y-15719943D01*
X14184612Y-15738990D02*
X14194136Y-15729467D01*
X14213183Y-15719943D01*
X14241755Y-15719943D01*
X14260802Y-15729467D01*
X14270326Y-15748514D01*
X14270326Y-15853276D01*
X14270326Y-15748514D02*
X14279850Y-15729467D01*
X14298898Y-15719943D01*
X14327469Y-15719943D01*
X14346517Y-15729467D01*
X14356040Y-15748514D01*
X14356040Y-15853276D01*
X14451278Y-15853276D02*
X14451278Y-15719943D01*
X14451278Y-15738990D02*
X14460802Y-15729467D01*
X14479850Y-15719943D01*
X14508421Y-15719943D01*
X14527469Y-15729467D01*
X14536993Y-15748514D01*
X14536993Y-15853276D01*
X14536993Y-15748514D02*
X14546517Y-15729467D01*
X14565564Y-15719943D01*
X14594136Y-15719943D01*
X14613183Y-15729467D01*
X14622707Y-15748514D01*
X14622707Y-15853276D01*
X15013183Y-15643752D02*
X14841755Y-15900895D01*
X15270326Y-15653276D02*
X15289374Y-15653276D01*
X15308421Y-15662800D01*
X15317945Y-15672324D01*
X15327469Y-15691371D01*
X15336993Y-15729467D01*
X15336993Y-15777086D01*
X15327469Y-15815181D01*
X15317945Y-15834228D01*
X15308421Y-15843752D01*
X15289374Y-15853276D01*
X15270326Y-15853276D01*
X15251278Y-15843752D01*
X15241755Y-15834228D01*
X15232231Y-15815181D01*
X15222707Y-15777086D01*
X15222707Y-15729467D01*
X15232231Y-15691371D01*
X15241755Y-15672324D01*
X15251278Y-15662800D01*
X15270326Y-15653276D01*
X15422707Y-15834228D02*
X15432231Y-15843752D01*
X15422707Y-15853276D01*
X15413183Y-15843752D01*
X15422707Y-15834228D01*
X15422707Y-15853276D01*
X15556040Y-15653276D02*
X15575088Y-15653276D01*
X15594136Y-15662800D01*
X15603659Y-15672324D01*
X15613183Y-15691371D01*
X15622707Y-15729467D01*
X15622707Y-15777086D01*
X15613183Y-15815181D01*
X15603659Y-15834228D01*
X15594136Y-15843752D01*
X15575088Y-15853276D01*
X15556040Y-15853276D01*
X15536993Y-15843752D01*
X15527469Y-15834228D01*
X15517945Y-15815181D01*
X15508421Y-15777086D01*
X15508421Y-15729467D01*
X15517945Y-15691371D01*
X15527469Y-15672324D01*
X15536993Y-15662800D01*
X15556040Y-15653276D01*
X15794136Y-15719943D02*
X15794136Y-15853276D01*
X15746517Y-15643752D02*
X15698898Y-15786609D01*
X15822707Y-15786609D01*
X15879850Y-15653276D02*
X16003659Y-15653276D01*
X15936993Y-15729467D01*
X15965564Y-15729467D01*
X15984612Y-15738990D01*
X15994136Y-15748514D01*
X16003659Y-15767562D01*
X16003659Y-15815181D01*
X15994136Y-15834228D01*
X15984612Y-15843752D01*
X15965564Y-15853276D01*
X15908421Y-15853276D01*
X15889374Y-15843752D01*
X15879850Y-15834228D01*
X16070326Y-15653276D02*
X16194136Y-15653276D01*
X16127469Y-15729467D01*
X16156040Y-15729467D01*
X16175088Y-15738990D01*
X16184612Y-15748514D01*
X16194136Y-15767562D01*
X16194136Y-15815181D01*
X16184612Y-15834228D01*
X16175088Y-15843752D01*
X16156040Y-15853276D01*
X16098898Y-15853276D01*
X16079850Y-15843752D01*
X16070326Y-15834228D01*
X16270326Y-15653276D02*
X16270326Y-15691371D01*
X16346517Y-15653276D02*
X16346517Y-15691371D01*
X16641755Y-15929467D02*
X16632231Y-15919943D01*
X16613183Y-15891371D01*
X16603659Y-15872324D01*
X16594136Y-15843752D01*
X16584612Y-15796133D01*
X16584612Y-15758038D01*
X16594136Y-15710419D01*
X16603659Y-15681848D01*
X16613183Y-15662800D01*
X16632231Y-15634228D01*
X16641755Y-15624705D01*
X16746517Y-15738990D02*
X16727469Y-15729467D01*
X16717945Y-15719943D01*
X16708421Y-15700895D01*
X16708421Y-15691371D01*
X16717945Y-15672324D01*
X16727469Y-15662800D01*
X16746517Y-15653276D01*
X16784612Y-15653276D01*
X16803660Y-15662800D01*
X16813183Y-15672324D01*
X16822707Y-15691371D01*
X16822707Y-15700895D01*
X16813183Y-15719943D01*
X16803660Y-15729467D01*
X16784612Y-15738990D01*
X16746517Y-15738990D01*
X16727469Y-15748514D01*
X16717945Y-15758038D01*
X16708421Y-15777086D01*
X16708421Y-15815181D01*
X16717945Y-15834228D01*
X16727469Y-15843752D01*
X16746517Y-15853276D01*
X16784612Y-15853276D01*
X16803660Y-15843752D01*
X16813183Y-15834228D01*
X16822707Y-15815181D01*
X16822707Y-15777086D01*
X16813183Y-15758038D01*
X16803660Y-15748514D01*
X16784612Y-15738990D01*
X17060802Y-15853276D02*
X17060802Y-15653276D01*
X17146517Y-15853276D02*
X17146517Y-15748514D01*
X17136993Y-15729467D01*
X17117945Y-15719943D01*
X17089374Y-15719943D01*
X17070326Y-15729467D01*
X17060802Y-15738990D01*
X17270326Y-15853276D02*
X17251279Y-15843752D01*
X17241755Y-15834228D01*
X17232231Y-15815181D01*
X17232231Y-15758038D01*
X17241755Y-15738990D01*
X17251279Y-15729467D01*
X17270326Y-15719943D01*
X17298898Y-15719943D01*
X17317945Y-15729467D01*
X17327469Y-15738990D01*
X17336993Y-15758038D01*
X17336993Y-15815181D01*
X17327469Y-15834228D01*
X17317945Y-15843752D01*
X17298898Y-15853276D01*
X17270326Y-15853276D01*
X17451279Y-15853276D02*
X17432231Y-15843752D01*
X17422707Y-15824705D01*
X17422707Y-15653276D01*
X17603660Y-15843752D02*
X17584612Y-15853276D01*
X17546517Y-15853276D01*
X17527469Y-15843752D01*
X17517945Y-15824705D01*
X17517945Y-15748514D01*
X17527469Y-15729467D01*
X17546517Y-15719943D01*
X17584612Y-15719943D01*
X17603660Y-15729467D01*
X17613183Y-15748514D01*
X17613183Y-15767562D01*
X17517945Y-15786609D01*
X17689374Y-15843752D02*
X17708421Y-15853276D01*
X17746517Y-15853276D01*
X17765564Y-15843752D01*
X17775088Y-15824705D01*
X17775088Y-15815181D01*
X17765564Y-15796133D01*
X17746517Y-15786609D01*
X17717945Y-15786609D01*
X17698898Y-15777086D01*
X17689374Y-15758038D01*
X17689374Y-15748514D01*
X17698898Y-15729467D01*
X17717945Y-15719943D01*
X17746517Y-15719943D01*
X17765564Y-15729467D01*
X17841755Y-15929467D02*
X17851279Y-15919943D01*
X17870326Y-15891371D01*
X17879850Y-15872324D01*
X17889374Y-15843752D01*
X17898898Y-15796133D01*
X17898898Y-15758038D01*
X17889374Y-15710419D01*
X17879850Y-15681848D01*
X17870326Y-15662800D01*
X17851279Y-15634228D01*
X17841755Y-15624705D01*
D17*
X12937850Y-15960800D02*
X13069850Y-16092800D01*
X13069850Y-15960800D02*
X12937850Y-16092800D01*
X13003850Y-15960800D02*
X13003850Y-16092800D01*
X12937850Y-16026800D02*
X13069850Y-16026800D01*
D11*
X13432231Y-16117276D02*
X13317945Y-16117276D01*
X13375088Y-16117276D02*
X13375088Y-15917276D01*
X13356040Y-15945848D01*
X13336993Y-15964895D01*
X13317945Y-15974419D01*
X13517945Y-16098228D02*
X13527469Y-16107752D01*
X13517945Y-16117276D01*
X13508421Y-16107752D01*
X13517945Y-16098228D01*
X13517945Y-16117276D01*
X13594136Y-15917276D02*
X13717945Y-15917276D01*
X13651278Y-15993467D01*
X13679850Y-15993467D01*
X13698898Y-16002990D01*
X13708421Y-16012514D01*
X13717945Y-16031562D01*
X13717945Y-16079181D01*
X13708421Y-16098228D01*
X13698898Y-16107752D01*
X13679850Y-16117276D01*
X13622707Y-16117276D01*
X13603659Y-16107752D01*
X13594136Y-16098228D01*
X13794136Y-15936324D02*
X13803659Y-15926800D01*
X13822707Y-15917276D01*
X13870326Y-15917276D01*
X13889374Y-15926800D01*
X13898898Y-15936324D01*
X13908421Y-15955371D01*
X13908421Y-15974419D01*
X13898898Y-16002990D01*
X13784612Y-16117276D01*
X13908421Y-16117276D01*
X14032231Y-15917276D02*
X14051278Y-15917276D01*
X14070326Y-15926800D01*
X14079850Y-15936324D01*
X14089374Y-15955371D01*
X14098898Y-15993467D01*
X14098898Y-16041086D01*
X14089374Y-16079181D01*
X14079850Y-16098228D01*
X14070326Y-16107752D01*
X14051278Y-16117276D01*
X14032231Y-16117276D01*
X14013183Y-16107752D01*
X14003659Y-16098228D01*
X13994136Y-16079181D01*
X13984612Y-16041086D01*
X13984612Y-15993467D01*
X13994136Y-15955371D01*
X14003659Y-15936324D01*
X14013183Y-15926800D01*
X14032231Y-15917276D01*
X14184612Y-16117276D02*
X14184612Y-15983943D01*
X14184612Y-16002990D02*
X14194136Y-15993467D01*
X14213183Y-15983943D01*
X14241755Y-15983943D01*
X14260802Y-15993467D01*
X14270326Y-16012514D01*
X14270326Y-16117276D01*
X14270326Y-16012514D02*
X14279850Y-15993467D01*
X14298898Y-15983943D01*
X14327469Y-15983943D01*
X14346517Y-15993467D01*
X14356040Y-16012514D01*
X14356040Y-16117276D01*
X14451278Y-16117276D02*
X14451278Y-15983943D01*
X14451278Y-16002990D02*
X14460802Y-15993467D01*
X14479850Y-15983943D01*
X14508421Y-15983943D01*
X14527469Y-15993467D01*
X14536993Y-16012514D01*
X14536993Y-16117276D01*
X14536993Y-16012514D02*
X14546517Y-15993467D01*
X14565564Y-15983943D01*
X14594136Y-15983943D01*
X14613183Y-15993467D01*
X14622707Y-16012514D01*
X14622707Y-16117276D01*
X15013183Y-15907752D02*
X14841755Y-16164895D01*
X15270326Y-15917276D02*
X15289374Y-15917276D01*
X15308421Y-15926800D01*
X15317945Y-15936324D01*
X15327469Y-15955371D01*
X15336993Y-15993467D01*
X15336993Y-16041086D01*
X15327469Y-16079181D01*
X15317945Y-16098228D01*
X15308421Y-16107752D01*
X15289374Y-16117276D01*
X15270326Y-16117276D01*
X15251278Y-16107752D01*
X15241755Y-16098228D01*
X15232231Y-16079181D01*
X15222707Y-16041086D01*
X15222707Y-15993467D01*
X15232231Y-15955371D01*
X15241755Y-15936324D01*
X15251278Y-15926800D01*
X15270326Y-15917276D01*
X15422707Y-16098228D02*
X15432231Y-16107752D01*
X15422707Y-16117276D01*
X15413183Y-16107752D01*
X15422707Y-16098228D01*
X15422707Y-16117276D01*
X15556040Y-15917276D02*
X15575088Y-15917276D01*
X15594136Y-15926800D01*
X15603659Y-15936324D01*
X15613183Y-15955371D01*
X15622707Y-15993467D01*
X15622707Y-16041086D01*
X15613183Y-16079181D01*
X15603659Y-16098228D01*
X15594136Y-16107752D01*
X15575088Y-16117276D01*
X15556040Y-16117276D01*
X15536993Y-16107752D01*
X15527469Y-16098228D01*
X15517945Y-16079181D01*
X15508421Y-16041086D01*
X15508421Y-15993467D01*
X15517945Y-15955371D01*
X15527469Y-15936324D01*
X15536993Y-15926800D01*
X15556040Y-15917276D01*
X15803659Y-15917276D02*
X15708421Y-15917276D01*
X15698898Y-16012514D01*
X15708421Y-16002990D01*
X15727469Y-15993467D01*
X15775088Y-15993467D01*
X15794136Y-16002990D01*
X15803659Y-16012514D01*
X15813183Y-16031562D01*
X15813183Y-16079181D01*
X15803659Y-16098228D01*
X15794136Y-16107752D01*
X15775088Y-16117276D01*
X15727469Y-16117276D01*
X15708421Y-16107752D01*
X15698898Y-16098228D01*
X15889374Y-15936324D02*
X15898898Y-15926800D01*
X15917945Y-15917276D01*
X15965564Y-15917276D01*
X15984612Y-15926800D01*
X15994136Y-15936324D01*
X16003659Y-15955371D01*
X16003659Y-15974419D01*
X15994136Y-16002990D01*
X15879850Y-16117276D01*
X16003659Y-16117276D01*
X16127469Y-15917276D02*
X16146517Y-15917276D01*
X16165564Y-15926800D01*
X16175088Y-15936324D01*
X16184612Y-15955371D01*
X16194136Y-15993467D01*
X16194136Y-16041086D01*
X16184612Y-16079181D01*
X16175088Y-16098228D01*
X16165564Y-16107752D01*
X16146517Y-16117276D01*
X16127469Y-16117276D01*
X16108421Y-16107752D01*
X16098898Y-16098228D01*
X16089374Y-16079181D01*
X16079850Y-16041086D01*
X16079850Y-15993467D01*
X16089374Y-15955371D01*
X16098898Y-15936324D01*
X16108421Y-15926800D01*
X16127469Y-15917276D01*
X16270326Y-15917276D02*
X16270326Y-15955371D01*
X16346517Y-15917276D02*
X16346517Y-15955371D01*
X16641755Y-16193467D02*
X16632231Y-16183943D01*
X16613183Y-16155371D01*
X16603659Y-16136324D01*
X16594136Y-16107752D01*
X16584612Y-16060133D01*
X16584612Y-16022038D01*
X16594136Y-15974419D01*
X16603659Y-15945848D01*
X16613183Y-15926800D01*
X16632231Y-15898228D01*
X16641755Y-15888705D01*
X16803660Y-15983943D02*
X16803660Y-16117276D01*
X16756040Y-15907752D02*
X16708421Y-16050609D01*
X16832231Y-16050609D01*
X17060802Y-16117276D02*
X17060802Y-15917276D01*
X17146517Y-16117276D02*
X17146517Y-16012514D01*
X17136993Y-15993467D01*
X17117945Y-15983943D01*
X17089374Y-15983943D01*
X17070326Y-15993467D01*
X17060802Y-16002990D01*
X17270326Y-16117276D02*
X17251279Y-16107752D01*
X17241755Y-16098228D01*
X17232231Y-16079181D01*
X17232231Y-16022038D01*
X17241755Y-16002990D01*
X17251279Y-15993467D01*
X17270326Y-15983943D01*
X17298898Y-15983943D01*
X17317945Y-15993467D01*
X17327469Y-16002990D01*
X17336993Y-16022038D01*
X17336993Y-16079181D01*
X17327469Y-16098228D01*
X17317945Y-16107752D01*
X17298898Y-16117276D01*
X17270326Y-16117276D01*
X17451279Y-16117276D02*
X17432231Y-16107752D01*
X17422707Y-16088705D01*
X17422707Y-15917276D01*
X17603660Y-16107752D02*
X17584612Y-16117276D01*
X17546517Y-16117276D01*
X17527469Y-16107752D01*
X17517945Y-16088705D01*
X17517945Y-16012514D01*
X17527469Y-15993467D01*
X17546517Y-15983943D01*
X17584612Y-15983943D01*
X17603660Y-15993467D01*
X17613183Y-16012514D01*
X17613183Y-16031562D01*
X17517945Y-16050609D01*
X17689374Y-16107752D02*
X17708421Y-16117276D01*
X17746517Y-16117276D01*
X17765564Y-16107752D01*
X17775088Y-16088705D01*
X17775088Y-16079181D01*
X17765564Y-16060133D01*
X17746517Y-16050609D01*
X17717945Y-16050609D01*
X17698898Y-16041086D01*
X17689374Y-16022038D01*
X17689374Y-16012514D01*
X17698898Y-15993467D01*
X17717945Y-15983943D01*
X17746517Y-15983943D01*
X17765564Y-15993467D01*
X17841755Y-16193467D02*
X17851279Y-16183943D01*
X17870326Y-16155371D01*
X17879850Y-16136324D01*
X17889374Y-16107752D01*
X17898898Y-16060133D01*
X17898898Y-16022038D01*
X17889374Y-15974419D01*
X17879850Y-15945848D01*
X17870326Y-15926800D01*
X17851279Y-15898228D01*
X17841755Y-15888705D01*
M02*
