M48
; DRILL file {KiCad (6.0.9)} date Mon May  1 22:34:06 2023
; FORMAT={-:-/ absolute / metric / decimal}
; #@! TF.CreationDate,2023-05-01T22:34:06-06:00
; #@! TF.GenerationSoftware,Kicad,Pcbnew,(6.0.9)
; #@! TF.FileFunction,Plated,1,4,PTH
FMAT,2
METRIC
; #@! TA.AperFunction,Plated,PTH,ViaDrill
T1C0.400
; #@! TA.AperFunction,Plated,PTH,ComponentDrill
T2C0.600
; #@! TA.AperFunction,Plated,PTH,ComponentDrill
T3C0.750
; #@! TA.AperFunction,Plated,PTH,ComponentDrill
T4C0.800
; #@! TA.AperFunction,Plated,PTH,ComponentDrill
T5C1.000
; #@! TA.AperFunction,Plated,PTH,ComponentDrill
T6C1.100
; #@! TA.AperFunction,Plated,PTH,ComponentDrill
T7C1.320
%
G90
G05
T1
X134.75Y-99.25
X134.75Y-129.743
X135.0Y-102.5
X136.0Y-120.0
X136.5Y-104.25
X138.338Y-123.837
X140.25Y-124.5
X143.75Y-127.25
X144.75Y-101.0
X145.25Y-106.0
X150.5Y-103.5
X150.75Y-127.0
X154.0Y-106.25
X154.25Y-115.25
X154.5Y-126.5
X155.0Y-105.0
X156.0Y-130.0
X158.25Y-127.75
X159.0Y-105.5
X160.0Y-130.75
X161.0Y-93.25
X161.75Y-125.5
X164.95Y-98.55
X165.0Y-105.25
X165.25Y-100.75
X167.5Y-99.75
X171.5Y-107.5
X172.5Y-102.5
X174.75Y-109.0
X175.0Y-96.0
X176.5Y-122.25
X176.5Y-133.75
X176.75Y-104.25
X178.0Y-106.25
X178.29Y-117.54
X178.5Y-94.5
X178.75Y-101.5
X179.5Y-108.75
X181.5Y-125.0
X181.75Y-92.75
X183.0Y-97.25
X183.25Y-131.0
X183.25Y-136.5
X183.942Y-115.692
X184.25Y-114.5
X184.75Y-118.5
X185.0Y-101.5
X185.25Y-115.0
X185.25Y-127.25
X185.924Y-114.0
X186.0Y-136.5
X186.25Y-118.75
X186.25Y-134.0
X187.25Y-94.5
X187.75Y-122.0
X188.25Y-124.0
X188.25Y-126.5
X188.25Y-129.25
X188.25Y-131.75
X188.25Y-133.75
X189.0Y-94.25
T2
X142.5Y-120.5
X144.0Y-120.5
T3
X147.73Y-117.11
X147.73Y-124.11
X147.98Y-110.11
X149.0Y-115.84
X149.0Y-122.84
X149.25Y-108.84
X150.27Y-117.11
X150.27Y-124.11
X150.52Y-110.11
T4
X142.25Y-113.25
X144.25Y-113.25
X151.25Y-100.0
X151.5Y-91.75
X153.5Y-91.75
X153.75Y-100.0
X168.75Y-96.5
X170.75Y-96.5
T5
X133.94Y-113.25
X137.75Y-113.25
X138.799Y-88.2
X138.799Y-92.01
X150.5Y-134.25
X153.04Y-134.25
X155.58Y-134.25
X158.12Y-134.25
X159.945Y-113.0
X162.485Y-113.0
X163.88Y-122.75
X163.95Y-134.25
X165.025Y-113.0
X166.42Y-122.75
X166.42Y-129.75
X166.49Y-134.25
X168.96Y-122.75
X168.96Y-129.75
X169.03Y-134.25
X169.975Y-113.0
X171.5Y-122.75
X171.5Y-129.75
X171.57Y-134.25
X172.515Y-113.0
X177.695Y-112.35
X180.235Y-112.35
X182.775Y-112.35
T6
X139.13Y-131.19
X139.13Y-135.69
X145.63Y-131.19
X145.63Y-135.69
X182.0Y-103.0
X182.0Y-107.5
X188.5Y-103.0
X188.5Y-107.5
T7
X164.3Y-85.05
X169.3Y-85.05
X177.365Y-85.05
X182.365Y-85.05
T0
M30
